<svg width="17" height="22" viewBox="0 0 17 22" fill="none" xmlns="http://www.w3.org/2000/svg">
<path d="M16.143 1.00011C16.143 0.585899 15.8072 0.250113 15.393 0.250113H8.64295C8.22874 0.250113 7.89295 0.585899 7.89295 1.00011C7.89295 1.41433 8.22874 1.75011 8.64295 1.75011L14.643 1.75011L14.643 7.75011C14.643 8.16433 14.9787 8.50011 15.393 8.50011C15.8072 8.50011 16.143 8.16433 16.143 7.75011V1.00011ZM5.53033 11.9234L15.9233 1.53044L14.8626 0.469783L4.46967 10.8627L5.53033 11.9234Z" fill="#00DC65"/>
<path d="M0.630484 20.393C0.630484 20.8072 0.966271 21.143 1.38048 21.143H8.13048C8.5447 21.143 8.88048 20.8072 8.88048 20.393C8.88048 19.9787 8.5447 19.643 8.13048 19.643L2.13048 19.643L2.13048 13.643C2.13048 13.2287 1.7947 12.893 1.38048 12.893C0.966271 12.893 0.630484 13.2287 0.630484 13.643V20.393ZM11.2431 9.46967L0.850154 19.8626L1.91081 20.9233L12.3038 10.5303L11.2431 9.46967Z" fill="#00DC65"/>
</svg>
