<svg width="85" height="85" viewBox="0 0 85 85" fill="none" xmlns="http://www.w3.org/2000/svg">
<path d="M84.5 42.5C84.5 65.696 65.696 84.5 42.5 84.5C19.304 84.5 0.5 65.696 0.5 42.5C0.5 19.304 19.304 0.5 42.5 0.5C65.696 0.5 84.5 19.304 84.5 42.5Z" fill="#111239" stroke="#5855FF"/>
<path d="M46.4744 13H38.5259C38.2353 13 38 12.7536 38 12.4494V11.3379C38 11.1186 38.089 10.9097 38.2449 10.7636L42.0788 7.16854C42.3185 6.94382 42.6815 6.94382 42.9212 7.16854L46.7551 10.7636C46.9109 10.9097 47 11.1186 47 11.3379V12.4494C47 12.7536 46.7647 13 46.474 13H46.4744Z" fill="#5855FF"/>
<path d="M13 38.5256V46.474C13 46.7647 12.7536 47 12.4494 47H11.3379C11.1186 47 10.9097 46.911 10.7636 46.7551L7.16854 42.9212C6.94382 42.6815 6.94382 42.3185 7.16854 42.0788L10.7636 38.2449C10.9097 38.0891 11.1186 38 11.3379 38H12.4494C12.7536 38 13 38.2353 13 38.526V38.5256Z" fill="#5855FF"/>
<path d="M38.5256 72H46.474C46.7647 72 47 72.2464 47 72.5506V73.6621C47 73.8814 46.911 74.0903 46.7551 74.2364L42.9212 77.8315C42.6815 78.0562 42.3185 78.0562 42.0788 77.8315L38.2449 74.2364C38.0891 74.0903 38 73.8814 38 73.6621V72.5506C38 72.2464 38.2353 72 38.526 72H38.5256Z" fill="#5855FF"/>
<path d="M72 46.4744V38.5259C72 38.2353 72.2464 38 72.5506 38H73.6621C73.8814 38 74.0903 38.089 74.2364 38.2449L77.8315 42.0788C78.0562 42.3185 78.0562 42.6815 77.8315 42.9212L74.2364 46.7551C74.0903 46.9109 73.8814 47 73.6621 47H72.5506C72.2464 47 72 46.7647 72 46.474V46.4744Z" fill="#5855FF"/>
<path d="M60.1449 41.7983L58.8694 40.2857C58.5741 39.9348 58.1391 39.7326 57.6799 39.7326H53.0454C48.7492 39.7326 45.2667 36.25 45.2667 31.9538V27.3193C45.2667 26.861 45.0644 26.426 44.7135 26.1298L43.2009 24.8543C42.7955 24.5124 42.202 24.5124 41.7966 24.8543L40.284 26.1298C39.9331 26.4251 39.7308 26.8601 39.7308 27.3193V31.9538C39.7308 36.25 36.2482 39.7326 31.9521 39.7326H27.3176C26.8593 39.7326 26.4243 39.9348 26.128 40.2857L24.8526 41.7983C24.5107 42.2038 24.5107 42.7972 24.8526 43.2026L26.128 44.7152C26.4234 45.0661 26.8584 45.2684 27.3176 45.2684H31.9521C36.2482 45.2684 39.7308 48.751 39.7308 53.0471V57.6817C39.7308 58.1399 39.9331 58.5749 40.284 58.8712L41.7966 60.1466C42.202 60.4885 42.7955 60.4885 43.2009 60.1466L44.7135 58.8712C45.0644 58.5758 45.2667 58.1408 45.2667 57.6817V53.0471C45.2667 48.751 48.7492 45.2684 53.0454 45.2684H57.6799C58.1382 45.2684 58.5741 45.0661 58.8694 44.7152L60.1449 43.2026C60.4868 42.7972 60.4868 42.2038 60.1449 41.7983Z" stroke="#5855FF" stroke-miterlimit="10"/>
</svg>
