<svg width="149" height="149" viewBox="0 0 149 149" fill="none" xmlns="http://www.w3.org/2000/svg">
<circle cx="74.4995" cy="74.5092" r="74.2205" fill="url(#paint0_radial_1_2753)"/>
<path fill-rule="evenodd" clip-rule="evenodd" d="M56.8286 51.9226H94.0811C95.5046 51.9226 96.6918 52.1592 98.1152 52.8718C99.7751 53.5843 100.726 54.7729 101.199 55.7221C101.199 55.7221 101.199 55.9587 101.435 55.9587C102.147 57.1473 102.622 58.5725 102.622 60.2342C102.622 61.6594 102.386 63.0846 101.435 64.5097L77.9445 104.893C77.4691 105.842 76.5211 106.318 75.3339 106.318C74.3858 106.318 73.435 105.842 72.7232 104.893L49.7083 64.5097C49.2329 63.5605 48.2848 62.372 48.2848 60.4708C48.0485 58.8091 48.5212 57.3839 49.2329 55.9559C49.9447 54.5308 51.1318 53.3422 52.7916 52.869C54.2151 51.9198 55.8749 51.9198 56.8258 51.9198L56.8286 51.9226ZM72.4869 57.6233H56.8258C55.8777 57.6233 55.4023 57.6233 55.166 57.8599C54.6905 58.0965 54.4542 58.3359 54.2179 58.8091C53.9816 59.0457 53.9816 59.5216 53.9816 59.9976C53.9816 60.2342 54.2179 60.4736 54.6933 61.4228L72.4897 92.3061V57.6233H72.4869ZM78.1836 57.6233V92.5455L96.2163 61.4256C96.4527 60.9496 96.4527 60.4764 96.4527 60.0004C96.4527 59.5244 96.4527 59.0512 96.2163 58.8118C95.98 58.5724 95.98 58.3358 95.7409 58.3358L95.5046 58.0992C95.0292 57.8626 94.5565 57.8626 93.8448 57.8626H78.1836V57.626V57.6233Z" fill="white"/>
<defs>
<radialGradient id="paint0_radial_1_2753" cx="0" cy="0" r="1" gradientUnits="userSpaceOnUse" gradientTransform="translate(105.161 121.535) scale(83.3451)">
<stop stop-color="#02569B"/>
<stop offset="0.26" stop-color="#015BA0"/>
<stop offset="0.6" stop-color="#016CB0"/>
<stop offset="0.99" stop-color="#0087CB"/>
<stop offset="1" stop-color="#0088CC"/>
</radialGradient>
</defs>
</svg>
