<svg width="353" height="353" viewBox="0 0 353 353" fill="none" xmlns="http://www.w3.org/2000/svg">
<path d="M176.5 353C273.978 353 353 273.978 353 176.5C353 79.0217 273.978 0 176.5 0C79.0217 0 0 79.0217 0 176.5C0 273.978 79.0217 353 176.5 353Z" fill="url(#paint0_radial_1_1378)"/>
<path d="M58.538 93.1531C58.8968 93.7754 58.8514 94.5476 58.429 95.1289C43.3857 115.8 32.9117 140.009 28.5059 166.276C28.2697 167.693 26.1758 167.534 26.1758 166.094C26.1758 166.049 26.1758 166.003 26.1758 165.953C26.1758 135.858 35.1055 107.847 50.4486 84.4188C51.1889 83.2832 52.8695 83.3287 53.5462 84.5051L58.538 93.1531ZM175.205 16.9237C127.418 16.9237 84.891 39.4251 57.6159 74.399C57.1617 74.9804 57.1118 75.7843 57.4797 76.4247L62.753 85.5543C63.3798 86.6444 64.9014 86.7806 65.7099 85.8223C96.6822 48.9634 143.116 25.5309 195.031 25.5309C195.186 25.5309 195.34 25.5309 195.49 25.5309C199.996 25.5445 200.455 18.9858 195.994 18.3635C189.199 17.4142 182.259 16.9237 175.201 16.9237H175.205Z" fill="url(#paint1_radial_1_1378)"/>
<path d="M176.5 42.0322C225.204 42.0322 264.689 81.5164 264.689 130.221C264.689 178.925 225.204 218.41 176.5 218.41C127.795 218.41 88.3113 178.925 88.3113 130.221C88.3113 81.5164 127.795 42.0322 176.5 42.0322ZM176.5 38.8528C164.168 38.8528 152.2 41.2692 140.936 46.0338C130.057 50.6349 120.283 57.2254 111.894 65.6146C103.504 74.0038 96.9185 83.7738 92.3128 94.6566C87.5482 105.921 85.1318 117.889 85.1318 130.221C85.1318 142.553 87.5482 154.521 92.3128 165.785C96.914 176.663 103.504 186.438 111.894 194.827C120.283 203.216 130.053 209.802 140.936 214.408C152.2 219.173 164.168 221.589 176.5 221.589C188.832 221.589 200.8 219.173 212.064 214.408C222.943 209.807 232.717 203.216 241.106 194.827C249.495 186.438 256.081 176.668 260.687 165.785C265.452 154.521 267.868 142.553 267.868 130.221C267.868 117.889 265.452 105.921 260.687 94.6566C256.086 83.7783 249.495 74.0038 241.106 65.6146C232.717 57.2254 222.947 50.6394 212.064 46.0338C200.8 41.2692 188.832 38.8528 176.5 38.8528Z" fill="url(#paint2_linear_1_1378)"/>
<path d="M262.045 151.555C250.268 198.802 202.412 227.557 155.161 215.775C107.928 203.998 79.1726 156.138 90.9593 108.896C102.732 61.6448 150.587 32.889 197.825 44.6666C245.076 56.4442 273.827 104.308 262.045 151.555Z" fill="url(#paint3_radial_1_1378)"/>
<path d="M215.389 117.658C217.147 105.921 208.208 99.612 195.99 95.4015L199.955 79.5043L190.276 77.0925L186.415 92.5718C183.872 91.9359 181.26 91.3409 178.662 90.7459L182.55 75.1621L172.88 72.7502L168.915 88.6429C166.807 88.1615 164.741 87.6891 162.733 87.1895L162.742 87.1395L149.397 83.8056L146.822 94.1434C146.822 94.1434 154.003 95.7876 153.853 95.892C157.773 96.8686 158.482 99.4667 158.364 101.52L153.849 119.633C154.117 119.702 154.471 119.801 154.857 119.956C154.535 119.874 154.189 119.788 153.835 119.702L147.508 145.074C147.031 146.264 145.814 148.053 143.075 147.372C143.17 147.513 136.039 145.619 136.039 145.619L131.234 156.697L143.829 159.835C146.173 160.421 148.466 161.039 150.728 161.616L146.722 177.695L156.388 180.106L160.353 164.196C162.992 164.913 165.558 165.572 168.065 166.199L164.114 182.032L173.793 184.444L177.799 168.392C194.3 171.517 206.709 170.255 211.933 155.329C216.143 143.311 211.724 136.38 203.039 131.861C209.362 130.403 214.126 126.242 215.394 117.653L215.389 117.658ZM193.278 148.662C190.29 160.68 170.055 154.185 163.492 152.554L168.806 131.252C175.364 132.892 196.403 136.13 193.278 148.662ZM196.272 117.48C193.542 128.413 176.7 122.858 171.24 121.496L176.059 102.174C181.523 103.536 199.115 106.075 196.276 117.48H196.272Z" fill="white"/>
<path d="M233.81 295.585C240.612 294.017 244.993 287.826 243.594 281.756C242.195 275.687 235.546 272.038 228.743 273.606C221.941 275.174 217.56 281.365 218.959 287.435C220.358 293.504 227.007 297.153 233.81 295.585Z" fill="url(#paint4_radial_1_1378)"/>
<path d="M204.911 292.472C204.606 294.103 204.329 295.684 204.038 297.205V297.219C203.571 299.663 203.071 301.952 202.367 304.032C200.868 308.451 198.461 311.944 193.524 314.006C188.159 316.246 181.864 314.397 176.5 314.397C171.136 314.397 164.845 316.25 159.476 314.006C154.539 311.944 152.132 308.451 150.633 304.032C149.929 301.952 149.429 299.663 148.961 297.219V297.205C148.671 295.684 148.394 294.103 148.089 292.472C148.625 292.958 149.166 293.422 149.702 293.862C151.328 295.193 152.949 296.31 154.548 297.251C154.952 297.491 155.357 297.719 155.761 297.937C157.623 298.94 159.449 299.708 161.207 300.294C161.52 300.403 161.829 300.498 162.138 300.594C164.423 301.289 166.576 301.688 168.538 301.911C171.876 302.301 174.647 302.188 176.5 302.188C178.353 302.188 181.124 302.301 184.462 301.915C186.424 301.688 188.577 301.289 190.862 300.594C191.171 300.498 191.48 300.403 191.793 300.294C193.551 299.708 195.377 298.94 197.239 297.937C197.643 297.719 198.048 297.491 198.452 297.251C200.051 296.31 201.672 295.193 203.298 293.862C203.834 293.422 204.375 292.958 204.911 292.472Z" fill="url(#paint5_linear_1_1378)"/>
<path d="M186.992 318.485C186.992 321.11 180.747 324.939 175.978 324.939C171.209 324.939 164.963 321.11 164.963 318.485C164.963 315.86 186.988 315.86 186.988 318.485H186.992Z" fill="url(#paint6_linear_1_1378)"/>
<path d="M204.447 294.289C204.42 294.03 204.243 293.576 203.389 293.413C203.139 293.367 202.899 293.526 202.849 293.776C202.799 294.026 202.962 294.267 203.212 294.317C203.403 294.353 203.498 294.403 203.534 294.426C203.575 294.848 203.593 295.829 203.58 297.219C203.575 298.159 203.562 299.167 203.548 300.026C203.539 300.78 203.53 301.42 203.53 301.802C203.53 303.26 202.971 303.469 202.299 303.578C202.054 303.614 201.786 303.637 201.5 303.66C201.336 303.673 201.173 303.687 201.004 303.7C200.132 303.787 199.56 303.696 199.265 303.423C199.02 303.201 198.902 302.806 198.902 302.224C198.902 302.038 198.902 301.806 198.902 301.543C198.906 301.089 198.906 300.644 198.906 300.235C198.906 299.277 198.915 298.195 198.915 297.251C198.915 296.996 198.711 296.792 198.456 296.792C198.202 296.792 197.998 296.996 197.998 297.251C197.998 297.355 197.998 297.469 197.998 297.578C197.798 297.519 197.562 297.473 197.294 297.446C197.007 297.419 196.78 297.619 196.758 297.891C196.73 298.164 196.93 298.404 197.203 298.427C197.621 298.468 197.802 298.541 197.87 298.577C197.966 299.445 197.916 302.138 197.884 303.937C197.87 304.691 197.857 305.331 197.857 305.708C197.857 307.257 197.112 307.366 195.422 307.475C195.232 307.489 195.036 307.498 194.841 307.516C192.665 307.688 192.379 307.084 192.306 306.426L192.316 305.912C192.356 304.155 192.406 301.97 192.297 301.084C192.297 300.798 192.297 300.526 192.297 300.28C192.293 300.012 192.07 299.794 191.802 299.794H191.793C191.566 299.794 191.384 299.958 191.33 300.167C191.166 300.13 191.021 300.108 190.93 300.099C190.653 300.062 190.412 300.253 190.376 300.526C190.34 300.798 190.53 301.043 190.803 301.08C191.085 301.116 191.234 301.161 191.307 301.193C191.307 302.152 191.307 303.278 191.298 304.255C191.298 305.018 191.294 305.694 191.294 306.121C191.294 306.244 191.298 306.362 191.312 306.467V306.725C191.298 307.048 191.294 307.316 191.294 307.516C191.294 308.788 190.53 308.947 188.514 309.046C188.305 309.056 188.096 309.069 187.882 309.083C186.483 309.174 185.621 309.042 185.239 308.683C185.121 308.57 184.962 308.37 184.962 307.888C184.962 307.534 184.962 306.993 184.966 306.376C184.976 304.845 184.985 302.747 184.962 301.893C184.953 301.625 184.735 301.416 184.467 301.416C184.462 301.416 184.458 301.416 184.453 301.416C184.181 301.425 183.967 301.652 183.976 301.925C183.976 301.993 183.976 302.07 183.981 302.147C183.25 301.947 181.923 301.861 179.511 302.152C177.844 302.356 176.968 302.619 176.509 302.878C176.05 302.619 175.178 302.356 173.511 302.152C171.1 301.856 169.769 301.943 169.037 302.147C169.037 302.065 169.037 301.988 169.042 301.925L169.056 301.47L168.601 301.42C166.444 301.175 164.318 300.739 162.288 300.121L162.188 300.09L162.084 300.103C161.993 300.117 161.847 300.135 161.684 300.171C161.629 299.962 161.452 299.803 161.225 299.799H161.216C160.948 299.799 160.725 300.012 160.721 300.285C160.716 300.53 160.716 300.803 160.716 301.089C160.612 301.974 160.662 304.155 160.698 305.917L160.707 306.43C160.635 307.08 160.362 307.693 158.173 307.52C157.978 307.502 157.782 307.493 157.591 307.479C155.902 307.375 155.157 307.261 155.157 305.713C155.157 305.331 155.143 304.691 155.13 303.941C155.098 302.143 155.048 299.454 155.143 298.582C155.211 298.545 155.393 298.473 155.811 298.432C156.083 298.404 156.283 298.164 156.256 297.896C156.229 297.623 156.002 297.423 155.72 297.451C155.448 297.478 155.216 297.523 155.016 297.582C155.016 297.473 155.016 297.36 155.016 297.255C155.016 297.001 154.812 296.797 154.557 296.797C154.303 296.797 154.099 297.001 154.099 297.255C154.099 298.2 154.099 299.29 154.108 300.248C154.108 300.657 154.108 301.093 154.112 301.543C154.112 301.806 154.112 302.043 154.112 302.229C154.112 302.815 153.994 303.205 153.749 303.428C153.449 303.7 152.881 303.791 152.009 303.705C151.846 303.687 151.678 303.673 151.514 303.664C151.233 303.641 150.96 303.619 150.719 303.582C150.043 303.473 149.484 303.264 149.484 301.806C149.484 301.425 149.475 300.789 149.466 300.04C149.452 299.172 149.438 298.155 149.434 297.201C149.42 295.829 149.434 294.848 149.475 294.426C149.511 294.398 149.611 294.353 149.797 294.312C150.047 294.262 150.211 294.021 150.161 293.772C150.111 293.522 149.87 293.358 149.62 293.408C148.807 293.567 148.594 293.971 148.562 294.285C148.512 294.734 148.494 295.716 148.507 297.205C148.512 298.155 148.525 299.177 148.539 300.049C148.548 300.794 148.557 301.42 148.557 301.802C148.557 303.433 149.175 304.259 150.569 304.486C150.851 304.532 151.146 304.554 151.437 304.577C151.596 304.591 151.755 304.6 151.914 304.618C152.15 304.641 152.373 304.654 152.577 304.654C153.222 304.654 153.717 304.532 154.094 304.295C154.094 305.154 154.094 306.121 154.099 307.003C154.099 307.498 154.099 308.047 154.103 308.615C154.103 308.838 154.103 309.042 154.103 309.205C154.103 309.651 154.03 309.996 153.881 310.227C153.744 310.441 153.812 310.727 154.026 310.863C154.067 310.886 154.108 310.904 154.149 310.918C154.185 311.154 154.385 311.336 154.63 311.336H154.639C154.912 311.331 155.13 311.104 155.125 310.832V310.695C155.107 309.81 155.089 308.792 155.084 307.879C155.761 308.352 156.697 308.411 157.528 308.465C157.714 308.479 157.9 308.488 158.091 308.506C158.295 308.524 158.577 308.547 158.895 308.547C159.472 308.547 160.158 308.47 160.712 308.147C160.712 308.252 160.712 308.361 160.712 308.474C160.68 309.178 160.694 310.227 160.721 311.195C160.721 311.272 160.721 311.349 160.721 311.427C160.721 312.117 160.725 312.721 160.725 313.116V313.162C160.721 313.607 160.621 313.925 160.421 314.129C160.23 314.324 160.235 314.638 160.43 314.829C160.526 314.919 160.648 314.969 160.775 314.969C160.903 314.969 161.034 314.919 161.13 314.819C161.18 314.765 161.221 314.706 161.266 314.647C161.956 315.328 163.255 315.383 164.445 315.428C164.654 315.437 164.863 315.446 165.072 315.455C165.381 315.474 165.667 315.483 165.931 315.483C167.239 315.483 168.029 315.274 168.511 314.819C168.556 314.779 168.588 314.729 168.629 314.683C169.31 315.319 170.732 315.364 172.122 315.405C172.344 315.41 172.571 315.419 172.803 315.428C173.134 315.442 173.443 315.446 173.725 315.446C175.196 315.446 176.037 315.265 176.514 314.86C176.991 315.265 177.831 315.446 179.303 315.446C179.584 315.446 179.893 315.442 180.225 315.428C180.452 315.419 180.679 315.41 180.906 315.405C182.296 315.364 183.717 315.319 184.399 314.683C184.435 314.729 184.471 314.779 184.517 314.819C184.994 315.274 185.789 315.483 187.097 315.483C187.36 315.483 187.646 315.474 187.955 315.455C188.164 315.446 188.378 315.437 188.582 315.428C189.772 315.378 191.071 315.324 191.761 314.647C191.807 314.706 191.843 314.765 191.898 314.819C191.993 314.919 192.125 314.969 192.252 314.969C192.379 314.969 192.502 314.924 192.597 314.829C192.792 314.638 192.797 314.324 192.606 314.129C192.406 313.925 192.306 313.607 192.302 313.171V313.116C192.302 312.721 192.302 312.112 192.306 311.417C192.306 311.345 192.306 311.272 192.306 311.199C192.329 310.232 192.347 309.183 192.316 308.479C192.316 308.365 192.316 308.256 192.316 308.152C192.87 308.474 193.56 308.551 194.137 308.551C194.45 308.551 194.732 308.529 194.936 308.511C195.127 308.497 195.313 308.483 195.5 308.47C196.326 308.42 197.266 308.356 197.943 307.884C197.939 308.81 197.92 309.841 197.902 310.741V310.836C197.898 311.109 198.111 311.336 198.384 311.34H198.393C198.638 311.34 198.833 311.159 198.874 310.922C198.915 310.909 198.961 310.895 198.997 310.868C199.21 310.732 199.278 310.45 199.142 310.232C198.997 310 198.924 309.655 198.924 309.21C198.924 309.051 198.924 308.851 198.924 308.638C198.929 308.061 198.933 307.502 198.929 307.003C198.929 306.121 198.933 305.158 198.933 304.3C199.315 304.536 199.805 304.654 200.45 304.654C200.659 304.654 200.877 304.641 201.118 304.618C201.277 304.6 201.436 304.591 201.595 304.577C201.886 304.554 202.181 304.532 202.467 304.486C203.857 304.259 204.475 303.433 204.475 301.802C204.475 301.42 204.484 300.784 204.493 300.035C204.506 299.172 204.52 298.159 204.525 297.21C204.543 295.72 204.525 294.734 204.47 294.289H204.447ZM183.931 303.101C184.026 303.823 183.972 305.849 183.931 307.216C183.913 307.811 183.899 308.32 183.899 308.62C183.899 309.691 183.018 309.832 180.856 309.923C180.629 309.932 180.397 309.941 180.165 309.955C178.535 310.041 177.558 309.905 177.168 309.532C177.104 309.473 177.027 309.374 176.986 309.205C176.995 309.119 177.009 309.037 177.009 308.947C177.009 308.629 177.009 308.134 177.004 307.575C176.995 306.239 176.986 304.427 177.009 303.696C177.94 303.128 183 302.683 183.931 303.101ZM175.996 303.696C176.019 304.427 176.01 306.239 175.996 307.575C175.996 308.138 175.991 308.629 175.991 308.947C175.991 309.037 176.005 309.119 176.014 309.205C175.973 309.374 175.896 309.469 175.832 309.532C175.442 309.905 174.461 310.041 172.835 309.955C172.603 309.941 172.371 309.932 172.144 309.923C169.982 309.837 169.101 309.691 169.101 308.62C169.101 308.32 169.087 307.811 169.069 307.216C169.033 305.849 168.974 303.823 169.069 303.101C170 302.683 175.06 303.133 175.991 303.696H175.996ZM162.102 301.098C164.014 301.675 166.008 302.093 168.038 302.347C168.025 303.355 168.038 305.072 168.038 306.38C168.038 306.998 168.043 307.539 168.043 307.893C168.043 308.374 167.884 308.574 167.766 308.688C167.384 309.046 166.517 309.174 165.122 309.087C164.909 309.074 164.7 309.065 164.491 309.051C162.474 308.951 161.711 308.792 161.711 307.52C161.711 307.307 161.707 307.003 161.697 306.639V306.453C161.702 306.349 161.711 306.244 161.711 306.13C161.711 305.699 161.711 305.027 161.707 304.264C161.707 303.287 161.697 302.165 161.697 301.202C161.761 301.175 161.884 301.134 162.102 301.102V301.098ZM167.884 314.156C167.52 314.501 166.612 314.629 165.113 314.547C164.9 314.533 164.686 314.529 164.473 314.52C162.629 314.442 161.797 314.324 161.675 313.516C161.688 313.402 161.702 313.289 161.702 313.162V313.107C161.702 312.712 161.702 312.108 161.697 311.417C161.697 310.818 161.693 310.155 161.693 309.501C162.424 309.937 163.464 309.991 164.436 310.037C164.641 310.046 164.845 310.055 165.054 310.068C165.358 310.087 165.635 310.096 165.899 310.096C166.871 310.096 167.57 309.955 168.07 309.669C168.07 310.459 168.07 311.463 168.079 312.317C168.079 312.839 168.084 313.298 168.084 313.598C168.084 313.92 167.966 314.07 167.879 314.152L167.884 314.156ZM172.821 314.588C172.589 314.579 172.362 314.57 172.135 314.565C170.205 314.506 169.033 314.415 169.033 313.657C169.033 313.43 169.019 313.053 169.001 312.607C168.992 312.394 168.983 312.149 168.974 311.894C168.974 311.363 168.969 310.8 168.969 310.282C169.755 310.786 170.972 310.836 172.099 310.881C172.321 310.891 172.548 310.9 172.776 310.913C173.107 310.931 173.416 310.941 173.698 310.941C174.783 310.941 175.542 310.809 176.069 310.527C176.073 311.181 176.069 312.131 176.059 312.88C176.059 313.298 176.055 313.661 176.055 313.902C176.055 313.966 176.064 314.02 176.073 314.079C176.055 314.12 176.028 314.161 175.991 314.193C175.474 314.692 173.475 314.611 172.821 314.588ZM183.967 313.657C183.967 314.415 182.795 314.506 180.865 314.565C180.638 314.574 180.411 314.579 180.179 314.588C179.525 314.615 177.527 314.692 177.009 314.193C176.972 314.156 176.95 314.12 176.927 314.079C176.936 314.02 176.945 313.961 176.945 313.902C176.945 313.666 176.945 313.298 176.941 312.88C176.936 312.131 176.927 311.181 176.932 310.527C177.458 310.809 178.212 310.941 179.303 310.941C179.589 310.941 179.893 310.931 180.225 310.913C180.452 310.9 180.679 310.891 180.901 310.881C182.032 310.836 183.25 310.782 184.031 310.282C184.031 310.804 184.031 311.367 184.026 311.899C184.017 312.153 184.008 312.394 183.999 312.607C183.981 313.053 183.967 313.43 183.967 313.657ZM188.523 314.52C188.314 314.529 188.1 314.538 187.882 314.547C186.384 314.629 185.475 314.501 185.112 314.156C185.025 314.075 184.907 313.925 184.907 313.602C184.907 313.302 184.907 312.839 184.912 312.308C184.916 311.458 184.921 310.459 184.921 309.673C185.421 309.959 186.12 310.1 187.092 310.1C187.356 310.1 187.633 310.091 187.937 310.073C188.146 310.059 188.35 310.05 188.555 310.041C189.522 309.991 190.562 309.941 191.298 309.501C191.298 310.15 191.298 310.809 191.294 311.408C191.294 312.103 191.289 312.712 191.289 313.112V313.175C191.289 313.298 191.307 313.411 191.316 313.52C191.198 314.329 190.362 314.452 188.523 314.524V314.52Z" fill="#AD986D"/>
<path d="M153.967 292.205C160.939 297.174 169.482 297.764 177.794 297.605C184.013 297.623 190.317 297.205 195.976 294.494C197.852 293.617 199.601 292.473 201.241 291.16C199.796 292.682 198.12 294.008 196.276 295.062C190.726 298.286 184.067 298.959 177.799 298.954C169.492 299.154 160.262 298.164 153.967 292.2V292.205Z" fill="#D1A434"/>
<path d="M241.851 256.472C241.851 269.726 231.105 280.472 217.851 280.472C204.597 280.472 193.851 269.726 193.851 256.472C193.851 250.363 196.135 244.785 199.896 240.548C204.293 235.592 224.628 232.358 231.086 236.451C237.572 240.747 241.851 248.11 241.851 256.472Z" fill="url(#paint7_linear_1_1378)"/>
<path d="M216.188 281.413C226.232 281.413 234.375 273.531 234.375 263.808C234.375 254.085 226.232 246.203 216.188 246.203C206.144 246.203 198.002 254.085 198.002 263.808C198.002 273.531 206.144 281.413 216.188 281.413Z" fill="url(#paint8_linear_1_1378)"/>
<path d="M215.666 277.388C224.278 277.388 231.259 270.407 231.259 261.795C231.259 253.184 224.278 246.203 215.666 246.203C207.055 246.203 200.073 253.184 200.073 261.795C200.073 270.407 207.055 277.388 215.666 277.388Z" fill="url(#paint9_radial_1_1378)"/>
<path d="M215.666 278.074C206.691 278.074 199.388 270.77 199.388 261.795C199.388 252.82 206.691 245.517 215.666 245.517C224.642 245.517 231.945 252.82 231.945 261.795C231.945 270.77 224.642 278.074 215.666 278.074ZM215.666 246.893C207.45 246.893 200.764 253.579 200.764 261.795C200.764 270.012 207.45 276.698 215.666 276.698C223.883 276.698 230.569 270.012 230.569 261.795C230.569 253.579 223.883 246.893 215.666 246.893Z" fill="#5B3B07"/>
<path d="M214.363 263.717C217.94 263.717 220.84 260.817 220.84 257.24C220.84 253.663 217.94 250.763 214.363 250.763C210.786 250.763 207.886 253.663 207.886 257.24C207.886 260.817 210.786 263.717 214.363 263.717Z" fill="#5B3B07"/>
<path d="M237.713 228.207C234.479 224.796 231.977 223.946 227.348 224.555C223.37 225.005 219.427 225.918 215.494 226.713C212.855 227.235 210.22 227.807 207.554 228.234L207.527 228.098C210.139 227.453 212.732 226.731 215.33 226.027C217.933 225.336 220.54 224.655 223.17 224.028C225.854 223.42 228.557 222.652 231.373 223.097C234.234 223.483 236.537 225.672 237.827 228.121L237.718 228.202L237.713 228.207Z" fill="#F4E5C1"/>
<path d="M197.193 243.296C194.986 243.009 193.219 241.983 192.583 239.757C191.688 236.628 193.687 233.812 196.707 233.68C202.103 233.444 209.498 230.196 218.191 228.602C232.34 226.004 233.103 228.239 236.205 231.432C240.089 235.424 239.285 245.73 239.344 245.78C239.171 245.63 234.375 233.912 219.831 237.641C212.069 239.63 200.078 243.673 197.193 243.296Z" fill="#5B3B07"/>
<path d="M134.065 287.48C135.464 281.41 131.083 275.219 124.28 273.651C117.478 272.083 110.829 275.732 109.43 281.801C108.031 287.871 112.411 294.062 119.214 295.63C126.017 297.198 132.666 293.549 134.065 287.48Z" fill="url(#paint10_radial_1_1378)"/>
<path d="M111.149 256.472C111.149 269.726 121.895 280.472 135.149 280.472C148.403 280.472 159.149 269.726 159.149 256.472C159.149 250.363 156.865 244.785 153.104 240.548C148.707 235.592 128.372 232.358 121.914 236.451C115.428 240.747 111.149 248.11 111.149 256.472Z" fill="url(#paint11_linear_1_1378)"/>
<path d="M136.816 281.413C146.86 281.413 155.002 273.531 155.002 263.808C155.002 254.085 146.86 246.203 136.816 246.203C126.772 246.203 118.629 254.085 118.629 263.808C118.629 273.531 126.772 281.413 136.816 281.413Z" fill="url(#paint12_linear_1_1378)"/>
<path d="M137.334 277.388C145.946 277.388 152.927 270.407 152.927 261.795C152.927 253.184 145.946 246.203 137.334 246.203C128.722 246.203 121.741 253.184 121.741 261.795C121.741 270.407 128.722 277.388 137.334 277.388Z" fill="url(#paint13_radial_1_1378)"/>
<path d="M137.334 278.074C128.359 278.074 121.055 270.77 121.055 261.795C121.055 252.82 128.359 245.517 137.334 245.517C146.309 245.517 153.613 252.82 153.613 261.795C153.613 270.77 146.309 278.074 137.334 278.074ZM137.334 246.893C129.117 246.893 122.431 253.579 122.431 261.795C122.431 270.012 129.117 276.698 137.334 276.698C145.551 276.698 152.236 270.012 152.236 261.795C152.236 253.579 145.551 246.893 137.334 246.893Z" fill="#5B3B07"/>
<path d="M138.637 263.717C142.214 263.717 145.114 260.817 145.114 257.24C145.114 253.663 142.214 250.763 138.637 250.763C135.06 250.763 132.16 253.663 132.16 257.24C132.16 260.817 135.06 263.717 138.637 263.717Z" fill="#5B3B07"/>
<path d="M115.178 228.125C117.453 223.846 121.151 222.325 125.838 223.183C129.849 223.915 133.741 225.018 137.675 226.027C140.273 226.731 142.866 227.448 145.478 228.098L145.451 228.234C142.789 227.807 140.155 227.235 137.511 226.712C134.877 226.163 132.242 225.618 129.603 225.141C127.042 224.705 124.375 224.242 121.814 224.446C119.179 224.637 117.099 226.354 115.287 228.207L115.178 228.125Z" fill="#F4E5C1"/>
<path d="M155.811 243.296C158.018 243.009 159.785 241.983 160.421 239.757C161.316 236.628 159.317 233.812 156.297 233.68C150.901 233.444 143.506 230.196 134.813 228.602C120.664 226.004 119.901 228.239 116.799 231.432C112.916 235.424 113.72 245.73 113.661 245.78C113.833 245.63 118.63 233.912 133.173 237.641C140.936 239.63 152.927 243.673 155.811 243.296Z" fill="#5B3B07"/>
<path d="M210.579 256.2C203.812 256.999 196.213 256.799 190.013 259.956C189.958 259.988 189.904 260.029 189.849 260.065C185.444 261.677 181.81 262.767 177.086 262.304C176.827 262.304 176.7 262.3 176.446 262.3C176.191 262.3 176.06 262.3 175.805 262.304C172.299 262.359 168.665 262.708 163.61 259.801C163.56 259.765 163.51 259.724 163.46 259.688C157.66 256.313 150.451 256.204 143.965 255.432C132.565 254.542 121.346 255.704 110.018 256.954C110.704 259.088 111.176 260.078 111.962 262.15C111.962 262.15 115.232 262.468 116.704 265.624C118.489 270.053 121.119 274.159 123.553 278.242C128.432 286.168 137.693 289.538 146.686 289.288C154.68 288.975 164.25 286.114 166.312 277.288C166.553 276.189 169.265 275.653 170.023 273.736C171.159 270.866 172.898 267.537 176.45 267.537C180.007 267.537 181.724 270.857 182.868 273.732C183.631 275.653 186.343 276.185 186.584 277.284C188.65 286.109 198.22 288.971 206.21 289.284C215.48 289.543 224.037 286.059 229.261 278.229C231.977 274.054 234.975 269.88 237.305 265.461C239.122 261.968 241.965 261.596 241.965 261.596C242.469 259.374 242.574 258.339 242.982 256.168C232.177 255.01 221.385 255.128 210.579 256.2ZM184.085 270.198C182.905 267.895 181.428 266.714 179.63 265.974C178.158 265.37 177.377 265.375 176.446 265.375C175.519 265.375 174.747 265.365 173.307 265.956C171.545 266.678 170.1 267.841 168.87 270.171C168.288 271.27 167.539 271.724 166.994 271.911C167.075 268.954 166.739 265.824 165.895 263.385C169.555 264.675 172.594 264.552 175.183 264.498C175.401 264.493 175.61 264.489 175.823 264.484C176.073 264.484 176.2 264.48 176.45 264.48C176.7 264.48 176.827 264.48 177.082 264.489C177.295 264.489 177.509 264.498 177.727 264.507C180.356 264.58 183.518 264.761 187.419 263.585C186.525 266.001 186.148 271.792 185.943 271.933C185.857 271.997 184.649 271.293 184.09 270.203L184.085 270.198Z" fill="url(#paint14_radial_1_1378)"/>
<path d="M187.474 267.918C187.474 267.918 185.789 268.222 184.617 266.192C183.24 263.812 181.687 262.708 179.816 262.041C178.29 261.496 177.477 261.514 176.5 261.514C175.523 261.514 174.71 261.496 173.184 262.041C171.313 262.708 169.76 263.812 168.383 266.192C167.211 268.222 165.526 267.918 165.526 267.918L165.349 273.841C165.658 272.615 168.638 272.36 169.519 270.266C170.813 267.191 172.73 263.807 176.505 263.807C180.279 263.807 182.196 267.191 183.49 270.266C184.371 272.356 187.351 272.61 187.66 273.841L187.483 267.918H187.474Z" fill="#442B0D"/>
<path d="M190.204 254.246C184.853 258.325 180.942 258.307 177.163 258.293H176.496H175.828C172.053 258.307 168.138 258.325 162.788 254.246L161.411 256.054C167.025 260.333 171.513 260.569 175.165 260.569C175.392 260.569 175.614 260.569 175.837 260.569H176.496H177.154C177.377 260.569 177.599 260.569 177.826 260.569C181.478 260.569 185.966 260.337 191.58 256.054L190.204 254.246Z" fill="url(#paint15_linear_1_1378)"/>
<path d="M234.375 272.133C231.159 280.345 223.324 285.373 210.57 285.373C197.816 285.373 190.272 282.998 187.66 273.836C185.92 267.741 186.197 257.526 189.84 254.487C193.873 251.121 201.69 249.223 209.094 248.292C224.519 246.361 241.538 248.292 241.538 248.292V253.756C241.538 253.756 238.531 254.233 237.886 257.53C237.196 261.05 236.678 266.269 234.38 272.133H234.375Z" fill="url(#paint16_linear_1_1378)"/>
<path d="M232.967 271.402C229.928 278.964 222.538 283.597 210.493 283.597C198.447 283.597 191.33 281.408 188.863 272.973C187.224 267.359 187.483 257.948 190.921 255.155C194.727 252.057 202.104 250.304 209.094 249.45C223.651 247.67 237.105 250.027 237.105 250.027C237.105 250.027 236.882 254.919 236.274 257.957C235.624 261.2 235.133 266.006 232.967 271.406V271.402Z" fill="url(#paint17_linear_1_1378)"/>
<path d="M118.63 272.133C121.845 280.345 129.68 285.373 142.435 285.373C155.189 285.373 162.733 282.998 165.345 273.836C167.084 267.741 166.807 257.526 163.165 254.487C159.131 251.121 151.314 249.223 143.911 248.292C128.486 246.361 111.467 248.292 111.467 248.292V253.756C111.467 253.756 114.474 254.233 115.119 257.53C115.809 261.05 116.327 266.269 118.625 272.133H118.63Z" fill="url(#paint18_linear_1_1378)"/>
<path d="M164.137 272.973C161.67 281.408 154.553 283.597 142.507 283.597C131.284 283.597 124.098 279.573 120.719 272.905C120.469 272.419 120.242 271.915 120.038 271.402C120.024 271.37 120.01 271.334 119.997 271.302C117.862 265.947 117.371 261.182 116.726 257.957C116.118 254.919 115.895 250.022 115.895 250.022C115.895 250.022 123.662 248.664 133.786 248.791C134.277 248.796 134.772 248.805 135.272 248.823C138.033 248.896 140.949 249.087 143.906 249.445C150.896 250.299 158.273 252.053 162.079 255.15C165.517 257.948 165.776 267.355 164.137 272.973Z" fill="url(#paint19_linear_1_1378)"/>
<path d="M223.124 249.459L206.932 282.88C201.504 282.621 197.316 281.69 194.341 279.559L208.594 250.14C208.803 250.109 209.012 250.086 209.217 250.059C214.158 249.455 218.964 249.346 223.124 249.459ZM227.167 249.641L211.024 282.957C213.477 282.934 215.725 282.707 217.769 282.289H217.774L233.317 250.204C231.768 250.013 229.66 249.795 227.167 249.641ZM203.139 251.049L191.076 275.944C191.353 276.439 191.666 276.902 192.007 277.334L204.906 250.704C204.311 250.808 203.721 250.926 203.139 251.049Z" fill="url(#paint20_linear_1_1378)"/>
<path d="M199.356 251.335C211.347 247.842 224.859 247.924 237.105 250.045C235.533 249.836 233.962 249.659 232.381 249.527C221.376 248.596 210.139 248.746 199.356 251.335Z" fill="#C6AF99"/>
<path d="M153.649 251.335C141.658 247.842 128.145 247.924 115.9 250.045C117.471 249.836 119.043 249.659 120.624 249.527C131.629 248.596 142.866 248.746 153.649 251.335Z" fill="#C6AF99"/>
<path d="M149.67 251.008L134.577 282.148C129.694 281.045 126.006 278.842 123.471 275.771L136.212 249.477C138.651 249.564 141.199 249.741 143.784 250.059C145.746 250.295 147.74 250.608 149.67 251.008ZM153.363 251.907L138.41 282.766C139.687 282.898 141.027 282.961 142.435 282.961C143.229 282.961 144.006 282.952 144.756 282.93L158.791 253.96L153.363 251.907ZM125.752 263.821C125.992 264.852 126.151 265.533 126.81 265.611C127.023 265.638 127.423 265.597 127.7 265.038C128.186 264.062 132.683 254.396 134.981 249.445C134.477 249.432 133.982 249.423 133.491 249.423C131.547 253.611 128.345 260.492 127.028 263.29C126.778 262.236 126.542 261.427 125.824 261.323C125.529 261.282 125.093 261.364 124.721 262.022C124.28 262.795 122.127 267.06 120.46 270.38C120.565 270.652 120.669 270.934 120.783 271.211C120.896 271.497 121.019 271.774 121.146 272.051C122.618 269.122 124.761 264.857 125.611 263.24C125.665 263.449 125.715 263.662 125.752 263.821Z" fill="url(#paint21_linear_1_1378)"/>
<path d="M165.872 317.172C163.455 317.172 161.007 316.877 158.682 315.905C149.566 312.094 148.121 304.141 146.445 294.93C146.323 294.244 146.196 293.554 146.064 292.85L144.942 286.836L149.475 290.942C159.781 300.28 169.978 300.185 175.455 300.13C176.205 300.121 176.8 300.121 177.549 300.13C193.233 300.285 199.928 294.203 203.53 290.942L208.063 286.836L206.941 292.85C206.809 293.554 206.682 294.244 206.56 294.93C204.888 304.141 203.439 312.094 194.323 315.905C190.117 317.663 185.498 317.199 181.419 316.795C179.68 316.623 178.04 316.459 176.505 316.459C174.969 316.459 173.33 316.623 171.59 316.795C169.764 316.977 167.834 317.172 165.876 317.172H165.872ZM151.119 297.505C152.486 304.477 154.153 309.546 160.271 312.103C163.519 313.461 167.411 313.071 171.177 312.694C172.939 312.517 174.761 312.335 176.5 312.335C178.24 312.335 180.061 312.517 181.823 312.694C185.589 313.071 189.481 313.457 192.729 312.103C198.852 309.546 200.519 304.477 201.881 297.505C191.902 304.395 182.4 304.305 177.508 304.255C176.786 304.246 176.214 304.246 175.496 304.255C170.6 304.3 161.098 304.391 151.119 297.505Z" fill="url(#paint22_linear_1_1378)"/>
<path d="M154.221 313.443C161.184 318.676 168.769 316 176.704 315.887C182.545 315.946 188.332 317.69 193.982 315.86C195.813 315.278 197.543 314.365 199.083 313.175C197.503 314.692 195.513 315.796 193.442 316.541C188.023 318.321 182.168 316.854 176.7 316.795C168.783 316.886 160.884 319.384 154.226 313.443H154.221Z" fill="#876323"/>
<path d="M210.157 292.295C209.557 292.295 209.053 291.823 209.021 291.219C208.976 290.369 208.485 289.525 207.631 288.843C206.459 287.908 204.87 287.472 203.48 287.712C202.862 287.821 202.276 287.404 202.167 286.786C202.063 286.168 202.476 285.582 203.094 285.473C205.101 285.128 207.381 285.737 209.048 287.067C210.415 288.162 211.21 289.593 211.287 291.101C211.319 291.728 210.838 292.259 210.211 292.295C210.193 292.295 210.17 292.295 210.152 292.295H210.157Z" fill="#8E671A"/>
<path d="M142.843 292.295C143.443 292.295 143.947 291.823 143.979 291.219C144.024 290.369 144.515 289.525 145.369 288.843C146.541 287.908 148.13 287.472 149.52 287.712C150.138 287.821 150.724 287.404 150.833 286.786C150.937 286.168 150.524 285.582 149.906 285.473C147.899 285.128 145.619 285.737 143.952 287.067C142.584 288.162 141.79 289.593 141.712 291.101C141.681 291.728 142.162 292.259 142.789 292.295C142.807 292.295 142.83 292.295 142.848 292.295H142.843Z" fill="#8E671A"/>
<defs>
<radialGradient id="paint0_radial_1_1378" cx="0" cy="0" r="1" gradientUnits="userSpaceOnUse" gradientTransform="translate(160.348 125.155) rotate(77.35) scale(228.988 199.22)">
<stop stop-color="#FFF9D9"/>
<stop offset="0.06" stop-color="#FFF6D0"/>
<stop offset="0.14" stop-color="#FFEFBA"/>
<stop offset="0.25" stop-color="#FFE496"/>
<stop offset="0.3" stop-color="#FFDE83"/>
<stop offset="0.38" stop-color="#F9D87E"/>
<stop offset="0.49" stop-color="#EBC771"/>
<stop offset="0.62" stop-color="#D2AC5B"/>
<stop offset="0.75" stop-color="#B0863D"/>
<stop offset="0.78" stop-color="#A87D36"/>
<stop offset="0.82" stop-color="#A77C39"/>
<stop offset="0.86" stop-color="#A57C42"/>
<stop offset="0.88" stop-color="#A17B53"/>
<stop offset="0.91" stop-color="#9C796A"/>
<stop offset="0.93" stop-color="#967888"/>
<stop offset="0.96" stop-color="#8E75AD"/>
<stop offset="0.98" stop-color="#8673D8"/>
<stop offset="1" stop-color="#7E71FF"/>
</radialGradient>
<radialGradient id="paint1_radial_1_1378" cx="0" cy="0" r="1" gradientUnits="userSpaceOnUse" gradientTransform="translate(86.4272 50.6603) rotate(52.19) scale(133.687 133.687)">
<stop stop-color="#FFFEF3"/>
<stop offset="0.93" stop-color="#E8C56F"/>
</radialGradient>
<linearGradient id="paint2_linear_1_1378" x1="176.5" y1="38.8528" x2="176.5" y2="221.589" gradientUnits="userSpaceOnUse">
<stop stop-color="#FFE79C"/>
<stop offset="0.16" stop-color="#FBE296"/>
<stop offset="0.36" stop-color="#F0D585"/>
<stop offset="0.59" stop-color="#DFBF6A"/>
<stop offset="0.85" stop-color="#C8A044"/>
<stop offset="1" stop-color="#B78B2A"/>
</linearGradient>
<radialGradient id="paint3_radial_1_1378" cx="0" cy="0" r="1" gradientUnits="userSpaceOnUse" gradientTransform="translate(208.644 177.14) scale(88.1887 88.1887)">
<stop stop-color="#CE6700"/>
<stop offset="1" stop-color="#F7931A"/>
</radialGradient>
<radialGradient id="paint4_radial_1_1378" cx="0" cy="0" r="1" gradientUnits="userSpaceOnUse" gradientTransform="translate(231.332 284.926) rotate(-13.01) scale(13.2083 12.5479)">
<stop offset="0.39" stop-color="#B27C10"/>
<stop offset="0.56" stop-color="#BB871D"/>
<stop offset="0.75" stop-color="#C99732"/>
<stop offset="0.79" stop-color="#CB9A36"/>
<stop offset="0.84" stop-color="#D2A344"/>
<stop offset="0.89" stop-color="#DDB25B"/>
<stop offset="0.95" stop-color="#EDC77B"/>
<stop offset="1" stop-color="#FFDF9F"/>
</radialGradient>
<linearGradient id="paint5_linear_1_1378" x1="148.089" y1="303.796" x2="204.911" y2="303.796" gradientUnits="userSpaceOnUse">
<stop stop-color="#FFE79C"/>
<stop offset="0.03" stop-color="#FFE8A3"/>
<stop offset="0.16" stop-color="#FFF0C3"/>
<stop offset="0.28" stop-color="#FFF5DB"/>
<stop offset="0.4" stop-color="#FFF8E9"/>
<stop offset="0.5" stop-color="#FFFAEE"/>
<stop offset="0.61" stop-color="#FFF9E9"/>
<stop offset="0.72" stop-color="#FFF6DD"/>
<stop offset="0.83" stop-color="#FFF1C8"/>
<stop offset="0.95" stop-color="#FFEAAB"/>
<stop offset="1" stop-color="#FFE79C"/>
</linearGradient>
<linearGradient id="paint6_linear_1_1378" x1="176.064" y1="323.84" x2="175.964" y2="317.486" gradientUnits="userSpaceOnUse">
<stop stop-color="#A47C48"/>
<stop offset="0.24" stop-color="#9A7542"/>
<stop offset="1" stop-color="#7F6332"/>
</linearGradient>
<linearGradient id="paint7_linear_1_1378" x1="220.308" y1="268.945" x2="214.045" y2="237.123" gradientUnits="userSpaceOnUse">
<stop stop-color="#B78B2A"/>
<stop offset="0.79" stop-color="#997325"/>
</linearGradient>
<linearGradient id="paint8_linear_1_1378" x1="216.656" y1="266.633" x2="218.909" y2="280.141" gradientUnits="userSpaceOnUse">
<stop stop-color="#E2B866"/>
<stop offset="0.1" stop-color="#D3AA59"/>
<stop offset="0.32" stop-color="#B89143"/>
<stop offset="0.54" stop-color="#A57F33"/>
<stop offset="0.76" stop-color="#99742A"/>
<stop offset="1" stop-color="#967127"/>
</linearGradient>
<radialGradient id="paint9_radial_1_1378" cx="0" cy="0" r="1" gradientUnits="userSpaceOnUse" gradientTransform="translate(209.971 257.094) scale(20.7936 20.7936)">
<stop stop-color="#FFFCF5"/>
<stop offset="0.19" stop-color="#FFFAF0"/>
<stop offset="0.39" stop-color="#FFF7E3"/>
<stop offset="0.6" stop-color="#FFF2CD"/>
<stop offset="0.81" stop-color="#FFEBAE"/>
<stop offset="0.93" stop-color="#FFE79C"/>
</radialGradient>
<radialGradient id="paint10_radial_1_1378" cx="0" cy="0" r="1" gradientUnits="userSpaceOnUse" gradientTransform="translate(121.395 285.671) rotate(-166.99) scale(13.2083 12.5479)">
<stop offset="0.39" stop-color="#B27C10"/>
<stop offset="0.56" stop-color="#BB871D"/>
<stop offset="0.75" stop-color="#C99732"/>
<stop offset="0.79" stop-color="#CB9A36"/>
<stop offset="0.84" stop-color="#D2A344"/>
<stop offset="0.89" stop-color="#DDB25B"/>
<stop offset="0.95" stop-color="#EDC77B"/>
<stop offset="1" stop-color="#FFDF9F"/>
</radialGradient>
<linearGradient id="paint11_linear_1_1378" x1="132.696" y1="268.945" x2="138.96" y2="237.123" gradientUnits="userSpaceOnUse">
<stop stop-color="#B78B2A"/>
<stop offset="0.79" stop-color="#997325"/>
</linearGradient>
<linearGradient id="paint12_linear_1_1378" x1="136.343" y1="266.633" x2="134.095" y2="280.141" gradientUnits="userSpaceOnUse">
<stop stop-color="#E2B866"/>
<stop offset="0.1" stop-color="#D3AA59"/>
<stop offset="0.32" stop-color="#B89143"/>
<stop offset="0.54" stop-color="#A57F33"/>
<stop offset="0.76" stop-color="#99742A"/>
<stop offset="1" stop-color="#967127"/>
</linearGradient>
<radialGradient id="paint13_radial_1_1378" cx="0" cy="0" r="1" gradientUnits="userSpaceOnUse" gradientTransform="translate(143.034 257.094) rotate(180) scale(20.7936 20.7936)">
<stop stop-color="#FFFCF5"/>
<stop offset="0.19" stop-color="#FFFAF0"/>
<stop offset="0.39" stop-color="#FFF7E3"/>
<stop offset="0.6" stop-color="#FFF2CD"/>
<stop offset="0.81" stop-color="#FFEBAE"/>
<stop offset="0.93" stop-color="#FFE79C"/>
</radialGradient>
<radialGradient id="paint14_radial_1_1378" cx="0" cy="0" r="1" gradientUnits="userSpaceOnUse" gradientTransform="translate(176.5 272.206) scale(48.5365 48.5365)">
<stop stop-color="#8E6B25"/>
<stop offset="0.34" stop-color="#916D25"/>
<stop offset="0.61" stop-color="#9B7527"/>
<stop offset="0.86" stop-color="#AC832A"/>
<stop offset="1" stop-color="#B98D2D"/>
</radialGradient>
<linearGradient id="paint15_linear_1_1378" x1="176.509" y1="254.187" x2="176.482" y2="260.574" gradientUnits="userSpaceOnUse">
<stop stop-color="#5B3910"/>
<stop offset="1" stop-color="#5B3B07"/>
</linearGradient>
<linearGradient id="paint16_linear_1_1378" x1="214.122" y1="249.668" x2="214.013" y2="274.059" gradientUnits="userSpaceOnUse">
<stop stop-color="#5B3910"/>
<stop offset="1" stop-color="#5B3B07"/>
</linearGradient>
<linearGradient id="paint17_linear_1_1378" x1="212.169" y1="250.19" x2="213.313" y2="277.811" gradientUnits="userSpaceOnUse">
<stop stop-color="#6D4613"/>
<stop offset="0.32" stop-color="#5B3B07"/>
<stop offset="0.7" stop-color="#3D2505"/>
<stop offset="1" stop-color="#2B1804"/>
</linearGradient>
<linearGradient id="paint18_linear_1_1378" x1="138.883" y1="249.668" x2="138.992" y2="274.059" gradientUnits="userSpaceOnUse">
<stop stop-color="#5B3910"/>
<stop offset="1" stop-color="#5B3B07"/>
</linearGradient>
<linearGradient id="paint19_linear_1_1378" x1="140.177" y1="249.55" x2="141.349" y2="277.865" gradientUnits="userSpaceOnUse">
<stop stop-color="#6D4613"/>
<stop offset="0.32" stop-color="#5B3B07"/>
<stop offset="0.7" stop-color="#3D2505"/>
<stop offset="1" stop-color="#2B1804"/>
</linearGradient>
<linearGradient id="paint20_linear_1_1378" x1="216.289" y1="252.139" x2="204.865" y2="282.662" gradientUnits="userSpaceOnUse">
<stop stop-color="#998B73"/>
<stop offset="1" stop-color="#2E1A04"/>
</linearGradient>
<linearGradient id="paint21_linear_1_1378" x1="142.38" y1="254.814" x2="132.728" y2="280.595" gradientUnits="userSpaceOnUse">
<stop stop-color="#998B73"/>
<stop offset="1" stop-color="#2E1A04"/>
</linearGradient>
<linearGradient id="paint22_linear_1_1378" x1="176.5" y1="317.172" x2="176.5" y2="286.84" gradientUnits="userSpaceOnUse">
<stop stop-color="#E2B866"/>
<stop offset="0.17" stop-color="#C69D4D"/>
<stop offset="0.37" stop-color="#AB8336"/>
<stop offset="0.57" stop-color="#987125"/>
<stop offset="0.78" stop-color="#8C661B"/>
<stop offset="1" stop-color="#896318"/>
</linearGradient>
</defs>
</svg>
