<svg width="353" height="353" viewBox="0 0 353 353" fill="none" xmlns="http://www.w3.org/2000/svg">
<path d="M176.5 353C273.978 353 353 273.978 353 176.5C353 79.0217 273.978 0 176.5 0C79.0217 0 0 79.0217 0 176.5C0 273.978 79.0217 353 176.5 353Z" fill="url(#paint0_radial_1_1425)"/>
<path d="M58.5381 93.1531C58.8969 93.7754 58.8515 94.5476 58.429 95.1289C43.3857 115.8 32.9117 140.009 28.5059 166.276C28.2697 167.693 26.1759 167.534 26.1759 166.094C26.1759 166.049 26.1759 166.003 26.1759 165.953C26.1759 135.858 35.1056 107.847 50.4486 84.4188C51.189 83.2832 52.8696 83.3287 53.5463 84.5051L58.5381 93.1531ZM175.205 16.9237C127.418 16.9237 84.8911 39.4251 57.616 74.399C57.1618 74.9804 57.1118 75.7843 57.4797 76.4247L62.7531 85.5543C63.3799 86.6444 64.9015 86.7806 65.71 85.8223C96.6823 48.9634 143.116 25.5309 195.032 25.5309C195.186 25.5309 195.34 25.5309 195.49 25.5309C199.996 25.5445 200.455 18.9858 195.994 18.3635C189.2 17.4142 182.259 16.9237 175.201 16.9237H175.205Z" fill="url(#paint1_radial_1_1425)"/>
<path d="M176.5 39.793C225.205 39.793 264.689 79.2771 264.689 127.982C264.689 176.686 225.205 216.17 176.5 216.17C127.795 216.17 88.3113 176.686 88.3113 127.982C88.3113 79.2771 127.795 39.793 176.5 39.793ZM176.5 36.6135C164.168 36.6135 152.2 39.0299 140.936 43.7945C130.057 48.3956 120.283 54.9862 111.894 63.3754C103.504 71.7645 96.9185 81.5345 92.3128 92.4173C87.5482 103.682 85.1318 115.65 85.1318 127.982C85.1318 140.313 87.5482 152.282 92.3128 163.546C96.914 174.424 103.504 184.199 111.894 192.588C120.283 200.977 130.053 207.563 140.936 212.169C152.2 216.933 164.168 219.35 176.5 219.35C188.832 219.35 200.8 216.933 212.064 212.169C222.943 207.568 232.717 200.977 241.106 192.588C249.495 184.199 256.081 174.429 260.687 163.546C265.452 152.282 267.868 140.313 267.868 127.982C267.868 115.65 265.452 103.682 260.687 92.4173C256.086 81.5391 249.495 71.7645 241.106 63.3754C232.717 54.9862 222.947 48.4002 212.064 43.7945C200.8 39.0299 188.832 36.6135 176.5 36.6135Z" fill="url(#paint2_linear_1_1425)"/>
<path d="M176.5 39.7976C225.2 39.7976 264.684 79.2817 264.684 127.982C264.684 176.682 225.2 216.166 176.5 216.166C127.8 216.166 88.3158 176.682 88.3158 127.982C88.3158 79.2817 127.8 39.7976 176.5 39.7976Z" fill="url(#paint3_radial_1_1425)"/>
<path d="M167.034 105.199L169.85 102.383L176.523 95.7103L199.246 118.507L212.473 105.199L176.523 69.1892L140.454 105.199L153.685 118.507L167.034 105.199Z" fill="white"/>
<path d="M176.54 114.682L163.259 127.963L176.54 141.243L189.82 127.963L176.54 114.682Z" fill="white"/>
<path d="M176.513 160.212L168.533 152.232L167.066 150.76L153.685 137.484L140.454 150.71L176.523 186.715L212.473 150.71L199.246 137.484L176.513 160.212Z" fill="white"/>
<path d="M130.991 114.716L117.71 127.997L130.991 141.277L144.271 127.997L130.991 114.716Z" fill="white"/>
<path d="M222.012 114.707L208.732 127.987L222.012 141.268L235.293 127.987L222.012 114.707Z" fill="white"/>
<path d="M204.688 293.581C204.42 295.016 204.175 296.411 203.92 297.75V297.764C203.507 299.917 203.067 301.934 202.449 303.764C201.127 307.657 199.006 310.732 194.659 312.548C189.935 314.52 184.39 312.894 179.666 312.894C174.942 312.894 169.401 314.524 164.672 312.548C160.326 310.732 158.205 307.657 156.883 303.764C156.261 301.934 155.825 299.917 155.411 297.764V297.75C155.157 296.411 154.912 295.016 154.644 293.581C155.116 294.008 155.593 294.417 156.065 294.807C157.496 295.979 158.927 296.965 160.335 297.791C160.689 298.005 161.048 298.205 161.402 298.395C163.042 299.281 164.65 299.958 166.199 300.471C166.476 300.567 166.748 300.653 167.021 300.735C169.033 301.348 170.931 301.697 172.657 301.893C175.596 302.238 178.04 302.138 179.67 302.138C181.301 302.138 183.745 302.238 186.683 301.897C188.414 301.697 190.308 301.343 192.32 300.735C192.593 300.653 192.865 300.567 193.142 300.471C194.691 299.953 196.299 299.281 197.939 298.395C198.293 298.205 198.652 298.005 199.006 297.791C200.414 296.965 201.845 295.979 203.275 294.807C203.748 294.421 204.225 294.012 204.697 293.581H204.688Z" fill="url(#paint4_linear_1_1425)"/>
<path d="M188.904 315.941C188.904 317.835 183.404 320.601 179.203 320.601C175.001 320.601 169.501 317.835 169.501 315.941C169.501 314.047 188.9 314.047 188.9 315.941H188.904Z" fill="url(#paint5_linear_1_1425)"/>
<path d="M204.279 295.179C204.247 294.902 204.061 294.544 203.344 294.407C203.126 294.362 202.912 294.507 202.867 294.73C202.821 294.952 202.967 295.161 203.189 295.207C203.389 295.248 203.471 295.298 203.471 295.275C203.512 295.625 203.525 296.506 203.512 297.764C203.512 298.595 203.493 299.485 203.484 300.244C203.475 300.903 203.466 301.466 203.466 301.802C203.466 303.083 202.976 303.269 202.381 303.364C202.158 303.401 201.926 303.419 201.681 303.437C201.536 303.451 201.386 303.46 201.241 303.473C200.468 303.551 199.969 303.473 199.705 303.228C199.487 303.033 199.383 302.688 199.383 302.17C199.383 302.015 199.383 301.82 199.383 301.607C199.383 301.184 199.387 300.775 199.383 300.398C199.383 299.558 199.392 298.613 199.392 297.787C199.392 297.564 199.21 297.382 198.988 297.382C198.765 297.382 198.583 297.564 198.583 297.787C198.583 297.877 198.583 297.977 198.583 298.073C198.406 298.018 198.202 297.977 197.961 297.955C197.72 297.932 197.512 298.109 197.489 298.35C197.466 298.591 197.643 298.8 197.884 298.822C198.252 298.859 198.415 298.922 198.474 298.954C198.556 299.717 198.515 302.088 198.484 303.678C198.47 304.341 198.461 304.904 198.461 305.24C198.461 306.603 197.802 306.703 196.317 306.794C196.149 306.803 195.976 306.816 195.808 306.83C193.887 306.984 193.642 306.453 193.574 305.871L193.583 305.408C193.619 303.859 193.66 301.943 193.569 301.166C193.569 300.916 193.569 300.675 193.569 300.462C193.569 300.226 193.369 300.035 193.133 300.035H193.124C192.924 300.035 192.765 300.18 192.72 300.362C192.579 300.33 192.447 300.312 192.37 300.298C192.129 300.267 191.916 300.435 191.884 300.675C191.852 300.916 192.02 301.13 192.261 301.161C192.511 301.193 192.642 301.234 192.706 301.261C192.706 302.106 192.706 303.096 192.697 303.955C192.697 304.627 192.697 305.222 192.697 305.599C192.697 305.703 192.702 305.803 192.715 305.89V306.094C192.706 306.394 192.697 306.644 192.697 306.825C192.697 307.947 192.025 308.083 190.249 308.174C190.067 308.183 189.881 308.193 189.695 308.206C188.459 308.288 187.701 308.17 187.365 307.856C187.26 307.756 187.119 307.579 187.119 307.157C187.119 306.844 187.119 306.371 187.124 305.822C187.133 304.473 187.142 302.624 187.119 301.874C187.11 301.634 186.906 301.425 186.67 301.452C186.429 301.461 186.243 301.661 186.247 301.902C186.247 301.956 186.247 302.02 186.252 302.088C185.598 301.911 184.421 301.847 182.309 302.106C180.842 302.283 180.075 302.519 179.67 302.747C179.266 302.519 178.498 302.283 177.031 302.106C174.919 301.847 173.743 301.911 173.089 302.088C173.089 302.02 173.089 301.956 173.093 301.902L173.107 301.502L172.707 301.457C170.804 301.239 168.933 300.857 167.148 300.312L167.057 300.285L166.966 300.298C166.889 300.307 166.757 300.326 166.616 300.362C166.571 300.176 166.412 300.035 166.212 300.03C165.976 300.039 165.772 300.217 165.767 300.457C165.767 300.675 165.767 300.912 165.767 301.161C165.676 301.938 165.717 303.859 165.753 305.408L165.763 305.871C165.699 306.444 165.463 306.984 163.528 306.83C163.355 306.816 163.187 306.807 163.019 306.794C161.529 306.698 160.875 306.603 160.875 305.24C160.875 304.904 160.866 304.341 160.853 303.678C160.825 302.093 160.78 299.726 160.862 298.954C160.921 298.922 161.084 298.859 161.452 298.822C161.693 298.8 161.865 298.586 161.847 298.35C161.825 298.109 161.62 297.932 161.375 297.955C161.134 297.977 160.93 298.018 160.753 298.073C160.753 297.977 160.753 297.877 160.753 297.787C160.753 297.564 160.571 297.382 160.348 297.382C160.126 297.382 159.944 297.564 159.944 297.787C159.944 298.622 159.944 299.59 159.949 300.435C159.949 300.789 159.949 301.17 159.949 301.566C159.949 301.797 159.949 302.006 159.949 302.165C159.949 302.678 159.844 303.028 159.626 303.223C159.363 303.464 158.859 303.541 158.091 303.469C157.941 303.455 157.796 303.441 157.65 303.432C157.41 303.414 157.173 303.396 156.955 303.36C156.36 303.264 155.865 303.078 155.865 301.797C155.865 301.461 155.856 300.898 155.847 300.235C155.838 299.472 155.824 298.577 155.82 297.741C155.806 296.497 155.82 295.62 155.847 295.307C155.861 295.288 155.947 295.239 156.147 295.198C156.365 295.157 156.51 294.943 156.469 294.721C156.429 294.503 156.215 294.357 155.993 294.398C155.275 294.539 155.089 294.893 155.057 295.17C155.011 295.566 154.998 296.433 155.011 297.746C155.011 298.582 155.03 299.476 155.039 300.244C155.048 300.903 155.057 301.461 155.057 301.793C155.057 303.228 155.602 303.959 156.828 304.159C157.069 304.195 157.323 304.218 157.587 304.236C157.728 304.245 157.868 304.259 158.009 304.273C158.218 304.291 158.413 304.304 158.595 304.304C159.163 304.304 159.599 304.2 159.935 303.991C159.935 304.741 159.935 305.585 159.94 306.358C159.94 306.803 159.94 307.302 159.94 307.816C159.94 308.002 159.94 308.179 159.94 308.315C159.94 308.706 159.876 309.01 159.744 309.214C159.626 309.405 159.685 309.655 159.871 309.773C159.908 309.796 159.944 309.809 159.98 309.819C160.012 310.027 160.185 310.186 160.403 310.186H160.412C160.653 310.186 160.843 309.982 160.839 309.741V309.637C160.821 308.851 160.807 307.952 160.803 307.139C161.398 307.557 162.224 307.607 162.956 307.652C163.119 307.661 163.283 307.67 163.451 307.688C163.632 307.702 163.882 307.725 164.159 307.725C164.668 307.725 165.272 307.657 165.758 307.375C165.758 307.466 165.758 307.561 165.758 307.657C165.731 308.27 165.744 309.196 165.763 310.046C165.763 310.114 165.763 310.186 165.763 310.255C165.763 310.863 165.767 311.399 165.767 311.749V311.79C165.763 312.18 165.672 312.462 165.499 312.644C165.331 312.816 165.336 313.093 165.508 313.257C165.594 313.339 165.703 313.38 165.812 313.38C165.921 313.38 166.04 313.334 166.126 313.248C166.171 313.202 166.203 313.148 166.244 313.093C166.853 313.693 167.997 313.738 169.046 313.784C169.228 313.793 169.414 313.797 169.596 313.806C169.869 313.82 170.118 313.829 170.35 313.829C171.504 313.829 172.199 313.648 172.621 313.248C172.662 313.211 172.689 313.166 172.726 313.125C173.325 313.684 174.574 313.725 175.8 313.761C176 313.766 176.2 313.775 176.4 313.779C176.691 313.788 176.963 313.797 177.213 313.797C178.512 313.797 179.252 313.634 179.67 313.28C180.088 313.634 180.829 313.797 182.128 313.797C182.377 313.797 182.645 313.793 182.941 313.779C183.14 313.77 183.34 313.766 183.54 313.761C184.762 313.725 186.016 313.684 186.615 313.125C186.647 313.166 186.679 313.207 186.72 313.248C187.142 313.648 187.837 313.829 188.991 313.829C189.222 313.829 189.472 313.82 189.745 313.806C189.931 313.797 190.113 313.788 190.294 313.784C191.343 313.743 192.488 313.693 193.097 313.093C193.138 313.143 193.169 313.198 193.215 313.243C193.301 313.33 193.415 313.375 193.528 313.375C193.642 313.375 193.746 313.334 193.832 313.252C194.005 313.084 194.01 312.812 193.842 312.639C193.664 312.458 193.578 312.18 193.574 311.794V311.744C193.574 311.395 193.574 310.863 193.578 310.25C193.578 310.191 193.578 310.127 193.578 310.064C193.601 309.205 193.614 308.27 193.583 307.652C193.583 307.557 193.583 307.461 193.583 307.37C194.069 307.657 194.677 307.725 195.186 307.725C195.463 307.725 195.713 307.706 195.89 307.688C196.058 307.675 196.222 307.666 196.385 307.652C197.116 307.607 197.943 307.552 198.538 307.139C198.538 307.952 198.52 308.851 198.502 309.637V309.741C198.497 309.982 198.688 310.182 198.929 310.186H198.938C199.156 310.186 199.328 310.027 199.36 309.819C199.397 309.809 199.433 309.791 199.469 309.773C199.66 309.655 199.714 309.405 199.596 309.214C199.469 309.01 199.401 308.706 199.401 308.315C199.401 308.179 199.401 308.002 199.401 307.816C199.406 307.307 199.41 306.812 199.406 306.371C199.406 305.594 199.41 304.75 199.41 303.996C199.746 304.205 200.182 304.309 200.75 304.309C200.932 304.309 201.127 304.3 201.336 304.277C201.477 304.264 201.618 304.25 201.758 304.241C202.022 304.223 202.276 304.2 202.521 304.164C203.743 303.964 204.288 303.237 204.288 301.797C204.288 301.461 204.297 300.907 204.306 300.253C204.316 299.49 204.329 298.595 204.334 297.755C204.347 296.442 204.334 295.575 204.288 295.179H204.279ZM186.206 302.946C186.288 303.582 186.243 305.367 186.206 306.571C186.193 307.093 186.179 307.543 186.179 307.806C186.179 308.751 185.402 308.874 183.499 308.951C183.299 308.96 183.095 308.969 182.891 308.978C181.46 309.055 180.592 308.933 180.247 308.606C180.193 308.551 180.125 308.465 180.084 308.32C180.093 308.247 180.102 308.174 180.102 308.093C180.102 307.811 180.102 307.379 180.097 306.884C180.088 305.708 180.079 304.114 180.097 303.469C180.901 302.969 185.375 302.574 186.197 302.942L186.206 302.946ZM179.216 303.473C179.234 304.118 179.225 305.713 179.216 306.884C179.216 307.379 179.212 307.811 179.212 308.093C179.212 308.17 179.221 308.242 179.23 308.32C179.193 308.465 179.125 308.556 179.066 308.606C178.721 308.933 177.858 309.055 176.423 308.978C176.218 308.969 176.014 308.96 175.814 308.951C173.911 308.874 173.139 308.747 173.139 307.806C173.139 307.543 173.125 307.093 173.112 306.571C173.08 305.367 173.03 303.582 173.112 302.946C173.934 302.579 178.408 302.974 179.207 303.473H179.216ZM166.98 301.18C168.665 301.688 170.423 302.056 172.208 302.279C172.194 303.164 172.208 304.677 172.208 305.831C172.208 306.376 172.212 306.853 172.212 307.166C172.212 307.588 172.071 307.77 171.967 307.865C171.631 308.179 170.872 308.297 169.637 308.215C169.451 308.202 169.264 308.193 169.083 308.183C167.307 308.097 166.635 307.956 166.635 306.834C166.635 306.653 166.63 306.403 166.621 306.103V305.89C166.626 305.799 166.635 305.703 166.635 305.604C166.635 305.227 166.635 304.632 166.635 303.959C166.635 303.101 166.626 302.111 166.626 301.266C166.68 301.243 166.789 301.207 166.98 301.18ZM172.076 312.685C171.754 312.989 170.954 313.102 169.637 313.03C169.446 313.021 169.26 313.012 169.074 313.003C167.429 312.934 166.703 312.821 166.612 312.081C166.621 311.99 166.635 311.903 166.635 311.808V311.758C166.635 311.408 166.635 310.872 166.635 310.264C166.635 309.737 166.63 309.155 166.63 308.583C167.275 308.969 168.193 309.015 169.046 309.055C169.224 309.065 169.405 309.074 169.591 309.087C169.859 309.105 170.105 309.115 170.336 309.115C171.195 309.115 171.808 308.992 172.249 308.742C172.249 309.442 172.249 310.323 172.258 311.072C172.258 311.535 172.262 311.94 172.262 312.203C172.262 312.489 172.158 312.621 172.085 312.694L172.076 312.685ZM176.423 313.062C176.218 313.053 176.019 313.048 175.819 313.043C174.12 312.993 173.089 312.912 173.089 312.244C173.089 312.044 173.075 311.713 173.062 311.322C173.053 311.136 173.048 310.922 173.039 310.7C173.039 310.232 173.034 309.732 173.034 309.273C173.725 309.719 174.797 309.764 175.791 309.805C175.987 309.814 176.191 309.823 176.391 309.832C176.682 309.846 176.954 309.855 177.204 309.855C178.162 309.855 178.826 309.737 179.289 309.492C179.293 310.068 179.289 310.904 179.284 311.563C179.284 311.931 179.28 312.253 179.28 312.462C179.28 312.517 179.289 312.567 179.293 312.621C179.275 312.657 179.257 312.694 179.221 312.725C178.766 313.162 177.004 313.093 176.427 313.071L176.423 313.062ZM186.243 312.244C186.243 312.912 185.212 312.993 183.513 313.043C183.313 313.048 183.109 313.057 182.909 313.062C182.327 313.084 180.57 313.152 180.115 312.716C180.084 312.685 180.061 312.653 180.043 312.612C180.047 312.562 180.056 312.507 180.056 312.453C180.056 312.244 180.056 311.922 180.052 311.554C180.047 310.895 180.038 310.059 180.047 309.482C180.511 309.728 181.174 309.846 182.132 309.846C182.382 309.846 182.654 309.837 182.945 309.823C183.145 309.814 183.345 309.805 183.545 309.796C184.539 309.755 185.611 309.71 186.302 309.264C186.302 309.723 186.302 310.223 186.297 310.691C186.288 310.913 186.284 311.127 186.274 311.308C186.261 311.699 186.247 312.035 186.247 312.23L186.243 312.244ZM190.253 313.003C190.067 313.012 189.881 313.016 189.69 313.03C188.368 313.102 187.574 312.989 187.251 312.685C187.174 312.612 187.074 312.48 187.074 312.194C187.074 311.931 187.074 311.526 187.078 311.063C187.078 310.314 187.088 309.432 187.088 308.738C187.528 308.987 188.141 309.11 189 309.11C189.231 309.11 189.477 309.101 189.745 309.083C189.926 309.069 190.108 309.06 190.29 309.051C191.144 309.01 192.061 308.96 192.706 308.579C192.706 309.151 192.706 309.737 192.702 310.259C192.702 310.872 192.702 311.404 192.702 311.753V311.808C192.702 311.903 192.715 311.99 192.724 312.081C192.633 312.816 191.907 312.934 190.262 312.998L190.253 313.003Z" fill="#B78B2A"/>
<path d="M159.817 293.345C165.931 297.709 173.507 298.245 180.806 298.105C186.284 298.123 191.838 297.75 196.821 295.366C198.474 294.594 200.014 293.585 201.459 292.427C200.187 293.767 198.711 294.934 197.085 295.865C192.193 298.704 186.334 299.295 180.81 299.295C173.493 299.472 165.363 298.595 159.817 293.345Z" fill="#EACB73"/>
<path d="M240.475 258.475C240.475 271.729 229.728 282.475 216.475 282.475C203.221 282.475 190.408 272.169 190.408 258.916C190.408 252.807 191.262 246.316 195.023 242.078C199.419 237.123 222.366 227.689 233.589 233.516C240.075 237.813 240.475 250.109 240.475 258.475Z" fill="url(#paint6_linear_1_1425)"/>
<path d="M118.857 258.475C118.857 271.729 129.603 282.475 142.857 282.475C156.111 282.475 168.924 272.169 168.924 258.916C168.924 252.807 168.07 246.316 164.309 242.078C159.912 237.123 136.966 227.689 125.742 233.516C119.256 237.813 118.857 250.109 118.857 258.475Z" fill="url(#paint7_linear_1_1425)"/>
<path d="M124.403 222.507C128.232 216.202 133.746 217.37 139.582 219.831C142.117 220.79 144.615 221.807 147.099 222.856C149.579 223.915 152.055 224.977 154.544 225.99L154.476 226.208C152.218 225.645 148.966 224.619 146.704 223.946C141.785 222.507 136.557 220.508 131.461 220.099C128.895 219.922 126.701 221.235 124.566 222.666L124.403 222.511V222.507Z" fill="#FFF5DC"/>
<path d="M162.924 243.227C165.149 243.196 167.025 242.383 167.911 240.252C169.16 237.25 167.502 234.216 164.518 233.735C159.186 232.876 152.218 228.788 143.77 226.195C130.021 221.971 129.004 224.105 125.547 226.912C121.223 230.428 120.823 240.757 120.764 240.802C120.951 240.675 127.078 229.592 141.09 234.984C148.566 237.859 160.012 243.273 162.919 243.232L162.924 243.227Z" fill="#5B3B07"/>
<path d="M234.761 222.666C230.905 219.972 228.725 219.586 224.183 220.649C220.431 221.412 216.325 222.843 212.623 223.946C210.356 224.623 207.123 225.641 204.851 226.208L204.783 225.99C207.277 224.977 209.748 223.915 212.228 222.856C214.712 221.807 217.21 220.79 219.745 219.831C222.37 218.846 224.964 217.678 227.907 217.855C230.909 217.965 233.516 220.018 234.924 222.507L234.761 222.661V222.666Z" fill="#FFF5DC"/>
<path d="M196.403 243.227C194.178 243.196 192.302 242.383 191.416 240.252C190.167 237.25 191.825 234.216 194.809 233.735C200.141 232.876 207.109 228.788 215.557 226.195C229.306 221.971 230.323 224.105 233.78 226.912C238.104 230.428 238.504 240.757 238.563 240.802C238.377 240.675 232.249 229.592 218.237 234.984C210.761 237.859 199.315 243.273 196.408 243.232L196.403 243.227Z" fill="#5B3B07"/>
<path d="M170.305 315.337C168.179 315.337 166.021 315.078 163.973 314.22C155.943 310.863 154.671 303.855 153.195 295.743C153.086 295.139 152.972 294.53 152.859 293.912L151.868 288.616L155.861 292.232C164.936 300.457 173.916 300.376 178.744 300.326C179.402 300.321 179.925 300.321 180.588 300.326C194.4 300.466 200.3 295.107 203.471 292.232L207.463 288.616L206.473 293.912C206.359 294.53 206.246 295.143 206.137 295.743C204.661 303.855 203.389 310.863 195.359 314.22C191.652 315.769 187.583 315.364 183.994 315.006C182.464 314.851 181.019 314.71 179.666 314.71C178.312 314.71 176.868 314.856 175.337 315.01C173.729 315.169 172.026 315.342 170.305 315.342V315.337ZM157.305 298.014C158.509 304.155 159.976 308.619 165.367 310.872C168.229 312.071 171.658 311.726 174.974 311.395C176.527 311.24 178.131 311.077 179.661 311.077C181.192 311.077 182.8 311.236 184.349 311.39C187.664 311.722 191.094 312.062 193.955 310.868C199.347 308.615 200.814 304.15 202.017 298.009C193.228 304.077 184.862 304 180.547 303.955C179.911 303.95 179.407 303.95 178.776 303.955C174.465 304 166.094 304.077 157.305 298.009V298.014Z" fill="url(#paint8_linear_1_1425)"/>
<path d="M160.04 312.053C166.19 316.677 172.844 314.306 179.843 314.206C184.985 314.252 190.09 315.814 195.059 314.184C196.671 313.675 198.197 312.866 199.551 311.822C198.311 313.012 196.794 313.906 195.191 314.556C190.281 316.468 184.848 315.065 179.834 315.01C172.998 315.106 165.772 317.249 160.035 312.058L160.04 312.053Z" fill="#A57A25"/>
<path d="M242.319 261.854C241.156 241.906 228.479 237.913 212.328 241.638C204.838 243.364 198.493 245.149 193.905 248.124C184.912 252.303 182.25 251.762 179.666 251.762C177.081 251.762 174.415 252.303 165.422 248.124C160.834 245.153 154.489 243.368 146.999 241.638C130.848 237.913 118.175 241.901 117.008 261.854C115.859 281.544 127.823 285.469 142.821 287.454C156.874 289.316 168.947 286.986 172.412 271.556C173.511 268.145 175.96 266.41 179.661 266.41C183.363 266.41 185.811 268.141 186.91 271.556C190.381 286.99 202.449 289.32 216.502 287.454C231.5 285.464 243.464 281.544 242.315 261.854H242.319Z" fill="#21180B"/>
<path d="M215.436 278.697C224.672 277.473 231.359 270.443 230.372 262.995C229.385 255.547 221.097 250.502 211.862 251.726C202.626 252.95 195.939 259.98 196.926 267.428C197.913 274.876 206.201 279.921 215.436 278.697Z" fill="white"/>
<path d="M231.582 272.733C229.533 279.437 222.152 282.53 215.748 283.189C210.879 283.856 205.233 283.107 201.386 279.705C200.123 278.601 199.056 277.32 198.261 275.894C200.659 277.942 203.344 279.546 206.382 280.241C209.307 280.94 212.36 280.863 215.416 280.481C221.639 279.777 227.716 277.942 231.586 272.728L231.582 272.733Z" fill="#443A30"/>
<path d="M194.909 263.081C195.123 254.106 202.349 250.127 210.37 248.982C214.131 248.455 218.01 248.124 221.748 249.082C225.509 249.954 228.761 252.743 230.092 256.349C228.243 253.116 225.15 250.817 221.498 250.168C217.915 249.482 214.186 249.854 210.588 250.395C208.771 250.663 206.977 251.049 205.247 251.608C199.583 253.329 195.936 257.181 194.909 263.081Z" fill="#443A30"/>
<path d="M162.391 267.858C163.378 260.411 156.691 253.381 147.455 252.156C138.219 250.932 129.932 255.978 128.945 263.425C127.958 270.873 134.644 277.903 143.88 279.127C153.116 280.352 161.404 275.306 162.391 267.858Z" fill="white"/>
<path d="M182.241 257.667C187.238 259.138 188.864 256.804 192.197 253.574C195.3 250.64 199.474 247.983 203.489 246.457C206.155 245.43 208.935 244.772 211.737 244.399H212.501C207.018 245.517 200.777 248.124 196.353 252.253C193.301 255.101 190.849 260.106 186.534 260.106C185.016 260.106 183.4 258.557 182.187 257.794L182.241 257.671V257.667Z" fill="#443A30"/>
<path d="M127.746 272.733C129.794 279.437 137.175 282.53 143.579 283.189C148.448 283.856 154.094 283.107 157.941 279.705C159.204 278.601 160.271 277.32 161.066 275.894C158.668 277.942 155.984 279.546 152.945 280.241C150.02 280.94 146.968 280.863 143.911 280.481C137.688 279.777 131.611 277.942 127.741 272.728L127.746 272.733Z" fill="#443A30"/>
<path d="M164.423 263.081C164.209 254.106 156.983 250.127 148.962 248.982C145.201 248.455 141.322 248.124 137.584 249.082C133.823 249.954 130.571 252.743 129.24 256.349C131.089 253.116 134.182 250.817 137.834 250.168C141.417 249.482 145.146 249.854 148.744 250.395C150.56 250.663 152.354 251.049 154.085 251.608C159.749 253.329 163.396 257.181 164.423 263.081Z" fill="#443A30"/>
<path d="M177.091 257.667C172.094 259.138 170.468 256.804 167.134 253.574C164.032 250.64 159.858 247.983 155.843 246.457C153.177 245.43 150.397 244.772 147.594 244.399H146.831C152.314 245.517 158.554 248.124 162.978 252.253C166.031 255.101 168.483 260.106 172.798 260.106C174.315 260.106 175.932 258.557 177.145 257.794L177.091 257.671V257.667Z" fill="#443A30"/>
<defs>
<radialGradient id="paint0_radial_1_1425" cx="0" cy="0" r="1" gradientUnits="userSpaceOnUse" gradientTransform="translate(160.348 125.155) rotate(77.35) scale(228.988 199.22)">
<stop stop-color="#FFF9D9"/>
<stop offset="0.06" stop-color="#FFF6D0"/>
<stop offset="0.14" stop-color="#FFEFBA"/>
<stop offset="0.25" stop-color="#FFE496"/>
<stop offset="0.3" stop-color="#FFDE83"/>
<stop offset="0.38" stop-color="#F9D87E"/>
<stop offset="0.49" stop-color="#EBC771"/>
<stop offset="0.62" stop-color="#D2AC5B"/>
<stop offset="0.75" stop-color="#B0863D"/>
<stop offset="0.78" stop-color="#A87D36"/>
<stop offset="0.83" stop-color="#A67D39"/>
<stop offset="0.86" stop-color="#A07E42"/>
<stop offset="0.89" stop-color="#968053"/>
<stop offset="0.92" stop-color="#88836A"/>
<stop offset="0.94" stop-color="#778788"/>
<stop offset="0.97" stop-color="#618CAD"/>
<stop offset="0.99" stop-color="#4891D8"/>
<stop offset="1" stop-color="#4193E5"/>
</radialGradient>
<radialGradient id="paint1_radial_1_1425" cx="0" cy="0" r="1" gradientUnits="userSpaceOnUse" gradientTransform="translate(86.4273 50.6603) rotate(52.19) scale(133.687 133.687)">
<stop stop-color="#FFFEF3"/>
<stop offset="0.93" stop-color="#E8C56F"/>
</radialGradient>
<linearGradient id="paint2_linear_1_1425" x1="176.5" y1="36.6135" x2="176.5" y2="219.345" gradientUnits="userSpaceOnUse">
<stop stop-color="#FFE79C"/>
<stop offset="0.14" stop-color="#FCE296"/>
<stop offset="0.33" stop-color="#F4D585"/>
<stop offset="0.55" stop-color="#E6C16A"/>
<stop offset="0.78" stop-color="#D4A444"/>
<stop offset="1" stop-color="#BF8319"/>
</linearGradient>
<radialGradient id="paint3_radial_1_1425" cx="0" cy="0" r="1" gradientUnits="userSpaceOnUse" gradientTransform="translate(206.4 164.482) scale(88.1841 88.1841)">
<stop stop-color="#CE9902"/>
<stop offset="1" stop-color="#F0B90B"/>
</radialGradient>
<linearGradient id="paint4_linear_1_1425" x1="154.639" y1="303.555" x2="204.688" y2="303.555" gradientUnits="userSpaceOnUse">
<stop stop-color="#FFE79C"/>
<stop offset="0.03" stop-color="#FFE8A3"/>
<stop offset="0.16" stop-color="#FFF0C3"/>
<stop offset="0.28" stop-color="#FFF5DB"/>
<stop offset="0.4" stop-color="#FFF8E9"/>
<stop offset="0.5" stop-color="#FFFAEE"/>
<stop offset="0.61" stop-color="#FFF9E9"/>
<stop offset="0.72" stop-color="#FFF6DD"/>
<stop offset="0.83" stop-color="#FFF1C8"/>
<stop offset="0.95" stop-color="#FFEAAB"/>
<stop offset="1" stop-color="#FFE79C"/>
</linearGradient>
<linearGradient id="paint5_linear_1_1425" x1="179.266" y1="319.811" x2="179.193" y2="315.219" gradientUnits="userSpaceOnUse">
<stop stop-color="#A27E40"/>
<stop offset="0.26" stop-color="#987336"/>
<stop offset="1" stop-color="#7F581F"/>
</linearGradient>
<linearGradient id="paint6_linear_1_1425" x1="218.364" y1="270.112" x2="211.583" y2="235.665" gradientUnits="userSpaceOnUse">
<stop stop-color="#DCBA63"/>
<stop offset="0.24" stop-color="#C9A246"/>
<stop offset="0.48" stop-color="#BB9131"/>
<stop offset="0.64" stop-color="#B78B2A"/>
<stop offset="1" stop-color="#997325"/>
</linearGradient>
<linearGradient id="paint7_linear_1_1425" x1="140.963" y1="270.112" x2="147.744" y2="235.665" gradientUnits="userSpaceOnUse">
<stop stop-color="#DCBA63"/>
<stop offset="0.24" stop-color="#C9A246"/>
<stop offset="0.48" stop-color="#BB9131"/>
<stop offset="0.64" stop-color="#B78B2A"/>
<stop offset="1" stop-color="#997325"/>
</linearGradient>
<linearGradient id="paint8_linear_1_1425" x1="179.666" y1="315.337" x2="179.666" y2="295.72" gradientUnits="userSpaceOnUse">
<stop offset="0.05" stop-color="#E2B866"/>
<stop offset="0.2" stop-color="#C99F4D"/>
<stop offset="0.39" stop-color="#AF8532"/>
<stop offset="0.59" stop-color="#9C721F"/>
<stop offset="0.79" stop-color="#916713"/>
<stop offset="1" stop-color="#8E6410"/>
</linearGradient>
</defs>
</svg>
