<svg width="322" height="322" viewBox="0 0 322 322" fill="none" xmlns="http://www.w3.org/2000/svg">
<path d="M161.001 315.271C246.202 315.271 315.271 246.202 315.271 161.001C315.271 75.8 246.202 6.73083 161.001 6.73083C75.7998 6.73083 6.73059 75.8 6.73059 161.001C6.73059 246.202 75.7998 315.271 161.001 315.271Z" fill="url(#paint0_radial_1_1285)"/>
<path d="M161.001 320.325C139.498 320.325 118.63 316.11 98.981 307.8C80.0072 299.775 62.97 288.29 48.341 273.661C33.7121 259.032 22.2272 241.995 14.2016 223.021C5.89204 203.372 1.67688 182.504 1.67688 161.001C1.67688 139.498 5.89204 118.63 14.2016 98.9813C22.2272 80.0075 33.7121 62.9702 48.341 48.3412C62.97 33.7123 80.0072 22.2274 98.981 14.2018C118.63 5.89227 139.498 1.67711 161.001 1.67711C182.504 1.67711 203.372 5.89227 223.021 14.2018C241.995 22.2274 259.032 33.7123 273.661 48.3412C288.29 62.9702 299.775 80.0075 307.8 98.9813C316.112 118.63 320.325 139.498 320.325 161.001C320.325 182.504 316.11 203.372 307.8 223.021C299.775 241.995 288.29 259.032 273.661 273.661C259.032 288.29 241.995 299.775 223.021 307.8C203.372 316.112 182.506 320.325 161.001 320.325ZM161.001 30.0718C143.322 30.0718 126.175 33.5312 110.041 40.3559C94.4506 46.9504 80.4478 56.3914 68.4217 68.4197C56.3934 80.448 46.9524 94.4508 40.3579 110.041C33.5332 126.175 30.0738 143.322 30.0738 161.001C30.0738 178.68 33.5332 195.827 40.3579 211.961C46.9524 227.551 56.3934 241.554 68.4217 253.58C80.45 265.609 94.4528 275.05 110.041 281.644C126.175 288.469 143.322 291.928 161.001 291.928C178.68 291.928 195.827 288.469 211.961 281.644C227.551 275.05 241.554 265.609 253.582 253.58C265.611 241.552 275.052 227.549 281.646 211.961C288.471 195.827 291.93 178.68 291.93 161.001C291.93 143.322 288.471 126.175 281.646 110.041C275.052 94.4508 265.611 80.448 253.582 68.4197C241.554 56.3914 227.551 46.9504 211.961 40.3559C195.827 33.5312 178.68 30.0718 161.001 30.0718Z" fill="#005BC9"/>
<path d="M161.001 322.002C139.268 322.002 118.181 317.745 98.3328 309.35C79.16 301.242 61.9438 289.632 47.1583 274.846C32.3729 260.061 20.765 242.842 12.6544 223.672C4.25764 203.821 0 182.734 0 161.001C0 139.268 4.25764 118.181 12.6522 98.3328C20.7605 79.16 32.3706 61.9438 47.1561 47.1583C61.9416 32.3729 79.16 20.765 98.3306 12.6544C118.181 4.25764 139.266 0 161.001 0C182.737 0 203.821 4.25764 223.669 12.6522C242.842 20.7605 260.058 32.3706 274.844 47.1561C289.629 61.9416 301.237 79.16 309.348 98.3306C317.745 118.181 322 139.266 322 160.999C322 182.732 317.742 203.819 309.348 223.667C301.24 242.84 289.629 260.056 274.844 274.842C260.058 289.627 242.84 301.235 223.669 309.346C203.819 317.742 182.734 321.998 161.001 321.998V322.002ZM161.001 3.35424C139.717 3.35424 119.073 7.52244 99.6387 15.7425C80.8662 23.6831 64.0078 35.0495 49.5287 49.5287C35.0495 64.0078 23.6831 80.8662 15.7426 99.6387C7.52244 119.073 3.35424 139.72 3.35424 161.001C3.35424 182.283 7.52244 202.929 15.7426 222.364C23.6831 241.136 35.0495 257.994 49.5287 272.474C64.0078 286.953 80.8662 298.319 99.6387 306.26C119.073 314.48 139.72 318.648 161.001 318.648C182.283 318.648 202.929 314.48 222.364 306.26C241.136 298.319 257.994 286.953 272.474 272.474C286.953 257.994 298.319 241.136 306.26 222.364C314.48 202.929 318.648 182.283 318.648 161.001C318.648 139.72 314.48 119.073 306.26 99.6387C298.319 80.8662 286.953 64.0078 272.474 49.5287C257.994 35.0495 241.136 23.6831 222.364 15.7425C202.929 7.52244 182.285 3.35424 161.001 3.35424Z" fill="url(#paint1_linear_1_1285)"/>
<path d="M161.001 292.489C143.251 292.489 126.03 289.012 109.82 282.156C94.1625 275.533 80.1015 266.054 68.0262 253.978C55.951 241.903 46.4697 227.842 39.8484 212.184C32.9924 195.975 29.5151 178.754 29.5151 161.003C29.5151 143.253 32.9924 126.032 39.8484 109.822C46.4719 94.1645 55.951 80.1036 68.0262 68.0283C80.1015 55.9531 94.1625 46.4718 109.82 39.8505C126.03 32.9945 143.251 29.5172 161.001 29.5172C178.752 29.5172 195.972 32.9945 212.182 39.8505C227.84 46.474 241.901 55.9531 253.976 68.0283C266.051 80.1036 275.533 94.1645 282.154 109.822C289.01 126.032 292.487 143.253 292.487 161.003C292.487 178.754 289.01 195.975 282.154 212.184C275.531 227.842 266.051 241.903 253.976 253.978C241.901 266.054 227.84 275.535 212.182 282.156C195.972 289.012 178.752 292.489 161.001 292.489ZM161.001 30.6308C143.4 30.6308 126.327 34.0768 110.256 40.8747C94.7327 47.44 80.7902 56.8408 68.8156 68.8132C56.841 80.7856 47.4424 94.7281 40.8771 110.254C34.0791 126.325 30.6332 143.4 30.6332 160.999C30.6332 178.597 34.0791 195.673 40.8771 211.744C47.4424 227.267 56.8432 241.21 68.8156 253.184C80.788 265.159 94.7304 274.558 110.256 281.123C126.327 287.921 143.403 291.367 161.001 291.367C178.6 291.367 195.675 287.921 211.746 281.123C227.27 274.558 241.212 265.157 253.187 253.184C265.161 241.212 274.56 227.27 281.125 211.744C287.923 195.673 291.369 178.597 291.369 160.999C291.369 143.4 287.923 126.325 281.125 110.254C274.56 94.7303 265.159 80.7879 253.187 68.8132C241.214 56.8386 227.272 47.44 211.746 40.8747C195.675 34.0768 178.6 30.6308 161.001 30.6308Z" fill="#0092FF"/>
<path d="M164.438 262.688C162.276 262.63 161.372 261.566 159.731 259.629C158.966 258.728 157.855 257.406 156.448 255.725C153.647 252.379 149.662 247.601 144.89 241.865C136.451 231.724 124.708 217.585 109.99 199.841C84.641 169.282 59.3344 138.722 59.3344 138.722L56.9954 135.898L90.9335 88.279H226.163L265.009 135.589L174.535 252.811C174.535 252.811 172.012 256.261 169.391 259.475C166.771 262.688 164.438 262.688 164.438 262.688Z" fill="#3ACDFF"/>
<path d="M258.909 135.681L223.904 93.051H93.3906L63.0079 135.681C63.0079 135.681 164.489 258.223 164.563 257.918L258.909 135.681Z" fill="#3ACDFF"/>
<path d="M225.858 95.428L255.789 131.882H208.904L225.858 95.428Z" fill="url(#paint2_radial_1_1285)"/>
<g style="mix-blend-mode:multiply">
<path d="M230.843 147.085L205.869 116.671H112.754L91.0763 147.085C91.0763 147.085 163.479 234.515 163.532 234.296L230.843 147.085Z" fill="#3ACDFF"/>
</g>
<g style="mix-blend-mode:multiply">
<path d="M164.563 257.916L122.839 134.512L63.0079 135.681L164.563 257.916Z" fill="#86AEEA"/>
</g>
<g style="mix-blend-mode:multiply">
<path d="M164.563 257.916L204.051 134.368L258.909 135.681L164.563 257.916Z" fill="#86AEEA"/>
</g>
<path d="M164.563 93.051L122.838 134.512L93.3904 93.051H164.563Z" fill="#7BE3FF"/>
<g style="mix-blend-mode:multiply" opacity="0.47">
<path d="M204.051 134.368L164.563 93.051H223.904L204.051 134.368Z" fill="#86AEEA"/>
</g>
<path d="M164.563 257.916L167.034 134.512H134.726L164.563 257.916Z" fill="url(#paint3_linear_1_1285)"/>
<path d="M93.3904 93.051L122.838 134.512L100.996 93.051H93.3904Z" fill="#ABF9FF"/>
<g style="mix-blend-mode:screen">
<path d="M66.1873 131.22L108.614 93.051H93.3901L66.1873 131.22Z" fill="url(#paint4_radial_1_1285)"/>
<path d="M146.137 93.051H140.969L76.0647 151.442C76.778 152.302 77.5137 153.192 78.2718 154.105L146.137 93.051Z" fill="url(#paint5_radial_1_1285)"/>
<path d="M201.656 92.1654H168.733L91.2234 169.407C95.007 173.971 105.626 186.979 105.626 186.979L201.656 92.1654Z" fill="url(#paint6_radial_1_1285)"/>
</g>
<path d="M204.051 134.368L198.277 134.512L164.563 257.916L204.051 134.368Z" fill="url(#paint7_linear_1_1285)"/>
<path d="M258.909 135.681L225.858 95.428L252.379 135.681L164.563 257.916L258.909 135.681Z" fill="url(#paint8_linear_1_1285)"/>
<path d="M68.093 135.58L164.563 257.916L63.0079 135.681L68.093 135.58Z" fill="url(#paint9_linear_1_1285)"/>
<path d="M99.567 101.191L219.879 101.016L224.91 90.7477H91.7919L99.567 101.191Z" fill="url(#paint10_linear_1_1285)"/>
<defs>
<radialGradient id="paint0_radial_1_1285" cx="0" cy="0" r="1" gradientUnits="userSpaceOnUse" gradientTransform="translate(161.001 161.001) scale(154.27)">
<stop offset="0.6" stop-color="#005BC9"/>
<stop offset="0.72" stop-color="#0053B7"/>
<stop offset="0.94" stop-color="#003F8A"/>
<stop offset="0.99" stop-color="#013B7F"/>
</radialGradient>
<linearGradient id="paint1_linear_1_1285" x1="161.001" y1="0" x2="161.001" y2="322.002" gradientUnits="userSpaceOnUse">
<stop stop-color="#0092FF"/>
<stop offset="0.19" stop-color="#0086ED"/>
<stop offset="0.54" stop-color="#0067BF"/>
<stop offset="0.99" stop-color="#013B7F"/>
</linearGradient>
<radialGradient id="paint2_radial_1_1285" cx="0" cy="0" r="1" gradientUnits="userSpaceOnUse" gradientTransform="translate(231.529 97.3488) scale(35.4543 35.4543)">
<stop stop-color="#008CFF"/>
<stop offset="1" stop-color="#3ACDFF"/>
</radialGradient>
<linearGradient id="paint3_linear_1_1285" x1="143.925" y1="215.798" x2="166.135" y2="139.762" gradientUnits="userSpaceOnUse">
<stop stop-color="#006EE5"/>
<stop offset="1" stop-color="#00B1FF"/>
</linearGradient>
<radialGradient id="paint4_radial_1_1285" cx="0" cy="0" r="1" gradientUnits="userSpaceOnUse" gradientTransform="translate(87.4017 112.134) scale(20.1769)">
<stop stop-color="#DEFAFF"/>
<stop offset="0.09" stop-color="#D8F5FB" stop-opacity="0.98"/>
<stop offset="0.22" stop-color="#CAE8F1" stop-opacity="0.91"/>
<stop offset="0.36" stop-color="#B2D2E0" stop-opacity="0.8"/>
<stop offset="0.51" stop-color="#91B4C9" stop-opacity="0.65"/>
<stop offset="0.68" stop-color="#668EAB" stop-opacity="0.46"/>
<stop offset="0.85" stop-color="#335F87" stop-opacity="0.23"/>
<stop offset="1" stop-color="#003163" stop-opacity="0"/>
</radialGradient>
<radialGradient id="paint5_radial_1_1285" cx="0" cy="0" r="1" gradientUnits="userSpaceOnUse" gradientTransform="translate(111.099 123.577) scale(32.8603 32.8603)">
<stop stop-color="#DEFAFF"/>
<stop offset="0.09" stop-color="#D8F5FB" stop-opacity="0.98"/>
<stop offset="0.22" stop-color="#CAE8F1" stop-opacity="0.91"/>
<stop offset="0.36" stop-color="#B2D2E0" stop-opacity="0.8"/>
<stop offset="0.51" stop-color="#91B4C9" stop-opacity="0.65"/>
<stop offset="0.68" stop-color="#668EAB" stop-opacity="0.46"/>
<stop offset="0.85" stop-color="#335F87" stop-opacity="0.23"/>
<stop offset="1" stop-color="#003163" stop-opacity="0"/>
</radialGradient>
<radialGradient id="paint6_radial_1_1285" cx="0" cy="0" r="1" gradientUnits="userSpaceOnUse" gradientTransform="translate(146.441 139.572) scale(51.4607 51.4607)">
<stop stop-color="#DEFAFF"/>
<stop offset="0.09" stop-color="#D8F5FB" stop-opacity="0.98"/>
<stop offset="0.22" stop-color="#CAE8F1" stop-opacity="0.91"/>
<stop offset="0.36" stop-color="#B2D2E0" stop-opacity="0.8"/>
<stop offset="0.51" stop-color="#91B4C9" stop-opacity="0.65"/>
<stop offset="0.68" stop-color="#668EAB" stop-opacity="0.46"/>
<stop offset="0.85" stop-color="#335F87" stop-opacity="0.23"/>
<stop offset="1" stop-color="#003163" stop-opacity="0"/>
</radialGradient>
<linearGradient id="paint7_linear_1_1285" x1="177.492" y1="207.705" x2="202.381" y2="134.91" gradientUnits="userSpaceOnUse">
<stop stop-color="#ABF9FF"/>
<stop offset="0.16" stop-color="#A5F6FF"/>
<stop offset="0.36" stop-color="#94F0FF"/>
<stop offset="0.6" stop-color="#79E5FF"/>
<stop offset="0.85" stop-color="#53D6FF"/>
<stop offset="1" stop-color="#3ACDFF"/>
</linearGradient>
<linearGradient id="paint8_linear_1_1285" x1="192.164" y1="133.02" x2="204.241" y2="172.376" gradientUnits="userSpaceOnUse">
<stop stop-color="#006EE5"/>
<stop offset="1" stop-color="#023D93"/>
</linearGradient>
<linearGradient id="paint9_linear_1_1285" x1="100.435" y1="153.291" x2="113.328" y2="195.31" gradientUnits="userSpaceOnUse">
<stop stop-color="#006EE5"/>
<stop offset="1" stop-color="#023D93"/>
</linearGradient>
<linearGradient id="paint10_linear_1_1285" x1="157.906" y1="103.823" x2="158.268" y2="93.165" gradientUnits="userSpaceOnUse">
<stop stop-color="#9FEBFF" stop-opacity="0"/>
<stop offset="0.19" stop-color="#ABEFFF" stop-opacity="0.25"/>
<stop offset="0.41" stop-color="#B9F4FF" stop-opacity="0.51"/>
<stop offset="0.61" stop-color="#C3F8FF" stop-opacity="0.72"/>
<stop offset="0.78" stop-color="#CBFBFF" stop-opacity="0.87"/>
<stop offset="0.91" stop-color="#D0FDFF" stop-opacity="0.97"/>
<stop offset="1" stop-color="#D2FEFF"/>
</linearGradient>
</defs>
</svg>
