<svg width="27" height="24" viewBox="0 0 27 24" fill="none" xmlns="http://www.w3.org/2000/svg">
<path d="M0.457866 5.9507C0.580577 5.75862 0.787202 5.63664 1.0144 5.6218L19.7836 4.39307L20.1378 1.93885C20.1794 1.65022 20.3919 1.41553 20.6751 1.34572L26.0457 0.0210314C26.43 -0.0737574 26.818 0.16079 26.9126 0.544942C27.0073 0.9288 26.7729 1.31692 26.3888 1.41171L21.4864 2.62104L19.5993 15.7007C19.8594 15.9457 20.1698 16.2517 20.4693 16.58C21.2148 17.3974 22.1351 18.5883 21.5218 19.4887C21.3865 19.6876 21.1593 19.8043 20.92 19.8019C18.4308 19.768 6.78976 19.7982 5.4705 19.8019H5.44875C5.05358 19.8019 4.73306 19.482 4.73262 19.0867C4.73203 18.6913 5.05196 18.3705 5.44714 18.3696H5.46653C6.6691 18.3664 16.4403 18.3408 20.0643 18.3622C19.911 18.128 19.6536 17.7952 19.2215 17.3424C18.7151 16.8116 18.2053 16.3656 18.0786 16.2564H4.60506C4.30879 16.2564 4.04323 16.074 3.93669 15.7976L0.392615 6.59394C0.310759 6.38143 0.335008 6.14262 0.457572 5.95084L0.457866 5.9507ZM8.16324 9.21937H9.45472V8.0046H8.16324V9.21937ZM7.46019 8.00445H6.16871V9.21922H7.46019V8.00445ZM10.1579 9.21937H11.4495V8.0046H10.1579V9.21937ZM11.4495 9.92242H10.1579V11.1536H11.4495V9.92242ZM12.1525 11.1536H13.4439V9.92242H12.1525V11.1536ZM12.1525 9.21937H13.4439V8.0046H12.1525V9.21937ZM14.1471 9.21937H15.4388V8.0046H14.1471V9.21937ZM14.1471 9.92242V11.1536H15.4388V9.92242H14.1471ZM16.1417 11.1536H17.4333V9.92242H16.1417V11.1536ZM18.1363 11.1536H18.6891L18.8479 9.92242H18.1363V11.1536ZM18.6007 11.837H18.1363V13.0891H18.4392L18.6007 11.837ZM17.4333 11.837H16.1417V13.0891H17.4333V11.837ZM15.4388 11.837H14.1471V13.0891H15.4388V11.837ZM13.4441 11.837H12.1526V13.0891H13.4441V11.837ZM11.4495 11.837H10.1579V13.0891H11.4495V11.837ZM9.45487 11.837H8.16339V13.0891H9.45487V11.837ZM9.45487 11.1536V9.92242H8.16339V11.1536H9.45487ZM7.46019 9.92242H6.16871V11.1536H7.46019V9.92242ZM5.46565 9.92242H4.12318V11.1536H5.46565V9.92242ZM5.46565 9.21937V8.0046H4.12318V9.21937H5.46565ZM5.46565 7.28847V6.76603L4.12318 6.85391V7.28847H5.46565ZM6.16871 7.28847H7.46019V6.63538L6.16871 6.71973V7.28847ZM8.16324 7.28847H9.45472V6.50488L8.16324 6.58923V7.28847ZM10.1579 7.28847H11.4495V6.37409L10.1579 6.45888V7.28847ZM12.1525 7.28847H13.4439V6.24359L12.1525 6.32809V7.28832V7.28847ZM14.1471 7.28847H15.4388V6.11309L14.1471 6.19759V7.28847ZM16.1417 7.28847H17.4333V5.98259L16.1417 6.06694V7.28847ZM16.1417 8.00445V9.21922H17.4333V8.00445H16.1417ZM18.1363 9.21937H18.9386L19.0954 8.0046H18.1363V9.21937ZM18.2153 14.8238L18.3538 13.7504H18.1362V14.8238H18.2151H18.2153ZM17.4333 13.7504H16.1417V14.8238H17.4333V13.7504ZM15.4388 13.7504H14.1471V14.8238H15.4388V13.7504ZM13.4441 13.7504H12.1526V14.8238H13.4441V13.7504ZM11.4495 13.7504H10.1579V14.8238H11.4495V13.7504ZM9.45487 13.7504H8.16339V14.8238H9.45487V13.7504ZM7.46019 13.7504H6.16871V14.8238H7.46019V13.7504ZM7.46019 13.0891V11.837H6.16871V13.0891H7.46019ZM5.46565 11.837H4.12318V12.2952L4.42885 13.0891H5.46565V11.837ZM3.52182 10.7338V9.92242H3.20939L3.52182 10.7338ZM3.52182 9.21937V8.0046H2.47092L2.93869 9.21937H3.52182ZM2.19507 7.28847H3.52182V6.893L2.07927 6.98749L2.19507 7.28832V7.28847ZM18.1363 5.93644V7.28847H19.188L19.3729 5.85547L18.1363 5.93644ZM5.46565 14.8238V13.7504H4.68353L5.09678 14.8238H5.46565Z" fill="white"/>
<path d="M4.5 15L1.5 7L20.5 5L19 15H4.5Z" fill="white"/>
<path d="M19.3056 24.0019C20.4554 24.0019 21.3906 23.0665 21.3906 21.9169C21.3906 20.7674 20.4554 19.832 19.3056 19.832C18.1558 19.832 17.2207 20.7671 17.2207 21.9169C17.2207 23.0668 18.1559 24.0019 19.3056 24.0019ZM19.3056 21.2824C19.6555 21.2824 19.9403 21.567 19.9403 21.9169C19.9403 22.2669 19.6556 22.5515 19.3056 22.5515C18.9555 22.5515 18.6711 22.267 18.6711 21.9169C18.6711 21.5669 18.9558 21.2824 19.3056 21.2824Z" fill="white"/>
<path d="M7.09673 24.0019C8.24639 24.0019 9.18164 23.0665 9.18164 21.9169C9.18164 20.7674 8.24639 19.832 7.09673 19.832C5.94706 19.832 5.01182 20.7671 5.01182 21.9169C5.01182 23.0668 5.94706 24.0019 7.09673 24.0019ZM7.09673 21.2824C7.44664 21.2824 7.7313 21.567 7.7313 21.9169C7.7313 22.2669 7.44664 22.5515 7.09673 22.5515C6.74682 22.5515 6.46216 22.267 6.46216 21.9169C6.46216 21.5669 6.74682 21.2824 7.09673 21.2824Z" fill="white"/>
</svg>
