<svg width="74" height="47" viewBox="0 0 74 47" fill="none" xmlns="http://www.w3.org/2000/svg">
<g filter="url(#filter0_d_1_6553)">
<path d="M10 19.5941C10 18.7372 10.5459 17.9755 11.3574 17.7002L35.7148 9.43605C36.5483 9.15327 37.4517 9.15326 38.2852 9.43605L62.6426 17.7002C63.4541 17.9755 64 18.7372 64 19.5941V34C64 35.1046 63.1046 36 62 36H12C10.8954 36 10 35.1046 10 34V19.5941Z" fill="url(#paint0_linear_1_6553)"/>
</g>
<path d="M16.9594 26.8368L15.9793 27.8161L15 26.8368L15.9793 25.8575L16.9594 26.8368ZM19.3357 24.4589L21.0139 26.1379L21.9931 25.1586L19.3357 22.5012L16.6782 25.1586L17.6575 26.1379L19.3357 24.4589ZM22.6929 25.8575L21.7136 26.8368L22.6929 27.8161L23.6713 26.8368L22.6929 25.8575ZM19.3357 29.2147L17.6575 27.5366L16.6782 28.515L19.3357 31.1725L21.9931 28.515L21.0139 27.5366L19.3357 29.2147ZM19.3357 27.8161L20.315 26.8368L19.3357 25.8575L18.3564 26.8368L19.3357 27.8161ZM29.6708 27.9102V27.8966C29.6708 27.2579 29.3319 26.9385 28.7804 26.7284C29.1193 26.5378 29.4056 26.2387 29.4056 25.7025V25.6889C29.4056 24.9418 28.8075 24.4589 27.8359 24.4589H25.6299V29.2147H27.8918C28.9651 29.2147 29.6725 28.7802 29.6725 27.9102H29.6708ZM28.3662 25.877C28.3662 26.2303 28.0739 26.3802 27.6122 26.3802H26.649V25.3764H27.6817C28.1231 25.3764 28.3679 25.5526 28.3679 25.8652L28.3662 25.877ZM28.6313 27.7797C28.6313 28.1329 28.3526 28.2956 27.8901 28.2956H26.649V27.2511H27.8579C28.395 27.2511 28.633 27.4485 28.633 27.7678L28.6313 27.7797ZM31.8691 29.2147V24.4589H30.8195V29.2147H31.8691ZM37.4933 29.2147V24.4589H36.4572V27.3875L34.2292 24.4589H33.2643V29.2147H34.297V26.1913L36.5995 29.2147H37.4933ZM43.2886 29.2147L41.247 24.425H40.2821L38.2447 29.2147H39.3112L39.7475 28.1482H41.7586L42.1932 29.2147H43.2886ZM41.3867 27.224H40.1194L40.7514 25.6822L41.3867 27.224ZM48.2757 29.2147V24.4589H47.2396V27.3875L45.0108 24.4589H44.0468V29.2147H45.0786V26.1913L47.3819 29.2147H48.2757ZM53.6762 28.4472L53.0112 27.7746C52.6376 28.1135 52.3047 28.3312 51.7608 28.3312C50.9459 28.3312 50.3817 27.6535 50.3817 26.8368V26.8233C50.3817 26.0083 50.9594 25.3425 51.7608 25.3425C52.2361 25.3425 52.608 25.5458 52.9773 25.8787L53.6406 25.1112C53.1993 24.6766 52.663 24.3776 51.7659 24.3776C50.3054 24.3776 49.2863 25.4848 49.2863 26.8343V26.8478C49.2863 28.2134 50.3258 29.2935 51.7252 29.2935C52.641 29.2961 53.184 28.9699 53.6728 28.4472H53.6762ZM58.1406 29.2147V28.2829H55.5551V27.2824H57.7975V26.3506H55.5551V25.3899H58.1034V24.4581H54.5157V29.2139L58.1406 29.2147Z" fill="white"/>
<defs>
<filter id="filter0_d_1_6553" x="0" y="0.223969" width="74" height="46.776" filterUnits="userSpaceOnUse" color-interpolation-filters="sRGB">
<feFlood flood-opacity="0" result="BackgroundImageFix"/>
<feColorMatrix in="SourceAlpha" type="matrix" values="0 0 0 0 0 0 0 0 0 0 0 0 0 0 0 0 0 0 127 0" result="hardAlpha"/>
<feOffset dy="1"/>
<feGaussianBlur stdDeviation="5"/>
<feComposite in2="hardAlpha" operator="out"/>
<feColorMatrix type="matrix" values="0 0 0 0 0.941176 0 0 0 0 0.72549 0 0 0 0 0.0470588 0 0 0 0.45 0"/>
<feBlend mode="normal" in2="BackgroundImageFix" result="effect1_dropShadow_1_6553"/>
<feBlend mode="normal" in="SourceGraphic" in2="effect1_dropShadow_1_6553" result="shape"/>
</filter>
<linearGradient id="paint0_linear_1_6553" x1="37" y1="9" x2="37" y2="32" gradientUnits="userSpaceOnUse">
<stop offset="0.589636" stop-color="#F0B90B"/>
<stop offset="1" stop-color="#B78B00"/>
</linearGradient>
</defs>
</svg>
