<svg viewBox="0 0 36 36" fill="none" xmlns="http://www.w3.org/2000/svg">
<path d="M28.9554 4.31348C30.1179 5.57991 31.2765 6.8502 32.439 8.11663C35.2144 11.1499 36.196 15.7653 34.6485 20.8233C32.0194 29.4266 23.0736 36.0475 14.6704 35.6164C11.206 35.4393 8.37674 34.0882 6.42897 31.9633L2.94531 28.1602C4.89308 30.285 7.72235 31.6362 11.1868 31.8132C19.5899 32.2443 28.5358 25.6235 31.1649 17.0202C32.7123 11.9621 31.7307 7.35061 28.9554 4.31733V4.31348Z" fill="url(#paint0_linear_1_8619)"/>
<g style="mix-blend-mode:multiply">
<path d="M32.4347 8.11663C31.2722 6.8502 30.1136 5.57991 28.951 4.31348C29.0665 4.44051 29.1743 4.57138 29.2821 4.70226C30.2329 5.74159 31.1837 6.78091 32.1345 7.81638C34.9137 10.8497 35.8914 15.465 34.344 20.5192C31.711 29.1225 22.769 35.7434 14.3659 35.3123C11.1786 35.1468 8.53026 33.992 6.61328 32.152C8.55335 34.1652 11.3095 35.4393 14.6661 35.6087C23.0692 36.0437 32.0151 29.4189 34.6442 20.8156C36.1917 15.7576 35.2101 11.1461 32.4347 8.10893V8.11663Z" fill="#E68805"/>
</g>
<path d="M20.7139 0.65639C29.117 1.08752 33.7978 8.41283 31.1649 17.0161C28.5319 25.6194 19.5899 32.2403 11.1867 31.8092C2.77976 31.3742 -1.8972 24.0527 0.731908 15.4494C3.36486 6.84614 12.3107 0.225263 20.7139 0.65639Z" fill="url(#paint1_linear_1_8619)"/>
<path style="mix-blend-mode:overlay" opacity="0.7" d="M31.3461 17.2202C32.9128 12.1006 31.8889 7.43514 29.0288 4.40186C31.7426 7.43514 32.6934 12.0082 31.1614 17.0162C28.5284 25.6195 19.5864 32.2403 11.1833 31.8092C7.77273 31.6321 4.9781 30.3234 3.03418 28.2524C3.07652 28.2986 3.11117 28.3448 3.15351 28.3871L3.23435 28.4757C5.17827 30.5351 7.9652 31.8362 11.3642 32.0132C19.7673 32.4444 28.7132 25.8235 31.3423 17.2202H31.3461Z" fill="url(#paint2_linear_1_8619)"/>
<path style="mix-blend-mode:overlay" opacity="0.7" d="M19.1081 5.04091C25.1439 5.35271 28.5082 10.6109 26.6182 16.7968C24.7282 22.975 18.2997 27.7367 12.264 27.4249C6.22434 27.1131 2.86386 21.851 4.75389 15.6728C6.64392 9.49076 13.0685 4.73297 19.1081 5.04476V5.04091Z" fill="url(#paint3_linear_1_8619)"/>
<path d="M19.3708 5.04091C25.4066 5.35271 28.7709 10.6109 26.8809 16.7968C24.9909 22.975 18.5624 27.7367 12.5267 27.4249C6.48703 27.1131 3.12655 21.851 5.01658 15.6728C6.90661 9.49076 13.3312 4.73297 19.3708 5.04476V5.04091Z" fill="url(#paint4_linear_1_8619)"/>
<path d="M6.31823 16.3079C8.20826 10.1258 14.6328 5.36805 20.6725 5.67985C21.7349 5.73374 22.7126 5.94545 23.5941 6.2842C22.4085 5.56822 20.9881 5.12554 19.3675 5.04086C13.3279 4.72906 6.90333 9.48685 5.0133 15.6689C3.45432 20.7616 5.46368 25.2268 9.59788 26.8166C6.36443 24.8573 4.92862 20.827 6.31438 16.3041L6.31823 16.3079Z" fill="#CF4505"/>
<path d="M18.7054 14.4642L17.4466 10.8188L14.1785 14.3064L11.6303 12.0545L8.55078 18.8486L9.76718 21.4584L19.048 21.7818L21.6963 19.3067L22.4546 12.4317L18.7054 14.4642Z" fill="url(#paint5_linear_1_8619)"/>
<path style="mix-blend-mode:overlay" opacity="0.4" d="M31.8617 13.2593L9.65092 31.6476C6.19036 31.0895 3.48426 29.288 1.8252 26.7012L28.9169 4.2749C31.011 6.53832 32.0926 9.69479 31.8617 13.2593Z" fill="url(#paint6_linear_1_8619)"/>
<path style="mix-blend-mode:overlay" opacity="0.4" d="M20.7137 0.656489C19.3203 0.583352 17.9114 0.71038 16.5179 1.00293L1.47083 13.4633C1.18982 14.1138 0.939617 14.7759 0.731752 15.4495C0.196692 17.1971 -0.0304191 18.8909 0.00807435 20.4883L23.4583 1.07607C22.5961 0.852806 21.6799 0.706531 20.7137 0.656489Z" fill="url(#paint7_linear_1_8619)"/>
<path style="mix-blend-mode:overlay" opacity="0.5" d="M26.2796 26.5511C24.1432 28.6566 22.0684 30.0155 21.6488 29.5882C21.2292 29.1609 22.6227 27.1092 24.7591 25.0036C26.8993 22.898 28.9703 21.5392 29.3898 21.9665C29.8094 22.3938 28.4159 24.4455 26.2796 26.5511Z" fill="url(#paint8_radial_1_8619)"/>
<defs>
<linearGradient id="paint0_linear_1_8619" x1="2.39101" y1="38.207" x2="39.4872" y2="8.75948" gradientUnits="userSpaceOnUse">
<stop stop-color="#D13F05"/>
<stop offset="0.29" stop-color="#F67205"/>
<stop offset="0.37" stop-color="#F67605"/>
<stop offset="0.45" stop-color="#F68405"/>
<stop offset="0.54" stop-color="#F69B05"/>
<stop offset="0.56" stop-color="#F6A205"/>
<stop offset="0.6" stop-color="#F69005"/>
<stop offset="0.64" stop-color="#F67F05"/>
<stop offset="0.69" stop-color="#F67505"/>
<stop offset="0.76" stop-color="#F67205"/>
<stop offset="1" stop-color="#D13F05"/>
</linearGradient>
<linearGradient id="paint1_linear_1_8619" x1="26.3185" y1="21.4159" x2="-3.94505" y2="6.28799" gradientUnits="userSpaceOnUse">
<stop stop-color="#FFAF02"/>
<stop offset="1" stop-color="#F56D05"/>
</linearGradient>
<linearGradient id="paint2_linear_1_8619" x1="9.34326" y1="32.3597" x2="33.5441" y2="7.62761" gradientUnits="userSpaceOnUse">
<stop stop-color="white" stop-opacity="0"/>
<stop offset="0.48" stop-color="white"/>
<stop offset="1" stop-color="white" stop-opacity="0"/>
</linearGradient>
<linearGradient id="paint3_linear_1_8619" x1="10.0891" y1="28.3333" x2="21.0982" y2="4.5251" gradientUnits="userSpaceOnUse">
<stop stop-color="white" stop-opacity="0"/>
<stop offset="0.48" stop-color="white"/>
<stop offset="1" stop-color="white" stop-opacity="0"/>
</linearGradient>
<linearGradient id="paint4_linear_1_8619" x1="29.7602" y1="12.0698" x2="5.30143" y2="19.4452" gradientUnits="userSpaceOnUse">
<stop stop-color="#CF4505"/>
<stop offset="1" stop-color="#E45905"/>
</linearGradient>
<linearGradient id="paint5_linear_1_8619" x1="26.8583" y1="22.3245" x2="-0.0717595" y2="8.84028" gradientUnits="userSpaceOnUse">
<stop stop-color="#FFAF02"/>
<stop offset="1" stop-color="#F56D05"/>
</linearGradient>
<linearGradient id="paint6_linear_1_8619" x1="11.9143" y1="11.5001" x2="22.246" y2="23.6217" gradientUnits="userSpaceOnUse">
<stop stop-color="white"/>
<stop offset="1" stop-color="white" stop-opacity="0"/>
</linearGradient>
<linearGradient id="paint7_linear_1_8619" x1="6.87531" y1="5.85696" x2="12.53" y2="11.5886" gradientUnits="userSpaceOnUse">
<stop stop-color="white"/>
<stop offset="1" stop-color="white" stop-opacity="0"/>
</linearGradient>
<radialGradient id="paint8_radial_1_8619" cx="0" cy="0" r="1" gradientUnits="userSpaceOnUse" gradientTransform="translate(30.1045 29.4241) rotate(45.47) scale(1.04279 5.4225)">
<stop stop-color="white"/>
<stop offset="0.09" stop-color="white" stop-opacity="0.96"/>
<stop offset="0.24" stop-color="white" stop-opacity="0.85"/>
<stop offset="0.43" stop-color="white" stop-opacity="0.66"/>
<stop offset="0.66" stop-color="white" stop-opacity="0.41"/>
<stop offset="0.93" stop-color="white" stop-opacity="0.09"/>
<stop offset="1" stop-color="white" stop-opacity="0"/>
</radialGradient>
</defs>
</svg>
