<svg width="353" height="353" viewBox="0 0 353 353" fill="none" xmlns="http://www.w3.org/2000/svg">
<path d="M176.5 353C273.978 353 353 273.978 353 176.5C353 79.0217 273.978 0 176.5 0C79.0217 0 0 79.0217 0 176.5C0 273.978 79.0217 353 176.5 353Z" fill="url(#paint0_radial_1_1524)"/>
<path d="M58.5381 93.1531C58.8969 93.7754 58.8515 94.5476 58.4291 95.1289C43.3858 115.8 32.9118 140.009 28.506 166.276C28.2698 167.693 26.1759 167.534 26.1759 166.094C26.1759 166.049 26.1759 166.003 26.1759 165.953C26.1759 135.858 35.1056 107.847 50.4487 84.4188C51.189 83.2832 52.8696 83.3287 53.5464 84.5051L58.5381 93.1531ZM175.206 16.9237C127.418 16.9237 84.8911 39.4251 57.6161 74.399C57.1619 74.9804 57.1119 75.7843 57.4798 76.4247L62.7531 85.5543C63.3799 86.6444 64.9015 86.7806 65.71 85.8223C96.6823 48.9634 143.116 25.5309 195.032 25.5309C195.186 25.5309 195.34 25.5309 195.49 25.5309C199.996 25.5445 200.455 18.9858 195.995 18.3635C189.2 17.4142 182.259 16.9237 175.201 16.9237H175.206Z" fill="url(#paint1_radial_1_1524)"/>
<path d="M176.5 43.0225C225.204 43.0225 264.689 82.5066 264.689 131.211C264.689 179.916 225.204 219.4 176.5 219.4C127.795 219.4 88.3113 179.916 88.3113 131.211C88.3113 82.5066 127.795 43.0225 176.5 43.0225ZM176.5 39.843C164.168 39.843 152.2 42.2594 140.936 47.024C130.057 51.6251 120.283 58.2157 111.894 66.6048C103.504 74.994 96.9185 84.764 92.3128 95.6468C87.5482 106.911 85.1318 118.879 85.1318 131.211C85.1318 143.543 87.5482 155.511 92.3128 166.775C96.914 177.654 103.504 187.428 111.894 195.817C120.283 204.207 130.053 210.793 140.936 215.398C152.2 220.163 164.168 222.579 176.5 222.579C188.832 222.579 200.8 220.163 212.064 215.398C222.943 210.797 232.717 204.207 241.106 195.817C249.495 187.428 256.081 177.658 260.687 166.775C265.452 155.511 267.868 143.543 267.868 131.211C267.868 118.879 265.452 106.911 260.687 95.6468C256.086 84.7686 249.495 74.994 241.106 66.6048C232.717 58.2157 222.947 51.6297 212.064 47.024C200.8 42.2594 188.832 39.843 176.5 39.843Z" fill="url(#paint2_linear_1_1524)"/>
<path d="M188.723 317.168C188.723 320.016 181.791 324.176 176.5 324.176C171.208 324.176 164.277 320.016 164.277 317.168C164.277 314.32 188.718 314.32 188.718 317.168H188.723Z" fill="url(#paint3_linear_1_1524)"/>
<path d="M149.202 303.369C153.44 305.694 158.268 304.205 162.728 303.414C165.009 302.946 167.321 302.547 169.651 302.238C171.981 301.952 174.338 301.797 176.695 301.793C181.387 301.815 186.057 302.406 190.671 303.164C194.105 303.66 197.525 304.441 200.995 304.168C202.131 304.055 203.271 303.759 204.247 303.119C203.348 303.887 202.204 304.318 201.05 304.541C197.562 305.14 193.991 304.568 190.526 304.214C185.902 303.673 181.301 303.142 176.691 303.155C172.085 303.11 167.507 303.741 162.915 304.463C158.441 305.077 153.167 306.239 149.207 303.369H149.202Z" fill="#C19D4C"/>
<path d="M237.309 261.246C237.309 274.499 226.563 285.246 213.309 285.246C200.055 285.246 189.309 274.499 189.309 261.246C189.309 255.137 191.593 249.559 195.354 245.321C199.751 240.366 220.086 237.132 226.544 241.224C233.031 245.521 237.309 252.884 237.309 261.246Z" fill="url(#paint4_linear_1_1524)"/>
<path d="M211.646 286.186C221.691 286.186 229.833 278.304 229.833 268.581C229.833 258.858 221.691 250.976 211.646 250.976C201.602 250.976 193.46 258.858 193.46 268.581C193.46 278.304 201.602 286.186 211.646 286.186Z" fill="url(#paint5_linear_1_1524)"/>
<path d="M243.055 294.591C249.534 291.992 252.906 285.199 250.587 279.418C248.268 273.637 241.136 271.058 234.656 273.657C228.177 276.257 224.805 283.05 227.124 288.831C229.443 294.612 236.576 297.191 243.055 294.591Z" fill="url(#paint6_radial_1_1524)"/>
<path d="M228.225 266.133C228.225 275.576 220.567 283.234 211.124 283.234C201.681 283.234 194.023 275.576 194.023 266.133C196.326 264.303 201.695 260.746 209.693 259.393C217.983 257.994 224.596 259.697 227.221 260.346C227.871 262.154 228.225 264.098 228.225 266.128V266.133Z" fill="url(#paint7_radial_1_1524)"/>
<path d="M211.124 283.988C201.277 283.988 193.269 275.98 193.269 266.133V265.77L193.555 265.543C195.563 263.944 201.145 260.074 209.571 258.652C217.855 257.253 224.437 258.884 227.248 259.579L227.798 259.715L227.934 260.097C228.629 262.032 228.984 264.062 228.984 266.133C228.984 275.98 220.971 283.988 211.129 283.988H211.124ZM194.782 266.496C194.977 275.34 202.231 282.475 211.124 282.475C220.017 282.475 227.466 275.144 227.466 266.128C227.466 264.366 227.189 262.636 226.64 260.982C223.796 260.283 217.565 258.829 209.821 260.137C202.117 261.436 196.912 264.857 194.782 266.496Z" fill="#5B3B07"/>
<path d="M209.693 273.369C213.617 273.369 216.797 270.188 216.797 266.265C216.797 262.341 213.617 259.161 209.693 259.161C205.77 259.161 202.59 262.341 202.59 266.265C202.59 270.188 205.77 273.369 209.693 273.369Z" fill="#5B3B07"/>
<path d="M231.682 235.865C230.283 233.426 228.597 231.046 225.959 229.965C220.749 227.812 214.603 228.82 209.117 229.642C206.255 230.11 203.403 230.687 200.632 231.55L200.587 231.423C203.307 230.351 206.146 229.629 208.989 228.979C214.671 227.889 223.76 225.786 228.493 230.006C230.214 231.509 231.259 233.671 231.813 235.815L231.686 235.869L231.682 235.865Z" fill="#FFDC97"/>
<path d="M148.757 309.196C149.429 311.626 151.546 313.539 153.781 314.533C161.193 316.818 168.86 314.747 176.509 314.769C183.563 314.824 190.494 316.491 197.403 314.924C200.514 314.32 202.971 311.753 204.247 308.933C203.257 311.613 201.159 314.07 198.456 315.124C191.38 317.526 183.704 315.814 176.505 315.778C168.515 315.564 151.582 319.661 148.757 309.201V309.196Z" fill="#896729"/>
<path d="M174.665 193.674C210.178 193.674 238.967 164.885 238.967 129.372C238.967 93.8586 210.178 65.0696 174.665 65.0696C139.152 65.0696 110.363 93.8586 110.363 129.372C110.363 164.885 139.152 193.674 174.665 193.674Z" fill="white"/>
<path fill-rule="evenodd" clip-rule="evenodd" d="M88.3158 131.211C88.3158 82.5066 127.795 43.027 176.5 43.027C225.204 43.027 264.684 82.5066 264.684 131.211C264.684 179.916 225.204 219.395 176.5 219.395C127.795 219.395 88.3158 179.916 88.3158 131.211ZM176.641 78.3006L144.17 132.179L176.641 151.373L209.112 132.179L176.641 78.3006ZM176.641 157.523L144.17 138.338L176.641 184.094L209.135 138.338L176.645 157.523H176.641Z" fill="url(#paint8_radial_1_1524)"/>
<path d="M209.957 243.695C218.914 242.614 225.282 244.881 230.878 244.894C230.664 238.281 226.921 231.232 219.368 231.086C211.815 230.941 199.437 233.244 193.465 237.132C188.764 240.189 185.03 246.852 191.334 251.598C197.062 248.682 201.132 244.763 209.961 243.7L209.957 243.695Z" fill="url(#paint9_linear_1_1524)"/>
<path d="M115.691 261.246C115.691 274.499 126.437 285.246 139.691 285.246C152.945 285.246 163.691 274.499 163.691 261.246C163.691 255.137 161.407 249.559 157.646 245.321C153.249 240.366 132.914 237.132 126.456 241.224C119.969 245.521 115.691 252.884 115.691 261.246Z" fill="url(#paint10_linear_1_1524)"/>
<path d="M141.358 286.186C151.402 286.186 159.544 278.304 159.544 268.581C159.544 258.858 151.402 250.976 141.358 250.976C131.314 250.976 123.172 258.858 123.172 268.581C123.172 278.304 131.314 286.186 141.358 286.186Z" fill="url(#paint11_linear_1_1524)"/>
<path d="M125.867 288.793C128.186 283.012 124.814 276.219 118.335 273.619C111.856 271.02 104.723 273.599 102.404 279.38C100.085 285.16 103.457 291.954 109.936 294.553C116.416 297.153 123.548 294.574 125.867 288.793Z" fill="url(#paint12_radial_1_1524)"/>
<path d="M124.78 266.133C124.78 275.576 132.437 283.234 141.88 283.234C151.323 283.234 158.981 275.576 158.981 266.133C156.678 264.303 151.31 260.746 143.311 259.393C135.022 257.994 128.409 259.697 125.783 260.346C125.134 262.154 124.78 264.098 124.78 266.128V266.133Z" fill="url(#paint13_radial_1_1524)"/>
<path d="M141.88 283.988C132.033 283.988 124.026 275.98 124.026 266.133C124.026 264.062 124.38 262.027 125.075 260.097L125.211 259.715L125.761 259.579C128.572 258.884 135.154 257.253 143.438 258.652C151.864 260.074 157.446 263.948 159.454 265.543L159.74 265.77V266.133C159.74 275.98 151.728 283.988 141.885 283.988H141.88ZM126.36 260.987C125.811 262.64 125.534 264.371 125.534 266.133C125.534 275.144 132.864 282.48 141.876 282.48C150.887 282.48 158.023 275.344 158.218 266.501C156.088 264.866 150.883 261.446 143.179 260.142C135.431 258.834 129.199 260.283 126.36 260.987Z" fill="#5B3B07"/>
<path d="M143.307 273.369C147.23 273.369 150.41 270.188 150.41 266.265C150.41 262.341 147.23 259.161 143.307 259.161C139.383 259.161 136.203 262.341 136.203 266.265C136.203 270.188 139.383 273.369 143.307 273.369Z" fill="#5B3B07"/>
<path d="M121.191 235.81C122.363 230.946 125.833 227.853 130.87 227.562C135.308 227.285 139.709 228.08 144.011 228.974C146.854 229.624 149.697 230.346 152.413 231.418L152.368 231.545C149.597 230.687 146.745 230.105 143.883 229.638C137.525 228.72 128.559 227.103 123.758 232.336C122.822 233.367 122.063 234.598 121.319 235.86L121.191 235.806V235.81Z" fill="#FFDC97"/>
<path d="M143.043 243.695C134.086 242.614 127.718 244.881 122.122 244.894C122.336 238.281 126.079 231.232 133.632 231.086C141.185 230.941 153.563 233.244 159.535 237.132C164.236 240.189 167.97 246.852 161.666 251.598C155.938 248.682 151.868 244.763 143.039 243.7L143.043 243.695Z" fill="url(#paint14_linear_1_1524)"/>
<path d="M185.266 298.273C189.872 299.467 198.774 298.827 211.12 301.584C219.622 303.482 226.108 307.561 239.371 306.944C255.559 306.19 253.888 294.803 250.704 291.778C247.856 289.075 242.61 287.676 239.966 293.613C244.068 288.648 249.577 291.587 249.877 295.711C250.345 302.165 243.041 302.474 235.056 301.33C227.035 300.18 213.304 292.468 209.689 290.751C202.703 287.44 195.795 285.827 188.105 287.081C182.818 287.944 178.812 296.592 185.262 298.268L185.266 298.273Z" fill="url(#paint15_linear_1_1524)"/>
<path d="M167.734 298.273C163.128 299.467 154.226 298.827 141.88 301.584C133.378 303.482 126.892 307.561 113.629 306.944C97.4409 306.19 99.1123 294.803 102.296 291.778C105.144 289.075 110.39 287.676 113.034 293.613C108.932 288.648 103.423 291.587 103.123 295.711C102.655 302.165 109.959 302.474 117.944 301.33C125.965 300.18 139.696 292.468 143.311 290.751C150.297 287.44 157.205 285.827 164.895 287.081C170.182 287.944 174.188 296.592 167.738 298.268L167.734 298.273Z" fill="url(#paint16_linear_1_1524)"/>
<path d="M144.792 299.472C145.991 306.012 152.586 308.011 158.45 308.138C164.432 308.342 170.436 307.875 176.468 307.893C182.5 307.875 188.509 308.347 194.487 308.138C197.403 308.034 200.423 307.602 203.017 306.226C205.746 305.004 207.577 302.401 208.145 299.467C207.699 304.613 203.943 307.629 199.065 308.506C191.593 309.714 183.944 308.629 176.468 308.756C170.477 308.738 164.464 309.21 158.418 309.001C152.046 308.851 145.469 306.775 144.792 299.467V299.472Z" fill="#352206"/>
<defs>
<radialGradient id="paint0_radial_1_1524" cx="0" cy="0" r="1" gradientUnits="userSpaceOnUse" gradientTransform="translate(160.348 125.155) rotate(77.35) scale(228.988 199.22)">
<stop stop-color="#FFF9D9"/>
<stop offset="0.06" stop-color="#FFF6D0"/>
<stop offset="0.14" stop-color="#FFEFBA"/>
<stop offset="0.25" stop-color="#FFE496"/>
<stop offset="0.3" stop-color="#FFDE83"/>
<stop offset="0.38" stop-color="#F9D87E"/>
<stop offset="0.49" stop-color="#EBC771"/>
<stop offset="0.62" stop-color="#D2AC5B"/>
<stop offset="0.75" stop-color="#B0863D"/>
<stop offset="0.78" stop-color="#A87D36"/>
<stop offset="0.82" stop-color="#A67D39"/>
<stop offset="0.86" stop-color="#9F7D42"/>
<stop offset="0.88" stop-color="#957E53"/>
<stop offset="0.91" stop-color="#86806A"/>
<stop offset="0.93" stop-color="#728188"/>
<stop offset="0.96" stop-color="#5B84AD"/>
<stop offset="0.98" stop-color="#3F86D8"/>
<stop offset="1" stop-color="#2789FF"/>
</radialGradient>
<radialGradient id="paint1_radial_1_1524" cx="0" cy="0" r="1" gradientUnits="userSpaceOnUse" gradientTransform="translate(86.4273 50.6603) rotate(52.19) scale(133.687 133.687)">
<stop stop-color="#FFFEF3"/>
<stop offset="0.93" stop-color="#E8C56F"/>
</radialGradient>
<linearGradient id="paint2_linear_1_1524" x1="176.5" y1="39.843" x2="176.5" y2="222.579" gradientUnits="userSpaceOnUse">
<stop stop-color="#FFE79C"/>
<stop offset="0.16" stop-color="#FBE296"/>
<stop offset="0.36" stop-color="#F0D585"/>
<stop offset="0.59" stop-color="#DFBF6A"/>
<stop offset="0.85" stop-color="#C8A044"/>
<stop offset="1" stop-color="#B78B2A"/>
</linearGradient>
<linearGradient id="paint3_linear_1_1524" x1="176.591" y1="322.991" x2="176.482" y2="316.087" gradientUnits="userSpaceOnUse">
<stop stop-color="#9C7E48"/>
<stop offset="0.09" stop-color="#9A7C45"/>
<stop offset="1" stop-color="#8C692A"/>
</linearGradient>
<linearGradient id="paint4_linear_1_1524" x1="215.766" y1="273.718" x2="209.503" y2="241.897" gradientUnits="userSpaceOnUse">
<stop stop-color="#BD9549"/>
<stop offset="0.15" stop-color="#B58D41"/>
<stop offset="0.66" stop-color="#A07A2C"/>
<stop offset="1" stop-color="#997325"/>
</linearGradient>
<linearGradient id="paint5_linear_1_1524" x1="212.114" y1="271.406" x2="214.367" y2="284.914" gradientUnits="userSpaceOnUse">
<stop stop-color="#E2B866"/>
<stop offset="0.1" stop-color="#D3AA59"/>
<stop offset="0.32" stop-color="#B89143"/>
<stop offset="0.54" stop-color="#A57F33"/>
<stop offset="0.76" stop-color="#99742A"/>
<stop offset="1" stop-color="#967127"/>
</linearGradient>
<radialGradient id="paint6_radial_1_1524" cx="0" cy="0" r="1" gradientUnits="userSpaceOnUse" gradientTransform="translate(239.432 285.239) rotate(-21.89) scale(13.2083 12.5479)">
<stop offset="0.39" stop-color="#A57319"/>
<stop offset="0.55" stop-color="#B28022"/>
<stop offset="0.75" stop-color="#C99732"/>
<stop offset="0.79" stop-color="#CB9A36"/>
<stop offset="0.84" stop-color="#D2A344"/>
<stop offset="0.89" stop-color="#DDB25B"/>
<stop offset="0.95" stop-color="#EDC77B"/>
<stop offset="1" stop-color="#FFDF9F"/>
</radialGradient>
<radialGradient id="paint7_radial_1_1524" cx="0" cy="0" r="1" gradientUnits="userSpaceOnUse" gradientTransform="translate(204.874 267.373) scale(19.9578)">
<stop stop-color="#FFFCF5"/>
<stop offset="0.19" stop-color="#FFFAF0"/>
<stop offset="0.39" stop-color="#FFF7E3"/>
<stop offset="0.6" stop-color="#FFF2CD"/>
<stop offset="0.81" stop-color="#FFEBAE"/>
<stop offset="0.93" stop-color="#FFE79C"/>
</radialGradient>
<radialGradient id="paint8_radial_1_1524" cx="0" cy="0" r="1" gradientUnits="userSpaceOnUse" gradientTransform="translate(166.317 118.339) scale(89.1561)">
<stop stop-color="#1D2230"/>
<stop offset="1"/>
</radialGradient>
<linearGradient id="paint9_linear_1_1524" x1="208.522" y1="233.417" x2="209.384" y2="244.645" gradientUnits="userSpaceOnUse">
<stop stop-color="#5B3B07"/>
<stop offset="1" stop-color="#352206"/>
</linearGradient>
<linearGradient id="paint10_linear_1_1524" x1="137.234" y1="273.718" x2="143.497" y2="241.897" gradientUnits="userSpaceOnUse">
<stop stop-color="#BD9549"/>
<stop offset="0.15" stop-color="#B58D41"/>
<stop offset="0.66" stop-color="#A07A2C"/>
<stop offset="1" stop-color="#997325"/>
</linearGradient>
<linearGradient id="paint11_linear_1_1524" x1="140.881" y1="271.406" x2="138.633" y2="284.914" gradientUnits="userSpaceOnUse">
<stop stop-color="#E2B866"/>
<stop offset="0.1" stop-color="#D3AA59"/>
<stop offset="0.32" stop-color="#B89143"/>
<stop offset="0.54" stop-color="#A57F33"/>
<stop offset="0.76" stop-color="#99742A"/>
<stop offset="1" stop-color="#967127"/>
</linearGradient>
<radialGradient id="paint12_radial_1_1524" cx="0" cy="0" r="1" gradientUnits="userSpaceOnUse" gradientTransform="translate(113.822 284.764) rotate(-158.11) scale(13.2083 12.5479)">
<stop offset="0.39" stop-color="#A57319"/>
<stop offset="0.55" stop-color="#B28022"/>
<stop offset="0.75" stop-color="#C99732"/>
<stop offset="0.79" stop-color="#CB9A36"/>
<stop offset="0.84" stop-color="#D2A344"/>
<stop offset="0.89" stop-color="#DDB25B"/>
<stop offset="0.95" stop-color="#EDC77B"/>
<stop offset="1" stop-color="#FFDF9F"/>
</radialGradient>
<radialGradient id="paint13_radial_1_1524" cx="0" cy="0" r="1" gradientUnits="userSpaceOnUse" gradientTransform="translate(148.121 267.373) rotate(180) scale(19.9578)">
<stop stop-color="#FFFCF5"/>
<stop offset="0.19" stop-color="#FFFAF0"/>
<stop offset="0.39" stop-color="#FFF7E3"/>
<stop offset="0.6" stop-color="#FFF2CD"/>
<stop offset="0.81" stop-color="#FFEBAE"/>
<stop offset="0.93" stop-color="#FFE79C"/>
</radialGradient>
<linearGradient id="paint14_linear_1_1524" x1="144.478" y1="233.417" x2="143.615" y2="244.645" gradientUnits="userSpaceOnUse">
<stop stop-color="#5B3B07"/>
<stop offset="1" stop-color="#352206"/>
</linearGradient>
<linearGradient id="paint15_linear_1_1524" x1="217.365" y1="291.473" x2="217.365" y2="306.907" gradientUnits="userSpaceOnUse">
<stop stop-color="#5B3B07"/>
<stop offset="0.05" stop-color="#573806"/>
<stop offset="0.36" stop-color="#442C06"/>
<stop offset="0.67" stop-color="#382406"/>
<stop offset="1" stop-color="#352206"/>
</linearGradient>
<linearGradient id="paint16_linear_1_1524" x1="135.631" y1="291.473" x2="135.631" y2="306.907" gradientUnits="userSpaceOnUse">
<stop stop-color="#5B3B07"/>
<stop offset="0.05" stop-color="#573806"/>
<stop offset="0.36" stop-color="#442C06"/>
<stop offset="0.67" stop-color="#382406"/>
<stop offset="1" stop-color="#352206"/>
</linearGradient>
</defs>
</svg>
