<svg width="14" height="15" viewBox="0 0 14 15" fill="none" xmlns="http://www.w3.org/2000/svg">
<path fill-rule="evenodd" clip-rule="evenodd" d="M8.06947 0.332685C7.30117 -0.110895 6.35458 -0.110895 5.58628 0.332685L1.2416 2.84109C0.473295 3.28467 0 4.10444 0 4.9916V10.0084C0 10.8956 0.473294 11.7153 1.2416 12.1589L5.58628 14.6673C6.35458 15.1109 7.30117 15.1109 8.06947 14.6673L12.4142 12.1589C13.1825 11.7153 13.6558 10.8956 13.6558 10.0084V4.9916C13.6558 4.10444 13.1825 3.28467 12.4142 2.84109L8.06947 0.332685ZM4.70734 9.61241L4.36094 9.99234C4.30506 10.0594 4.28271 10.1264 4.28271 10.2047C4.28271 10.3052 4.32741 10.4058 4.39446 10.4952C4.75204 10.9533 5.45603 11.2662 6.14884 11.378V12.0149C6.14884 12.2384 6.3388 12.4284 6.56229 12.4284H7.02044C7.24393 12.4284 7.43389 12.2384 7.43389 12.0149V11.3668C8.54016 11.1433 9.30002 10.3387 9.30002 9.22131C9.30002 7.76585 8.19307 7.28464 7.21678 6.86022C6.4466 6.52541 5.75773 6.22594 5.75773 5.51141C5.75773 4.99739 6.14884 4.65099 6.94222 4.65099C7.40037 4.65099 7.72443 4.76273 8.01496 4.96387C8.09318 5.01974 8.18258 5.05326 8.2608 5.05326C8.37254 5.05326 8.48429 4.99739 8.58485 4.87447L8.85304 4.52807C8.92009 4.44985 8.94243 4.36045 8.94243 4.28223C8.94243 4.13696 8.86421 4.00287 8.75247 3.92465C8.40606 3.67881 7.95909 3.50002 7.43389 3.41063V2.89661C7.43389 2.67312 7.24393 2.48315 7.02044 2.48315H6.56229C6.3388 2.48315 6.14884 2.67312 6.14884 2.89661V3.43298C5.00905 3.67881 4.30506 4.53924 4.30506 5.52259C4.30506 6.95553 5.4256 7.46236 6.40622 7.9059C7.16912 8.25097 7.84734 8.55773 7.84734 9.23248C7.84734 9.82473 7.44507 10.1488 6.79695 10.1488C6.30528 10.1488 5.72421 9.95882 5.27724 9.56772C5.18784 9.4895 5.09845 9.45597 5.00905 9.45597C4.90848 9.45597 4.79674 9.51184 4.70734 9.61241Z" fill="white"/>
</svg>
