<svg width="197" height="197" viewBox="0 0 197 197" fill="none" xmlns="http://www.w3.org/2000/svg">
<g clip-path="url(#clip0_632_841)">
<path d="M194.523 98.7916C194.523 152.094 151.314 195.303 98.0114 195.303C44.7096 195.303 1.5 152.094 1.5 98.7916C1.5 45.4899 44.7096 2.28027 98.0114 2.28027C151.314 2.28027 194.523 45.4899 194.523 98.7916Z" fill="#025B36" stroke="#00DC65" stroke-width="3"/>
<mask id="mask0_632_841" style="mask-type:luminance" maskUnits="userSpaceOnUse" x="44" y="30" width="108" height="134">
<path d="M98 30L44 54.7798V92.9617C44 126.41 66.2076 155.625 98 164C129.792 155.625 152 126.41 152 92.9617V54.7798L98 30Z" fill="white"/>
</mask>
<g mask="url(#mask0_632_841)">
<path d="M98 30L44 54.7798V92.9617C44 126.41 66.2076 155.625 98 164C129.792 155.625 152 126.41 152 92.9617V54.7798L98 30Z" fill="url(#paint0_radial_632_841)" stroke="#00DC65" stroke-width="5.41269"/>
</g>
<path d="M98 140C121.748 140 141 120.748 141 97C141 73.2518 121.748 54 98 54C74.2518 54 55 73.2518 55 97C55 120.748 74.2518 140 98 140Z" fill="#00DC65" fill-opacity="0.4"/>
<path d="M98 126C114.016 126 127 113.016 127 97C127 80.9837 114.016 68 98 68C81.9837 68 69 80.9837 69 97C69 113.016 81.9837 126 98 126Z" fill="#00DC65"/>
<path d="M70.6042 78.0418C70.646 83.6097 70.7312 88.7126 70.7312 93.0993C69.6351 93.0993 68.6242 93.0575 68.6242 93.0575C68.5407 84.9181 68.4972 79.5191 68.4972 79.5191C62.7695 79.6028 61 79.561 61 79.561C61.2105 96.0522 61.1688 107.228 61.1688 107.228C65.5916 107.059 68.793 107.186 68.793 107.186L68.666 99.5104C69.5499 99.4686 70.2249 99.4686 70.7713 99.4686V108.958C75.4882 108.831 78.4373 109 78.4373 109C78.3103 91.7491 78.3103 78 78.3103 78C73.3395 78.0837 70.6026 78.0418 70.6026 78.0418H70.6042Z" fill="#00714F"/>
<path d="M88.2086 81.0649C81.3396 81.0649 79.5835 86.9123 79.5835 95.3578C79.622 104.185 81.9111 108.923 88.247 108.923C94.1235 108.923 96.8337 105.331 96.9106 95.3193C96.9106 86.3769 95.2698 81.0649 88.2086 81.0649ZM88.3222 103.688C87.445 103.688 87.1008 102.733 87.1008 95.2809C87.1008 87.8291 87.2161 86.5291 88.2454 86.5291C89.0858 86.5291 89.3899 87.5614 89.3899 95.0132C89.3899 102.465 89.0842 103.688 88.3206 103.688H88.3222Z" fill="#00714F"/>
<path d="M103.49 79.5894C101.873 79.5894 100.089 79.7149 98.097 80.0043C98.097 80.0043 98.1388 94.0463 98.0552 108.132C99.8397 108.339 101.499 108.465 103.034 108.465C111.913 108.465 116.146 104.56 116.146 94.339C116.146 84.1184 112.991 79.5894 103.49 79.5894ZM105.689 102.647C105.689 102.647 105.482 94.5883 105.44 85.7797C107.225 85.7379 108.054 87.3172 108.054 93.9643C108.054 102.107 107.223 102.647 105.689 102.647Z" fill="#00714F"/>
<path d="M124.313 101.777C124.046 85.6895 124.161 81.8682 124.161 81.8682C119.543 81.9452 117.292 81.8682 117.292 81.8682C117.521 97.4979 117.521 108.045 117.521 108.045C117.521 108.045 126.719 108.083 129.849 108.197C129.849 108.197 129.81 105.674 129.887 101.891C129.887 101.891 127.406 101.891 124.315 101.776L124.313 101.777Z" fill="#00714F"/>
<path d="M137.688 99.5037C138.053 88.7494 138.417 82.7715 138.417 82.7715C134.121 82.8452 131.281 82.7715 131.281 82.7715C131.864 91.7023 132.191 99.4686 132.191 99.4686C135.431 99.395 137.688 99.5054 137.688 99.5054V99.5037Z" fill="#00714F"/>
<path d="M134.958 100.67C132.3 100.67 130.844 102.346 130.844 104.571C130.844 107.086 132.447 108.619 135.032 108.619C137.363 108.619 139 107.051 139 104.682C139 102.641 137.762 100.672 134.958 100.672V100.67Z" fill="#00714F"/>
<mask id="mask1_632_841" style="mask-type:luminance" maskUnits="userSpaceOnUse" x="58" y="75" width="83" height="37">
<path d="M141 75H58V112H141V75Z" fill="white"/>
<path d="M70.6042 78.0418C70.646 83.6097 70.7312 88.7126 70.7312 93.0993C69.6351 93.0993 68.6242 93.0575 68.6242 93.0575C68.5407 84.9181 68.4972 79.5191 68.4972 79.5191C62.7695 79.6028 61 79.561 61 79.561C61.2105 96.0522 61.1688 107.228 61.1688 107.228C65.5916 107.059 68.793 107.186 68.793 107.186L68.666 99.5104C69.5499 99.4686 70.2249 99.4686 70.7713 99.4686V108.958C75.4882 108.831 78.4373 109 78.4373 109C78.3103 91.7491 78.3103 78 78.3103 78C73.3395 78.0837 70.6026 78.0418 70.6026 78.0418H70.6042Z" fill="black"/>
<path d="M88.2086 81.0649C81.3396 81.0649 79.5835 86.9123 79.5835 95.3578C79.622 104.185 81.9111 108.923 88.247 108.923C94.1235 108.923 96.8337 105.331 96.9106 95.3193C96.9106 86.3769 95.2698 81.0649 88.2086 81.0649ZM88.3222 103.688C87.445 103.688 87.1008 102.733 87.1008 95.2809C87.1008 87.8291 87.2161 86.5291 88.2454 86.5291C89.0858 86.5291 89.3899 87.5614 89.3899 95.0132C89.3899 102.465 89.0842 103.688 88.3206 103.688H88.3222Z" fill="black"/>
<path d="M103.49 79.5894C101.873 79.5894 100.089 79.7149 98.097 80.0043C98.097 80.0043 98.1388 94.0463 98.0552 108.132C99.8397 108.339 101.499 108.465 103.034 108.465C111.913 108.465 116.146 104.56 116.146 94.339C116.146 84.1184 112.991 79.5894 103.49 79.5894ZM105.689 102.647C105.689 102.647 105.482 94.5883 105.44 85.7797C107.225 85.7379 108.054 87.3172 108.054 93.9643C108.054 102.107 107.223 102.647 105.689 102.647Z" fill="black"/>
<path d="M124.313 101.777C124.046 85.6895 124.161 81.8682 124.161 81.8682C119.543 81.9452 117.292 81.8682 117.292 81.8682C117.521 97.4979 117.521 108.045 117.521 108.045C117.521 108.045 126.719 108.083 129.849 108.197C129.849 108.197 129.81 105.674 129.887 101.891C129.887 101.891 127.406 101.891 124.315 101.776L124.313 101.777Z" fill="black"/>
<path d="M137.688 99.5037C138.053 88.7494 138.417 82.7715 138.417 82.7715C134.121 82.8452 131.281 82.7715 131.281 82.7715C131.864 91.7023 132.191 99.4686 132.191 99.4686C135.431 99.395 137.688 99.5054 137.688 99.5054V99.5037Z" fill="black"/>
<path d="M134.958 100.67C132.3 100.67 130.844 102.346 130.844 104.571C130.844 107.086 132.447 108.619 135.032 108.619C137.363 108.619 139 107.051 139 104.682C139 102.641 137.762 100.672 134.958 100.672V100.67Z" fill="black"/>
</mask>
<g mask="url(#mask1_632_841)">
<path d="M70.6042 78.0418C70.646 83.6097 70.7312 88.7126 70.7312 93.0993C69.6351 93.0993 68.6242 93.0575 68.6242 93.0575C68.5407 84.9181 68.4972 79.5191 68.4972 79.5191C62.7695 79.6028 61 79.561 61 79.561C61.2105 96.0522 61.1688 107.228 61.1688 107.228C65.5916 107.059 68.793 107.186 68.793 107.186L68.666 99.5104C69.5499 99.4686 70.2249 99.4686 70.7713 99.4686V108.958C75.4882 108.831 78.4373 109 78.4373 109C78.3103 91.7491 78.3103 78 78.3103 78C73.3395 78.0837 70.6026 78.0418 70.6026 78.0418H70.6042Z" stroke="white" stroke-width="4"/>
</g>
<mask id="mask2_632_841" style="mask-type:luminance" maskUnits="userSpaceOnUse" x="58" y="75" width="83" height="37">
<path d="M141 75H58V112H141V75Z" fill="white"/>
<path d="M70.6042 78.0418C70.646 83.6097 70.7312 88.7126 70.7312 93.0993C69.6351 93.0993 68.6242 93.0575 68.6242 93.0575C68.5407 84.9181 68.4972 79.5191 68.4972 79.5191C62.7695 79.6028 61 79.561 61 79.561C61.2105 96.0522 61.1688 107.228 61.1688 107.228C65.5916 107.059 68.793 107.186 68.793 107.186L68.666 99.5104C69.5499 99.4686 70.2249 99.4686 70.7713 99.4686V108.958C75.4882 108.831 78.4373 109 78.4373 109C78.3103 91.7491 78.3103 78 78.3103 78C73.3395 78.0837 70.6026 78.0418 70.6026 78.0418H70.6042Z" fill="black"/>
<path d="M88.2086 81.0649C81.3396 81.0649 79.5835 86.9123 79.5835 95.3578C79.622 104.185 81.9111 108.923 88.247 108.923C94.1235 108.923 96.8337 105.331 96.9106 95.3193C96.9106 86.3769 95.2698 81.0649 88.2086 81.0649ZM88.3222 103.688C87.445 103.688 87.1008 102.733 87.1008 95.2809C87.1008 87.8291 87.2161 86.5291 88.2454 86.5291C89.0858 86.5291 89.3899 87.5614 89.3899 95.0132C89.3899 102.465 89.0842 103.688 88.3206 103.688H88.3222Z" fill="black"/>
<path d="M103.49 79.5894C101.873 79.5894 100.089 79.7149 98.097 80.0043C98.097 80.0043 98.1388 94.0463 98.0552 108.132C99.8397 108.339 101.499 108.465 103.034 108.465C111.913 108.465 116.146 104.56 116.146 94.339C116.146 84.1184 112.991 79.5894 103.49 79.5894ZM105.689 102.647C105.689 102.647 105.482 94.5883 105.44 85.7797C107.225 85.7379 108.054 87.3172 108.054 93.9643C108.054 102.107 107.223 102.647 105.689 102.647Z" fill="black"/>
<path d="M124.313 101.777C124.046 85.6895 124.161 81.8682 124.161 81.8682C119.543 81.9452 117.292 81.8682 117.292 81.8682C117.521 97.4979 117.521 108.045 117.521 108.045C117.521 108.045 126.719 108.083 129.849 108.197C129.849 108.197 129.81 105.674 129.887 101.891C129.887 101.891 127.406 101.891 124.315 101.776L124.313 101.777Z" fill="black"/>
<path d="M137.688 99.5037C138.053 88.7494 138.417 82.7715 138.417 82.7715C134.121 82.8452 131.281 82.7715 131.281 82.7715C131.864 91.7023 132.191 99.4686 132.191 99.4686C135.431 99.395 137.688 99.5054 137.688 99.5054V99.5037Z" fill="black"/>
<path d="M134.958 100.67C132.3 100.67 130.844 102.346 130.844 104.571C130.844 107.086 132.447 108.619 135.032 108.619C137.363 108.619 139 107.051 139 104.682C139 102.641 137.762 100.672 134.958 100.672V100.67Z" fill="black"/>
</mask>
<g mask="url(#mask2_632_841)">
<path d="M88.2086 81.0649C81.3396 81.0649 79.5835 86.9123 79.5835 95.3578C79.622 104.185 81.9111 108.923 88.247 108.923C94.1235 108.923 96.8337 105.331 96.9106 95.3193C96.9106 86.3769 95.2698 81.0649 88.2086 81.0649ZM88.3222 103.688C87.445 103.688 87.1008 102.733 87.1008 95.2809C87.1008 87.8291 87.2161 86.5291 88.2454 86.5291C89.0858 86.5291 89.3899 87.5614 89.3899 95.0132C89.3899 102.465 89.0842 103.688 88.3206 103.688H88.3222Z" stroke="white" stroke-width="4"/>
</g>
<mask id="mask3_632_841" style="mask-type:luminance" maskUnits="userSpaceOnUse" x="58" y="75" width="83" height="37">
<path d="M141 75H58V112H141V75Z" fill="white"/>
<path d="M70.6042 78.0418C70.646 83.6097 70.7312 88.7126 70.7312 93.0993C69.6351 93.0993 68.6242 93.0575 68.6242 93.0575C68.5407 84.9181 68.4972 79.5191 68.4972 79.5191C62.7695 79.6028 61 79.561 61 79.561C61.2105 96.0522 61.1688 107.228 61.1688 107.228C65.5916 107.059 68.793 107.186 68.793 107.186L68.666 99.5104C69.5499 99.4686 70.2249 99.4686 70.7713 99.4686V108.958C75.4882 108.831 78.4373 109 78.4373 109C78.3103 91.7491 78.3103 78 78.3103 78C73.3395 78.0837 70.6026 78.0418 70.6026 78.0418H70.6042Z" fill="black"/>
<path d="M88.2086 81.0649C81.3396 81.0649 79.5835 86.9123 79.5835 95.3578C79.622 104.185 81.9111 108.923 88.247 108.923C94.1235 108.923 96.8337 105.331 96.9106 95.3193C96.9106 86.3769 95.2698 81.0649 88.2086 81.0649ZM88.3222 103.688C87.445 103.688 87.1008 102.733 87.1008 95.2809C87.1008 87.8291 87.2161 86.5291 88.2454 86.5291C89.0858 86.5291 89.3899 87.5614 89.3899 95.0132C89.3899 102.465 89.0842 103.688 88.3206 103.688H88.3222Z" fill="black"/>
<path d="M103.49 79.5894C101.873 79.5894 100.089 79.7149 98.097 80.0043C98.097 80.0043 98.1388 94.0463 98.0552 108.132C99.8397 108.339 101.499 108.465 103.034 108.465C111.913 108.465 116.146 104.56 116.146 94.339C116.146 84.1184 112.991 79.5894 103.49 79.5894ZM105.689 102.647C105.689 102.647 105.482 94.5883 105.44 85.7797C107.225 85.7379 108.054 87.3172 108.054 93.9643C108.054 102.107 107.223 102.647 105.689 102.647Z" fill="black"/>
<path d="M124.313 101.777C124.046 85.6895 124.161 81.8682 124.161 81.8682C119.543 81.9452 117.292 81.8682 117.292 81.8682C117.521 97.4979 117.521 108.045 117.521 108.045C117.521 108.045 126.719 108.083 129.849 108.197C129.849 108.197 129.81 105.674 129.887 101.891C129.887 101.891 127.406 101.891 124.315 101.776L124.313 101.777Z" fill="black"/>
<path d="M137.688 99.5037C138.053 88.7494 138.417 82.7715 138.417 82.7715C134.121 82.8452 131.281 82.7715 131.281 82.7715C131.864 91.7023 132.191 99.4686 132.191 99.4686C135.431 99.395 137.688 99.5054 137.688 99.5054V99.5037Z" fill="black"/>
<path d="M134.958 100.67C132.3 100.67 130.844 102.346 130.844 104.571C130.844 107.086 132.447 108.619 135.032 108.619C137.363 108.619 139 107.051 139 104.682C139 102.641 137.762 100.672 134.958 100.672V100.67Z" fill="black"/>
</mask>
<g mask="url(#mask3_632_841)">
<path d="M103.49 79.5894C101.873 79.5894 100.089 79.7149 98.097 80.0043C98.097 80.0043 98.1388 94.0463 98.0552 108.132C99.8397 108.339 101.499 108.465 103.034 108.465C111.913 108.465 116.146 104.56 116.146 94.339C116.146 84.1184 112.991 79.5894 103.49 79.5894ZM105.689 102.647C105.689 102.647 105.482 94.5883 105.44 85.7797C107.225 85.7379 108.054 87.3172 108.054 93.9643C108.054 102.107 107.223 102.647 105.689 102.647Z" stroke="white" stroke-width="4"/>
</g>
<mask id="mask4_632_841" style="mask-type:luminance" maskUnits="userSpaceOnUse" x="58" y="75" width="83" height="37">
<path d="M141 75H58V112H141V75Z" fill="white"/>
<path d="M70.6042 78.0418C70.646 83.6097 70.7312 88.7126 70.7312 93.0993C69.6351 93.0993 68.6242 93.0575 68.6242 93.0575C68.5407 84.9181 68.4972 79.5191 68.4972 79.5191C62.7695 79.6028 61 79.561 61 79.561C61.2105 96.0522 61.1688 107.228 61.1688 107.228C65.5916 107.059 68.793 107.186 68.793 107.186L68.666 99.5104C69.5499 99.4686 70.2249 99.4686 70.7713 99.4686V108.958C75.4882 108.831 78.4373 109 78.4373 109C78.3103 91.7491 78.3103 78 78.3103 78C73.3395 78.0837 70.6026 78.0418 70.6026 78.0418H70.6042Z" fill="black"/>
<path d="M88.2086 81.0649C81.3396 81.0649 79.5835 86.9123 79.5835 95.3578C79.622 104.185 81.9111 108.923 88.247 108.923C94.1235 108.923 96.8337 105.331 96.9106 95.3193C96.9106 86.3769 95.2698 81.0649 88.2086 81.0649ZM88.3222 103.688C87.445 103.688 87.1008 102.733 87.1008 95.2809C87.1008 87.8291 87.2161 86.5291 88.2454 86.5291C89.0858 86.5291 89.3899 87.5614 89.3899 95.0132C89.3899 102.465 89.0842 103.688 88.3206 103.688H88.3222Z" fill="black"/>
<path d="M103.49 79.5894C101.873 79.5894 100.089 79.7149 98.097 80.0043C98.097 80.0043 98.1388 94.0463 98.0552 108.132C99.8397 108.339 101.499 108.465 103.034 108.465C111.913 108.465 116.146 104.56 116.146 94.339C116.146 84.1184 112.991 79.5894 103.49 79.5894ZM105.689 102.647C105.689 102.647 105.482 94.5883 105.44 85.7797C107.225 85.7379 108.054 87.3172 108.054 93.9643C108.054 102.107 107.223 102.647 105.689 102.647Z" fill="black"/>
<path d="M124.313 101.777C124.046 85.6895 124.161 81.8682 124.161 81.8682C119.543 81.9452 117.292 81.8682 117.292 81.8682C117.521 97.4979 117.521 108.045 117.521 108.045C117.521 108.045 126.719 108.083 129.849 108.197C129.849 108.197 129.81 105.674 129.887 101.891C129.887 101.891 127.406 101.891 124.315 101.776L124.313 101.777Z" fill="black"/>
<path d="M137.688 99.5037C138.053 88.7494 138.417 82.7715 138.417 82.7715C134.121 82.8452 131.281 82.7715 131.281 82.7715C131.864 91.7023 132.191 99.4686 132.191 99.4686C135.431 99.395 137.688 99.5054 137.688 99.5054V99.5037Z" fill="black"/>
<path d="M134.958 100.67C132.3 100.67 130.844 102.346 130.844 104.571C130.844 107.086 132.447 108.619 135.032 108.619C137.363 108.619 139 107.051 139 104.682C139 102.641 137.762 100.672 134.958 100.672V100.67Z" fill="black"/>
</mask>
<g mask="url(#mask4_632_841)">
<path d="M124.313 101.777C124.046 85.6895 124.161 81.8682 124.161 81.8682C119.543 81.9452 117.292 81.8682 117.292 81.8682C117.521 97.4979 117.521 108.045 117.521 108.045C117.521 108.045 126.719 108.083 129.849 108.197C129.849 108.197 129.81 105.674 129.887 101.891C129.887 101.891 127.406 101.891 124.315 101.776L124.313 101.777Z" stroke="white" stroke-width="4"/>
</g>
<mask id="mask5_632_841" style="mask-type:luminance" maskUnits="userSpaceOnUse" x="58" y="75" width="83" height="37">
<path d="M141 75H58V112H141V75Z" fill="white"/>
<path d="M70.6042 78.0418C70.646 83.6097 70.7312 88.7126 70.7312 93.0993C69.6351 93.0993 68.6242 93.0575 68.6242 93.0575C68.5407 84.9181 68.4972 79.5191 68.4972 79.5191C62.7695 79.6028 61 79.561 61 79.561C61.2105 96.0522 61.1688 107.228 61.1688 107.228C65.5916 107.059 68.793 107.186 68.793 107.186L68.666 99.5104C69.5499 99.4686 70.2249 99.4686 70.7713 99.4686V108.958C75.4882 108.831 78.4373 109 78.4373 109C78.3103 91.7491 78.3103 78 78.3103 78C73.3395 78.0837 70.6026 78.0418 70.6026 78.0418H70.6042Z" fill="black"/>
<path d="M88.2086 81.0649C81.3396 81.0649 79.5835 86.9123 79.5835 95.3578C79.622 104.185 81.9111 108.923 88.247 108.923C94.1235 108.923 96.8337 105.331 96.9106 95.3193C96.9106 86.3769 95.2698 81.0649 88.2086 81.0649ZM88.3222 103.688C87.445 103.688 87.1008 102.733 87.1008 95.2809C87.1008 87.8291 87.2161 86.5291 88.2454 86.5291C89.0858 86.5291 89.3899 87.5614 89.3899 95.0132C89.3899 102.465 89.0842 103.688 88.3206 103.688H88.3222Z" fill="black"/>
<path d="M103.49 79.5894C101.873 79.5894 100.089 79.7149 98.097 80.0043C98.097 80.0043 98.1388 94.0463 98.0552 108.132C99.8397 108.339 101.499 108.465 103.034 108.465C111.913 108.465 116.146 104.56 116.146 94.339C116.146 84.1184 112.991 79.5894 103.49 79.5894ZM105.689 102.647C105.689 102.647 105.482 94.5883 105.44 85.7797C107.225 85.7379 108.054 87.3172 108.054 93.9643C108.054 102.107 107.223 102.647 105.689 102.647Z" fill="black"/>
<path d="M124.313 101.777C124.046 85.6895 124.161 81.8682 124.161 81.8682C119.543 81.9452 117.292 81.8682 117.292 81.8682C117.521 97.4979 117.521 108.045 117.521 108.045C117.521 108.045 126.719 108.083 129.849 108.197C129.849 108.197 129.81 105.674 129.887 101.891C129.887 101.891 127.406 101.891 124.315 101.776L124.313 101.777Z" fill="black"/>
<path d="M137.688 99.5037C138.053 88.7494 138.417 82.7715 138.417 82.7715C134.121 82.8452 131.281 82.7715 131.281 82.7715C131.864 91.7023 132.191 99.4686 132.191 99.4686C135.431 99.395 137.688 99.5054 137.688 99.5054V99.5037Z" fill="black"/>
<path d="M134.958 100.67C132.3 100.67 130.844 102.346 130.844 104.571C130.844 107.086 132.447 108.619 135.032 108.619C137.363 108.619 139 107.051 139 104.682C139 102.641 137.762 100.672 134.958 100.672V100.67Z" fill="black"/>
</mask>
<g mask="url(#mask5_632_841)">
<path d="M137.688 99.5037C138.053 88.7494 138.417 82.7715 138.417 82.7715C134.121 82.8452 131.281 82.7715 131.281 82.7715C131.864 91.7023 132.191 99.4686 132.191 99.4686C135.431 99.395 137.688 99.5054 137.688 99.5054V99.5037Z" stroke="white" stroke-width="4"/>
</g>
<mask id="mask6_632_841" style="mask-type:luminance" maskUnits="userSpaceOnUse" x="58" y="75" width="83" height="37">
<path d="M141 75H58V112H141V75Z" fill="white"/>
<path d="M70.6042 78.0418C70.646 83.6097 70.7312 88.7126 70.7312 93.0993C69.6351 93.0993 68.6242 93.0575 68.6242 93.0575C68.5407 84.9181 68.4972 79.5191 68.4972 79.5191C62.7695 79.6028 61 79.561 61 79.561C61.2105 96.0522 61.1688 107.228 61.1688 107.228C65.5916 107.059 68.793 107.186 68.793 107.186L68.666 99.5104C69.5499 99.4686 70.2249 99.4686 70.7713 99.4686V108.958C75.4882 108.831 78.4373 109 78.4373 109C78.3103 91.7491 78.3103 78 78.3103 78C73.3395 78.0837 70.6026 78.0418 70.6026 78.0418H70.6042Z" fill="black"/>
<path d="M88.2086 81.0649C81.3396 81.0649 79.5835 86.9123 79.5835 95.3578C79.622 104.185 81.9111 108.923 88.247 108.923C94.1235 108.923 96.8337 105.331 96.9106 95.3193C96.9106 86.3769 95.2698 81.0649 88.2086 81.0649ZM88.3222 103.688C87.445 103.688 87.1008 102.733 87.1008 95.2809C87.1008 87.8291 87.2161 86.5291 88.2454 86.5291C89.0858 86.5291 89.3899 87.5614 89.3899 95.0132C89.3899 102.465 89.0842 103.688 88.3206 103.688H88.3222Z" fill="black"/>
<path d="M103.49 79.5894C101.873 79.5894 100.089 79.7149 98.097 80.0043C98.097 80.0043 98.1388 94.0463 98.0552 108.132C99.8397 108.339 101.499 108.465 103.034 108.465C111.913 108.465 116.146 104.56 116.146 94.339C116.146 84.1184 112.991 79.5894 103.49 79.5894ZM105.689 102.647C105.689 102.647 105.482 94.5883 105.44 85.7797C107.225 85.7379 108.054 87.3172 108.054 93.9643C108.054 102.107 107.223 102.647 105.689 102.647Z" fill="black"/>
<path d="M124.313 101.777C124.046 85.6895 124.161 81.8682 124.161 81.8682C119.543 81.9452 117.292 81.8682 117.292 81.8682C117.521 97.4979 117.521 108.045 117.521 108.045C117.521 108.045 126.719 108.083 129.849 108.197C129.849 108.197 129.81 105.674 129.887 101.891C129.887 101.891 127.406 101.891 124.315 101.776L124.313 101.777Z" fill="black"/>
<path d="M137.688 99.5037C138.053 88.7494 138.417 82.7715 138.417 82.7715C134.121 82.8452 131.281 82.7715 131.281 82.7715C131.864 91.7023 132.191 99.4686 132.191 99.4686C135.431 99.395 137.688 99.5054 137.688 99.5054V99.5037Z" fill="black"/>
<path d="M134.958 100.67C132.3 100.67 130.844 102.346 130.844 104.571C130.844 107.086 132.447 108.619 135.032 108.619C137.363 108.619 139 107.051 139 104.682C139 102.641 137.762 100.672 134.958 100.672V100.67Z" fill="black"/>
</mask>
<g mask="url(#mask6_632_841)">
<path d="M134.958 100.67C132.3 100.67 130.844 102.346 130.844 104.571C130.844 107.086 132.447 108.619 135.032 108.619C137.363 108.619 139 107.051 139 104.682C139 102.641 137.762 100.672 134.958 100.672V100.67Z" stroke="white" stroke-width="4"/>
</g>
</g>
<defs>
<radialGradient id="paint0_radial_632_841" cx="0" cy="0" r="1" gradientUnits="userSpaceOnUse" gradientTransform="translate(98 97) rotate(90) scale(81.2553 65.4894)">
<stop offset="0.00722997" stop-color="#00DC65"/>
<stop offset="1" stop-color="#0B3F2F"/>
</radialGradient>
<clipPath id="clip0_632_841">
<rect width="197" height="197" fill="white"/>
</clipPath>
</defs>
</svg>
