<svg width="40" height="40" viewBox="0 0 40 40" fill="none" xmlns="http://www.w3.org/2000/svg">
<circle cx="20" cy="20" r="20" fill="#292929"/>
<circle cx="20" cy="20" r="20" fill="#140956"/>
<path d="M12.8316 15.303L15.7103 23.4659H15.824L18.7028 15.303H19.9338L16.3732 25H15.1611L11.6005 15.303H12.8316ZM21.4442 25V15.303H24.7208C25.4815 15.303 26.1033 15.4403 26.5863 15.715C27.0724 15.9864 27.4322 16.3542 27.6658 16.8182C27.8994 17.2822 28.0162 17.7999 28.0162 18.3712C28.0162 18.9426 27.8994 19.4618 27.6658 19.929C27.4354 20.3961 27.0787 20.7686 26.5958 21.0464C26.1128 21.321 25.4941 21.4583 24.7397 21.4583H22.3912V20.4167H24.7018C25.2227 20.4167 25.6409 20.3267 25.9566 20.1468C26.2722 19.9669 26.5011 19.7238 26.6431 19.4176C26.7883 19.1083 26.8609 18.7595 26.8609 18.3712C26.8609 17.983 26.7883 17.6357 26.6431 17.3295C26.5011 17.0234 26.2706 16.7835 25.9518 16.6098C25.633 16.4331 25.21 16.3447 24.6829 16.3447H22.6185V25H21.4442Z" fill="white"/>
</svg>
