<svg width="15" height="15" viewBox="0 0 12 11" fill="none" xmlns="http://www.w3.org/2000/svg">
<path d="M5.42362 6.96561C5.58338 7.12537 5.8424 7.12537 6.00216 6.96561L8.6056 4.36217C8.76536 4.20241 8.76536 3.94339 8.6056 3.78363C8.44584 3.62387 8.18682 3.62387 8.02706 3.78363L5.71289 6.09779L3.39872 3.78363C3.23896 3.62387 2.97994 3.62387 2.82018 3.78363C2.66042 3.94339 2.66042 4.20241 2.82018 4.36217L5.42362 6.96561ZM5.3038 1.78819e-08L5.3038 6.67633L6.12198 6.67633L6.12198 -1.78819e-08L5.3038 1.78819e-08Z" fill="#00DC65"/>
<path d="M1 6.28345V9.03253C1 9.46632 1.35166 9.81798 1.78545 9.81798H9.83632C10.2701 9.81798 10.6218 9.46632 10.6218 9.03253V6.28345" stroke="#00DC65" stroke-width="0.818182"/>
</svg>
