<svg width="125" height="147" viewBox="0 0 125 147" fill="none" xmlns="http://www.w3.org/2000/svg">
<circle cx="13.5" cy="51.5" r="9.5" fill="#8D3FFC"/>
<circle cx="91.5" cy="51.5" r="14.5" fill="#8D3FFC"/>
<path fill-rule="evenodd" clip-rule="evenodd" d="M98.3373 71.89C91.4212 83.3427 78.8548 91 64.5 91C42.6848 91 25 73.3152 25 51.5C25 29.6848 42.6848 12 64.5 12C78.8548 12 91.4212 19.6573 98.3373 31.11C96.1894 30.3901 93.8903 30 91.5 30C86.3867 30 81.6903 31.785 78 34.7659C74.3097 31.785 69.6133 30 64.5 30C52.6259 30 43 39.6259 43 51.5C43 63.3741 52.6259 73 64.5 73C69.6133 73 74.3097 71.215 78 68.2341C81.6903 71.215 86.3867 73 91.5 73C93.8903 73 96.1894 72.6099 98.3373 71.89Z" fill="#F66202"/>
<path d="M11.3407 104.098H8.29965C8.27808 103.847 8.22057 103.618 8.12711 103.414C8.03724 103.209 7.91143 103.033 7.74967 102.885C7.59151 102.734 7.3992 102.619 7.17274 102.54C6.94628 102.457 6.68926 102.416 6.40169 102.416C5.89845 102.416 5.47248 102.538 5.1238 102.783C4.77872 103.027 4.51631 103.378 4.33658 103.834C4.16045 104.291 4.07238 104.839 4.07238 105.479C4.07238 106.154 4.16224 106.721 4.34197 107.177C4.5253 107.63 4.78951 107.972 5.13459 108.202C5.47967 108.428 5.89485 108.541 6.38012 108.541C6.65691 108.541 6.90494 108.507 7.12421 108.439C7.34348 108.367 7.534 108.264 7.69576 108.131C7.85751 107.998 7.98872 107.839 8.08937 107.652C8.19361 107.461 8.26371 107.247 8.29965 107.01L11.3407 107.032C11.3048 107.499 11.1736 107.975 10.9471 108.46C10.7206 108.942 10.3989 109.388 9.98193 109.798C9.56855 110.204 9.05632 110.531 8.44523 110.779C7.83415 111.027 7.12421 111.151 6.31542 111.151C5.30174 111.151 4.3923 110.933 3.5871 110.499C2.7855 110.064 2.15105 109.424 1.68375 108.579C1.22005 107.734 0.988195 106.701 0.988195 105.479C0.988195 104.249 1.22544 103.214 1.69993 102.373C2.17442 101.528 2.81426 100.89 3.61946 100.459C4.42465 100.024 5.32331 99.8064 6.31542 99.8064C7.01278 99.8064 7.65442 99.9016 8.24034 100.092C8.82626 100.283 9.34029 100.561 9.78243 100.928C10.2246 101.291 10.5804 101.738 10.85 102.27C11.1196 102.802 11.2832 103.412 11.3407 104.098ZM12.7008 111V99.9573H17.4673C18.2869 99.9573 19.004 100.107 19.6187 100.405C20.2333 100.703 20.7114 101.133 21.0529 101.694C21.3944 102.254 21.5651 102.926 21.5651 103.71C21.5651 104.501 21.389 105.168 21.0367 105.711C20.6881 106.253 20.1974 106.663 19.5647 106.94C18.9357 107.217 18.2006 107.355 17.3594 107.355H14.5125V105.026H16.7555C17.1078 105.026 17.408 104.983 17.656 104.896C17.9076 104.806 18.0999 104.664 18.2329 104.47C18.3695 104.276 18.4378 104.023 18.4378 103.71C18.4378 103.394 18.3695 103.137 18.2329 102.939C18.0999 102.738 17.9076 102.59 17.656 102.497C17.408 102.4 17.1078 102.351 16.7555 102.351H15.6987V111H12.7008ZM19.1711 105.932L21.9318 111H18.6751L15.9791 105.932H19.1711ZM21.8711 99.9573H25.2141L27.3709 104.443H27.4572L29.6139 99.9573H32.9569L28.9022 107.528V111H25.9259V107.528L21.8711 99.9573ZM33.9342 111V99.9573H38.7007C39.5203 99.9573 40.2374 100.119 40.8521 100.443C41.4668 100.766 41.9448 101.221 42.2863 101.807C42.6278 102.393 42.7986 103.077 42.7986 103.861C42.7986 104.652 42.6224 105.337 42.2702 105.915C41.9215 106.494 41.4308 106.94 40.7982 107.253C40.1691 107.565 39.434 107.722 38.5929 107.722H35.7459V105.392H37.989C38.3412 105.392 38.6414 105.331 38.8894 105.209C39.141 105.083 39.3333 104.905 39.4664 104.675C39.6029 104.445 39.6712 104.174 39.6712 103.861C39.6712 103.545 39.6029 103.275 39.4664 103.052C39.3333 102.826 39.141 102.653 38.8894 102.535C38.6414 102.412 38.3412 102.351 37.989 102.351H36.9321V111H33.9342ZM43.5966 102.373V99.9573H53.1942V102.373H49.8728V111H46.918V102.373H43.5966ZM64.5011 105.479C64.5011 106.708 64.262 107.745 63.784 108.59C63.3059 109.431 62.6606 110.069 61.8483 110.504C61.0359 110.935 60.13 111.151 59.1307 111.151C58.1242 111.151 57.2148 110.933 56.4024 110.499C55.5936 110.06 54.9502 109.42 54.4721 108.579C53.9976 107.734 53.7604 106.701 53.7604 105.479C53.7604 104.249 53.9976 103.214 54.4721 102.373C54.9502 101.528 55.5936 100.89 56.4024 100.459C57.2148 100.024 58.1242 99.8064 59.1307 99.8064C60.13 99.8064 61.0359 100.024 61.8483 100.459C62.6606 100.89 63.3059 101.528 63.784 102.373C64.262 103.214 64.5011 104.249 64.5011 105.479ZM61.4169 105.479C61.4169 104.817 61.3288 104.26 61.1527 103.807C60.9802 103.351 60.7231 103.006 60.3816 102.772C60.0438 102.535 59.6268 102.416 59.1307 102.416C58.6347 102.416 58.2159 102.535 57.8744 102.772C57.5365 103.006 57.2795 103.351 57.1034 103.807C56.9308 104.26 56.8445 104.817 56.8445 105.479C56.8445 106.14 56.9308 106.699 57.1034 107.156C57.2795 107.608 57.5365 107.954 57.8744 108.191C58.2159 108.424 58.6347 108.541 59.1307 108.541C59.6268 108.541 60.0438 108.424 60.3816 108.191C60.7231 107.954 60.9802 107.608 61.1527 107.156C61.3288 106.699 61.4169 106.14 61.4169 105.479ZM65.8882 111V99.9573H70.6762C71.5173 99.9573 72.2237 100.071 72.7952 100.297C73.3704 100.523 73.8035 100.843 74.0947 101.257C74.3894 101.67 74.5368 102.157 74.5368 102.718C74.5368 103.124 74.4469 103.494 74.2672 103.829C74.0911 104.163 73.8431 104.443 73.5231 104.67C73.2032 104.893 72.8294 105.047 72.4016 105.134V105.241C72.8761 105.259 73.3075 105.38 73.6957 105.603C74.0839 105.822 74.393 106.126 74.6231 106.514C74.8531 106.899 74.9682 107.351 74.9682 107.873C74.9682 108.477 74.81 109.014 74.4937 109.485C74.1809 109.956 73.7352 110.326 73.1565 110.596C72.5777 110.865 71.8876 111 71.086 111H65.8882ZM68.8861 108.606H70.288C70.7912 108.606 71.1687 108.513 71.4203 108.326C71.6719 108.135 71.7977 107.855 71.7977 107.484C71.7977 107.226 71.7384 107.006 71.6198 106.827C71.5012 106.647 71.3322 106.51 71.1129 106.417C70.8973 106.323 70.6366 106.277 70.3311 106.277H68.8861V108.606ZM68.8861 104.422H70.1154C70.3778 104.422 70.6097 104.381 70.811 104.298C71.0123 104.215 71.1687 104.097 71.2801 103.942C71.3951 103.784 71.4526 103.591 71.4526 103.365C71.4526 103.024 71.3304 102.763 71.086 102.583C70.8415 102.4 70.5324 102.308 70.1586 102.308H68.8861V104.422ZM82.5654 99.9573H85.5633V107.032C85.5633 107.873 85.362 108.601 84.9594 109.215C84.5604 109.826 84.0032 110.299 83.2879 110.633C82.5726 110.964 81.7422 111.129 80.7968 111.129C79.8443 111.129 79.0103 110.964 78.295 110.633C77.5797 110.299 77.0225 109.826 76.6235 109.215C76.2281 108.601 76.0304 107.873 76.0304 107.032V99.9573H79.0283V106.773C79.0283 107.114 79.1038 107.42 79.2548 107.689C79.4057 107.955 79.6142 108.164 79.8802 108.315C80.1498 108.466 80.4554 108.541 80.7968 108.541C81.1419 108.541 81.4475 108.466 81.7135 108.315C81.9795 108.164 82.188 107.955 82.3389 107.689C82.4899 107.42 82.5654 107.114 82.5654 106.773V99.9573ZM86.9881 111V99.9573H91.7762C92.6173 99.9573 93.3236 100.071 93.8952 100.297C94.4703 100.523 94.9035 100.843 95.1946 101.257C95.4894 101.67 95.6368 102.157 95.6368 102.718C95.6368 103.124 95.5469 103.494 95.3672 103.829C95.191 104.163 94.943 104.443 94.6231 104.67C94.3032 104.893 93.9293 105.047 93.5016 105.134V105.241C93.9761 105.259 94.4074 105.38 94.7956 105.603C95.1839 105.822 95.493 106.126 95.7231 106.514C95.9531 106.899 96.0681 107.351 96.0681 107.873C96.0681 108.477 95.91 109.014 95.5936 109.485C95.2809 109.956 94.8352 110.326 94.2564 110.596C93.6777 110.865 92.9875 111 92.1859 111H86.9881ZM89.986 108.606H91.3879C91.8912 108.606 92.2686 108.513 92.5202 108.326C92.7719 108.135 92.8977 107.855 92.8977 107.484C92.8977 107.226 92.8384 107.006 92.7197 106.827C92.6011 106.647 92.4322 106.51 92.2129 106.417C91.9972 106.323 91.7366 106.277 91.4311 106.277H89.986V108.606ZM89.986 104.422H91.2154C91.4778 104.422 91.7097 104.381 91.911 104.298C92.1123 104.215 92.2686 104.097 92.3801 103.942C92.4951 103.784 92.5526 103.591 92.5526 103.365C92.5526 103.024 92.4304 102.763 92.1859 102.583C91.9415 102.4 91.6324 102.308 91.2585 102.308H89.986V104.422ZM97.1303 111V99.9573H101.918C102.76 99.9573 103.466 100.071 104.037 100.297C104.613 100.523 105.046 100.843 105.337 101.257C105.632 101.67 105.779 102.157 105.779 102.718C105.779 103.124 105.689 103.494 105.509 103.829C105.333 104.163 105.085 104.443 104.765 104.67C104.445 104.893 104.072 105.047 103.644 105.134V105.241C104.118 105.259 104.55 105.38 104.938 105.603C105.326 105.822 105.635 106.126 105.865 106.514C106.095 106.899 106.21 107.351 106.21 107.873C106.21 108.477 106.052 109.014 105.736 109.485C105.423 109.956 104.977 110.326 104.399 110.596C103.82 110.865 103.13 111 102.328 111H97.1303ZM100.128 108.606H101.53C102.033 108.606 102.411 108.513 102.662 108.326C102.914 108.135 103.04 107.855 103.04 107.484C103.04 107.226 102.981 107.006 102.862 106.827C102.743 106.647 102.574 106.51 102.355 106.417C102.139 106.323 101.879 106.277 101.573 106.277H100.128V108.606ZM100.128 104.422H101.358C101.62 104.422 101.852 104.381 102.053 104.298C102.254 104.215 102.411 104.097 102.522 103.942C102.637 103.784 102.695 103.591 102.695 103.365C102.695 103.024 102.573 102.763 102.328 102.583C102.084 102.4 101.775 102.308 101.401 102.308H100.128V104.422ZM107.273 111V99.9573H110.27V108.584H114.735V111H107.273ZM115.947 111V99.9573H123.905V102.373H118.945V104.271H123.496V106.686H118.945V108.584H123.884V111H115.947Z" fill="#F66202"/>
<path d="M22.3745 140L15.8611 117.915H22.547L25.5665 131.502H25.7391L29.3193 117.915H34.5818L38.1621 131.545H38.3346L41.3541 117.915H48.0401L41.5266 140H35.7896L32.0368 127.663H31.8643L28.1115 140H22.3745ZM53.1382 140H46.6678L53.9577 117.915H62.1535L69.4434 140H62.973L58.1419 123.997H57.9693L53.1382 140ZM51.9304 131.287H64.0946V135.773H51.9304V131.287ZM71.5705 140V117.915H81.1034C82.7426 117.915 84.1768 118.213 85.4062 118.81C86.6355 119.406 87.5917 120.266 88.2747 121.387C88.9576 122.509 89.2991 123.853 89.2991 125.42C89.2991 127.002 88.9469 128.335 88.2423 129.421C87.545 130.507 86.5636 131.326 85.2983 131.88C84.0402 132.433 82.57 132.71 80.8877 132.71H75.1938V128.051H79.6799C80.3845 128.051 80.9848 127.965 81.4808 127.793C81.9841 127.613 82.3687 127.329 82.6347 126.941C82.9079 126.553 83.0445 126.046 83.0445 125.42C83.0445 124.788 82.9079 124.274 82.6347 123.878C82.3687 123.476 81.9841 123.181 81.4808 122.994C80.9848 122.8 80.3845 122.703 79.6799 122.703H77.5663V140H71.5705ZM84.5111 129.863L90.0324 140H83.519L78.1271 129.863H84.5111ZM103.76 124.816C103.703 124.097 103.433 123.537 102.952 123.134C102.477 122.731 101.754 122.53 100.784 122.53C100.166 122.53 99.6588 122.606 99.2634 122.757C98.8752 122.9 98.5876 123.098 98.4007 123.35C98.2138 123.601 98.1167 123.889 98.1095 124.212C98.0952 124.478 98.1419 124.719 98.2497 124.935C98.3648 125.143 98.5445 125.334 98.7889 125.506C99.0334 125.672 99.3461 125.823 99.7271 125.959C100.108 126.096 100.561 126.218 101.086 126.326L102.898 126.714C104.12 126.973 105.166 127.315 106.036 127.739C106.906 128.163 107.617 128.663 108.171 129.238C108.724 129.806 109.131 130.446 109.389 131.157C109.655 131.869 109.792 132.645 109.799 133.487C109.792 134.939 109.429 136.168 108.71 137.175C107.991 138.181 106.963 138.947 105.626 139.472C104.296 139.996 102.696 140.259 100.827 140.259C98.9076 140.259 97.2325 139.975 95.8018 139.407C94.3783 138.839 93.2712 137.965 92.4804 136.786C91.6967 135.6 91.3013 134.083 91.2942 132.236H96.988C97.024 132.911 97.1929 133.479 97.4949 133.939C97.7968 134.4 98.221 134.748 98.7674 134.986C99.3209 135.223 99.9788 135.341 100.741 135.341C101.381 135.341 101.916 135.262 102.348 135.104C102.779 134.946 103.106 134.727 103.329 134.446C103.552 134.166 103.667 133.846 103.674 133.487C103.667 133.149 103.555 132.854 103.34 132.602C103.131 132.343 102.786 132.113 102.304 131.912C101.823 131.704 101.172 131.51 100.353 131.33L98.1527 130.855C96.1972 130.431 94.6551 129.723 93.5264 128.731C92.4049 127.732 91.8477 126.369 91.8549 124.644C91.8477 123.242 92.2216 122.016 92.9764 120.966C93.7385 119.91 94.7917 119.087 96.1361 118.497C97.4877 117.907 99.037 117.613 100.784 117.613C102.567 117.613 104.109 117.911 105.41 118.508C106.711 119.104 107.714 119.946 108.419 121.031C109.131 122.11 109.49 123.371 109.497 124.816H103.76Z" fill="#8D3FFC"/>
</svg>
