<svg width="15" height="15" viewBox="0 0 12 12" fill="none" xmlns="http://www.w3.org/2000/svg">
<path d="M6.25394 0.646447C6.05868 0.451185 5.7421 0.451185 5.54684 0.646447L2.36486 3.82843C2.16959 4.02369 2.16959 4.34027 2.36486 4.53553C2.56012 4.7308 2.8767 4.7308 3.07196 4.53553L5.90039 1.70711L8.72882 4.53553C8.92408 4.7308 9.24066 4.7308 9.43592 4.53553C9.63119 4.34027 9.63119 4.02369 9.43592 3.82843L6.25394 0.646447ZM6.40039 7.95459L6.40039 1L5.40039 1L5.40039 7.95459L6.40039 7.95459Z" fill="#F55800"/>
<path d="M1 7.13477V9.99842C1 10.4503 1.36631 10.8166 1.81819 10.8166H10.1848C10.6367 10.8166 11.003 10.4503 11.003 9.99842V7.13477" stroke="#F55800"/>
</svg>
