<svg width="32" height="21" viewBox="0 0 32 21" fill="none" xmlns="http://www.w3.org/2000/svg">
<path d="M31.0801 9.9993C31.0801 12.8526 29.8863 15.4268 27.97 17.2477C26.1758 18.9535 23.7503 20 21.0794 20C18.4084 20 15.9829 18.9535 14.1901 17.2477C12.2739 15.4268 11.0801 12.8526 11.0801 9.9993C11.0801 4.4764 15.5565 0 21.0794 0C26.6023 0 31.0801 4.4764 31.0801 9.9993Z" fill="#BC4A9C"/>
<path d="M21.0784 11.5577C23.429 11.5577 25.3346 9.65217 25.3346 7.30157C25.3346 4.95096 23.429 3.04541 21.0784 3.04541C18.7278 3.04541 16.8223 4.95096 16.8223 7.30157C16.8223 9.65217 18.7278 11.5577 21.0784 11.5577Z" fill="#FF6700"/>
<path d="M27.9694 17.2476C26.1751 18.9535 23.7497 20 21.0787 20C18.4077 20 15.9823 18.9535 14.1895 17.2476C15.2822 14.5149 17.9546 12.5833 21.0787 12.5833C24.2028 12.5833 26.8766 14.5149 27.9694 17.2476Z" fill="#FF6700"/>
<path d="M20 10.0994C20 12.9527 18.8062 15.5269 16.8899 17.3478C15.0957 19.0536 12.6703 20.1001 9.9993 20.1001C7.32833 20.1001 4.90285 19.0536 3.11005 17.3478C1.1938 15.5269 0 12.9527 0 10.0994C0 4.5765 4.4764 0.100098 9.9993 0.100098C15.5222 0.100098 20 4.5765 20 10.0994Z" fill="#8AA3FF"/>
<path d="M9.99834 11.6564C12.349 11.6564 14.2545 9.75081 14.2545 7.4002C14.2545 5.04959 12.349 3.14404 9.99834 3.14404C7.64773 3.14404 5.74219 5.04959 5.74219 7.4002C5.74219 9.75081 7.64773 11.6564 9.99834 11.6564Z" fill="#E3EAFF"/>
<path d="M16.8893 17.3477C15.0951 19.0536 12.6696 20.1001 9.99862 20.1001C7.32765 20.1001 4.90218 19.0536 3.10938 17.3477C4.20217 14.615 6.87454 12.6833 9.99862 12.6833C13.1227 12.6833 15.7965 14.615 16.8893 17.3477Z" fill="#E3EAFF"/>
</svg>
