<svg width="345" height="345" viewBox="0 0 345 345" fill="none" xmlns="http://www.w3.org/2000/svg">
<path d="M172.5 345C267.769 345 345 267.769 345 172.5C345 77.2309 267.769 0 172.5 0C77.2309 0 0 77.2309 0 172.5C0 267.769 77.2309 345 172.5 345Z" fill="url(#paint0_radial_578_1145)"/>
<path d="M172.5 43.0684C220.101 43.0684 258.69 81.6577 258.69 129.258C258.69 176.859 220.101 215.449 172.5 215.449C124.899 215.449 86.3098 176.859 86.3098 129.258C86.3098 81.6577 124.899 43.0684 172.5 43.0684ZM172.5 39.961C160.448 39.961 148.751 42.3226 137.742 46.9793C127.11 51.4761 117.557 57.9173 109.358 66.1163C101.159 74.3154 94.7219 83.864 90.2207 94.5001C85.564 105.509 83.2024 117.206 83.2024 129.258C83.2024 141.311 85.564 153.008 90.2207 164.017C94.7175 174.649 101.159 184.202 109.358 192.401C117.557 200.6 127.105 207.036 137.742 211.538C148.751 216.194 160.448 218.556 172.5 218.556C184.552 218.556 196.249 216.194 207.258 211.538C217.89 207.041 227.443 200.6 235.642 192.401C243.841 184.202 250.278 174.653 254.779 164.017C259.436 153.008 261.797 141.311 261.797 129.258C261.797 117.206 259.436 105.509 254.779 94.5001C250.282 83.8684 243.841 74.3154 235.642 66.1163C227.443 57.9173 217.894 51.4805 207.258 46.9793C196.249 42.3226 184.552 39.961 172.5 39.961Z" fill="url(#paint1_linear_578_1145)"/>
<path d="M195.885 306.575C195.885 310.792 182.621 316.949 172.5 316.949C162.379 316.949 149.115 310.792 149.115 306.575C149.115 302.358 195.885 302.358 195.885 306.575Z" fill="url(#paint2_linear_578_1145)"/>
<path d="M129.436 288.574C132.872 289.795 136.543 289.955 140.134 289.746C147.366 289.302 154.539 288.024 161.78 287.518C165.411 287.243 169.055 287.096 172.695 287.096C179.971 287.118 187.238 287.682 194.465 288.415C199.872 288.894 205.279 289.649 210.708 289.4C212.506 289.289 214.321 289.036 215.995 288.335C214.366 289.151 212.541 289.529 210.734 289.72C205.292 290.261 199.81 289.711 194.385 289.356C187.149 288.823 179.922 288.304 172.691 288.312C161.811 288.117 151.019 289.986 140.148 290.346C136.521 290.363 132.788 290.057 129.432 288.579L129.436 288.574Z" fill="#7F87A5"/>
<path d="M257.789 252.338C257.789 264.221 248.156 273.854 236.273 273.854C224.389 273.854 214.756 264.221 214.756 252.338C214.756 246.86 216.803 241.857 220.176 238.061C224.118 233.622 242.35 230.719 248.138 234.386C253.954 238.239 257.789 244.84 257.789 252.338Z" fill="url(#paint3_linear_578_1145)"/>
<path d="M251.69 258.091C251.459 266.45 244.894 275.075 236.672 275.075C228.451 275.075 220.838 267.741 220.838 259.378C220.838 251.015 225.53 244.729 235.7 243.113C245.546 241.546 252.018 246.247 251.69 258.091Z" fill="url(#paint4_radial_578_1145)"/>
<path d="M251.281 263.24C251.281 270.862 246.758 277.463 236.339 277.463C227.519 277.463 221.703 270.014 221.33 261.327C221.002 253.709 228.464 249.017 236.339 249.017C247.486 249.017 251.281 255.618 251.281 263.24Z" fill="url(#paint5_radial_578_1145)"/>
<path d="M250.141 260.821C250.141 268.443 244.308 274.36 236.433 274.36C228.558 274.36 221.264 267.675 221.264 260.048C221.264 252.422 227.647 246.243 235.523 246.243C243.398 246.243 250.141 253.194 250.141 260.816V260.821Z" fill="url(#paint6_radial_578_1145)"/>
<path d="M248.52 258.131C248.52 265.535 242.518 271.537 235.114 271.537C227.709 271.537 221.708 265.535 221.708 258.131C223.812 255.76 227.723 253.021 233.995 251.965C240.494 250.868 245.12 252.245 247.739 253.598C248.249 255.015 248.524 256.542 248.524 258.131H248.52Z" fill="url(#paint7_radial_578_1145)"/>
<path d="M235.109 272.127C221.614 272.127 220.798 259.09 220.589 257.958C221.428 256.954 225.463 251.832 233.791 250.424C242.052 249.031 248.857 253.026 248.857 253.026C248.857 253.026 249.386 255.933 249.386 258.14C249.386 265.859 242.829 272.127 235.109 272.127ZM222.298 258.353C222.418 265.313 228.122 270.942 235.109 270.942C242.097 270.942 247.925 265.193 247.925 258.126C247.925 256.715 247.699 255.334 247.25 254.011C245.08 252.937 240.641 251.437 234.088 252.542C227.505 253.656 223.918 256.59 222.298 258.353Z" fill="#262626"/>
<path d="M233.991 261.127C236.075 261.127 237.764 259.438 237.764 257.354C237.764 255.27 236.075 253.581 233.991 253.581C231.907 253.581 230.218 255.27 230.218 257.354C230.218 259.438 231.907 261.127 233.991 261.127Z" fill="#141414"/>
<path d="M252.742 229.587C251.486 227.399 249.976 225.268 247.61 224.296C242.94 222.365 237.431 223.266 232.508 224.007C229.942 224.429 227.386 224.944 224.9 225.716L224.855 225.601C227.292 224.642 229.84 223.994 232.388 223.412C237.511 222.44 245.59 220.545 249.874 224.331C251.419 225.676 252.351 227.616 252.848 229.538L252.733 229.587H252.742Z" fill="#C6C6E5"/>
<path d="M233.263 236.605C241.293 235.638 247.002 237.671 252.018 237.68C251.827 231.753 248.471 225.432 241.697 225.303C234.923 225.175 223.83 227.239 218.472 230.724C214.259 233.467 210.912 239.438 216.563 243.695C221.699 241.08 225.348 237.564 233.263 236.61V236.605Z" fill="url(#paint8_linear_578_1145)"/>
<path d="M87.5084 252.338C87.5084 264.221 97.1413 273.854 109.025 273.854C120.908 273.854 130.541 264.221 130.541 252.338C130.541 246.86 128.495 241.857 125.121 238.061C121.179 233.622 102.948 230.719 97.1591 234.386C91.3438 238.239 87.5084 244.84 87.5084 252.338Z" fill="url(#paint9_linear_578_1145)"/>
<path d="M93.6034 258.091C93.8342 266.45 100.4 275.075 108.621 275.075C116.842 275.075 124.455 267.741 124.455 259.378C124.455 251.015 119.763 244.729 109.593 243.113C99.7471 241.546 93.2749 246.247 93.6034 258.091Z" fill="url(#paint10_radial_578_1145)"/>
<path d="M94.0162 263.24C94.0162 270.862 98.5397 277.463 108.958 277.463C117.779 277.463 123.594 270.014 123.967 261.327C124.296 253.709 116.833 249.017 108.958 249.017C97.8117 249.017 94.0162 255.618 94.0162 263.24Z" fill="url(#paint11_radial_578_1145)"/>
<path d="M95.1572 260.821C95.1572 268.443 100.99 274.36 108.865 274.36C116.74 274.36 124.034 267.675 124.034 260.048C124.034 252.422 117.65 246.243 109.775 246.243C101.9 246.243 95.1572 253.194 95.1572 260.816V260.821Z" fill="url(#paint12_radial_578_1145)"/>
<path d="M96.7774 258.131C96.7774 265.535 102.779 271.537 110.184 271.537C117.588 271.537 123.59 265.535 123.59 258.131C121.486 255.76 117.575 253.021 111.302 251.965C104.803 250.868 100.178 252.245 97.5587 253.598C97.0482 255.015 96.7729 256.542 96.7729 258.131H96.7774Z" fill="url(#paint13_radial_578_1145)"/>
<path d="M95.9072 258.144C95.9072 255.938 96.4355 253.03 96.4355 253.03C96.4355 253.03 103.241 249.03 111.502 250.429C119.763 251.827 123.865 256.959 124.704 257.962C124.495 259.098 123.678 272.132 110.183 272.132C102.464 272.132 95.9072 265.864 95.9072 258.144ZM111.204 252.546C104.652 251.441 100.213 252.941 98.0424 254.016C97.5941 255.338 97.3677 256.719 97.3677 258.131C97.3677 265.198 103.116 270.946 110.183 270.946C117.175 270.946 122.875 265.322 122.995 258.357C121.374 256.595 117.788 253.66 111.204 252.546Z" fill="#262626"/>
<path d="M111.307 261.127C113.391 261.127 115.08 259.438 115.08 257.354C115.08 255.27 113.391 253.581 111.307 253.581C109.223 253.581 107.533 255.27 107.533 257.354C107.533 259.438 109.223 261.127 111.307 261.127Z" fill="#141414"/>
<path d="M92.5556 229.587C93.8119 227.399 95.3212 225.268 97.6873 224.296C102.357 222.365 107.866 223.266 112.789 224.007C115.355 224.429 117.912 224.944 120.398 225.716L120.442 225.601C118.005 224.642 115.457 223.994 112.909 223.412C107.786 222.44 99.7071 220.545 95.4233 224.331C93.8785 225.676 92.9463 227.616 92.4491 229.538L92.5645 229.587H92.5556Z" fill="#C6C6E5"/>
<path d="M112.03 236.605C104 235.638 98.2912 237.671 93.275 237.68C93.4659 231.753 96.8219 225.432 103.596 225.303C110.37 225.175 121.463 227.239 126.822 230.724C131.034 233.467 134.381 239.438 128.73 243.695C123.594 241.08 119.945 237.564 112.03 236.61V236.605Z" fill="url(#paint14_linear_578_1145)"/>
<path d="M104.186 283.816C104.741 293.386 115.226 296.134 123.141 297.133C130.128 297.945 137.142 296.88 144.112 296.103C153.518 294.976 162.996 294.336 172.473 294.354C181.946 294.336 191.428 294.976 200.835 296.103C208.563 296.978 216.381 298.163 224.096 296.809C231.496 295.548 240.245 292.601 240.756 283.816C241.227 293.724 230.346 298.185 222.001 298.9C214.854 299.734 207.698 298.66 200.631 297.87C191.282 296.751 181.893 296.112 172.473 296.134C163.054 296.116 153.665 296.751 144.316 297.874C136.463 298.767 128.451 299.956 120.562 298.567C117.37 298.105 114.214 297.164 111.409 295.522C107.076 293.191 103.84 288.903 104.191 283.82L104.186 283.816Z" fill="#1B1D29"/>
<path d="M58.0282 87.8726C58.3789 88.4807 58.3345 89.2354 57.9216 89.8036C43.2193 110.006 32.9826 133.667 28.6767 159.338C28.4458 160.723 26.3994 160.568 26.3994 159.161C26.3994 159.116 26.3994 159.072 26.3994 159.023C26.3994 129.609 35.1267 102.233 50.1221 79.3361C50.8457 78.2264 52.4882 78.2708 53.1496 79.4205L58.0282 87.8726ZM172.052 13.3707C125.348 13.3707 83.784 35.3622 57.127 69.5434C56.6831 70.1116 56.6343 70.8974 56.9939 71.5233L62.1477 80.4459C62.7603 81.5113 64.2474 81.6445 65.0376 80.7078C95.308 44.6843 140.694 21.7829 191.428 21.7829C191.579 21.7829 191.73 21.7829 191.877 21.7829C196.28 21.7962 196.729 15.3861 192.369 14.7779C185.729 13.8502 178.946 13.3707 172.047 13.3707H172.052Z" fill="url(#paint15_radial_578_1145)"/>
<path d="M172.466 43C220.261 43 259 81.7319 259 129.517C259 177.302 220.261 216 172.5 216C124.705 216 86 177.268 86 129.517C85.966 81.7319 124.705 43 172.466 43Z" fill="url(#paint16_radial_578_1145)"/>
<mask id="mask0_578_1145" style="mask-type:luminance" maskUnits="userSpaceOnUse" x="115" y="80" width="114" height="100">
<path d="M228.567 80.4045H115.174V179.753H228.567V80.4045Z" fill="white"/>
</mask>
<g mask="url(#mask0_578_1145)">
<path d="M200.822 110.662C198.746 109.471 196.091 109.471 193.742 110.662L177.197 120.464L165.964 126.692L149.726 136.46C147.649 137.652 144.994 137.652 142.645 136.46L129.948 128.734C127.871 127.543 126.407 125.161 126.407 122.506V107.667C126.407 105.284 127.599 102.936 129.948 101.438L142.645 94.0186C144.722 92.8274 147.377 92.8274 149.726 94.0186L162.423 101.745C164.5 102.936 165.964 105.318 165.964 107.973V117.775L177.197 111.24V101.166C177.197 98.7835 176.006 96.4351 173.657 94.9376L150.032 80.9832C147.956 79.792 145.3 79.792 142.952 80.9832L118.748 95.2439C116.399 96.4351 115.208 98.8176 115.208 101.166V129.041C115.208 131.423 116.399 133.772 118.748 135.269L142.679 149.223C144.756 150.415 147.411 150.415 149.76 149.223L165.998 139.728L177.232 133.193L193.469 123.697C195.546 122.506 198.201 122.506 200.55 123.697L213.248 131.117C215.324 132.308 216.788 134.69 216.788 137.345V152.184C216.788 154.567 215.597 156.915 213.248 158.413L200.856 165.833C198.78 167.024 196.125 167.024 193.776 165.833L181.044 158.413C178.968 157.222 177.504 154.839 177.504 152.184V142.689L166.27 149.223V159.025C166.27 161.408 167.462 163.756 169.81 165.254L193.742 179.208C195.818 180.399 198.474 180.399 200.822 179.208L224.754 165.254C226.83 164.063 228.294 161.68 228.294 159.025V130.845C228.294 128.462 227.103 126.114 224.754 124.616L200.822 110.662Z" fill="white"/>
</g>
<defs>
<radialGradient id="paint0_radial_578_1145" cx="0" cy="0" r="1" gradientUnits="userSpaceOnUse" gradientTransform="translate(156.714 122.318) rotate(77.35) scale(223.799 194.705)">
<stop stop-color="#D2F1F9"/>
<stop offset="0.11" stop-color="#D3EAF0"/>
<stop offset="0.28" stop-color="#D7D9DA"/>
<stop offset="0.3" stop-color="#D8D8D8"/>
<stop offset="0.37" stop-color="#D2D2D3"/>
<stop offset="0.46" stop-color="#C1C1C5"/>
<stop offset="0.56" stop-color="#A6A6AE"/>
<stop offset="0.67" stop-color="#80818F"/>
<stop offset="0.72" stop-color="#6E6F80"/>
<stop offset="0.85" stop-color="#4F556B"/>
<stop offset="0.89" stop-color="#51566E"/>
<stop offset="0.92" stop-color="#5A5A77"/>
<stop offset="0.94" stop-color="#686288"/>
<stop offset="0.96" stop-color="#7D6C9F"/>
<stop offset="0.99" stop-color="#977ABD"/>
<stop offset="1" stop-color="#AA84D3"/>
</radialGradient>
<linearGradient id="paint1_linear_578_1145" x1="148.959" y1="46.673" x2="196.431" y2="213.211" gradientUnits="userSpaceOnUse">
<stop stop-color="#E2E2E2"/>
<stop offset="0.19" stop-color="#DCDCDC"/>
<stop offset="0.43" stop-color="#CBCBCB"/>
<stop offset="0.71" stop-color="#B0B0B0"/>
<stop offset="1" stop-color="#8C8C8C"/>
</linearGradient>
<linearGradient id="paint2_linear_578_1145" x1="172.633" y1="315.191" x2="172.478" y2="304.968" gradientUnits="userSpaceOnUse">
<stop stop-color="#4A4E66"/>
<stop offset="1" stop-color="#3E405B"/>
</linearGradient>
<linearGradient id="paint3_linear_578_1145" x1="238.474" y1="263.524" x2="233.054" y2="236.006" gradientUnits="userSpaceOnUse">
<stop offset="0.12" stop-color="#767686"/>
<stop offset="0.4" stop-color="#696A7C"/>
<stop offset="0.89" stop-color="#4A4E66"/>
</linearGradient>
<radialGradient id="paint4_radial_578_1145" cx="0" cy="0" r="1" gradientUnits="userSpaceOnUse" gradientTransform="translate(235.018 252.825) scale(15.4768 16.3001)">
<stop offset="0.19" stop-color="#4A4E66"/>
<stop offset="0.84" stop-color="#5A5C71"/>
<stop offset="1" stop-color="#5F6175"/>
</radialGradient>
<radialGradient id="paint5_radial_578_1145" cx="0" cy="0" r="1" gradientUnits="userSpaceOnUse" gradientTransform="translate(234.643 256.857) scale(14.5692 14.5692)">
<stop stop-color="#92939E"/>
<stop offset="0.22" stop-color="#81838F"/>
<stop offset="0.65" stop-color="#575A6A"/>
<stop offset="0.86" stop-color="#404456"/>
</radialGradient>
<radialGradient id="paint6_radial_578_1145" cx="0" cy="0" r="1" gradientUnits="userSpaceOnUse" gradientTransform="translate(234.102 253.993) scale(14.2585 14.2585)">
<stop offset="0.19" stop-color="#92939E"/>
<stop offset="0.5" stop-color="#818390"/>
<stop offset="1" stop-color="#5F6175"/>
</radialGradient>
<radialGradient id="paint7_radial_578_1145" cx="0" cy="0" r="1" gradientUnits="userSpaceOnUse" gradientTransform="translate(230.213 258.539) scale(15.8743 15.8743)">
<stop stop-color="#F9F9F9"/>
<stop offset="0.38" stop-color="#F4F4F4"/>
<stop offset="0.8" stop-color="#E7E7E7"/>
<stop offset="0.93" stop-color="#E2E2E2"/>
</radialGradient>
<linearGradient id="paint8_linear_578_1145" x1="231.98" y1="227.394" x2="232.752" y2="237.458" gradientUnits="userSpaceOnUse">
<stop stop-color="#4C5166"/>
<stop offset="0.24" stop-color="#373B4C"/>
<stop offset="0.49" stop-color="#282B38"/>
<stop offset="0.74" stop-color="#1F212C"/>
<stop offset="1" stop-color="#1C1E28"/>
</linearGradient>
<linearGradient id="paint9_linear_578_1145" x1="345.297" y1="263.524" x2="112.243" y2="236.006" gradientUnits="userSpaceOnUse">
<stop offset="0.12" stop-color="#767686"/>
<stop offset="0.4" stop-color="#696A7C"/>
<stop offset="0.89" stop-color="#4A4E66"/>
</linearGradient>
<radialGradient id="paint10_radial_578_1145" cx="0" cy="0" r="1" gradientUnits="userSpaceOnUse" gradientTransform="translate(110.28 252.825) rotate(180) scale(15.4768 16.3001)">
<stop offset="0.19" stop-color="#4A4E66"/>
<stop offset="0.84" stop-color="#5A5C71"/>
<stop offset="1" stop-color="#5F6175"/>
</radialGradient>
<radialGradient id="paint11_radial_578_1145" cx="0" cy="0" r="1" gradientUnits="userSpaceOnUse" gradientTransform="translate(345.076 0.222124) rotate(-180) scale(0.221956)">
<stop stop-color="#92939E"/>
<stop offset="0.22" stop-color="#81838F"/>
<stop offset="0.65" stop-color="#575A6A"/>
<stop offset="0.86" stop-color="#404456"/>
</radialGradient>
<radialGradient id="paint12_radial_578_1145" cx="0" cy="0" r="1" gradientUnits="userSpaceOnUse" gradientTransform="translate(345.076 0.22206) rotate(-180) scale(0.221956)">
<stop offset="0.19" stop-color="#92939E"/>
<stop offset="0.5" stop-color="#818390"/>
<stop offset="1" stop-color="#5F6175"/>
</radialGradient>
<radialGradient id="paint13_radial_578_1145" cx="0" cy="0" r="1" gradientUnits="userSpaceOnUse" gradientTransform="translate(345.075 0.221888) rotate(-180) scale(15.8743 15.8743)">
<stop stop-color="#F9F9F9"/>
<stop offset="0.38" stop-color="#F4F4F4"/>
<stop offset="0.8" stop-color="#E7E7E7"/>
<stop offset="0.93" stop-color="#E2E2E2"/>
</radialGradient>
<linearGradient id="paint14_linear_578_1145" x1="113.318" y1="227.394" x2="112.545" y2="237.458" gradientUnits="userSpaceOnUse">
<stop stop-color="#4C5166"/>
<stop offset="0.24" stop-color="#373B4C"/>
<stop offset="0.49" stop-color="#282B38"/>
<stop offset="0.74" stop-color="#1F212C"/>
<stop offset="1" stop-color="#1C1E28"/>
</linearGradient>
<radialGradient id="paint15_radial_578_1145" cx="0" cy="0" r="1" gradientUnits="userSpaceOnUse" gradientTransform="translate(108.925 94.0012) rotate(-43.87) scale(123.399 59.2314)">
<stop offset="0.22" stop-color="#B4B4B4"/>
<stop offset="0.38" stop-color="#B8B9B9"/>
<stop offset="0.59" stop-color="#C6C9CA"/>
<stop offset="0.83" stop-color="#DBE3E5"/>
<stop offset="1" stop-color="#EFFBFD"/>
</radialGradient>
<radialGradient id="paint16_radial_578_1145" cx="0" cy="0" r="1" gradientUnits="userSpaceOnUse" gradientTransform="translate(172.5 129.5) rotate(90) scale(86.5)">
<stop offset="0.640226" stop-color="#8247E5"/>
<stop offset="1" stop-color="#713ACD"/>
</radialGradient>
</defs>
</svg>
