<svg width="345" height="345" viewBox="0 0 345 345" fill="none" xmlns="http://www.w3.org/2000/svg">
<path d="M172.5 345C267.769 345 345 267.769 345 172.5C345 77.2309 267.769 0 172.5 0C77.2309 0 0 77.2309 0 172.5C0 267.769 77.2309 345 172.5 345Z" fill="url(#paint0_radial_578_1148)"/>
<path d="M172.5 43.0684C220.101 43.0684 258.69 81.6577 258.69 129.258C258.69 176.859 220.101 215.449 172.5 215.449C124.899 215.449 86.3098 176.859 86.3098 129.258C86.3098 81.6577 124.899 43.0684 172.5 43.0684ZM172.5 39.961C160.448 39.961 148.751 42.3226 137.742 46.9793C127.11 51.4761 117.557 57.9173 109.358 66.1163C101.159 74.3154 94.7219 83.864 90.2207 94.5001C85.564 105.509 83.2024 117.206 83.2024 129.258C83.2024 141.311 85.564 153.008 90.2207 164.017C94.7175 174.649 101.159 184.202 109.358 192.401C117.557 200.6 127.105 207.036 137.742 211.538C148.751 216.194 160.448 218.556 172.5 218.556C184.552 218.556 196.249 216.194 207.258 211.538C217.89 207.041 227.443 200.6 235.642 192.401C243.841 184.202 250.278 174.653 254.779 164.017C259.436 153.008 261.797 141.311 261.797 129.258C261.797 117.206 259.436 105.509 254.779 94.5001C250.282 83.8684 243.841 74.3154 235.642 66.1163C227.443 57.9173 217.894 51.4805 207.258 46.9793C196.249 42.3226 184.552 39.961 172.5 39.961Z" fill="url(#paint1_linear_578_1148)"/>
<path d="M195.885 306.575C195.885 310.792 182.621 316.949 172.5 316.949C162.379 316.949 149.115 310.792 149.115 306.575C149.115 302.358 195.885 302.358 195.885 306.575Z" fill="url(#paint2_linear_578_1148)"/>
<path d="M129.436 288.574C132.872 289.795 136.543 289.955 140.134 289.746C147.366 289.302 154.539 288.024 161.78 287.518C165.411 287.243 169.055 287.096 172.695 287.096C179.971 287.118 187.238 287.682 194.465 288.415C199.872 288.894 205.279 289.649 210.708 289.4C212.506 289.289 214.321 289.036 215.995 288.335C214.366 289.151 212.541 289.529 210.734 289.72C205.292 290.261 199.81 289.711 194.385 289.356C187.149 288.823 179.922 288.304 172.691 288.312C161.811 288.117 151.019 289.986 140.148 290.346C136.521 290.363 132.788 290.057 129.432 288.579L129.436 288.574Z" fill="#7F87A5"/>
<path d="M257.789 252.338C257.789 264.221 248.156 273.854 236.273 273.854C224.389 273.854 214.756 264.221 214.756 252.338C214.756 246.86 216.803 241.857 220.176 238.061C224.118 233.622 242.35 230.719 248.138 234.386C253.954 238.239 257.789 244.84 257.789 252.338Z" fill="url(#paint3_linear_578_1148)"/>
<path d="M251.69 258.091C251.459 266.45 244.894 275.075 236.672 275.075C228.451 275.075 220.838 267.741 220.838 259.378C220.838 251.015 225.53 244.729 235.7 243.113C245.546 241.546 252.018 246.247 251.69 258.091Z" fill="url(#paint4_radial_578_1148)"/>
<path d="M251.281 263.24C251.281 270.862 246.758 277.463 236.339 277.463C227.519 277.463 221.703 270.014 221.33 261.327C221.002 253.709 228.464 249.017 236.339 249.017C247.486 249.017 251.281 255.618 251.281 263.24Z" fill="url(#paint5_radial_578_1148)"/>
<path d="M250.14 260.821C250.14 268.443 244.307 274.36 236.432 274.36C228.557 274.36 221.264 267.675 221.264 260.048C221.264 252.422 227.647 246.243 235.522 246.243C243.397 246.243 250.14 253.194 250.14 260.816V260.821Z" fill="url(#paint6_radial_578_1148)"/>
<path d="M248.52 258.131C248.52 265.535 242.518 271.537 235.114 271.537C227.709 271.537 221.708 265.535 221.708 258.131C223.812 255.76 227.723 253.021 233.995 251.965C240.494 250.868 245.12 252.245 247.739 253.598C248.249 255.015 248.524 256.542 248.524 258.131H248.52Z" fill="url(#paint7_radial_578_1148)"/>
<path d="M235.109 272.127C221.614 272.127 220.798 259.09 220.589 257.958C221.428 256.954 225.463 251.832 233.791 250.424C242.052 249.031 248.857 253.026 248.857 253.026C248.857 253.026 249.386 255.933 249.386 258.14C249.386 265.859 242.829 272.127 235.109 272.127ZM222.298 258.353C222.418 265.313 228.122 270.942 235.109 270.942C242.097 270.942 247.925 265.193 247.925 258.126C247.925 256.715 247.699 255.334 247.25 254.011C245.08 252.937 240.641 251.437 234.088 252.542C227.505 253.656 223.918 256.59 222.298 258.353Z" fill="#262626"/>
<path d="M233.991 261.127C236.075 261.127 237.764 259.438 237.764 257.354C237.764 255.27 236.075 253.581 233.991 253.581C231.907 253.581 230.218 255.27 230.218 257.354C230.218 259.438 231.907 261.127 233.991 261.127Z" fill="#141414"/>
<path d="M252.742 229.587C251.485 227.399 249.976 225.268 247.61 224.296C242.94 222.365 237.431 223.266 232.508 224.007C229.942 224.429 227.385 224.944 224.9 225.716L224.855 225.601C227.292 224.642 229.84 223.994 232.388 223.412C237.511 222.44 245.59 220.545 249.874 224.331C251.419 225.676 252.351 227.616 252.848 229.538L252.733 229.587H252.742Z" fill="#C6C6E5"/>
<path d="M233.263 236.605C241.293 235.638 247.002 237.671 252.018 237.68C251.827 231.753 248.471 225.432 241.697 225.303C234.923 225.175 223.83 227.239 218.472 230.724C214.259 233.467 210.912 239.438 216.563 243.695C221.699 241.08 225.348 237.564 233.263 236.61V236.605Z" fill="url(#paint8_linear_578_1148)"/>
<path d="M87.5084 252.338C87.5084 264.221 97.1413 273.854 109.025 273.854C120.908 273.854 130.541 264.221 130.541 252.338C130.541 246.86 128.495 241.857 125.121 238.061C121.179 233.622 102.948 230.719 97.1591 234.386C91.3438 238.239 87.5084 244.84 87.5084 252.338Z" fill="url(#paint9_linear_578_1148)"/>
<path d="M93.6034 258.091C93.8342 266.45 100.4 275.075 108.621 275.075C116.842 275.075 124.455 267.741 124.455 259.378C124.455 251.015 119.763 244.729 109.593 243.113C99.7471 241.546 93.2749 246.247 93.6034 258.091Z" fill="url(#paint10_radial_578_1148)"/>
<path d="M94.0163 263.24C94.0163 270.862 98.5397 277.463 108.958 277.463C117.779 277.463 123.594 270.014 123.967 261.327C124.296 253.709 116.833 249.017 108.958 249.017C97.8117 249.017 94.0163 255.618 94.0163 263.24Z" fill="url(#paint11_radial_578_1148)"/>
<path d="M95.1573 260.821C95.1573 268.443 100.99 274.36 108.865 274.36C116.74 274.36 124.034 267.675 124.034 260.048C124.034 252.422 117.65 246.243 109.775 246.243C101.9 246.243 95.1573 253.194 95.1573 260.816V260.821Z" fill="url(#paint12_radial_578_1148)"/>
<path d="M96.7774 258.131C96.7774 265.535 102.779 271.537 110.184 271.537C117.588 271.537 123.59 265.535 123.59 258.131C121.486 255.76 117.575 253.021 111.302 251.965C104.803 250.868 100.178 252.245 97.5587 253.598C97.0482 255.015 96.7729 256.542 96.7729 258.131H96.7774Z" fill="url(#paint13_radial_578_1148)"/>
<path d="M95.9072 258.144C95.9072 255.938 96.4355 253.03 96.4355 253.03C96.4355 253.03 103.241 249.03 111.502 250.429C119.763 251.827 123.865 256.959 124.704 257.962C124.495 259.098 123.678 272.132 110.183 272.132C102.464 272.132 95.9072 265.864 95.9072 258.144ZM111.204 252.546C104.652 251.441 100.213 252.941 98.0424 254.016C97.5941 255.338 97.3677 256.719 97.3677 258.131C97.3677 265.198 103.116 270.946 110.183 270.946C117.175 270.946 122.875 265.322 122.995 258.357C121.374 256.595 117.788 253.66 111.204 252.546Z" fill="#262626"/>
<path d="M111.307 261.127C113.391 261.127 115.08 259.438 115.08 257.354C115.08 255.27 113.391 253.581 111.307 253.581C109.223 253.581 107.534 255.27 107.534 257.354C107.534 259.438 109.223 261.127 111.307 261.127Z" fill="#141414"/>
<path d="M92.5557 229.587C93.8119 227.399 95.3212 225.268 97.6873 224.296C102.357 222.365 107.866 223.266 112.789 224.007C115.355 224.429 117.912 224.944 120.398 225.716L120.442 225.601C118.005 224.642 115.457 223.994 112.909 223.412C107.786 222.44 99.7071 220.545 95.4233 224.331C93.8785 225.676 92.9463 227.616 92.4491 229.538L92.5645 229.587H92.5557Z" fill="#C6C6E5"/>
<path d="M112.03 236.605C104 235.638 98.2912 237.671 93.275 237.68C93.4658 231.753 96.8218 225.432 103.596 225.303C110.37 225.175 121.463 227.239 126.821 230.724C131.034 233.467 134.381 239.438 128.73 243.695C123.594 241.08 119.945 237.564 112.03 236.61V236.605Z" fill="url(#paint14_linear_578_1148)"/>
<path d="M104.186 283.816C104.741 293.386 115.226 296.134 123.141 297.133C130.129 297.945 137.142 296.88 144.112 296.103C153.518 294.976 162.996 294.336 172.473 294.354C181.946 294.336 191.428 294.976 200.835 296.103C208.563 296.978 216.381 298.163 224.096 296.809C231.496 295.548 240.245 292.601 240.756 283.816C241.227 293.724 230.346 298.185 222.001 298.9C214.854 299.734 207.698 298.66 200.631 297.87C191.282 296.751 181.893 296.112 172.473 296.134C163.054 296.116 153.665 296.751 144.316 297.874C136.463 298.767 128.451 299.956 120.562 298.567C117.37 298.105 114.214 297.164 111.409 295.522C107.076 293.191 103.84 288.903 104.191 283.82L104.186 283.816Z" fill="#1B1D29"/>
<path d="M58.0281 87.8726C58.3788 88.4807 58.3344 89.2354 57.9216 89.8036C43.2192 110.006 32.9826 133.667 28.6766 159.338C28.4458 160.723 26.3994 160.568 26.3994 159.161C26.3994 159.116 26.3994 159.072 26.3994 159.023C26.3994 129.609 35.1267 102.233 50.122 79.3361C50.8456 78.2264 52.4881 78.2708 53.1495 79.4205L58.0281 87.8726ZM172.052 13.3707C125.347 13.3707 83.7839 35.3622 57.127 69.5434C56.6831 70.1116 56.6342 70.8974 56.9938 71.5233L62.1476 80.4459C62.7602 81.5113 64.2473 81.6445 65.0375 80.7078C95.3079 44.6843 140.694 21.7829 191.428 21.7829C191.579 21.7829 191.73 21.7829 191.877 21.7829C196.28 21.7962 196.729 15.3861 192.369 14.7779C185.728 13.8502 178.945 13.3707 172.047 13.3707H172.052Z" fill="url(#paint15_radial_578_1148)"/>
<path d="M213.421 52.7575C208.82 57.3631 204.604 62.3548 200.857 67.6774L199.673 67.2913C192.84 65.0574 185.759 63.6785 178.623 63.2097C176.474 63.0442 168.456 63.0442 165.839 63.2097C157.931 63.7337 151.87 64.9195 144.982 67.3188C144.706 67.4291 144.458 67.5119 144.21 67.5946C140.325 62.2996 136 57.3355 131.233 52.7851C154.101 41.0644 180.855 39.6579 204.797 48.8966C207.36 49.8618 209.867 50.9925 212.319 52.206L213.421 52.7575Z" fill="#F00500"/>
<path d="M256.072 157.362C252.6 167.262 247.393 176.446 240.643 184.444C236.978 188.746 232.928 192.69 228.575 196.275C218.38 204.493 206.478 210.367 193.776 213.456C179.725 216.848 165.067 216.848 151.015 213.456C138.286 210.367 126.411 204.493 116.217 196.275C111.864 192.69 107.814 188.746 104.149 184.444C84.7249 161.471 78.8288 129.922 88.72 101.488C90.5935 96.2209 92.9355 91.1465 95.7458 86.3203C97.0407 84.1141 98.6388 81.632 99.4102 80.6116C102.055 92.0014 105.306 102.012 106.519 105.625C106.436 105.818 106.326 106.039 106.216 106.232C99.7959 119.249 96.3244 131.797 95.4978 145.145C95.4978 145.31 95.4703 145.503 95.4703 145.669C95.2498 149.668 95.36 151.57 96.0213 154.08C98.0877 161.94 104.452 170.599 114.426 179.094C130.765 192.993 152.916 203.031 169.696 204.19C187.191 205.376 213.008 195.144 230.2 180.197C232.9 177.797 235.435 175.26 237.805 172.557C239.513 170.572 242.048 167.152 241.855 167.152C241.8 167.152 241.855 167.097 241.965 167.042C242.048 166.987 242.13 166.904 242.075 166.849C242.048 166.821 242.103 166.738 242.185 166.711C242.268 166.683 242.323 166.628 242.296 166.573C242.268 166.518 242.296 166.463 242.406 166.435C242.488 166.408 242.516 166.325 242.488 166.27C242.461 166.214 242.488 166.159 242.544 166.159C242.599 166.159 242.654 166.077 242.654 166.021C242.654 165.966 242.709 165.884 242.764 165.884C242.819 165.884 242.874 165.828 242.874 165.773C242.957 165.553 243.095 165.332 243.232 165.139C243.646 164.505 245.299 161.554 245.519 161.057C247.09 157.5 248.082 154.328 248.55 151.157C248.77 149.64 248.908 146.855 248.798 146.193C248.77 146.082 248.77 145.889 248.743 145.586C248.688 145.034 248.66 144.207 248.605 143.38C248.55 142.139 248.44 140.401 248.357 139.546C247.172 127.026 243.976 116.794 237.915 105.956C237.667 105.542 237.446 105.129 237.309 104.798C237.254 104.715 237.226 104.632 237.198 104.577C238.053 102.012 241.552 91.2844 244.334 79.0121L244.39 79.0672L244.803 79.6188C245.519 80.584 247.42 83.4522 248.274 84.8311C252.159 91.1741 255.19 97.9859 257.339 105.101C262.326 122.227 261.913 140.484 256.072 157.362Z" fill="#F00500"/>
<path d="M220.309 124.406C220.226 124.847 218.931 126.171 217.636 127.136C213.834 129.922 207.029 132.514 200.113 133.755C196.173 134.472 192.233 134.582 191.048 134.003C190.277 133.617 190.167 133.314 190.442 132.321C191.021 130.253 192.894 127.991 195.815 125.868C197.303 124.792 203.337 121.124 206.147 119.58C210.776 117.043 214.523 115.526 217.058 115.167C217.857 115.057 218.821 115.029 219.124 115.167C219.62 115.36 220.171 116.822 220.391 118.587C220.502 119.525 220.446 123.661 220.309 124.406Z" fill="black"/>
<path d="M155.396 133.534C155.231 133.865 154.404 134.224 153.468 134.362C152.531 134.5 149.666 134.417 148.04 134.224C142.199 133.452 136 131.659 131.481 129.453C128.946 128.212 127.128 126.971 125.778 125.619L125.006 124.82L124.924 123.772C124.786 121.951 124.813 119.083 125.034 118.063C125.172 117.208 125.475 116.381 125.888 115.636C126.108 115.36 126.108 115.36 127.1 115.36C128.313 115.36 129.332 115.553 130.985 116.077C134.374 117.125 139.416 119.662 145.56 123.358C150.63 126.392 152.531 127.881 153.991 129.922C154.983 131.19 155.644 132.983 155.396 133.534Z" fill="black"/>
<path d="M194.409 171.923C194.409 172.006 194.079 173.33 193.665 174.902C193.252 176.474 192.921 177.742 192.921 177.797C192.618 177.825 192.343 177.853 192.04 177.825H191.158L189.946 180.693C189.285 182.265 188.678 183.727 188.596 183.947L188.43 184.334L187.852 183.396L187.273 182.458V174.819L187.053 174.874C186.584 174.985 183.251 175.426 181.79 175.564C175.756 176.17 169.695 176.032 163.689 175.178C162.724 175.04 161.898 174.929 161.87 174.957C161.843 174.985 161.87 176.75 161.925 178.928L162.008 182.844L161.54 183.561C161.292 183.947 161.044 184.278 161.044 184.306C160.961 184.389 160.685 183.947 160.052 182.679C159.363 181.355 158.867 179.949 158.509 178.487L158.316 177.687L157.462 177.742L156.608 177.825L156.387 176.805C156.277 176.253 156.139 175.398 156.084 174.929L156.002 174.047L155.285 173.413C154.872 173.054 154.459 172.696 154.376 172.64C154.238 172.53 154.183 172.337 154.183 172.172V171.841L157.627 171.868L161.071 171.896L161.181 172.254L161.292 172.613L162.476 172.668C163.138 172.696 165.232 172.751 167.105 172.806L170.549 172.889L171.431 171.51L172.34 170.131H173.497L173.47 167.263L173.442 164.394L171.927 163.733C167.05 161.581 164.185 159.127 163.11 156.149C162.89 155.542 162.89 155.321 162.834 152.563C162.807 149.833 162.807 149.585 163 148.978C163.386 147.599 164.46 146.524 165.838 146.165C166.306 146.027 167.546 146.027 174.048 146.027L181.708 146.055L182.562 146.469C183.581 146.965 184.05 147.324 184.628 148.096C185.289 148.978 185.482 149.668 185.482 151.35C185.482 153.749 185.317 155.818 185.069 156.645C184.711 157.776 184.16 158.851 183.471 159.816C182.093 161.581 179.586 163.346 177.299 164.146L176.638 164.394L176.666 167.29L176.693 170.186L177.299 170.241L177.906 170.296L178.732 171.537L179.531 172.778H183.223C185.262 172.778 187.053 172.806 187.218 172.833C187.494 172.889 187.549 172.861 187.824 172.392L188.155 171.896H191.323C193.693 171.785 194.409 171.841 194.409 171.923Z" fill="black"/>
<path d="M179.862 179.838C179.339 180.141 178.98 180.279 178.898 180.224C178.815 180.197 178.429 179.866 178.016 179.562L177.272 178.956L176.501 179.783C174.82 181.603 174.765 181.686 174.269 181.713C173.498 181.796 173.332 181.658 172.396 180.252C171.9 179.535 171.514 178.928 171.514 178.928C171.514 178.928 171.156 178.873 170.742 178.845L169.971 178.763L169.613 179.507L169.255 180.252L168.621 180.059C168.125 179.893 167.629 179.7 167.161 179.48L166.334 179.066V177.494L173.663 177.522L180.992 177.549L181.019 178.294C181.047 179.176 181.074 179.149 179.862 179.838Z" fill="black"/>
<path d="M248.743 146.193C248.715 146.082 248.715 145.889 248.688 145.586C242.075 144.869 223.202 144.428 205.679 158.906C205.679 158.906 200.03 132.983 173.58 132.983C147.13 132.983 137.322 158.906 137.322 158.906C122.499 142.939 102.661 144.097 95.4976 145.145C95.4976 145.31 95.47 145.503 95.47 145.669C95.2496 149.668 95.3598 151.571 96.0211 154.08C98.0875 161.94 104.452 170.6 114.426 179.094C130.764 192.993 152.916 203.032 169.696 204.19C187.191 205.376 213.007 195.144 230.2 180.197C232.9 177.797 235.435 175.26 237.804 172.558C239.513 170.572 242.047 167.152 241.855 167.152C241.799 167.152 241.855 167.097 241.965 167.042C242.047 166.987 242.13 166.904 242.075 166.849C242.047 166.821 242.103 166.739 242.185 166.711C242.268 166.683 242.323 166.628 242.295 166.573C242.268 166.518 242.295 166.463 242.406 166.435C242.488 166.408 242.516 166.325 242.488 166.27C242.461 166.215 242.488 166.159 242.543 166.159C242.598 166.159 242.654 166.077 242.654 166.022C242.654 165.966 242.709 165.884 242.764 165.884C242.819 165.884 242.874 165.828 242.874 165.773C242.957 165.553 243.094 165.332 243.232 165.139C243.645 164.505 245.299 161.554 245.519 161.057C247.089 157.5 248.081 154.328 248.55 151.157C248.715 149.64 248.853 146.855 248.743 146.193ZM179.862 179.838C179.339 180.142 178.981 180.279 178.898 180.224C178.815 180.197 178.43 179.866 178.016 179.562L177.272 178.956L176.501 179.783C174.82 181.603 174.765 181.686 174.269 181.714C173.498 181.796 173.332 181.658 172.396 180.252C171.9 179.535 171.514 178.928 171.514 178.928C171.514 178.928 171.156 178.873 170.743 178.845L169.971 178.763L169.613 179.507L169.255 180.252L168.621 180.059C168.125 179.893 167.629 179.7 167.161 179.48L166.334 179.066V177.494L173.663 177.522L180.992 177.549L181.019 178.294C181.047 179.176 181.075 179.149 179.862 179.838ZM193.638 174.874C193.225 176.446 192.894 177.715 192.894 177.77C192.591 177.797 192.316 177.825 192.013 177.797H191.131L189.946 180.693C189.285 182.265 188.679 183.727 188.596 183.947L188.431 184.333L187.852 183.396L187.274 182.458V174.819L187.053 174.874C186.585 174.984 183.251 175.426 181.791 175.564C175.757 176.17 169.696 176.032 163.689 175.178C162.725 175.04 161.898 174.929 161.871 174.957C161.843 174.984 161.871 176.749 161.926 178.928L162.008 182.844L161.54 183.561C161.292 183.947 161.044 184.278 161.044 184.306C160.961 184.389 160.686 183.947 160.052 182.679C159.363 181.355 158.868 179.949 158.509 178.487L158.316 177.687L157.462 177.742L156.608 177.825L156.388 176.805C156.278 176.253 156.14 175.398 156.085 174.929L156.002 174.047L155.286 173.412C154.872 173.054 154.459 172.695 154.377 172.64C154.239 172.53 154.184 172.337 154.184 172.171V171.841L157.628 171.868L161.072 171.896L161.182 172.254L161.292 172.613L162.477 172.668C163.138 172.695 165.232 172.751 167.106 172.806L170.55 172.889L171.431 171.51L172.341 170.131H173.498L173.47 167.263L173.443 164.394L171.927 163.733C167.05 161.581 164.185 159.127 163.111 156.149C162.89 155.542 162.89 155.321 162.835 152.563C162.807 149.833 162.807 149.585 163 148.978C163.386 147.599 164.461 146.524 165.838 146.165C166.307 146.027 167.546 146.027 174.049 146.027L181.708 146.055L182.562 146.469C183.582 146.965 184.05 147.323 184.629 148.096C185.29 148.978 185.483 149.668 185.483 151.35C185.483 153.749 185.318 155.818 185.07 156.645C184.711 157.776 184.16 158.851 183.472 159.816C182.094 161.581 179.587 163.346 177.3 164.146L176.639 164.394L176.666 167.29L176.694 170.186L177.3 170.241L177.906 170.296L178.733 171.537L179.532 172.778H183.224C185.262 172.778 187.053 172.806 187.219 172.833C187.494 172.889 187.549 172.861 187.825 172.392L188.155 171.896H191.324C193.776 171.896 194.492 171.923 194.492 172.006C194.41 171.978 194.052 173.33 193.638 174.874Z" fill="white"/>
<path d="M248.522 143.38C248.467 142.139 248.357 140.401 248.274 139.546C247.09 127.026 243.894 116.794 237.832 105.956C237.584 105.542 237.364 105.129 237.226 104.798C237.171 104.715 237.143 104.632 237.116 104.577C237.97 102.012 241.469 91.2843 244.252 79.012C248.026 62.3547 250.423 42.8845 243.095 37.0379C243.095 37.0379 230.421 36.1002 213.448 52.7575C208.847 57.3631 204.632 62.3547 200.885 67.6773L199.7 67.2912C192.867 65.0574 185.786 63.6785 178.65 63.2097C176.501 63.0442 168.483 63.0442 165.866 63.2097C157.958 63.7336 151.897 64.9195 145.009 67.3188C144.733 67.4291 144.485 67.5119 144.237 67.5946C140.353 62.2996 136.027 57.3355 131.26 52.7851C113.599 36.0451 100.457 37.0103 100.457 37.0103C92.6874 43.05 95.3324 63.4027 99.355 80.6115C102 92.0013 105.251 102.012 106.463 105.625C106.381 105.818 106.271 106.039 106.16 106.232C99.7407 119.249 96.2692 131.797 95.4426 145.145C102.634 144.097 122.444 142.911 137.294 158.906C137.294 158.906 147.103 132.983 173.553 132.983C200.003 132.983 205.651 158.906 205.651 158.906C223.174 144.428 242.048 144.896 248.66 145.586C248.633 145.034 248.577 144.207 248.522 143.38ZM111.671 95.228C111.671 95.228 101.366 69.4423 104.011 54.7156C104.452 52.2335 105.279 50.0548 106.574 48.4001C106.574 48.4001 118.256 49.5584 137.101 70.5179C137.101 70.5179 133.52 72.2553 128.726 75.9508C128.726 75.9508 128.698 75.9784 128.67 75.9784C123.463 79.9772 116.796 86.3202 111.671 95.228ZM155.396 133.534C155.231 133.865 154.404 134.224 153.467 134.362C152.531 134.499 149.665 134.417 148.04 134.224C142.199 133.451 135.999 131.659 131.481 129.453C128.946 128.212 127.128 126.971 125.778 125.619L125.006 124.819L124.923 123.771C124.786 121.951 124.813 119.083 125.034 118.063C125.171 117.208 125.474 116.38 125.888 115.636C126.108 115.36 126.108 115.36 127.1 115.36C128.312 115.36 129.332 115.553 130.985 116.077C134.374 117.125 139.416 119.662 145.56 123.358C150.63 126.391 152.531 127.881 153.991 129.921C154.983 131.19 155.644 132.983 155.396 133.534ZM220.309 124.406C220.226 124.847 218.931 126.171 217.636 127.136C213.834 129.921 207.029 132.514 200.113 133.755C196.173 134.472 192.233 134.582 191.049 134.003C190.277 133.617 190.167 133.314 190.442 132.321C191.021 130.252 192.895 127.991 195.815 125.867C197.303 124.792 203.337 121.124 206.147 119.58C210.776 117.042 214.523 115.526 217.058 115.167C217.857 115.057 218.821 115.029 219.124 115.167C219.62 115.36 220.171 116.822 220.392 118.587C220.502 119.524 220.447 123.661 220.309 124.406ZM215.735 75.9508L215.68 75.9232C211.051 72.2277 207.58 70.4903 207.58 70.4903C225.792 49.5308 237.061 48.3726 237.061 48.3726C238.3 50.0548 239.099 52.2059 239.54 54.688C242.103 69.4148 232.156 95.228 232.156 95.228C227.996 87.8094 222.403 81.2458 215.735 75.9508Z" fill="#FFA409"/>
<path d="M239.568 54.6879C237.419 54.4121 227.252 54.357 215.735 75.9507L215.68 75.9232C211.051 72.2277 207.58 70.4902 207.58 70.4902C225.792 49.5308 237.061 48.3725 237.061 48.3725C238.328 50.0548 239.127 52.2059 239.568 54.6879Z" fill="#FF9300"/>
<path d="M232.184 95.2279C227.996 87.7818 222.43 81.2458 215.735 75.9507C227.252 54.357 237.391 54.4121 239.568 54.6879C242.13 69.4423 232.184 95.2279 232.184 95.2279Z" fill="#FF8300"/>
<path d="M239.981 54.7706C239.843 54.7431 239.705 54.7155 239.567 54.688L239.981 54.7706Z" fill="#FF8300"/>
<path d="M137.102 70.4904C137.102 70.4904 133.52 72.2279 128.726 75.9233C128.726 75.9233 128.698 75.9509 128.671 75.9509C116.741 54.3296 106.243 54.4123 103.984 54.6881C104.425 52.2061 105.252 50.0274 106.546 48.3727C106.574 48.3727 118.256 49.531 137.102 70.4904Z" fill="#FF9300"/>
<path d="M128.698 75.951C123.464 79.9774 116.796 86.2928 111.671 95.2282C111.671 95.2282 101.367 69.4425 104.012 54.6881C106.243 54.4124 116.768 54.3572 128.698 75.951Z" fill="#FF8300"/>
<path d="M104.012 54.688C103.874 54.7155 103.709 54.7431 103.571 54.7706L104.012 54.688Z" fill="#FF8300"/>
<path d="M204.301 109.541C204.301 109.541 195.484 110.093 196.586 103.198C197.688 96.3035 204.576 95.4761 206.505 95.7519C208.434 96.0277 216.148 98.7855 214.771 104.577C213.393 110.368 211.464 109.265 210.362 109.541C209.26 109.817 204.301 109.541 204.301 109.541Z" fill="white"/>
<path d="M139.278 109.541C139.278 109.541 130.461 110.093 131.563 103.198C132.666 96.3035 139.554 95.4761 141.482 95.7519C143.411 96.0277 151.125 98.7855 149.748 104.577C148.37 110.368 146.442 109.265 145.34 109.541C144.237 109.817 139.278 109.541 139.278 109.541Z" fill="white"/>
<defs>
<radialGradient id="paint0_radial_578_1148" cx="0" cy="0" r="1" gradientUnits="userSpaceOnUse" gradientTransform="translate(156.714 122.318) rotate(77.35) scale(223.799 194.705)">
<stop stop-color="#D2F1F9"/>
<stop offset="0.11" stop-color="#D3EAF0"/>
<stop offset="0.28" stop-color="#D7D9DA"/>
<stop offset="0.3" stop-color="#D8D8D8"/>
<stop offset="0.37" stop-color="#D2D2D3"/>
<stop offset="0.46" stop-color="#C1C1C5"/>
<stop offset="0.56" stop-color="#A6A6AE"/>
<stop offset="0.67" stop-color="#80818F"/>
<stop offset="0.72" stop-color="#6E6F80"/>
<stop offset="0.85" stop-color="#4F556B"/>
<stop offset="0.89" stop-color="#51566E"/>
<stop offset="0.92" stop-color="#5A5A77"/>
<stop offset="0.94" stop-color="#686288"/>
<stop offset="0.96" stop-color="#7D6C9F"/>
<stop offset="0.99" stop-color="#977ABD"/>
<stop offset="1" stop-color="#AA84D3"/>
</radialGradient>
<linearGradient id="paint1_linear_578_1148" x1="148.959" y1="46.673" x2="196.431" y2="213.211" gradientUnits="userSpaceOnUse">
<stop stop-color="#E2E2E2"/>
<stop offset="0.19" stop-color="#DCDCDC"/>
<stop offset="0.43" stop-color="#CBCBCB"/>
<stop offset="0.71" stop-color="#B0B0B0"/>
<stop offset="1" stop-color="#8C8C8C"/>
</linearGradient>
<linearGradient id="paint2_linear_578_1148" x1="172.633" y1="315.191" x2="172.478" y2="304.968" gradientUnits="userSpaceOnUse">
<stop stop-color="#4A4E66"/>
<stop offset="1" stop-color="#3E405B"/>
</linearGradient>
<linearGradient id="paint3_linear_578_1148" x1="238.474" y1="263.524" x2="233.054" y2="236.006" gradientUnits="userSpaceOnUse">
<stop offset="0.12" stop-color="#767686"/>
<stop offset="0.4" stop-color="#696A7C"/>
<stop offset="0.89" stop-color="#4A4E66"/>
</linearGradient>
<radialGradient id="paint4_radial_578_1148" cx="0" cy="0" r="1" gradientUnits="userSpaceOnUse" gradientTransform="translate(235.018 252.825) scale(15.4768 16.3001)">
<stop offset="0.19" stop-color="#4A4E66"/>
<stop offset="0.84" stop-color="#5A5C71"/>
<stop offset="1" stop-color="#5F6175"/>
</radialGradient>
<radialGradient id="paint5_radial_578_1148" cx="0" cy="0" r="1" gradientUnits="userSpaceOnUse" gradientTransform="translate(234.643 256.857) scale(14.5692 14.5692)">
<stop stop-color="#92939E"/>
<stop offset="0.22" stop-color="#81838F"/>
<stop offset="0.65" stop-color="#575A6A"/>
<stop offset="0.86" stop-color="#404456"/>
</radialGradient>
<radialGradient id="paint6_radial_578_1148" cx="0" cy="0" r="1" gradientUnits="userSpaceOnUse" gradientTransform="translate(234.102 253.993) scale(14.2585 14.2585)">
<stop offset="0.19" stop-color="#92939E"/>
<stop offset="0.5" stop-color="#818390"/>
<stop offset="1" stop-color="#5F6175"/>
</radialGradient>
<radialGradient id="paint7_radial_578_1148" cx="0" cy="0" r="1" gradientUnits="userSpaceOnUse" gradientTransform="translate(230.213 258.539) scale(15.8743 15.8743)">
<stop stop-color="#F9F9F9"/>
<stop offset="0.38" stop-color="#F4F4F4"/>
<stop offset="0.8" stop-color="#E7E7E7"/>
<stop offset="0.93" stop-color="#E2E2E2"/>
</radialGradient>
<linearGradient id="paint8_linear_578_1148" x1="231.98" y1="227.394" x2="232.752" y2="237.458" gradientUnits="userSpaceOnUse">
<stop stop-color="#4C5166"/>
<stop offset="0.24" stop-color="#373B4C"/>
<stop offset="0.49" stop-color="#282B38"/>
<stop offset="0.74" stop-color="#1F212C"/>
<stop offset="1" stop-color="#1C1E28"/>
</linearGradient>
<linearGradient id="paint9_linear_578_1148" x1="345.297" y1="263.524" x2="112.243" y2="236.006" gradientUnits="userSpaceOnUse">
<stop offset="0.12" stop-color="#767686"/>
<stop offset="0.4" stop-color="#696A7C"/>
<stop offset="0.89" stop-color="#4A4E66"/>
</linearGradient>
<radialGradient id="paint10_radial_578_1148" cx="0" cy="0" r="1" gradientUnits="userSpaceOnUse" gradientTransform="translate(110.28 252.825) rotate(180) scale(15.4768 16.3001)">
<stop offset="0.19" stop-color="#4A4E66"/>
<stop offset="0.84" stop-color="#5A5C71"/>
<stop offset="1" stop-color="#5F6175"/>
</radialGradient>
<radialGradient id="paint11_radial_578_1148" cx="0" cy="0" r="1" gradientUnits="userSpaceOnUse" gradientTransform="translate(345.076 0.222124) rotate(-180) scale(0.221956)">
<stop stop-color="#92939E"/>
<stop offset="0.22" stop-color="#81838F"/>
<stop offset="0.65" stop-color="#575A6A"/>
<stop offset="0.86" stop-color="#404456"/>
</radialGradient>
<radialGradient id="paint12_radial_578_1148" cx="0" cy="0" r="1" gradientUnits="userSpaceOnUse" gradientTransform="translate(345.076 0.22206) rotate(-180) scale(0.221956)">
<stop offset="0.19" stop-color="#92939E"/>
<stop offset="0.5" stop-color="#818390"/>
<stop offset="1" stop-color="#5F6175"/>
</radialGradient>
<radialGradient id="paint13_radial_578_1148" cx="0" cy="0" r="1" gradientUnits="userSpaceOnUse" gradientTransform="translate(345.075 0.221888) rotate(-180) scale(15.8743 15.8743)">
<stop stop-color="#F9F9F9"/>
<stop offset="0.38" stop-color="#F4F4F4"/>
<stop offset="0.8" stop-color="#E7E7E7"/>
<stop offset="0.93" stop-color="#E2E2E2"/>
</radialGradient>
<linearGradient id="paint14_linear_578_1148" x1="113.318" y1="227.394" x2="112.545" y2="237.458" gradientUnits="userSpaceOnUse">
<stop stop-color="#4C5166"/>
<stop offset="0.24" stop-color="#373B4C"/>
<stop offset="0.49" stop-color="#282B38"/>
<stop offset="0.74" stop-color="#1F212C"/>
<stop offset="1" stop-color="#1C1E28"/>
</linearGradient>
<radialGradient id="paint15_radial_578_1148" cx="0" cy="0" r="1" gradientUnits="userSpaceOnUse" gradientTransform="translate(108.925 94.0012) rotate(-43.87) scale(123.399 59.2314)">
<stop offset="0.22" stop-color="#B4B4B4"/>
<stop offset="0.38" stop-color="#B8B9B9"/>
<stop offset="0.59" stop-color="#C6C9CA"/>
<stop offset="0.83" stop-color="#DBE3E5"/>
<stop offset="1" stop-color="#EFFBFD"/>
</radialGradient>
</defs>
</svg>
