<svg width="23" height="28" viewBox="0 0 23 28" fill="none" xmlns="http://www.w3.org/2000/svg">
<path d="M0.5 13.1562V5.50108L11.5 0.548344L22.5 5.50108V13.1562C22.5 19.8741 17.9831 25.7474 11.5 27.483C5.01684 25.7474 0.5 19.8741 0.5 13.1562Z" fill="url(#paint0_radial_1_7595)" stroke="#0FFF9A"/>
<path d="M14.8297 10.0909C14.7492 9.28121 14.3918 8.63727 13.7573 8.15905C13.1228 7.68083 12.325 7.44172 11.3638 7.44172C10.6867 7.44172 10.0901 7.55772 9.57404 7.78973C9.06268 8.02174 8.66022 8.34371 8.36665 8.75564C8.07783 9.16283 7.93342 9.62685 7.93342 10.1477C7.93342 10.5312 8.01628 10.8674 8.182 11.1562C8.34772 11.445 8.57025 11.6936 8.84961 11.9019C9.1337 12.1055 9.4462 12.2807 9.78711 12.4275C10.1328 12.5743 10.4808 12.6974 10.8311 12.7968L12.3652 13.2372C12.8292 13.365 13.2933 13.5284 13.7573 13.7272C14.2213 13.9261 14.6451 14.177 15.0286 14.4801C15.4168 14.7784 15.727 15.1453 15.959 15.5809C16.1957 16.0118 16.3141 16.5303 16.3141 17.1363C16.3141 17.9128 16.1129 18.6112 15.7104 19.2315C15.3079 19.8518 14.7303 20.3442 13.9775 20.7088C13.2246 21.0686 12.3226 21.2485 11.2715 21.2485C10.2819 21.2485 9.42253 21.0852 8.69336 20.7585C7.96419 20.427 7.39128 19.9701 6.97461 19.3877C6.55794 18.8054 6.32357 18.1306 6.27148 17.3636H7.63512C7.68247 17.9365 7.87186 18.4218 8.2033 18.8196C8.53474 19.2173 8.96561 19.5203 9.49592 19.7286C10.0262 19.9322 10.6181 20.034 11.2715 20.034C11.9959 20.034 12.6399 19.9133 13.2033 19.6718C13.7715 19.4256 14.2166 19.0847 14.5385 18.6491C14.8652 18.2088 15.0286 17.6974 15.0286 17.115C15.0286 16.6226 14.9007 16.2107 14.6451 15.8792C14.3894 15.543 14.0319 15.2613 13.5726 15.034C13.1181 14.8068 12.5901 14.6055 11.9888 14.4304L10.2488 13.919C9.10766 13.5781 8.22224 13.107 7.59251 12.5056C6.96277 11.9043 6.6479 11.1373 6.6479 10.2045C6.6479 9.42325 6.85624 8.7367 7.2729 8.14484C7.69431 7.54825 8.26249 7.08424 8.97745 6.7528C9.69715 6.41662 10.5044 6.24854 11.3993 6.24854C12.3037 6.24854 13.1039 6.41426 13.7999 6.7457C14.4959 7.07713 15.0475 7.53405 15.4547 8.11643C15.8667 8.69408 16.0868 9.35223 16.1152 10.0909H14.8297Z" fill="white"/>
<defs>
<radialGradient id="paint0_radial_1_7595" cx="0" cy="0" r="1" gradientUnits="userSpaceOnUse" gradientTransform="translate(11.5 14) rotate(90) scale(15 12.3214)">
<stop offset="0.31" stop-color="#019D65"/>
<stop offset="1" stop-color="#006944"/>
</radialGradient>
</defs>
</svg>
