<svg width="353" height="353" viewBox="0 0 353 353" fill="none" xmlns="http://www.w3.org/2000/svg">
<path d="M176.5 353C273.978 353 353 273.978 353 176.5C353 79.0217 273.978 0 176.5 0C79.0217 0 0 79.0217 0 176.5C0 273.978 79.0217 353 176.5 353Z" fill="url(#paint0_radial_1_1461)"/>
<path d="M58.538 93.1531C58.8969 93.7754 58.8514 94.5476 58.429 95.1289C43.3857 115.8 32.9117 140.009 28.5059 166.276C28.2697 167.693 26.1758 167.534 26.1758 166.094C26.1758 166.049 26.1758 166.003 26.1758 165.953C26.1758 135.858 35.1055 107.847 50.4486 84.4188C51.189 83.2832 52.8695 83.3287 53.5463 84.5051L58.538 93.1531ZM175.205 16.9237C127.418 16.9237 84.8911 39.4251 57.616 74.399C57.1618 74.9804 57.1118 75.7843 57.4797 76.4247L62.7531 85.5543C63.3799 86.6444 64.9015 86.7806 65.7099 85.8223C96.6823 48.9634 143.116 25.5309 195.032 25.5309C195.186 25.5309 195.34 25.5309 195.49 25.5309C199.996 25.5445 200.455 18.9858 195.994 18.3635C189.2 17.4142 182.259 16.9237 175.201 16.9237H175.205Z" fill="url(#paint1_radial_1_1461)"/>
<path d="M206.028 295.725C205.724 297.355 205.447 298.936 205.156 300.457V300.471C204.688 302.915 204.188 305.204 203.484 307.284C201.985 311.704 199.578 315.196 194.641 317.259C189.277 319.498 182.981 317.649 177.617 317.649C172.253 317.649 165.962 319.502 160.594 317.259C155.656 315.196 153.249 311.704 151.75 307.284C151.046 305.204 150.547 302.915 150.079 300.471V300.457C149.788 298.936 149.511 297.355 149.207 295.725C149.743 296.211 150.283 296.674 150.819 297.114C152.445 298.445 154.067 299.563 155.666 300.503C156.07 300.744 156.474 300.971 156.878 301.189C158.741 302.192 160.566 302.96 162.324 303.546C162.638 303.655 162.946 303.75 163.255 303.846C165.54 304.541 167.693 304.94 169.655 305.163C172.994 305.554 175.764 305.44 177.617 305.44C179.47 305.44 182.241 305.554 185.58 305.168C187.542 304.94 189.695 304.541 191.979 303.846C192.288 303.75 192.597 303.655 192.91 303.546C194.668 302.96 196.494 302.192 198.356 301.189C198.761 300.971 199.165 300.744 199.569 300.503C201.168 299.563 202.789 298.445 204.415 297.114C204.951 296.674 205.492 296.211 206.028 295.725Z" fill="url(#paint2_linear_1_1461)"/>
<path d="M188.109 321.11C188.109 323.263 181.864 326.397 177.095 326.397C172.326 326.397 166.08 323.259 166.08 321.11C166.08 318.962 188.105 318.957 188.105 321.11H188.109Z" fill="url(#paint3_linear_1_1461)"/>
<path d="M180.415 314.197C178.998 314.197 178.14 313.975 177.626 313.484C177.286 313.162 177.113 312.73 177.113 312.203C177.113 311.885 177.113 311.39 177.118 310.831C177.127 309.464 177.136 307.588 177.113 306.898C177.1 306.557 177.077 305.844 180.62 305.413C185.216 304.854 185.898 305.667 185.975 306.044C186.107 306.689 186.07 308.442 186.016 310.504C185.998 311.09 185.984 311.585 185.984 311.881C185.984 313.984 183.876 314.07 182.019 314.147C181.796 314.156 181.569 314.165 181.342 314.179C181.01 314.197 180.701 314.206 180.42 314.206L180.415 314.197ZM178.076 306.98C178.099 307.761 178.085 309.46 178.076 310.836C178.076 311.395 178.072 311.885 178.072 312.203C178.072 312.544 178.194 312.698 178.285 312.785C178.676 313.157 179.657 313.293 181.283 313.207C181.514 313.193 181.746 313.184 181.973 313.175C184.135 313.089 185.016 312.944 185.016 311.872C185.016 311.572 185.03 311.063 185.048 310.468C185.085 309.101 185.144 307.075 185.048 306.353C184.103 305.931 178.871 306.398 178.076 306.98Z" fill="#B78B2A"/>
<path d="M188.219 313.352C186.979 313.352 186.179 313.13 185.679 312.662C185.289 312.294 185.089 311.785 185.089 311.145C185.089 310.791 185.089 310.245 185.094 309.628C185.103 308.102 185.112 306.017 185.089 305.181C185.08 304.909 185.293 304.681 185.566 304.672C185.57 304.672 185.575 304.672 185.58 304.672C185.843 304.672 186.066 304.886 186.075 305.149C186.102 306.003 186.088 308.102 186.079 309.632C186.079 310.25 186.075 310.791 186.075 311.145C186.075 311.626 186.234 311.826 186.352 311.94C186.733 312.298 187.601 312.426 188.995 312.339C189.209 312.326 189.418 312.317 189.627 312.303C191.643 312.203 192.406 312.044 192.406 310.772C192.406 310.568 192.411 310.282 192.42 309.941L192.438 309.146C192.474 307.502 192.524 305.258 192.429 304.454C192.356 304.423 192.206 304.373 191.916 304.336C191.648 304.3 191.452 304.055 191.489 303.782C191.525 303.51 191.766 303.319 192.043 303.355C192.347 303.396 193.274 303.514 193.387 304.182L193.406 304.341C193.51 305.226 193.46 307.411 193.424 309.174L193.406 309.968C193.396 310.3 193.392 310.582 193.392 310.781C193.392 313.116 191.416 313.211 189.672 313.298C189.468 313.307 189.263 313.316 189.054 313.33C188.754 313.348 188.473 313.357 188.209 313.357L188.219 313.352Z" fill="#B78B2A"/>
<path d="M195.231 311.794C194.128 311.794 192.606 311.522 192.429 309.755C192.415 309.641 192.411 309.514 192.411 309.378C192.411 308.946 192.411 308.274 192.415 307.511C192.415 306.507 192.424 305.345 192.424 304.363C192.424 304.077 192.424 303.8 192.424 303.555C192.42 303.282 192.638 303.055 192.91 303.051H192.92C193.188 303.051 193.41 303.264 193.415 303.537C193.415 303.791 193.415 304.068 193.415 304.363C193.415 305.34 193.415 306.507 193.406 307.511C193.406 308.274 193.401 308.946 193.401 309.378C193.401 309.469 193.401 309.56 193.415 309.641C193.483 310.314 193.733 310.949 195.954 310.768C196.149 310.75 196.34 310.741 196.535 310.727C198.225 310.622 198.97 310.509 198.97 308.96C198.97 308.578 198.983 307.938 198.997 307.189C199.029 305.385 199.079 302.692 198.983 301.829C198.915 301.793 198.733 301.72 198.316 301.679C198.043 301.652 197.843 301.411 197.87 301.143C197.898 300.871 198.125 300.671 198.406 300.698C199.365 300.789 199.887 301.098 199.955 301.625C200.073 302.469 200.023 305.208 199.982 307.207C199.969 307.952 199.955 308.583 199.955 308.96C199.955 311.499 198.093 311.617 196.594 311.713C196.408 311.726 196.222 311.735 196.031 311.753C195.826 311.772 195.545 311.794 195.231 311.794Z" fill="#B78B2A"/>
<path d="M201.549 307.906C200.746 307.906 200.173 307.729 199.764 307.361C199.315 306.953 199.097 306.339 199.097 305.476C199.097 305.054 199.097 304.4 199.101 303.65C199.101 302.656 199.11 301.497 199.11 300.503C199.11 300.248 199.315 300.044 199.569 300.044C199.823 300.044 200.028 300.248 200.028 300.503C200.028 301.497 200.028 302.66 200.019 303.655C200.019 304.4 200.014 305.054 200.014 305.476C200.014 306.062 200.132 306.453 200.378 306.675C200.677 306.948 201.245 307.034 202.117 306.953C202.281 306.934 202.444 306.925 202.608 306.912C202.894 306.889 203.162 306.866 203.407 306.83C204.079 306.721 204.638 306.512 204.638 305.054C204.638 304.672 204.647 304.041 204.656 303.296C204.67 302.433 204.683 301.416 204.688 300.471C204.702 299.081 204.688 298.1 204.643 297.678C204.606 297.65 204.506 297.605 204.32 297.569C204.07 297.519 203.907 297.278 203.957 297.028C204.007 296.778 204.243 296.615 204.497 296.665C205.356 296.828 205.528 297.287 205.556 297.541C205.606 297.991 205.624 298.972 205.61 300.462C205.606 301.42 205.592 302.442 205.578 303.31C205.569 304.05 205.56 304.677 205.56 305.054C205.56 306.685 204.942 307.511 203.553 307.738C203.266 307.784 202.971 307.806 202.68 307.829C202.526 307.843 202.367 307.852 202.208 307.87C201.972 307.893 201.749 307.906 201.54 307.906H201.549Z" fill="#B78B2A"/>
<path d="M180.406 318.694C178.867 318.694 178.013 318.494 177.549 318.049C177.304 317.813 177.177 317.513 177.177 317.154C177.177 316.918 177.177 316.55 177.181 316.132C177.191 315.119 177.2 313.734 177.177 313.221C177.172 313.107 177.2 312.889 177.459 312.707C177.649 312.576 177.904 312.626 178.035 312.812C178.144 312.971 178.131 313.18 178.008 313.316C178.026 313.92 178.017 315.137 178.008 316.137C178.008 316.55 178.004 316.913 178.004 317.15C178.004 317.277 178.04 317.363 178.122 317.445C178.639 317.944 180.638 317.863 181.292 317.835C181.524 317.826 181.751 317.817 181.978 317.813C183.908 317.754 185.076 317.663 185.076 316.904C185.076 316.677 185.089 316.3 185.107 315.855C185.144 314.929 185.198 313.421 185.116 312.871C184.953 312.767 184.867 312.558 184.939 312.371C185.021 312.158 185.244 312.04 185.457 312.122C185.693 312.208 185.839 312.349 185.893 312.535C186.034 313.034 185.998 314.347 185.939 315.887C185.92 316.318 185.907 316.686 185.907 316.904C185.907 318.526 183.922 318.585 182.001 318.644C181.778 318.648 181.546 318.658 181.319 318.667C180.988 318.68 180.679 318.685 180.397 318.685L180.406 318.694ZM177.699 313.053L177.931 313.398L177.695 313.057L177.699 313.053Z" fill="#B78B2A"/>
<path d="M188.196 318.726C186.888 318.726 186.098 318.517 185.616 318.063C185.294 317.758 185.13 317.354 185.13 316.854C185.13 316.555 185.13 316.087 185.135 315.555C185.144 314.411 185.148 312.989 185.135 312.194C185.135 311.944 185.33 311.74 185.575 311.74C185.82 311.74 186.029 311.935 186.029 312.181C186.043 312.985 186.029 314.415 186.029 315.56C186.029 316.091 186.025 316.55 186.025 316.854C186.025 317.177 186.143 317.327 186.229 317.409C186.593 317.754 187.496 317.881 189 317.799C189.213 317.785 189.427 317.781 189.64 317.772C191.639 317.69 192.452 317.554 192.452 316.545C192.452 316.264 192.465 315.787 192.479 315.228C192.515 313.975 192.561 312.258 192.488 311.477C192.466 311.231 192.647 311.009 192.897 310.991C193.156 310.968 193.36 311.15 193.383 311.399C193.46 312.231 193.41 313.979 193.374 315.256C193.36 315.805 193.347 316.273 193.347 316.55C193.347 318.521 191.394 318.603 189.672 318.671C189.463 318.68 189.254 318.689 189.045 318.698C188.736 318.717 188.455 318.726 188.187 318.726H188.196Z" fill="#B78B2A"/>
<path d="M199.488 314.588H199.478C199.206 314.583 198.988 314.356 198.992 314.084V313.947C199.02 312.476 199.056 310.65 199.02 309.519C199.011 309.246 199.224 309.019 199.497 309.01C199.501 309.01 199.506 309.01 199.51 309.01C199.774 309.01 199.996 309.224 200.005 309.487C200.042 310.641 200.005 312.48 199.983 313.961V314.097C199.974 314.365 199.756 314.583 199.488 314.583V314.588Z" fill="#B78B2A"/>
<path d="M193.347 318.213C193.22 318.213 193.088 318.163 192.992 318.063C192.611 317.667 192.42 317.131 192.406 316.423V316.359C192.406 315.964 192.406 315.36 192.411 314.67C192.416 313.253 192.425 311.463 192.411 310.332C192.411 310.059 192.629 309.837 192.902 309.832C193.188 309.832 193.397 310.05 193.401 310.323C193.41 311.454 193.401 313.248 193.401 314.67C193.401 315.36 193.397 315.964 193.397 316.359V316.414C193.401 316.85 193.506 317.168 193.701 317.372C193.892 317.568 193.887 317.881 193.692 318.072C193.597 318.167 193.474 318.213 193.347 318.213Z" fill="#B78B2A"/>
<path d="M199.846 314.188C199.692 314.188 199.542 314.111 199.456 313.97C199.21 313.584 199.097 313.089 199.097 312.458C199.097 312.031 199.097 311.368 199.101 310.609C199.101 309.178 199.111 307.411 199.101 306.28C199.101 306.026 199.306 305.817 199.56 305.817C199.815 305.817 200.019 306.022 200.019 306.276C200.024 307.407 200.019 309.178 200.014 310.609C200.014 311.363 200.014 312.026 200.014 312.453C200.014 312.88 200.087 313.243 200.232 313.475C200.369 313.689 200.301 313.975 200.087 314.111C200.01 314.156 199.928 314.179 199.842 314.179L199.846 314.188Z" fill="#B78B2A"/>
<path d="M174.824 314.197C174.538 314.197 174.234 314.188 173.902 314.17C173.675 314.156 173.448 314.147 173.225 314.138C171.367 314.061 169.26 313.979 169.26 311.872C169.26 311.576 169.246 311.077 169.228 310.495C169.169 308.438 169.133 306.68 169.269 306.035C169.346 305.658 170.028 304.845 174.629 305.408C178.167 305.84 178.144 306.553 178.131 306.894C178.103 307.589 178.117 309.46 178.126 310.827C178.126 311.39 178.131 311.881 178.131 312.199C178.131 312.726 177.958 313.157 177.617 313.48C177.104 313.966 176.246 314.193 174.829 314.193L174.824 314.197ZM170.191 306.358C170.096 307.08 170.155 309.106 170.191 310.473C170.209 311.068 170.223 311.576 170.223 311.876C170.223 312.948 171.104 313.089 173.266 313.18C173.493 313.189 173.725 313.198 173.956 313.212C175.583 313.298 176.564 313.162 176.954 312.789C177.045 312.703 177.168 312.548 177.168 312.208C177.168 311.89 177.168 311.399 177.163 310.841C177.154 309.464 177.145 307.766 177.163 306.984C176.368 306.403 171.14 305.935 170.191 306.358Z" fill="#B78B2A"/>
<path d="M167.021 313.352C166.757 313.352 166.48 313.343 166.176 313.325C165.967 313.311 165.763 313.302 165.558 313.293C163.814 313.207 161.838 313.107 161.838 310.777C161.838 310.568 161.834 310.268 161.825 309.914L161.806 309.174C161.766 307.411 161.716 305.218 161.825 304.336L161.843 304.2C161.956 303.519 162.887 303.401 163.192 303.36L163.296 303.346L163.396 303.378C165.422 303.996 167.548 304.432 169.71 304.677L170.159 304.727L170.146 305.181C170.118 306.017 170.132 308.106 170.141 309.628C170.141 310.25 170.146 310.791 170.146 311.145C170.146 311.785 169.946 312.294 169.555 312.662C169.056 313.134 168.252 313.352 167.016 313.352H167.021ZM162.81 304.454C162.71 305.263 162.765 307.507 162.801 309.151L162.819 309.891C162.828 310.255 162.833 310.559 162.833 310.772C162.833 312.044 163.596 312.203 165.613 312.303C165.822 312.312 166.031 312.326 166.244 312.339C167.643 312.43 168.506 312.299 168.887 311.94C169.006 311.826 169.165 311.626 169.165 311.145C169.165 310.791 169.165 310.25 169.16 309.632C169.151 308.324 169.142 306.607 169.16 305.599C167.13 305.345 165.136 304.922 163.224 304.35C163.001 304.386 162.878 304.427 162.815 304.454H162.81Z" fill="#B78B2A"/>
<path d="M160.012 311.794C159.694 311.794 159.413 311.772 159.208 311.754C159.018 311.74 158.831 311.726 158.645 311.713C157.146 311.617 155.284 311.504 155.284 308.96C155.284 308.583 155.27 307.947 155.257 307.207C155.22 305.208 155.17 302.47 155.288 301.62C155.357 301.098 155.874 300.784 156.837 300.698C157.119 300.671 157.351 300.871 157.373 301.143C157.401 301.416 157.201 301.657 156.928 301.679C156.51 301.72 156.329 301.793 156.26 301.829C156.165 302.701 156.215 305.39 156.247 307.189C156.26 307.943 156.274 308.583 156.274 308.96C156.274 310.509 157.019 310.618 158.709 310.727C158.899 310.741 159.095 310.75 159.29 310.768C161.516 310.945 161.761 310.314 161.829 309.655C161.843 309.555 161.843 309.469 161.843 309.378C161.843 308.951 161.843 308.279 161.838 307.511C161.838 306.503 161.829 305.34 161.829 304.364C161.829 304.068 161.829 303.791 161.829 303.537C161.834 303.269 162.056 303.051 162.324 303.051H162.333C162.606 303.055 162.824 303.283 162.819 303.555C162.819 303.8 162.819 304.077 162.819 304.364C162.819 305.34 162.819 306.503 162.828 307.511C162.828 308.274 162.833 308.951 162.833 309.378C162.833 309.514 162.828 309.646 162.81 309.769C162.633 311.522 161.116 311.794 160.012 311.794Z" fill="#B78B2A"/>
<path d="M153.69 307.906C153.485 307.906 153.263 307.893 153.022 307.87C152.863 307.857 152.704 307.843 152.55 307.829C152.259 307.807 151.959 307.784 151.678 307.738C150.288 307.511 149.666 306.685 149.666 305.054C149.666 304.677 149.656 304.046 149.647 303.301C149.634 302.429 149.62 301.407 149.616 300.457C149.606 299.436 149.606 298.1 149.67 297.537C149.697 297.283 149.874 296.824 150.728 296.66C150.983 296.615 151.219 296.774 151.269 297.024C151.319 297.273 151.155 297.514 150.906 297.564C150.715 297.601 150.619 297.65 150.583 297.673C150.542 298.096 150.524 299.077 150.542 300.448C150.542 301.398 150.56 302.42 150.574 303.287C150.583 304.037 150.592 304.673 150.592 305.054C150.592 306.512 151.151 306.721 151.828 306.83C152.073 306.866 152.341 306.889 152.622 306.912C152.786 306.925 152.949 306.939 153.113 306.953C153.98 307.039 154.553 306.948 154.853 306.676C155.098 306.453 155.216 306.062 155.216 305.476C155.216 305.054 155.216 304.4 155.211 303.655C155.211 302.66 155.202 301.502 155.202 300.503C155.202 300.249 155.407 300.044 155.661 300.044C155.915 300.044 156.12 300.249 156.12 300.503C156.12 301.498 156.12 302.656 156.129 303.651C156.129 304.4 156.133 305.054 156.133 305.476C156.133 306.335 155.915 306.953 155.466 307.361C155.062 307.729 154.485 307.906 153.681 307.906H153.69Z" fill="#B78B2A"/>
<path d="M174.829 318.694C174.547 318.694 174.238 318.689 173.907 318.676C173.679 318.667 173.452 318.657 173.225 318.653C171.304 318.594 169.319 318.535 169.319 316.913C169.319 316.695 169.305 316.327 169.287 315.896C169.228 314.356 169.192 313.043 169.333 312.544C169.383 312.358 169.533 312.221 169.769 312.131C169.982 312.049 170.223 312.158 170.305 312.376C170.377 312.571 170.291 312.789 170.109 312.889C170.028 313.443 170.082 314.942 170.118 315.869C170.137 316.314 170.15 316.691 170.15 316.918C170.15 317.676 171.322 317.767 173.252 317.826C173.48 317.835 173.711 317.84 173.938 317.849C174.592 317.876 176.591 317.953 177.109 317.458C177.19 317.381 177.227 317.29 177.227 317.163C177.227 316.927 177.227 316.564 177.222 316.15C177.213 315.146 177.204 313.916 177.222 313.321C177.118 313.175 177.104 312.971 177.218 312.825C177.349 312.644 177.59 312.594 177.776 312.721C178.035 312.903 178.067 313.121 178.058 313.234C178.035 313.743 178.044 315.133 178.053 316.146C178.053 316.564 178.058 316.927 178.058 317.168C178.058 317.522 177.931 317.822 177.686 318.062C177.222 318.508 176.368 318.707 174.829 318.707V318.694Z" fill="#B78B2A"/>
<path d="M167.043 318.726C166.78 318.726 166.494 318.717 166.185 318.698C165.976 318.689 165.767 318.68 165.558 318.671C163.837 318.598 161.884 318.521 161.884 316.55C161.884 316.273 161.87 315.805 161.856 315.256C161.82 313.979 161.775 312.231 161.847 311.399C161.87 311.154 162.084 310.972 162.333 310.991C162.579 311.013 162.765 311.231 162.742 311.477C162.669 312.258 162.719 313.975 162.751 315.228C162.765 315.787 162.778 316.264 162.778 316.545C162.778 317.554 163.591 317.69 165.59 317.772C165.799 317.781 166.012 317.79 166.23 317.799C167.729 317.881 168.638 317.754 169.001 317.408C169.087 317.327 169.205 317.177 169.205 316.854C169.205 316.555 169.205 316.096 169.201 315.573C169.196 314.424 169.187 312.989 169.201 312.181C169.201 311.935 169.405 311.74 169.651 311.74H169.66C169.91 311.74 170.105 311.949 170.1 312.199C170.087 312.998 170.1 314.424 170.1 315.569C170.1 316.096 170.105 316.555 170.105 316.854C170.105 317.349 169.941 317.758 169.619 318.063C169.142 318.517 168.347 318.726 167.039 318.726H167.043Z" fill="#B78B2A"/>
<path d="M155.747 314.588C155.479 314.588 155.257 314.374 155.252 314.102V313.966C155.225 312.485 155.189 310.645 155.225 309.492C155.234 309.224 155.452 309.015 155.72 309.015C155.725 309.015 155.729 309.015 155.734 309.015C156.006 309.024 156.22 309.251 156.211 309.523C156.174 310.654 156.211 312.48 156.233 313.952V314.088C156.242 314.361 156.024 314.588 155.752 314.592H155.743L155.747 314.588Z" fill="#B78B2A"/>
<path d="M161.888 318.212C161.766 318.212 161.638 318.167 161.543 318.072C161.348 317.881 161.343 317.567 161.534 317.372C161.734 317.168 161.834 316.85 161.838 316.405V316.359C161.838 315.964 161.838 315.36 161.834 314.67C161.829 313.248 161.82 311.454 161.834 310.323C161.834 310.05 162.065 309.837 162.333 309.832C162.606 309.832 162.824 310.059 162.824 310.332C162.815 311.463 162.824 313.248 162.824 314.67C162.824 315.36 162.828 315.964 162.828 316.359V316.414C162.819 317.131 162.629 317.667 162.243 318.062C162.147 318.162 162.015 318.212 161.888 318.212Z" fill="#B78B2A"/>
<path d="M155.388 314.188C155.307 314.188 155.22 314.165 155.143 314.12C154.93 313.984 154.862 313.702 154.998 313.484C155.143 313.252 155.22 312.907 155.22 312.462C155.22 312.017 155.22 311.372 155.22 310.618C155.216 309.183 155.211 307.416 155.216 306.285C155.216 306.031 155.425 305.826 155.675 305.826C155.929 305.826 156.133 306.035 156.133 306.289C156.129 307.416 156.133 309.183 156.133 310.618C156.133 311.377 156.138 312.04 156.138 312.467C156.138 313.098 156.02 313.589 155.775 313.979C155.688 314.12 155.538 314.197 155.384 314.197L155.388 314.188Z" fill="#B78B2A"/>
<path d="M155.084 295.457C162.052 300.426 170.6 301.016 178.912 300.857C185.13 300.875 191.434 300.457 197.094 297.746C198.97 296.869 200.723 295.725 202.358 294.412C200.914 295.933 199.238 297.26 197.393 298.318C191.843 301.543 185.184 302.215 178.916 302.211C170.609 302.41 161.379 301.42 155.084 295.457Z" fill="#CEAE5F"/>
<path d="M242.969 259.724C242.969 272.978 232.222 283.725 218.968 283.725C205.715 283.725 194.968 272.978 194.968 259.724C194.968 253.615 197.253 248.038 201.014 243.8C205.41 238.844 225.745 235.61 232.204 239.703C238.69 244 242.969 251.362 242.969 259.724Z" fill="url(#paint4_linear_1_1461)"/>
<path d="M217.306 284.669C227.35 284.669 235.492 276.787 235.492 267.064C235.492 257.341 227.35 249.459 217.306 249.459C207.262 249.459 199.12 257.341 199.12 267.064C199.12 276.787 207.262 284.669 217.306 284.669Z" fill="url(#paint5_linear_1_1461)"/>
<path d="M234.925 298.84C241.728 297.271 246.108 291.08 244.709 285.011C243.31 278.941 236.661 275.292 229.859 276.86C223.056 278.428 218.675 284.619 220.074 290.689C221.473 296.758 228.122 300.408 234.925 298.84Z" fill="url(#paint6_radial_1_1461)"/>
<path d="M216.783 280.64C225.395 280.64 232.376 273.659 232.376 265.047C232.376 256.436 225.395 249.455 216.783 249.455C208.172 249.455 201.19 256.436 201.19 265.047C201.19 273.659 208.172 280.64 216.783 280.64Z" fill="url(#paint7_radial_1_1461)"/>
<path d="M216.784 281.326C207.808 281.326 200.505 274.023 200.505 265.048C200.505 256.072 207.808 248.769 216.784 248.769C225.759 248.769 233.062 256.072 233.062 265.048C233.062 274.023 225.759 281.326 216.784 281.326ZM216.784 250.145C208.567 250.145 201.881 256.831 201.881 265.048C201.881 273.264 208.567 279.95 216.784 279.95C225 279.95 231.686 273.264 231.686 265.048C231.686 256.831 225 250.145 216.784 250.145Z" fill="#5B3B07"/>
<path d="M215.48 266.969C219.057 266.969 221.957 264.069 221.957 260.492C221.957 256.915 219.057 254.015 215.48 254.015C211.903 254.015 209.003 256.915 209.003 260.492C209.003 264.069 211.903 266.969 215.48 266.969Z" fill="#5B3B07"/>
<path d="M240.284 232.926C236.751 229.792 234.661 229.17 230.015 229.692C226.199 230.015 221.952 230.959 218.151 231.623C215.821 232.031 212.491 232.667 210.17 232.967L210.125 232.744C212.718 232.027 215.298 231.259 217.883 230.496C220.472 229.742 223.07 229.024 225.7 228.366C228.42 227.694 231.137 226.835 234.034 227.353C237.005 227.807 239.358 230.151 240.466 232.79L240.284 232.926Z" fill="#FFDE94"/>
<path d="M199.796 248.896C197.589 248.61 195.822 247.583 195.186 245.358C194.291 242.228 196.29 239.412 199.31 239.28C204.706 239.044 212.101 235.797 220.794 234.202C234.943 231.604 235.706 233.839 238.808 237.032C242.691 241.025 241.888 251.331 241.947 251.381C241.774 251.231 236.978 239.512 222.434 243.241C214.671 245.231 202.68 249.273 199.796 248.896Z" fill="#5B3B07"/>
<path d="M112.266 259.724C112.266 272.978 123.013 283.725 136.266 283.725C149.52 283.725 160.267 272.978 160.267 259.724C160.267 253.615 157.982 248.038 154.221 243.8C149.824 238.844 129.49 235.61 123.031 239.703C116.545 244 112.266 251.362 112.266 259.724Z" fill="url(#paint8_linear_1_1461)"/>
<path d="M167.003 270.107C167.003 286.75 155.116 296.96 137.965 297.973C121.35 298.954 108.928 285.205 108.928 268.563C108.928 251.921 118.734 242.605 135.376 242.605C152.018 242.605 167.003 253.465 167.003 270.107Z" fill="url(#paint9_radial_1_1461)"/>
<path d="M135.182 290.732C136.581 284.663 132.2 278.471 125.397 276.903C118.595 275.335 111.946 278.984 110.547 285.054C109.148 291.123 113.528 297.315 120.331 298.883C127.134 300.451 133.783 296.802 135.182 290.732Z" fill="url(#paint10_radial_1_1461)"/>
<path d="M117.812 223.756C121.641 217.451 127.155 218.619 132.992 221.08C135.526 222.039 138.024 223.056 140.509 224.105C142.989 225.164 145.464 226.227 147.953 227.239L147.885 227.457C145.628 226.894 142.375 225.868 140.113 225.195C135.194 223.756 129.967 221.757 124.87 221.348C122.304 221.171 120.11 222.484 117.975 223.915L117.812 223.76V223.756Z" fill="#FFDE94"/>
<path d="M156.333 244.477C158.559 244.445 160.435 243.632 161.321 241.501C162.57 238.499 160.912 235.465 157.928 234.984C152.595 234.125 145.628 230.037 137.179 227.444C123.431 223.22 122.413 225.354 118.957 228.161C114.633 231.677 114.233 242.006 114.174 242.051C114.36 241.924 120.487 230.841 134.5 236.233C141.976 239.108 153.422 244.522 156.329 244.481L156.333 244.477Z" fill="#5B3B07"/>
<path d="M166.993 320.429C164.577 320.429 162.129 320.134 159.803 319.162C150.687 315.351 149.239 307.398 147.567 298.186C147.444 297.505 147.317 296.81 147.186 296.106L146.064 290.092L150.597 294.198C160.898 303.537 171.095 303.442 176.577 303.387C177.327 303.378 177.922 303.378 178.671 303.387C194.35 303.546 201.05 297.46 204.652 294.198L209.185 290.092L208.063 296.106C207.931 296.81 207.804 297.501 207.681 298.186C206.01 307.398 204.561 315.351 195.445 319.162C191.239 320.919 186.62 320.461 182.541 320.052C180.801 319.879 179.162 319.716 177.626 319.716C176.091 319.716 174.452 319.879 172.712 320.052C170.886 320.234 168.956 320.429 166.998 320.429H166.993ZM152.236 300.762C153.603 307.734 155.27 312.803 161.389 315.36C164.636 316.718 168.529 316.327 172.294 315.95C174.056 315.773 175.878 315.592 177.617 315.592C179.357 315.592 181.178 315.773 182.941 315.95C186.706 316.327 190.599 316.713 193.846 315.36C199.969 312.803 201.636 307.734 202.998 300.762C193.02 307.652 183.522 307.566 178.621 307.511C177.899 307.507 177.331 307.507 176.609 307.511C171.713 307.561 162.211 307.647 152.232 300.762H152.236Z" fill="url(#paint11_linear_1_1461)"/>
<path d="M155.339 316.7C162.301 321.932 169.887 319.257 177.822 319.144C183.663 319.203 189.449 320.947 195.1 319.116C196.93 318.535 198.665 317.622 200.2 316.432C198.62 317.949 196.63 319.053 194.559 319.798C189.141 321.578 183.286 320.111 177.817 320.052C169.9 320.143 162.002 322.641 155.343 316.7H155.339Z" fill="#8E6926"/>
<path d="M211.274 295.547C210.674 295.547 210.17 295.075 210.138 294.471C210.093 293.622 209.603 292.777 208.749 292.095C207.577 291.16 205.987 290.724 204.597 290.964C203.979 291.073 203.394 290.656 203.285 290.038C203.18 289.42 203.593 288.834 204.211 288.725C206.219 288.38 208.499 288.989 210.166 290.32C211.533 291.414 212.328 292.845 212.405 294.353C212.437 294.98 211.955 295.511 211.329 295.547C211.31 295.547 211.288 295.547 211.269 295.547H211.274Z" fill="#8E6513"/>
<path d="M143.961 295.547C144.56 295.547 145.064 295.075 145.096 294.471C145.142 293.622 145.632 292.777 146.486 292.095C147.658 291.16 149.248 290.724 150.638 290.964C151.255 291.073 151.841 290.656 151.95 290.038C152.055 289.42 151.641 288.834 151.024 288.725C149.016 288.38 146.736 288.989 145.069 290.32C143.702 291.414 142.907 292.845 142.83 294.353C142.798 294.98 143.279 295.511 143.906 295.547C143.924 295.547 143.947 295.547 143.965 295.547H143.961Z" fill="#7C5714"/>
<path d="M136.266 286.036C150.214 286.036 161.52 274.73 161.52 260.783C161.52 246.835 150.214 235.529 136.266 235.529C122.319 235.529 111.013 246.835 111.013 260.783C111.013 274.73 122.319 286.036 136.266 286.036Z" fill="url(#paint12_radial_1_1461)"/>
<path d="M135.812 281.453C126.678 281.453 118.788 276.112 115.1 268.381C118.216 277.061 126.515 283.27 136.266 283.27C148.684 283.27 158.754 273.2 158.754 260.782C158.754 260.401 158.745 260.024 158.727 259.647C158.136 271.788 148.103 281.453 135.817 281.453H135.812Z" fill="white"/>
<path d="M157.464 274.504C159.263 271.138 160.28 267.296 160.28 263.213C160.28 249.95 149.529 239.199 136.266 239.199C123.004 239.199 112.252 249.95 112.252 263.213C112.252 267.31 113.279 271.161 115.087 274.536C112.507 270.58 111.013 265.856 111.013 260.783C111.013 246.834 122.318 235.529 136.266 235.529C150.215 235.529 161.516 246.834 161.516 260.783C161.516 265.842 160.03 270.553 157.464 274.504Z" fill="url(#paint13_linear_1_1461)"/>
<path d="M137.933 267.55C144.072 267.55 149.048 262.574 149.048 256.436C149.048 250.297 144.072 245.321 137.933 245.321C131.795 245.321 126.819 250.297 126.819 256.436C126.819 262.574 131.795 267.55 137.933 267.55Z" fill="url(#paint14_radial_1_1461)"/>
<path d="M136.266 232.349C122.068 232.349 110.263 242.814 108.165 256.436H102.451V263.19H107.942C109.169 277.747 121.4 289.22 136.266 289.22C151.946 289.22 164.7 276.466 164.7 260.787C164.7 245.108 151.946 232.354 136.266 232.354V232.349ZM136.266 284.674C123.09 284.674 112.375 273.955 112.375 260.783C112.375 247.611 123.094 236.891 136.266 236.891C149.438 236.891 160.158 247.611 160.158 260.783C160.158 273.955 149.438 284.674 136.266 284.674Z" fill="url(#paint15_linear_1_1461)"/>
<path d="M164.7 261.237C164.732 246.797 152.854 233.998 138.433 233.117C127.841 232.217 117.176 237.845 111.83 247.02C110.027 250.063 108.782 253.443 108.21 256.949H108.165L102.451 256.894L108.165 256.84C109.355 246.502 117.699 236.864 127.9 233.866C146.136 228.157 164.94 242.133 164.7 261.246V261.237Z" fill="#E0D4B8"/>
<path d="M132.46 254.015C134.071 254.015 135.376 252.709 135.376 251.099C135.376 249.488 134.071 248.183 132.46 248.183C130.85 248.183 129.544 249.488 129.544 251.099C129.544 252.709 130.85 254.015 132.46 254.015Z" fill="white"/>
<path d="M102.437 262.536C102.437 262.536 102.415 262.536 102.405 262.536C101.651 262.518 101.056 261.895 101.075 261.141L101.088 260.465C101.102 259.711 101.729 259.107 102.478 259.129C103.232 259.143 103.827 259.765 103.813 260.519L103.8 261.205C103.782 261.945 103.178 262.536 102.437 262.536Z" fill="#725A2A"/>
<path d="M72.1781 314.125C72.1281 314.125 72.0781 314.125 72.0282 314.115C71.5649 314.066 71.0925 313.997 70.6201 313.911C69.8798 313.775 69.3892 313.066 69.521 312.326C69.6572 311.586 70.3658 311.095 71.1061 311.227C71.5149 311.299 71.9237 311.358 72.3234 311.404C73.0729 311.486 73.6134 312.158 73.5316 312.907C73.4544 313.607 72.8639 314.125 72.1781 314.125ZM76.5884 314.106C75.8935 314.106 75.2985 313.575 75.2349 312.866C75.1667 312.117 75.7163 311.454 76.4658 311.386C76.8836 311.349 77.3015 311.299 77.7103 311.24C78.4507 311.131 79.1456 311.649 79.2546 312.394C79.3636 313.139 78.8458 313.829 78.1009 313.938C77.6467 314.006 77.1789 314.061 76.7156 314.102C76.6747 314.102 76.6293 314.106 76.5884 314.106ZM82.1888 312.907C81.6256 312.907 81.1032 312.558 80.9034 311.999C80.6536 311.29 81.026 310.509 81.7346 310.259C82.1206 310.123 82.5113 309.973 82.8883 309.81C83.5786 309.514 84.3826 309.837 84.6778 310.527C84.9731 311.218 84.6506 312.022 83.9602 312.317C83.5287 312.503 83.0881 312.671 82.643 312.83C82.4931 312.885 82.3387 312.907 82.1888 312.907ZM66.6231 312.707C66.4596 312.707 66.2916 312.676 66.128 312.612C65.7056 312.449 65.2741 312.267 64.8472 312.081C64.1613 311.776 63.8479 310.972 64.1522 310.282C64.4566 309.596 65.2605 309.283 65.9509 309.587C66.3415 309.76 66.7276 309.923 67.1182 310.073C67.8177 310.346 68.1674 311.136 67.8904 311.84C67.6814 312.376 67.1636 312.707 66.6186 312.707H66.6231ZM87.2668 310.273C86.8398 310.273 86.422 310.073 86.154 309.701C85.718 309.087 85.8633 308.238 86.4765 307.802C86.8081 307.566 87.1396 307.316 87.4621 307.053C88.048 306.58 88.9065 306.671 89.3789 307.257C89.8512 307.843 89.7604 308.701 89.1745 309.174C88.8066 309.469 88.4296 309.76 88.0526 310.028C87.8118 310.2 87.5393 310.277 87.2623 310.277L87.2668 310.273ZM61.477 310.164C61.2408 310.164 61.0046 310.105 60.7866 309.978C60.396 309.751 60.0099 309.514 59.6238 309.274C58.9834 308.874 58.7881 308.034 59.1878 307.398C59.5875 306.757 60.4278 306.567 61.0636 306.962C61.4316 307.189 61.7995 307.416 62.1674 307.629C62.8169 308.011 63.0349 308.847 62.6534 309.496C62.399 309.928 61.9448 310.168 61.477 310.168V310.164ZM56.6715 307.007C56.3989 307.007 56.1173 306.925 55.8766 306.753C55.5132 306.494 55.1499 306.226 54.7865 305.958C54.1824 305.508 54.0552 304.659 54.5004 304.05C54.9455 303.446 55.7994 303.319 56.408 303.764C56.7578 304.023 57.112 304.282 57.4618 304.532C58.075 304.968 58.2158 305.822 57.7752 306.435C57.5072 306.807 57.0893 307.003 56.6669 307.003L56.6715 307.007ZM91.4591 306.38C91.1503 306.38 90.8369 306.276 90.5825 306.058C90.0057 305.572 89.9375 304.713 90.419 304.137C90.6824 303.823 90.9504 303.492 91.2048 303.155C91.659 302.556 92.5174 302.442 93.1124 302.897C93.712 303.351 93.8255 304.209 93.3713 304.809C93.0897 305.181 92.7945 305.549 92.4993 305.894C92.2313 306.212 91.8452 306.376 91.4591 306.376V306.38ZM52.0885 303.537C51.7933 303.537 51.4981 303.442 51.2482 303.246C50.8985 302.969 50.5488 302.697 50.2036 302.42C49.6131 301.952 49.5177 301.093 49.9856 300.507C50.4534 299.917 51.3118 299.822 51.9023 300.289C52.2475 300.562 52.5927 300.839 52.9379 301.112C53.5284 301.575 53.6328 302.433 53.165 303.024C52.897 303.364 52.4973 303.542 52.0931 303.542L52.0885 303.537ZM94.6931 301.648C94.4705 301.648 94.2434 301.593 94.0299 301.475C93.3713 301.107 93.1351 300.28 93.5031 299.622C93.7074 299.254 93.9073 298.881 94.1026 298.495C94.4433 297.823 95.2654 297.56 95.9376 297.9C96.6098 298.241 96.8733 299.063 96.5326 299.735C96.3191 300.149 96.1057 300.553 95.8876 300.948C95.6378 301.398 95.1745 301.648 94.6976 301.648H94.6931ZM97.114 296.442C96.9505 296.442 96.7824 296.411 96.6234 296.351C95.924 296.079 95.5742 295.289 95.8468 294.589C96.0012 294.194 96.1511 293.79 96.2964 293.381C96.5508 292.672 97.332 292.3 98.0406 292.559C98.7491 292.813 99.117 293.594 98.8627 294.298C98.7083 294.73 98.5493 295.157 98.3858 295.575C98.1768 296.115 97.659 296.447 97.114 296.447V296.442ZM98.9036 290.987C98.7855 290.987 98.6628 290.969 98.5402 290.937C97.8135 290.737 97.3865 289.988 97.5909 289.261C97.7045 288.848 97.818 288.43 97.9225 288.003C98.1087 287.272 98.8491 286.831 99.5803 287.022C100.312 287.208 100.748 287.949 100.561 288.68C100.448 289.121 100.334 289.557 100.216 289.988C100.048 290.592 99.5031 290.987 98.9036 290.987ZM100.216 285.391C100.13 285.391 100.039 285.382 99.9528 285.364C99.2124 285.219 98.731 284.501 98.8763 283.765C98.9581 283.343 99.0398 282.916 99.117 282.48C99.2533 281.74 99.9573 281.249 100.702 281.381C101.443 281.517 101.933 282.226 101.801 282.966C101.72 283.411 101.638 283.852 101.552 284.288C101.424 284.937 100.852 285.387 100.216 285.387V285.391ZM101.152 279.723C101.088 279.723 101.029 279.723 100.966 279.709C100.221 279.605 99.6984 278.919 99.8029 278.174C99.8619 277.747 99.921 277.311 99.9755 276.875C100.071 276.13 100.748 275.599 101.497 275.694C102.242 275.79 102.773 276.471 102.678 277.216C102.624 277.665 102.564 278.106 102.501 278.547C102.405 279.228 101.824 279.723 101.152 279.723ZM101.801 274.014C101.761 274.014 101.72 274.014 101.674 274.009C100.925 273.941 100.371 273.278 100.443 272.528C100.484 272.097 100.521 271.661 100.557 271.22C100.62 270.471 101.279 269.917 102.029 269.976C102.778 270.039 103.337 270.693 103.273 271.447C103.237 271.897 103.196 272.342 103.159 272.783C103.096 273.491 102.501 274.023 101.806 274.023L101.801 274.014ZM102.215 268.282C102.192 268.282 102.165 268.282 102.142 268.282C101.393 268.241 100.816 267.6 100.857 266.846C100.879 266.41 100.902 265.974 100.925 265.534C100.961 264.78 101.602 264.212 102.351 264.235C103.1 264.271 103.682 264.907 103.65 265.661C103.627 266.11 103.605 266.556 103.582 266.996C103.541 267.723 102.941 268.286 102.224 268.286L102.215 268.282Z" fill="#725A2A"/>
<path d="M47.5465 299.917C47.2468 299.917 46.947 299.822 46.6972 299.622L46.1658 299.199C45.5753 298.731 45.4754 297.873 45.9432 297.287C46.411 296.697 47.2695 296.597 47.8554 297.065L48.3914 297.491C48.9818 297.959 49.0772 298.818 48.6094 299.408C48.3414 299.744 47.9417 299.921 47.542 299.921L47.5465 299.917Z" fill="#725A2A"/>
<path d="M176.5 34.3698C225.204 34.3698 264.689 73.8539 264.689 122.558C264.689 171.263 225.204 210.747 176.5 210.747C127.795 210.747 88.3112 171.263 88.3112 122.558C88.3112 73.8539 127.795 34.3698 176.5 34.3698ZM176.5 31.1903C164.168 31.1903 152.2 33.6067 140.935 38.3713C130.057 42.9724 120.283 49.5629 111.894 57.9521C103.504 66.3413 96.9184 76.1113 92.3127 86.9941C87.5481 98.2584 85.1317 110.227 85.1317 122.558C85.1317 134.89 87.5481 146.858 92.3127 158.123C96.9138 169.001 103.504 178.776 111.894 187.165C120.283 195.554 130.053 202.14 140.935 206.746C152.2 211.51 164.168 213.927 176.5 213.927C188.832 213.927 200.8 211.51 212.064 206.746C222.942 202.144 232.717 195.554 241.106 187.165C249.495 178.776 256.081 169.006 260.687 158.123C265.452 146.858 267.868 134.89 267.868 122.558C267.868 110.227 265.452 98.2584 260.687 86.9941C256.086 76.1158 249.495 66.3413 241.106 57.9521C232.717 49.5629 222.947 42.977 212.064 38.3713C200.8 33.6067 188.832 31.1903 176.5 31.1903Z" fill="url(#paint16_linear_1_1461)"/>
<path d="M176.5 210.738C225.202 210.738 264.684 171.257 264.684 122.554C264.684 73.8511 225.202 34.3698 176.5 34.3698C127.797 34.3698 88.3155 73.8511 88.3155 122.554C88.3155 171.257 127.797 210.738 176.5 210.738Z" fill="url(#paint17_radial_1_1461)"/>
<path d="M125.688 96.1691L143.011 77.206C143.552 76.611 144.319 76.2749 145.128 76.2749H225.999C227.657 76.2749 228.529 78.2462 227.407 79.4725L210.084 98.4356C209.543 99.0306 208.776 99.3668 207.967 99.3668H127.096C125.438 99.3668 124.566 97.3955 125.688 96.1691ZM225.904 145.746H145.032C144.228 145.746 143.461 146.082 142.916 146.677L125.592 165.64C124.475 166.866 125.343 168.838 127 168.838H207.872C208.676 168.838 209.443 168.501 209.988 167.906L227.312 148.943C228.429 147.717 227.562 145.746 225.904 145.746ZM210.152 111.948C209.607 111.344 208.835 111.004 208.026 111.004H127.128C125.474 111.004 124.602 112.961 125.71 114.192L142.766 133.105C143.311 133.709 144.083 134.05 144.892 134.05H225.79C227.444 134.05 228.316 132.092 227.207 130.861L210.152 111.948Z" fill="url(#paint18_linear_1_1461)"/>
<defs>
<radialGradient id="paint0_radial_1_1461" cx="0" cy="0" r="1" gradientUnits="userSpaceOnUse" gradientTransform="translate(160.348 125.155) rotate(77.35) scale(228.988 199.22)">
<stop stop-color="#FFF9D9"/>
<stop offset="0.06" stop-color="#FFF6D0"/>
<stop offset="0.14" stop-color="#FFEFBA"/>
<stop offset="0.25" stop-color="#FFE496"/>
<stop offset="0.3" stop-color="#FFDE83"/>
<stop offset="0.38" stop-color="#F9D87E"/>
<stop offset="0.49" stop-color="#EBC771"/>
<stop offset="0.62" stop-color="#D2AC5B"/>
<stop offset="0.75" stop-color="#B0863D"/>
<stop offset="0.78" stop-color="#A87D36"/>
<stop offset="0.82" stop-color="#A77C39"/>
<stop offset="0.86" stop-color="#A57C42"/>
<stop offset="0.88" stop-color="#A17B53"/>
<stop offset="0.91" stop-color="#9C796A"/>
<stop offset="0.93" stop-color="#967888"/>
<stop offset="0.96" stop-color="#8E75AD"/>
<stop offset="0.98" stop-color="#8673D8"/>
<stop offset="1" stop-color="#7E71FF"/>
</radialGradient>
<radialGradient id="paint1_radial_1_1461" cx="0" cy="0" r="1" gradientUnits="userSpaceOnUse" gradientTransform="translate(86.4273 50.6603) rotate(52.19) scale(133.687 133.687)">
<stop stop-color="#FFFEF3"/>
<stop offset="0.93" stop-color="#E8C56F"/>
</radialGradient>
<linearGradient id="paint2_linear_1_1461" x1="149.207" y1="307.048" x2="206.028" y2="307.048" gradientUnits="userSpaceOnUse">
<stop stop-color="#FFE79C"/>
<stop offset="0.03" stop-color="#FFE8A3"/>
<stop offset="0.16" stop-color="#FFF0C3"/>
<stop offset="0.28" stop-color="#FFF5DB"/>
<stop offset="0.4" stop-color="#FFF8E9"/>
<stop offset="0.5" stop-color="#FFFAEE"/>
<stop offset="0.61" stop-color="#FFF9E9"/>
<stop offset="0.72" stop-color="#FFF6DD"/>
<stop offset="0.83" stop-color="#FFF1C8"/>
<stop offset="0.95" stop-color="#FFEAAB"/>
<stop offset="1" stop-color="#FFE79C"/>
</linearGradient>
<linearGradient id="paint3_linear_1_1461" x1="177.168" y1="325.502" x2="177.086" y2="320.293" gradientUnits="userSpaceOnUse">
<stop stop-color="#A27B53"/>
<stop offset="0.53" stop-color="#8F682F"/>
<stop offset="1" stop-color="#825A14"/>
</linearGradient>
<linearGradient id="paint4_linear_1_1461" x1="221.426" y1="272.197" x2="215.162" y2="240.375" gradientUnits="userSpaceOnUse">
<stop stop-color="#B68D41"/>
<stop offset="0.02" stop-color="#B58C40"/>
<stop offset="0.61" stop-color="#A0792C"/>
<stop offset="1" stop-color="#997325"/>
</linearGradient>
<linearGradient id="paint5_linear_1_1461" x1="217.778" y1="269.885" x2="220.027" y2="283.393" gradientUnits="userSpaceOnUse">
<stop stop-color="#E2B866"/>
<stop offset="0.1" stop-color="#D3AA59"/>
<stop offset="0.32" stop-color="#B89143"/>
<stop offset="0.54" stop-color="#A57F33"/>
<stop offset="0.76" stop-color="#99742A"/>
<stop offset="1" stop-color="#967127"/>
</linearGradient>
<radialGradient id="paint6_radial_1_1461" cx="0" cy="0" r="1" gradientUnits="userSpaceOnUse" gradientTransform="translate(232.91 289.09) rotate(-13.01) scale(13.2083 12.5479)">
<stop offset="0.39" stop-color="#A57116"/>
<stop offset="0.54" stop-color="#B27E20"/>
<stop offset="0.75" stop-color="#C99732"/>
<stop offset="0.79" stop-color="#CB9A36"/>
<stop offset="0.84" stop-color="#D2A344"/>
<stop offset="0.89" stop-color="#DDB25B"/>
<stop offset="0.95" stop-color="#EDC77B"/>
<stop offset="1" stop-color="#FFDF9F"/>
</radialGradient>
<radialGradient id="paint7_radial_1_1461" cx="0" cy="0" r="1" gradientUnits="userSpaceOnUse" gradientTransform="translate(211.088 260.346) scale(20.7936)">
<stop stop-color="#FFFCF5"/>
<stop offset="0.19" stop-color="#FFFAF0"/>
<stop offset="0.39" stop-color="#FFF7E3"/>
<stop offset="0.6" stop-color="#FFF2CD"/>
<stop offset="0.81" stop-color="#FFEBAE"/>
<stop offset="0.93" stop-color="#FFE79C"/>
</radialGradient>
<linearGradient id="paint8_linear_1_1461" x1="133.809" y1="272.197" x2="140.077" y2="240.375" gradientUnits="userSpaceOnUse">
<stop stop-color="#DCBA63"/>
<stop offset="0.24" stop-color="#C9A246"/>
<stop offset="0.48" stop-color="#BB9131"/>
<stop offset="0.64" stop-color="#B78B2A"/>
<stop offset="1" stop-color="#997325"/>
</linearGradient>
<radialGradient id="paint9_radial_1_1461" cx="0" cy="0" r="1" gradientUnits="userSpaceOnUse" gradientTransform="translate(137.675 272.565) scale(28.3833 28.3834)">
<stop offset="0.38" stop-color="#7F5C24"/>
<stop offset="0.57" stop-color="#835F25"/>
<stop offset="0.77" stop-color="#8F692B"/>
<stop offset="0.96" stop-color="#A27934"/>
<stop offset="1" stop-color="#A87E37"/>
</radialGradient>
<radialGradient id="paint10_radial_1_1461" cx="0" cy="0" r="1" gradientUnits="userSpaceOnUse" gradientTransform="translate(122.475 289.008) rotate(-166.99) scale(13.2083 12.5479)">
<stop offset="0.59" stop-color="#9B6912"/>
<stop offset="0.74" stop-color="#A8761B"/>
<stop offset="1" stop-color="#C99732"/>
</radialGradient>
<linearGradient id="paint11_linear_1_1461" x1="177.617" y1="320.429" x2="177.617" y2="298.155" gradientUnits="userSpaceOnUse">
<stop offset="0.05" stop-color="#E2B866"/>
<stop offset="0.06" stop-color="#E1B765"/>
<stop offset="0.24" stop-color="#BF9548"/>
<stop offset="0.42" stop-color="#A47B31"/>
<stop offset="0.61" stop-color="#916820"/>
<stop offset="0.8" stop-color="#855D17"/>
<stop offset="1" stop-color="#825A14"/>
</linearGradient>
<radialGradient id="paint12_radial_1_1461" cx="0" cy="0" r="1" gradientUnits="userSpaceOnUse" gradientTransform="translate(127.041 253.17) scale(33.6794 33.6794)">
<stop stop-color="#FFFCF5"/>
<stop offset="0.19" stop-color="#FFFAF0"/>
<stop offset="0.39" stop-color="#FFF7E3"/>
<stop offset="0.6" stop-color="#FFF2CD"/>
<stop offset="0.81" stop-color="#FFEBAE"/>
<stop offset="0.93" stop-color="#FFE79C"/>
</radialGradient>
<linearGradient id="paint13_linear_1_1461" x1="136.207" y1="269.095" x2="136.425" y2="237.041" gradientUnits="userSpaceOnUse">
<stop offset="0.3" stop-color="#FFE79C"/>
<stop offset="0.41" stop-color="#FBE296"/>
<stop offset="0.55" stop-color="#F0D585"/>
<stop offset="0.72" stop-color="#DFBF6A"/>
<stop offset="0.89" stop-color="#C8A044"/>
<stop offset="1" stop-color="#B78B2A"/>
</linearGradient>
<radialGradient id="paint14_radial_1_1461" cx="0" cy="0" r="1" gradientUnits="userSpaceOnUse" gradientTransform="translate(135.989 253.338) scale(11.1144)">
<stop offset="0.23" stop-color="#44341E"/>
<stop offset="0.96" stop-color="#2E1E07"/>
<stop offset="1" stop-color="#2D1D06"/>
</radialGradient>
<linearGradient id="paint15_linear_1_1461" x1="133.823" y1="235.211" x2="133.537" y2="262.549" gradientUnits="userSpaceOnUse">
<stop stop-color="#44341E"/>
<stop offset="0.4" stop-color="#3F2F19"/>
<stop offset="0.85" stop-color="#33230C"/>
<stop offset="1" stop-color="#2D1D06"/>
</linearGradient>
<linearGradient id="paint16_linear_1_1461" x1="176.5" y1="31.1903" x2="176.5" y2="213.922" gradientUnits="userSpaceOnUse">
<stop stop-color="#FFE79C"/>
<stop offset="0.16" stop-color="#FBE296"/>
<stop offset="0.36" stop-color="#F0D585"/>
<stop offset="0.59" stop-color="#DFBF6A"/>
<stop offset="0.85" stop-color="#C8A044"/>
<stop offset="1" stop-color="#B78B2A"/>
</linearGradient>
<radialGradient id="paint17_radial_1_1461" cx="0" cy="0" r="1" gradientUnits="userSpaceOnUse" gradientTransform="translate(146.327 90.1281) scale(109.804)">
<stop stop-color="#0D1D28"/>
<stop offset="1"/>
</radialGradient>
<linearGradient id="paint18_linear_1_1461" x1="125.32" y1="169.678" x2="228.307" y2="74.8578" gradientUnits="userSpaceOnUse">
<stop stop-color="#9945FF"/>
<stop offset="0.2" stop-color="#7962E7"/>
<stop offset="1" stop-color="#00D18C"/>
</linearGradient>
</defs>
</svg>
