<svg width="62" height="62" viewBox="0 0 62 62" fill="none" xmlns="http://www.w3.org/2000/svg">
<g filter="url(#filter0_b_1_7693)">
<path d="M61 31.0607C61 47.0345 48.5138 60.0929 32.7693 61.0086C32.1838 61.0431 31.5937 61.0603 30.9996 61.0603C14.4309 61.0603 1 47.6286 1 31.0607C1 31.0176 1 30.9746 1.00078 30.9316C1.06966 14.4223 14.474 1.0603 30.9996 1.0603C47.5253 1.0603 61 14.492 61 31.0607Z" fill="#111239"/>
<path d="M61 31.0607C61 47.0345 48.5138 60.0929 32.7693 61.0086C32.1838 61.0431 31.5937 61.0603 30.9996 61.0603C14.4309 61.0603 1 47.6286 1 31.0607C1 31.0176 1 30.9746 1.00078 30.9316C1.06966 14.4223 14.474 1.0603 30.9996 1.0603C47.5253 1.0603 61 14.492 61 31.0607Z" stroke="#5855FF" stroke-miterlimit="10"/>
</g>
<path d="M32.9298 61.0085C32.3414 61.043 31.7483 61.0602 31.1512 61.0602C14.4988 61.0602 1 47.6084 1 31.0157C1 30.9726 1 30.9294 1.00079 30.8863C1.08417 30.8848 1.16834 30.8848 1.25173 30.8848C18.2692 30.8848 32.1566 44.2417 32.9298 61.0085Z" fill="#5855FF"/>
<path d="M22.5789 47.3761C27.3266 47.3761 31.1754 43.4488 31.1754 38.6042C31.1754 33.7596 27.3266 29.8323 22.5789 29.8323C17.8312 29.8323 13.9824 33.7596 13.9824 38.6042C13.9824 43.4488 17.8312 47.3761 22.5789 47.3761Z" fill="#5855FF"/>
<path d="M25.0353 24.9199C28.0389 24.9199 30.4739 22.485 30.4739 19.4813C30.4739 16.4777 28.0389 14.0427 25.0353 14.0427C22.0316 14.0427 19.5967 16.4777 19.5967 19.4813C19.5967 22.485 22.0316 24.9199 25.0353 24.9199Z" fill="#5855FF"/>
<path d="M43.6317 38.2533C48.767 38.2533 52.93 34.0118 52.93 28.7796C52.93 23.5474 48.767 19.3059 43.6317 19.3059C38.4965 19.3059 34.3335 23.5474 34.3335 28.7796C34.3335 34.0118 38.4965 38.2533 43.6317 38.2533Z" fill="#5855FF"/>
<defs>
<filter id="filter0_b_1_7693" x="-3.5" y="-3.4397" width="69" height="69" filterUnits="userSpaceOnUse" color-interpolation-filters="sRGB">
<feFlood flood-opacity="0" result="BackgroundImageFix"/>
<feGaussianBlur in="BackgroundImageFix" stdDeviation="2"/>
<feComposite in2="SourceAlpha" operator="in" result="effect1_backgroundBlur_1_7693"/>
<feBlend mode="normal" in="SourceGraphic" in2="effect1_backgroundBlur_1_7693" result="shape"/>
</filter>
</defs>
</svg>
