<svg width="62" height="62" viewBox="0 0 62 62" fill="none" xmlns="http://www.w3.org/2000/svg">
<path d="M52.2736 52.2129C45.6634 58.8232 36.7376 61.7025 28.1084 60.8553C21.9901 60.2548 16.0214 57.7778 11.1349 53.4287C10.6959 53.0396 10.2672 52.6343 9.84724 52.2144C4.74051 47.1077 1.85972 40.6207 1.20632 33.9532C0.356181 25.324 3.23697 16.3968 9.84724 9.78653C9.87808 9.75569 9.90744 9.72633 9.93828 9.69549C21.6597 -1.92901 40.5875 -1.89817 52.2722 9.78653C63.9569 21.4712 63.9892 40.4974 52.2722 52.2144L52.2736 52.2129Z" fill="#111239" stroke="#5855FF" stroke-miterlimit="10"/>
<path d="M49.1508 34.8894C50.9762 33.064 53.1101 29.346 51.7479 23.3241C52.1121 23.5463 53.4048 25.0165 53.4048 25.0165C53.55 20.8481 51.9861 16.5713 48.7375 13.3227C45.489 10.0742 41.2136 8.51177 37.0438 8.6555C37.0438 8.6555 38.514 9.94815 38.7362 10.3124C32.7129 8.94872 28.9962 11.0841 27.1708 12.9095L29.9919 13.4318C29.9919 13.4318 24.9771 15.1032 22.1892 20.1347C21.4438 21.4781 21.0061 22.9545 20.5716 24.3809L24.3254 22.5963C24.3254 22.5963 19.3863 27.7163 18.8861 33.284C18.8861 33.284 20.6475 31.581 21.7637 31.6143C18.0556 37.1575 19.0902 42.9701 19.0902 42.9701C19.0902 42.9701 24.9028 44.0047 30.446 40.2966C30.4793 41.4127 28.7762 43.1741 28.7762 43.1741C34.3425 42.6725 39.4639 37.7349 39.4639 37.7349L37.6794 41.4887C39.1058 41.0542 40.5822 40.6164 41.9256 39.8711C46.9585 37.0817 48.6285 32.0684 48.6285 32.0684L49.1508 34.8894Z" fill="#3936C3"/>
<path d="M28.0916 61.0603C22.0132 60.3725 16.0551 57.8255 11.1423 53.4376C10.7009 53.0451 10.2695 52.6366 9.8466 52.2137C4.70391 47.071 1.74854 40.5927 1 33.9688C7.39283 35.321 13.5238 38.5114 18.5363 43.524C23.5489 48.5365 26.7407 54.666 28.0916 61.0603Z" fill="#5855FF"/>
<path d="M33.4025 28.6577C36.9314 32.1866 42.7672 32.0722 46.4372 28.4022C50.1071 24.7322 50.2216 18.8964 46.6927 15.3675C43.1639 11.8387 37.3281 11.9531 33.6581 15.6231C29.9881 19.2931 29.8737 25.1289 33.4025 28.6577Z" fill="#5855FF"/>
</svg>
