<svg viewBox="0 0 34 36" fill="none" xmlns="http://www.w3.org/2000/svg">
<path d="M18.2462 1.46154L22.6719 10.4295L32.5675 11.8672C33.7804 12.0439 34.2663 13.5339 33.3868 14.3893L26.2261 21.3693L27.9169 31.2247C28.1257 32.4336 26.8567 33.3533 25.7723 32.783L16.9209 28.1283L8.06942 32.783C6.98508 33.3533 5.716 32.4336 5.92484 31.2247L7.61561 21.3693L0.454929 14.3893C-0.424594 13.5339 0.0613526 12.0439 1.27421 11.8672L11.1698 10.4295L15.5956 1.46154C16.1377 0.361129 17.704 0.361129 18.2462 1.46154Z" fill="url(#paint0_linear_1_8635)"/>
<path d="M26.459 31.8031C26.4068 31.8031 26.3586 31.791 26.3064 31.7629L16.9208 26.8271L7.53522 31.7629C7.48302 31.791 7.43081 31.8031 7.38261 31.8031C7.29024 31.8031 7.18984 31.7549 7.12558 31.6786C7.06133 31.6023 7.04125 31.5179 7.05731 31.4175L8.84848 20.9677L1.25809 13.566C1.1376 13.4496 1.14563 13.317 1.17375 13.2287C1.20186 13.1403 1.27415 13.0279 1.43881 13.0038L11.9328 11.4777L16.6236 1.97161C16.6999 1.81899 16.8244 1.78687 16.9208 1.78687C17.0172 1.78687 17.1417 1.81899 17.218 1.97161L21.9088 11.4777L32.4028 13.0038C32.5715 13.0279 32.6398 13.1403 32.6679 13.2287C32.696 13.317 32.704 13.4496 32.5835 13.566L24.9891 20.9677L26.7803 31.4175C26.7964 31.522 26.7763 31.6063 26.712 31.6786C26.6478 31.7549 26.5474 31.8031 26.455 31.8031H26.459Z" fill="url(#paint1_linear_1_8635)"/>
<path d="M7.61583 21.3692L0.455156 14.3893C0.105757 14.0479 -0.0227578 13.6061 0.017403 13.1885C0.0133869 13.1885 0.00535478 13.1885 0.00535478 13.1885C-0.00669347 13.1965 0.00535478 15.8672 0.00535478 15.8672C0.00535478 15.8672 0.0133869 15.8672 0.017403 15.8672C-0.0227578 16.2849 0.105757 16.7226 0.455156 17.064L7.22226 23.6584L7.61583 21.3612V21.3692Z" fill="url(#paint2_linear_1_8635)"/>
<path d="M27.9292 31.6304C27.8288 32.6224 26.7284 33.2851 25.7725 32.7831L16.9211 28.1284L8.06965 32.7831C7.12185 33.2811 6.03349 32.6385 5.91301 31.6626V34.024C5.80458 35.1726 7.02145 36.016 8.06965 35.4618L16.7123 30.9156L16.9693 30.8353L25.7685 35.4618C26.8167 36.012 28.0296 35.1726 27.9252 34.024V31.6304H27.9292Z" fill="url(#paint3_linear_1_8635)"/>
<path d="M33.8211 13.1885C33.8653 13.6061 33.7327 14.0479 33.3833 14.3893L26.2227 21.3692L26.6162 23.6664L33.3833 17.072C33.7287 16.7347 33.8612 16.2969 33.8211 15.8833L33.8291 15.8752V13.1965H33.8171L33.8211 13.1885Z" fill="url(#paint4_linear_1_8635)"/>
<path style="mix-blend-mode:screen" d="M32.668 13.2287C32.6399 13.1403 32.5676 13.0279 32.4029 13.0038L21.9089 11.4777L17.2141 1.97161C17.1378 1.81899 17.0133 1.78687 16.9169 1.78687C16.8205 1.78687 16.696 1.81899 16.6197 1.97161L11.9289 11.4777L1.4349 13.0038C1.26623 13.0279 1.19795 13.1403 1.16984 13.2287C1.14173 13.317 1.1337 13.4496 1.25418 13.566L3.73612 15.9837C7.82048 14.064 13.2904 13.7628 18.7442 15.55C21.6559 16.5058 24.2222 17.9436 26.3065 19.6825L32.5796 13.566C32.7001 13.4496 32.6921 13.317 32.664 13.2287H32.668Z" fill="url(#paint5_radial_1_8635)"/>
<path d="M32.5837 13.566C32.7041 13.4496 32.6961 13.317 32.668 13.2287C32.6399 13.1403 32.5676 13.0279 32.4029 13.0038L21.9089 11.4777L17.2141 1.97161C17.1378 1.81899 17.0133 1.78687 16.9169 1.78687C16.8205 1.78687 16.696 1.81899 16.6197 1.97161L11.9289 11.4777L1.4349 13.0038C1.26623 13.0279 1.19795 13.1403 1.16984 13.2287C1.14173 13.317 1.1337 13.4496 1.25418 13.566L8.84859 20.9677L7.05742 31.4175C7.04136 31.522 7.06144 31.6063 7.12569 31.6786C7.18995 31.7549 7.29035 31.8031 7.38272 31.8031C7.43493 31.8031 7.48313 31.791 7.53533 31.7629L16.9209 26.8271L26.3065 31.7629C26.3587 31.791 26.4109 31.8031 26.4591 31.8031C26.5515 31.8031 26.6519 31.7549 26.7162 31.6786C26.7804 31.6023 26.8005 31.5179 26.7844 31.4175L24.9933 20.9677L32.5877 13.566H32.5837ZM26.4953 31.4938C26.4953 31.4938 26.4631 31.5179 26.4591 31.5179L16.9209 26.5059L7.38272 31.5179C7.38272 31.5179 7.35863 31.5099 7.34256 31.4657L9.16185 20.8673L1.45498 13.3612C1.45498 13.3612 1.4349 13.3411 1.44293 13.317C1.45097 13.2929 1.45498 13.2929 1.47908 13.2889L12.1217 11.7427L16.8808 2.0961C16.8928 2.07602 16.8928 2.07201 16.9169 2.07201C16.941 2.07201 16.945 2.07201 16.9531 2.0961L21.7121 11.7387L32.3547 13.2849C32.3788 13.2849 32.3788 13.2849 32.3909 13.313C32.3989 13.3371 32.3949 13.3411 32.3788 13.3572L24.68 20.8633L26.4953 31.4898V31.4938Z" fill="url(#paint6_linear_1_8635)"/>
<defs>
<linearGradient id="paint0_linear_1_8635" x1="14.7321" y1="1.98764" x2="20.7964" y2="33.4577" gradientUnits="userSpaceOnUse">
<stop stop-color="#FDD733"/>
<stop offset="1" stop-color="#F9AB21"/>
</linearGradient>
<linearGradient id="paint1_linear_1_8635" x1="16.0815" y1="4.68246" x2="18.5674" y2="30.3372" gradientUnits="userSpaceOnUse">
<stop stop-color="#FDE265"/>
<stop offset="1" stop-color="#FDD733"/>
</linearGradient>
<linearGradient id="paint2_linear_1_8635" x1="3.85678" y1="10.2286" x2="3.7122" y2="32.1042" gradientUnits="userSpaceOnUse">
<stop stop-color="#EA8D07"/>
<stop offset="1" stop-color="#B26500"/>
</linearGradient>
<linearGradient id="paint3_linear_1_8635" x1="17.0697" y1="10.3171" x2="16.9291" y2="32.1927" gradientUnits="userSpaceOnUse">
<stop stop-color="#EA8D07"/>
<stop offset="1" stop-color="#B26500"/>
</linearGradient>
<linearGradient id="paint4_linear_1_8635" x1="30.0821" y1="10.4013" x2="29.9375" y2="32.2769" gradientUnits="userSpaceOnUse">
<stop stop-color="#EA8D07"/>
<stop offset="1" stop-color="#B26500"/>
</linearGradient>
<radialGradient id="paint5_radial_1_8635" cx="0" cy="0" r="1" gradientUnits="userSpaceOnUse" gradientTransform="translate(19.1117 23.655) scale(17.9738 17.9738)">
<stop stop-color="#FCED97"/>
<stop offset="1"/>
</radialGradient>
<linearGradient id="paint6_linear_1_8635" x1="16.7402" y1="2.38125" x2="17.2181" y2="31.775" gradientUnits="userSpaceOnUse">
<stop stop-color="#FDD733"/>
<stop offset="1" stop-color="#FBC12A"/>
</linearGradient>
</defs>
</svg>
