<svg width="12" height="12" viewBox="0 0 12 12" fill="none" xmlns="http://www.w3.org/2000/svg">
<path d="M5.04789 0.578605C5.44821 -0.192869 6.55179 -0.192868 6.95211 0.578606L8.02581 2.64774C8.18138 2.94754 8.46906 3.15656 8.80226 3.21187L11.1019 3.59362C11.9593 3.73595 12.3004 4.78551 11.6904 5.40464L10.0543 7.06518C9.81723 7.30578 9.70734 7.64398 9.7577 7.97796L10.1053 10.283C10.2349 11.1425 9.34205 11.7911 8.56472 11.4023L6.47987 10.3594C6.1778 10.2083 5.8222 10.2083 5.52013 10.3594L3.43528 11.4023C2.65795 11.7911 1.76514 11.1425 1.89473 10.283L2.2423 7.97796C2.29266 7.64398 2.18277 7.30578 1.94572 7.06518L0.309645 5.40464C-0.300363 4.78551 0.0406604 3.73595 0.898084 3.59362L3.19774 3.21187C3.53094 3.15656 3.81862 2.94754 3.97419 2.64774L5.04789 0.578605Z" fill="#FFC555"/>
</svg>
