<svg width="60" height="60" viewBox="0 0 60 60" fill="none" xmlns="http://www.w3.org/2000/svg">
<path d="M29.9408 59.8817C46.4767 59.8817 59.8817 46.4767 59.8817 29.9408C59.8817 13.405 46.4767 0 29.9408 0C13.405 0 0 13.405 0 29.9408C0 46.4767 13.405 59.8817 29.9408 59.8817Z" fill="url(#paint0_radial_1_7661)"/>
<path d="M9.93024 15.8021C9.99111 15.9077 9.9834 16.0387 9.91175 16.1373C7.35985 19.6439 5.58308 23.7506 4.8357 28.2064C4.79563 28.4468 4.44043 28.4198 4.44043 28.1756C4.44043 28.1679 4.44043 28.1602 4.44043 28.1517C4.44043 23.0464 5.95523 18.2947 8.55798 14.3205C8.68357 14.1278 8.96865 14.1356 9.08346 14.3351L9.93024 15.8021ZM29.7213 2.87085C21.6149 2.87085 14.4007 6.6879 9.77383 12.6207C9.69678 12.7194 9.6883 12.8558 9.75071 12.9644L10.6453 14.5131C10.7516 14.698 11.0097 14.7211 11.1469 14.5586C16.4009 8.30595 24.2777 4.33095 33.0845 4.33095C33.1107 4.33095 33.1369 4.33095 33.1623 4.33095C33.9267 4.33326 34.0045 3.22066 33.2479 3.1151C32.0952 2.95406 30.9179 2.87085 29.7205 2.87085H29.7213Z" fill="url(#paint1_radial_1_7661)"/>
<path d="M29.941 37.816C38.203 37.816 44.901 31.1181 44.901 22.856C44.901 14.5939 38.203 7.896 29.941 7.896C21.6789 7.896 14.981 14.5939 14.981 22.856C14.981 31.1181 21.6789 37.816 29.941 37.816Z" fill="url(#paint2_radial_1_7661)"/>
<path fill-rule="evenodd" clip-rule="evenodd" d="M24.7876 16.6089H35.1115C35.506 16.6089 35.835 16.6744 36.2295 16.8717C36.6895 17.0689 36.953 17.3979 37.084 17.6607C37.084 17.6607 37.084 17.7261 37.1495 17.7261C37.3467 18.0552 37.4785 18.4496 37.4785 18.9096C37.4785 19.3041 37.413 19.6986 37.1495 20.0931L30.6396 31.2715C30.5078 31.5343 30.2451 31.666 29.9161 31.666C29.6533 31.666 29.3898 31.5343 29.1926 31.2715L22.8144 20.0931C22.6826 19.8304 22.4199 19.5014 22.4199 18.9751C22.3544 18.5151 22.4854 18.1206 22.6826 17.7254C22.8799 17.3309 23.2089 17.0019 23.6688 16.8709C24.0633 16.6082 24.5233 16.6082 24.7868 16.6082L24.7876 16.6089ZM29.1271 18.1877H24.7868C24.5241 18.1877 24.3923 18.1877 24.3269 18.2532C24.1951 18.3187 24.1296 18.3849 24.0641 18.5159C23.9986 18.5814 23.9986 18.7132 23.9986 18.8449C23.9986 18.9104 24.0641 18.9767 24.1959 19.2394L29.1278 27.7881V18.1877H29.1271ZM30.7058 18.1877V27.8544L35.7033 19.2402C35.7688 19.1084 35.7688 18.9774 35.7688 18.8457C35.7688 18.7139 35.7688 18.5829 35.7033 18.5167C35.6378 18.4504 35.6378 18.3849 35.5715 18.3849L35.506 18.3194C35.3743 18.2539 35.2433 18.2539 35.046 18.2539H30.7058V18.1884V18.1877Z" fill="white"/>
<path d="M29.9408 7.89604C38.2028 7.89604 44.9008 14.594 44.9008 22.8561C44.9008 31.1181 38.2028 37.8161 29.9408 37.8161C21.6787 37.8161 14.9808 31.1181 14.9808 22.8561C14.9808 14.594 21.6787 7.89604 29.9408 7.89604ZM29.9408 7.35669C27.8489 7.35669 25.8186 7.76659 23.9078 8.57485C22.0624 9.35536 20.4043 10.4734 18.9812 11.8965C17.5581 13.3196 16.4409 14.9769 15.6596 16.823C14.8513 18.7339 14.4414 20.7641 14.4414 22.8561C14.4414 24.948 14.8513 26.9782 15.6596 28.8891C16.4401 30.7344 17.5581 32.3925 18.9812 33.8156C20.4043 35.2388 22.0616 36.356 23.9078 37.1373C25.8186 37.9455 27.8489 38.3554 29.9408 38.3554C32.0327 38.3554 34.0629 37.9455 35.9738 37.1373C37.8191 36.3567 39.4772 35.2388 40.9004 33.8156C42.3235 32.3925 43.4407 30.7352 44.222 28.8891C45.0302 26.9782 45.4401 24.948 45.4401 22.8561C45.4401 20.7641 45.0302 18.7339 44.222 16.823C43.4415 14.9777 42.3235 13.3196 40.9004 11.8965C39.4772 10.4734 37.8199 9.35614 35.9738 8.57485C34.0629 7.76659 32.0327 7.35669 29.9408 7.35669Z" fill="url(#paint3_linear_1_7661)"/>
<path d="M40.3117 52.4071C41.4657 52.1411 42.2089 51.0908 41.9715 50.0612C41.7342 49.0316 40.6063 48.4125 39.4523 48.6785C38.2983 48.9445 37.5552 49.9948 37.7925 51.0244C38.0298 52.054 39.1577 52.6731 40.3117 52.4071Z" fill="url(#paint4_radial_1_7661)"/>
<path d="M22.0931 51.0311C22.3304 50.0015 21.5873 48.9512 20.4333 48.6852C19.2793 48.4192 18.1514 49.0383 17.9141 50.0679C17.6768 51.0975 18.4199 52.1478 19.5739 52.4138C20.7279 52.6798 21.8558 52.0607 22.0931 51.0311Z" fill="url(#paint5_radial_1_7661)"/>
<path d="M31.1551 54.5236C31.1551 54.8888 30.4162 55.4205 29.8529 55.4205C29.2897 55.4205 28.5508 54.8881 28.5508 54.5236C28.5508 54.1592 31.1558 54.1584 31.1558 54.5236H31.1551Z" fill="#5B3B07"/>
<path d="M29.9763 51.9431C27.1871 51.9431 23.6143 48.7994 23.6143 51.9431C23.6143 54.3216 27.6255 54.0134 29.9763 54.0134C32.3271 54.0134 36.2674 54.3216 36.2674 51.9431C36.2674 48.7994 32.7647 51.9431 29.9763 51.9431Z" fill="url(#paint6_linear_1_7661)"/>
<path d="M36.0387 51.9231C36.0441 51.8869 36.0472 51.8461 36.0472 51.7991C36.0472 51.7421 36.048 51.6458 36.0495 51.5333C36.0526 51.232 36.058 50.8198 36.0472 50.6942C36.0434 50.6503 36.0118 50.5493 35.7883 50.5601C35.662 50.5663 35.5056 50.6087 35.4062 50.6811C35.3738 50.631 35.2968 50.5802 35.1165 50.5894C34.9023 50.601 34.6164 50.6965 34.5563 50.8529C34.4931 50.8306 34.3999 50.819 34.2643 50.8283C34.074 50.8406 33.5839 50.9246 33.5847 51.1588C33.4946 51.1318 33.3643 51.1249 33.1925 51.1388C33.1162 51.1449 32.4444 51.2066 32.4505 51.4678C32.4513 51.5009 32.4521 51.5471 32.4521 51.6011C32.335 51.5726 32.157 51.5695 31.9181 51.5934C31.5914 51.6257 31.2031 51.7035 31.2085 51.8885C31.2085 51.9023 31.2085 51.9193 31.2093 51.937C31.0852 51.9031 30.8602 51.8885 30.4503 51.9378C30.1675 51.9725 30.0188 52.0171 29.941 52.0611C29.8632 52.0171 29.7153 51.9725 29.4325 51.9378C29.0226 51.8877 28.7976 51.9023 28.6728 51.937C28.6728 51.9185 28.6728 51.9023 28.6735 51.8885C28.6789 51.7035 28.2914 51.6265 27.9647 51.5934C27.7251 51.5695 27.5471 51.5726 27.43 51.6011C27.43 51.5471 27.4307 51.5009 27.4315 51.4678C27.4377 51.2058 26.7658 51.1449 26.6887 51.1388C26.5169 51.1249 26.3859 51.1318 26.2966 51.1588C26.2973 50.9246 25.8073 50.8406 25.617 50.8283C25.4814 50.819 25.3889 50.8306 25.3257 50.8529C25.2664 50.6903 24.9721 50.6002 24.7656 50.5894C24.5837 50.5802 24.5074 50.631 24.4751 50.6811C24.3757 50.6094 24.2201 50.5671 24.0937 50.5601C23.8718 50.5493 23.8387 50.6503 23.8348 50.6942C23.824 50.8198 23.8286 51.232 23.8325 51.5333C23.834 51.6458 23.8348 51.7421 23.8348 51.7991C23.8348 51.8461 23.8379 51.8869 23.8433 51.9231C23.8363 51.9324 23.8317 51.9424 23.831 51.9547C23.8256 52.1266 23.8294 52.4679 23.8325 52.7168C23.834 52.8292 23.8348 52.9256 23.8348 52.9826C23.8348 53.3509 24.0166 53.3686 24.163 53.3832C24.18 53.3848 24.1977 53.3863 24.2147 53.3886C24.2432 53.3925 24.2686 53.394 24.2933 53.394C24.3641 53.394 24.4188 53.3771 24.4628 53.3455C24.5074 53.6336 24.6931 53.6514 24.8457 53.666C24.8665 53.6683 24.8873 53.6699 24.9081 53.6722C24.942 53.676 24.9728 53.6783 25.0021 53.6783C25.0938 53.6783 25.1631 53.656 25.2171 53.6128C25.2803 53.8841 25.5029 53.9018 25.6886 53.9157C25.7148 53.918 25.7418 53.9195 25.768 53.9226C25.8081 53.9264 25.8458 53.9287 25.8813 53.9287C26.0045 53.9287 26.0954 53.9026 26.1625 53.8509C26.221 54.1584 26.4961 54.1761 26.7226 54.1899C26.7542 54.1915 26.7858 54.1938 26.8174 54.1961C26.8652 54.2 26.9099 54.2023 26.9507 54.2023C27.1233 54.2023 27.2404 54.1676 27.3198 54.0936C27.3329 54.0813 27.3437 54.0667 27.3552 54.0528C27.4723 54.1684 27.6927 54.1776 27.8946 54.1861C27.93 54.1876 27.9655 54.1892 28.0009 54.1907C28.0533 54.1938 28.1011 54.1953 28.1457 54.1953C28.3677 54.1953 28.5017 54.1599 28.5834 54.0828C28.5911 54.0759 28.5965 54.0674 28.6034 54.0597C28.719 54.1676 28.9602 54.1753 29.1952 54.1822C29.2329 54.183 29.2714 54.1846 29.3107 54.1861C29.367 54.1884 29.4194 54.1892 29.4672 54.1892C29.7168 54.1892 29.8593 54.1584 29.9402 54.0898C30.0211 54.1584 30.1637 54.1892 30.4133 54.1892C30.4611 54.1892 30.5135 54.1884 30.5697 54.1861C30.6083 54.1846 30.6468 54.183 30.6853 54.1822C30.9211 54.1753 31.1623 54.1676 31.2771 54.0597C31.2832 54.0674 31.2894 54.0759 31.2971 54.0828C31.378 54.1599 31.5128 54.1953 31.7347 54.1953C31.7794 54.1953 31.828 54.1938 31.8796 54.1907C31.915 54.1892 31.9505 54.1876 31.9859 54.1861C32.1878 54.1776 32.4082 54.1684 32.5253 54.0528C32.5361 54.0674 32.5468 54.0813 32.5607 54.0944C32.6408 54.1684 32.7572 54.203 32.9298 54.203C32.9706 54.203 33.0153 54.2007 33.0631 54.1969C33.0947 54.1946 33.1263 54.1923 33.1578 54.1907C33.3844 54.1769 33.6594 54.1591 33.718 53.8517C33.785 53.9026 33.876 53.9295 33.9992 53.9295C34.0347 53.9295 34.0724 53.9272 34.1125 53.9234C34.1395 53.921 34.1657 53.9187 34.1919 53.9164C34.3768 53.9026 34.6002 53.8848 34.6634 53.6136C34.7173 53.6575 34.7867 53.6791 34.8784 53.6791C34.9077 53.6791 34.9385 53.6768 34.9716 53.6729C34.9924 53.6706 35.0132 53.6683 35.034 53.6668C35.1873 53.6521 35.373 53.6344 35.417 53.3463C35.4609 53.3786 35.5156 53.3948 35.5865 53.3948C35.6111 53.3948 35.6365 53.3933 35.6651 53.3894C35.6828 53.3871 35.6997 53.3855 35.7167 53.384C35.8631 53.3694 36.0449 53.3516 36.0449 52.9833C36.0449 52.9263 36.0457 52.83 36.0472 52.7175C36.0503 52.4687 36.0542 52.1273 36.0488 51.9555C36.0488 51.9432 36.0434 51.9324 36.0364 51.9231H36.0387ZM35.7937 50.678C35.887 50.6734 35.9278 50.695 35.9286 50.7042C35.9386 50.8244 35.934 51.2335 35.9309 51.5317C35.9293 51.645 35.9286 51.7413 35.9286 51.7991C35.9286 52.0603 35.85 52.068 35.7067 52.0819C35.6882 52.0834 35.6697 52.0857 35.6512 52.088C35.5687 52.0988 35.5125 52.0903 35.4801 52.0618C35.4524 52.0372 35.4354 51.9917 35.4285 51.9255C35.4285 51.8654 35.43 51.7937 35.4308 51.712C35.4347 51.4115 35.4393 51.0147 35.4316 50.819C35.4632 50.7597 35.6258 50.6857 35.793 50.6772L35.7937 50.678ZM34.9739 50.7497C35.0448 50.7335 35.1064 50.7273 35.1558 50.7273C35.2359 50.7273 35.2837 50.7435 35.2898 50.7566C35.3021 50.8945 35.296 51.3861 35.2921 51.7105C35.2906 51.8415 35.289 51.9524 35.289 52.0187C35.289 52.3184 35.1943 52.3277 35.0217 52.3438C35.0001 52.3461 34.9778 52.3477 34.9554 52.3508C34.8537 52.3631 34.7851 52.3531 34.7458 52.3184C34.705 52.2822 34.6842 52.2075 34.6827 52.098C34.6827 52.0541 34.6842 52.0071 34.685 51.9555C34.6896 51.6296 34.6965 51.1904 34.6834 51.017C34.6834 50.9762 34.6834 50.94 34.6827 50.913C34.6827 50.8722 34.7828 50.7928 34.9731 50.7497H34.9739ZM33.9414 51.0455C34.208 50.9608 34.4816 50.9731 34.527 51.0109C34.5417 51.155 34.534 51.635 34.5293 51.954C34.527 52.0842 34.5255 52.1959 34.5255 52.2622C34.5255 52.5519 34.403 52.5611 34.1811 52.5773C34.1533 52.5796 34.1256 52.5811 34.0979 52.5842C33.9499 52.5989 33.8536 52.5842 33.8028 52.5372C33.7611 52.4995 33.7411 52.4332 33.7411 52.3338C33.7411 52.2637 33.7411 52.1551 33.7411 52.0318C33.7419 51.729 33.7434 51.3137 33.7411 51.1573C33.7427 51.1472 33.782 51.0956 33.9422 51.0448L33.9414 51.0455ZM32.9776 51.336C33.2673 51.2813 33.51 51.296 33.5647 51.3299C33.5809 51.4763 33.5724 51.9339 33.567 52.2398C33.5647 52.3669 33.5624 52.4756 33.5624 52.5403C33.5624 52.8031 33.4352 52.8223 33.1478 52.84C33.1155 52.8423 33.0831 52.8439 33.05 52.847C32.8566 52.8624 32.7341 52.8431 32.6747 52.7884C32.6447 52.7607 32.627 52.7183 32.62 52.6613C32.62 52.6358 32.6216 52.6089 32.6216 52.5811C32.6301 52.209 32.6354 51.8892 32.6193 51.7521C32.6193 51.6334 32.6193 51.5317 32.617 51.4685C32.6339 51.4431 32.7387 51.3807 32.9768 51.336H32.9776ZM31.3765 51.8962C31.4096 51.8661 31.5506 51.8099 31.8226 51.7729C32.1346 51.7305 32.3866 51.7444 32.4521 51.7737C32.4521 51.9455 32.4521 52.1481 32.4505 52.3153C32.4505 52.4363 32.4498 52.5419 32.4498 52.6104C32.4498 52.6258 32.4521 52.6397 32.4528 52.6543C32.4513 52.7345 32.4498 52.8023 32.4498 52.8462C32.4498 53.0619 32.3211 53.0889 31.979 53.1059C31.9435 53.1074 31.9066 53.1097 31.8703 53.112C31.633 53.1274 31.4866 53.1059 31.4219 53.045C31.4019 53.0257 31.3749 52.9918 31.3749 52.9102C31.3749 52.8485 31.3749 52.7545 31.3757 52.6466C31.3772 52.3762 31.3788 52.041 31.3757 51.8962H31.3765ZM31.2016 52.0973C31.2177 52.2198 31.2085 52.5634 31.2016 52.7953C31.1985 52.8963 31.1962 52.9826 31.1962 53.0334C31.1962 53.2153 31.0467 53.2392 30.6807 53.2546C30.6422 53.2561 30.6029 53.2576 30.5636 53.26C30.287 53.2746 30.1213 53.2515 30.055 53.1883C30.0443 53.1783 30.0312 53.1613 30.0242 53.1328C30.0258 53.1182 30.0281 53.1043 30.0281 53.0889C30.0281 53.035 30.0281 52.951 30.0273 52.8562C30.0258 52.6297 30.0242 52.3223 30.0281 52.1982C30.186 52.1019 31.0444 52.0264 31.2023 52.0973H31.2016ZM29.8555 52.1982C29.8593 52.3223 29.8578 52.6297 29.8555 52.8562C29.8555 52.9518 29.8547 53.035 29.8547 53.0889C29.8547 53.1043 29.857 53.1182 29.8586 53.1328C29.8516 53.1613 29.8385 53.1775 29.8277 53.1883C29.7615 53.2507 29.5951 53.2746 29.3192 53.26C29.2799 53.2576 29.2406 53.2561 29.2021 53.2546C28.8353 53.2399 28.6866 53.2153 28.6866 53.0334C28.6866 52.9826 28.6843 52.8963 28.6812 52.7953C28.6751 52.5634 28.6651 52.2198 28.6812 52.0973C28.8392 52.0264 29.6975 52.1019 29.8555 52.1982ZM28.0595 51.7729C28.3314 51.8099 28.4724 51.8661 28.5056 51.8962C28.5017 52.041 28.5033 52.3762 28.5056 52.6466C28.5056 52.7545 28.5063 52.8485 28.5063 52.9102C28.5063 52.9918 28.4794 53.0265 28.4593 53.045C28.3946 53.1059 28.2482 53.1274 28.0109 53.112C27.9747 53.1097 27.9377 53.1082 27.9023 53.1059C27.5609 53.0889 27.4315 53.0619 27.4315 52.8462C27.4315 52.8023 27.43 52.7345 27.4284 52.6551C27.4292 52.6405 27.4315 52.6258 27.4315 52.6104C27.4315 52.5419 27.4315 52.4363 27.4307 52.3153C27.4307 52.1474 27.4292 51.9447 27.4292 51.7737C27.4947 51.7444 27.7466 51.7297 28.0587 51.7729H28.0595ZM26.3174 51.3291C26.3721 51.2952 26.6155 51.2813 26.9045 51.3352C27.1426 51.3799 27.2473 51.4423 27.2643 51.4678C27.2628 51.531 27.262 51.6327 27.262 51.7513C27.245 51.8885 27.2504 52.209 27.2589 52.5811C27.2589 52.6089 27.2604 52.6359 27.2604 52.662C27.2543 52.7183 27.2358 52.7599 27.2057 52.7884C27.1456 52.8439 27.0231 52.8631 26.8305 52.847C26.7974 52.8447 26.765 52.8423 26.7327 52.84C26.4453 52.8223 26.3181 52.8031 26.3181 52.5403C26.3181 52.4756 26.3158 52.3669 26.3135 52.2398C26.3081 51.9339 26.2996 51.4763 26.3158 51.3299L26.3174 51.3291ZM25.3558 51.0101C25.4012 50.9723 25.674 50.9608 25.9413 51.0448C26.1008 51.0956 26.1409 51.1472 26.1425 51.1573C26.1394 51.3137 26.1409 51.729 26.1425 52.0318C26.1425 52.1551 26.1425 52.2637 26.1425 52.3338C26.1425 52.4332 26.1224 52.4995 26.0808 52.5372C26.03 52.5835 25.9329 52.5989 25.7857 52.5842C25.758 52.5811 25.7302 52.5796 25.7025 52.5773C25.4798 52.5603 25.3581 52.5511 25.3581 52.2622C25.3581 52.1959 25.3565 52.0849 25.3542 51.954C25.3496 51.635 25.3419 51.155 25.3565 51.0109L25.3558 51.0101ZM24.593 50.7558C24.5991 50.7427 24.6469 50.7273 24.727 50.7273C24.7756 50.7273 24.8365 50.7335 24.9073 50.7489C25.0992 50.792 25.2001 50.8722 25.1994 50.913C25.1994 50.94 25.1994 50.9762 25.1986 51.017C25.1855 51.1904 25.1924 51.6296 25.197 51.9555C25.1978 52.0071 25.1986 52.0541 25.1994 52.098C25.1986 52.2075 25.1778 52.2822 25.1362 52.3184C25.0969 52.3531 25.0283 52.3639 24.9266 52.3508C24.9043 52.3477 24.8819 52.3461 24.8603 52.3438C24.6877 52.3277 24.593 52.3184 24.593 52.0187C24.593 51.9524 24.5914 51.8407 24.5899 51.7105C24.586 51.3853 24.5806 50.8945 24.593 50.7558ZM23.9535 50.7042C23.9535 50.6957 23.9881 50.678 24.0629 50.678C24.0706 50.678 24.0791 50.678 24.0883 50.678C24.2555 50.6865 24.4181 50.7605 24.4497 50.8198C24.4427 51.0147 24.4474 51.4115 24.4504 51.7128C24.4512 51.7937 24.452 51.8661 24.4527 51.9262C24.4466 51.9917 24.4289 52.0379 24.4011 52.0626C24.3688 52.0911 24.3133 52.0996 24.2301 52.0888C24.2116 52.0865 24.1931 52.0842 24.1746 52.0826C24.0313 52.0688 23.9527 52.0611 23.9527 51.7999C23.9527 51.7421 23.9519 51.6458 23.9504 51.5325C23.9473 51.2335 23.9427 50.8252 23.9527 50.705L23.9535 50.7042ZM24.2308 53.2723C24.2123 53.27 24.1939 53.2677 24.1754 53.2661C24.0321 53.2523 23.9535 53.2445 23.9535 52.9833C23.9535 52.9256 23.9527 52.8292 23.9511 52.716C23.9488 52.5365 23.9465 52.3107 23.9473 52.1343C24.0105 52.1851 24.0914 52.1928 24.1638 52.1997C24.1808 52.2013 24.1985 52.2028 24.2154 52.2051C24.2439 52.209 24.2701 52.2105 24.294 52.2105C24.3557 52.2105 24.4057 52.1982 24.4466 52.1743C24.445 52.3824 24.4481 52.6644 24.4512 52.8955C24.452 52.9772 24.4527 53.0496 24.4535 53.1097C24.4474 53.1752 24.4296 53.2214 24.4019 53.2453C24.3695 53.2738 24.3141 53.2823 24.2308 53.2715V53.2723ZM24.9266 53.5358C24.9043 53.5327 24.8819 53.5312 24.8603 53.5289C24.6877 53.5127 24.593 53.5034 24.593 53.2037C24.593 53.1374 24.5914 53.0257 24.5899 52.8947C24.5884 52.7414 24.586 52.5665 24.5853 52.4055C24.6615 52.4656 24.7594 52.4748 24.8465 52.4833C24.8673 52.4856 24.8881 52.4871 24.9089 52.4895C24.9428 52.4933 24.9736 52.4956 25.0029 52.4956C25.0799 52.4956 25.1408 52.4802 25.1909 52.4494C25.1893 52.6543 25.1932 52.9202 25.197 53.1398C25.1978 53.1914 25.1986 53.2384 25.1994 53.2823C25.1986 53.3917 25.1778 53.4665 25.1362 53.5027C25.0969 53.5373 25.0291 53.5474 24.9266 53.535V53.5358ZM26.08 53.7215C26.0292 53.7677 25.9329 53.7831 25.7849 53.7685C25.7572 53.7654 25.7295 53.7639 25.7017 53.7616C25.4798 53.7446 25.3573 53.7354 25.3573 53.4464C25.3573 53.3802 25.3558 53.2692 25.3535 53.1382C25.3511 52.9833 25.3488 52.8054 25.3473 52.6428C25.4444 52.7144 25.5746 52.7252 25.6902 52.7337C25.7164 52.736 25.7433 52.7376 25.7695 52.7399C25.8096 52.7437 25.8473 52.746 25.8828 52.746C25.9922 52.746 26.0754 52.7252 26.1401 52.6852C26.1401 52.8547 26.1401 53.0504 26.1409 53.2176C26.1409 53.3409 26.1409 53.448 26.1409 53.5181C26.1409 53.6175 26.1209 53.6837 26.0793 53.7215H26.08ZM27.2065 53.9719C27.1464 54.0274 27.0239 54.0466 26.8313 54.0305C26.7981 54.0281 26.7658 54.0258 26.7334 54.0235C26.446 54.0058 26.3189 53.9865 26.3189 53.7238C26.3189 53.6591 26.3166 53.5504 26.3143 53.4233C26.3112 53.2607 26.3081 53.0743 26.3073 52.9078C26.4221 52.988 26.5816 52.998 26.7226 53.0072C26.7542 53.0088 26.7858 53.0111 26.8174 53.0134C26.8652 53.0172 26.9099 53.0196 26.9507 53.0196C27.0855 53.0196 27.1857 52.998 27.262 52.9533C27.262 52.9718 27.262 52.9895 27.262 53.0088C27.2566 53.1274 27.2589 53.3046 27.2635 53.468C27.2635 53.478 27.2635 53.4896 27.2635 53.4996C27.2635 53.6205 27.2643 53.7261 27.2643 53.7947C27.2643 53.8779 27.245 53.9365 27.2065 53.9719ZM28.4794 53.9734C28.4177 54.032 28.2636 54.0536 28.0101 54.0397C27.9739 54.0374 27.9377 54.0366 27.9015 54.0351C27.5887 54.022 27.4469 54.0019 27.4269 53.864C27.4292 53.8417 27.4323 53.8201 27.4323 53.7955C27.4323 53.7269 27.4323 53.6205 27.4315 53.4996C27.4315 53.4002 27.4307 53.2915 27.4307 53.1837C27.5548 53.2576 27.7304 53.2669 27.8946 53.2746C27.9292 53.2761 27.9655 53.2784 28.0009 53.2808C28.0525 53.2838 28.1003 53.2862 28.145 53.2862C28.3091 53.2862 28.4278 53.2623 28.5117 53.2145C28.5117 53.3486 28.5117 53.5188 28.5133 53.6637C28.5133 53.7523 28.514 53.8301 28.514 53.881C28.514 53.9357 28.494 53.9611 28.4794 53.975V53.9734ZM29.3169 54.0459C29.2776 54.0443 29.2391 54.0428 29.2006 54.042C28.8731 54.032 28.6743 54.0166 28.6743 53.8879C28.6743 53.8494 28.672 53.7854 28.6689 53.7099C28.6674 53.6737 28.6658 53.6321 28.6643 53.589C28.6643 53.4988 28.6635 53.404 28.6635 53.3154C28.7968 53.401 29.0033 53.4094 29.1944 53.4171C29.2322 53.4187 29.2707 53.4202 29.3092 53.4225C29.3655 53.4256 29.4178 53.4272 29.4656 53.4272C29.6498 53.4272 29.7784 53.4048 29.8678 53.357C29.8686 53.468 29.8678 53.629 29.8663 53.7562C29.8663 53.827 29.8655 53.8887 29.8655 53.9295C29.8655 53.9403 29.867 53.9496 29.8686 53.9596C29.8655 53.9665 29.8609 53.9734 29.8547 53.9788C29.7669 54.0628 29.4279 54.0497 29.3169 54.0451V54.0459ZM31.2077 53.8879C31.2077 54.0166 31.0089 54.032 30.6815 54.042C30.6429 54.0436 30.6044 54.0443 30.5651 54.0459C30.4534 54.0505 30.1151 54.0636 30.0273 53.9796C30.0211 53.9734 30.0173 53.9673 30.0134 53.9603C30.015 53.9503 30.0165 53.9403 30.0165 53.9303C30.0165 53.8902 30.0165 53.8278 30.0158 53.7569C30.015 53.6298 30.0134 53.4688 30.0142 53.3578C30.1036 53.4056 30.2315 53.4279 30.4164 53.4279C30.465 53.4279 30.5166 53.4264 30.5728 53.4233C30.6113 53.421 30.6499 53.4194 30.6876 53.4179C30.8795 53.4102 31.086 53.401 31.2185 53.3162C31.2185 53.4048 31.2185 53.5004 31.2177 53.5905C31.2162 53.6337 31.2146 53.6745 31.2131 53.7107C31.21 53.7862 31.2077 53.8502 31.2077 53.8887V53.8879ZM31.9805 54.0343C31.9451 54.0358 31.9089 54.0374 31.8719 54.0389C31.6176 54.0528 31.4635 54.0312 31.4019 53.9727C31.3872 53.9588 31.3672 53.9334 31.3672 53.8787C31.3672 53.8278 31.3672 53.7492 31.368 53.6591C31.3687 53.515 31.3695 53.3463 31.3695 53.2122C31.4543 53.2607 31.5722 53.2838 31.7363 53.2838C31.781 53.2838 31.8287 53.2823 31.8804 53.2784C31.9158 53.2761 31.9512 53.2746 31.9867 53.2723C32.1508 53.2638 32.3265 53.2553 32.4505 53.1814C32.4505 53.29 32.4505 53.4002 32.4498 53.5004C32.4498 53.6198 32.449 53.7246 32.449 53.7931C32.449 53.8178 32.4513 53.8394 32.4544 53.8617C32.4343 53.9996 32.2933 54.0204 31.9798 54.0335L31.9805 54.0343ZM33.5631 53.7238C33.5631 53.9865 33.436 54.0058 33.1486 54.0235C33.1162 54.0258 33.0839 54.0274 33.0507 54.0305C32.8574 54.0459 32.7348 54.0266 32.6755 53.9719C32.637 53.9365 32.6177 53.8779 32.6177 53.7947C32.6177 53.7269 32.6177 53.6221 32.6185 53.5027C32.6185 53.4903 32.6185 53.4765 32.6185 53.4634C32.6223 53.3016 32.6254 53.1267 32.62 53.0088C32.62 52.9903 32.62 52.9718 32.62 52.9533C32.6955 52.998 32.7957 53.0196 32.9313 53.0196C32.9722 53.0196 33.0168 53.0172 33.0646 53.0134C33.0962 53.0111 33.1278 53.0088 33.1594 53.0072C33.3004 52.9988 33.4599 52.988 33.5747 52.9078C33.5747 53.0743 33.5708 53.2607 33.5678 53.4233C33.5654 53.5504 33.5631 53.6591 33.5631 53.7238ZM34.5255 53.4456C34.5255 53.7354 34.403 53.7446 34.1811 53.7608C34.1533 53.7631 34.1256 53.7646 34.0979 53.7677C33.9499 53.7824 33.8536 53.7677 33.8028 53.7207C33.7611 53.683 33.7411 53.6167 33.7411 53.5173C33.7411 53.4472 33.7411 53.3385 33.7411 53.2145C33.7411 53.0473 33.7427 52.8531 33.7427 52.6844C33.8074 52.7245 33.8906 52.7445 34 52.7445C34.0354 52.7445 34.0732 52.7422 34.1133 52.7383C34.1402 52.736 34.1664 52.7337 34.1926 52.7322C34.3082 52.7237 34.4384 52.7129 34.5355 52.6412C34.5347 52.8038 34.5316 52.9818 34.5293 53.1367C34.527 53.2677 34.5255 53.3786 34.5255 53.4449V53.4456ZM35.289 53.2037C35.289 53.5034 35.1943 53.5127 35.0217 53.5289C35.0001 53.5312 34.9778 53.5327 34.9554 53.5358C34.8537 53.5481 34.7851 53.5381 34.7458 53.5034C34.705 53.4672 34.6834 53.3925 34.6827 53.2831C34.6827 53.2392 34.6842 53.1914 34.685 53.1398C34.6881 52.9202 34.6919 52.6543 34.6911 52.4502C34.7412 52.481 34.8021 52.4964 34.8791 52.4964C34.9084 52.4964 34.9392 52.4941 34.9724 52.4902C34.9932 52.4879 35.014 52.4856 35.0348 52.4841C35.1219 52.4756 35.2197 52.4663 35.296 52.4062C35.296 52.5673 35.2929 52.743 35.2914 52.8963C35.2898 53.0273 35.2883 53.1382 35.2883 53.2045L35.289 53.2037ZM35.9309 52.716C35.9293 52.8292 35.9286 52.9256 35.9286 52.9833C35.9286 53.2445 35.85 53.2523 35.7067 53.2661C35.6882 53.2677 35.6697 53.27 35.6512 53.2723C35.5687 53.2831 35.5125 53.2746 35.4801 53.2461C35.4524 53.2214 35.4354 53.176 35.4285 53.1105C35.4285 53.0504 35.43 52.9787 35.4308 52.8971C35.4339 52.6651 35.437 52.3831 35.4354 52.1751C35.4763 52.199 35.5256 52.2113 35.588 52.2113C35.6127 52.2113 35.6389 52.2098 35.6666 52.2059C35.6843 52.2036 35.7013 52.2021 35.7182 52.2005C35.7906 52.1936 35.8715 52.1851 35.9347 52.135C35.9347 52.3115 35.9332 52.538 35.9309 52.7168V52.716Z" fill="#BCAA86"/>
<path d="M28.3504 54.3765C26.6261 54.3765 24.7553 54.2602 23.8315 53.3479C23.4554 52.9765 23.2651 52.5042 23.2651 51.944C23.2651 51.1913 23.457 50.692 23.8515 50.4184C24.558 49.9276 25.6629 50.3406 26.9412 50.8176C27.9159 51.182 29.0215 51.5942 29.977 51.5942C30.9324 51.5942 32.0334 51.1797 33.0012 50.8137C34.254 50.3406 35.3358 49.9315 36.0323 50.4131C36.426 50.685 36.6171 51.1859 36.6171 51.9433C36.6171 52.5088 36.426 52.985 36.0485 53.3571C34.9721 54.4204 32.6082 54.3919 30.7089 54.3688C30.4531 54.3657 30.2066 54.3626 29.9762 54.3626C29.7458 54.3626 29.5 54.3657 29.2434 54.3688C28.9545 54.3727 28.6548 54.3757 28.3504 54.3757V54.3765ZM24.642 50.8954C24.481 50.8954 24.3469 50.9247 24.2498 50.9925C24.0603 51.1242 23.964 51.444 23.964 51.944C23.964 52.3154 24.0811 52.6121 24.323 52.8509C25.2022 53.7193 27.5337 53.6915 29.2357 53.6707C29.4954 53.6676 29.7443 53.6646 29.977 53.6646C30.2096 53.6646 30.4593 53.6676 30.7182 53.6707C32.3932 53.6908 34.6893 53.7185 35.5577 52.8609C35.8004 52.6213 35.919 52.3208 35.919 51.944C35.919 51.4401 35.8235 51.1188 35.6355 50.9886C35.2395 50.7151 34.2278 51.098 33.2485 51.4679C32.2245 51.8547 31.0634 52.2938 29.977 52.2938C28.8906 52.2938 27.7271 51.8577 26.6969 51.4733C25.9349 51.1889 25.1521 50.8962 24.6428 50.8962L24.642 50.8954Z" fill="url(#paint7_linear_1_7661)"/>
<path d="M26.2192 50.4246C27.4459 50.7652 28.6471 51.3669 29.9377 51.38C30.9023 51.3677 31.8285 51.031 32.7369 50.7336C33.0443 50.6349 33.351 50.5309 33.6623 50.4439C33.361 50.561 33.0597 50.6781 32.76 50.7983C29.7967 52.0095 29.0393 51.5411 26.2192 50.4238V50.4246Z" fill="#DBBE6B"/>
<path d="M41.4122 44.9578C41.4122 47.2061 39.5892 49.0291 37.3409 49.0291C35.0925 49.0291 33.2695 47.2061 33.2695 44.9578C33.2695 43.9215 33.6571 42.9753 34.2951 42.2564C35.0409 41.4158 38.4904 40.8672 39.5861 41.5614C40.6864 42.2903 41.4122 43.5393 41.4122 44.9578Z" fill="url(#paint8_linear_1_7661)"/>
<path d="M18.4697 44.9578C18.4697 47.2061 20.2927 49.0291 22.541 49.0291C24.7894 49.0291 26.6124 47.2061 26.6124 44.9578C26.6124 43.9215 26.2248 42.9753 25.5868 42.2564C24.841 41.4158 21.3915 40.8672 20.2958 41.5614C19.1955 42.2903 18.4697 43.5393 18.4697 44.9578Z" fill="url(#paint9_linear_1_7661)"/>
<path d="M37.0587 49.1887C38.7626 49.1887 40.1438 47.8517 40.1438 46.2023C40.1438 44.5529 38.7626 43.2158 37.0587 43.2158C35.3549 43.2158 33.9736 44.5529 33.9736 46.2023C33.9736 47.8517 35.3549 49.1887 37.0587 49.1887Z" fill="url(#paint10_linear_1_7661)"/>
<path d="M36.9698 48.5061C38.4307 48.5061 39.615 47.3218 39.615 45.8609C39.615 44.4001 38.4307 43.2158 36.9698 43.2158C35.509 43.2158 34.3247 44.4001 34.3247 45.8609C34.3247 47.3218 35.509 48.5061 36.9698 48.5061Z" fill="url(#paint11_radial_1_7661)"/>
<path d="M36.97 48.6223C35.4475 48.6223 34.2085 47.3833 34.2085 45.8608C34.2085 44.3383 35.4475 43.0994 36.97 43.0994C38.4925 43.0994 39.7314 44.3383 39.7314 45.8608C39.7314 47.3833 38.4925 48.6223 36.97 48.6223ZM36.97 43.3328C35.5761 43.3328 34.442 44.467 34.442 45.8608C34.442 47.2547 35.5761 48.3888 36.97 48.3888C38.3638 48.3888 39.498 47.2547 39.498 45.8608C39.498 44.467 38.3638 43.3328 36.97 43.3328Z" fill="#5B3B07"/>
<path d="M37.0572 46.1867C37.664 46.1867 38.156 45.6948 38.156 45.088C38.156 44.4812 37.664 43.9893 37.0572 43.9893C36.4504 43.9893 35.9585 44.4812 35.9585 45.088C35.9585 45.6948 36.4504 46.1867 37.0572 46.1867Z" fill="#5B3B07"/>
<path d="M40.7193 40.4219C39.9195 40.059 39.0696 39.8017 38.1905 39.9265C37.3129 40.0282 36.4522 40.217 35.5908 40.4219C35.9915 40.2239 36.4168 40.0798 36.8467 39.9581C37.4963 39.7863 38.1705 39.6329 38.85 39.6807C39.5288 39.737 40.1791 40.0251 40.7193 40.4219Z" fill="#FFEDBB"/>
<path d="M22.8239 49.1887C24.5277 49.1887 25.9089 47.8517 25.9089 46.2023C25.9089 44.5529 24.5277 43.2158 22.8239 43.2158C21.12 43.2158 19.7388 44.5529 19.7388 46.2023C19.7388 47.8517 21.12 49.1887 22.8239 49.1887Z" fill="url(#paint12_linear_1_7661)"/>
<path d="M22.9117 48.5061C24.3726 48.5061 25.5569 47.3218 25.5569 45.8609C25.5569 44.4001 24.3726 43.2158 22.9117 43.2158C21.4509 43.2158 20.2666 44.4001 20.2666 45.8609C20.2666 47.3218 21.4509 48.5061 22.9117 48.5061Z" fill="url(#paint13_radial_1_7661)"/>
<path d="M22.9123 48.6223C21.3898 48.6223 20.1509 47.3833 20.1509 45.8608C20.1509 44.3383 21.3898 43.0994 22.9123 43.0994C24.4349 43.0994 25.6738 44.3383 25.6738 45.8608C25.6738 47.3833 24.4349 48.6223 22.9123 48.6223ZM22.9123 43.3328C21.5185 43.3328 20.3843 44.467 20.3843 45.8608C20.3843 47.2547 21.5185 48.3888 22.9123 48.3888C24.3062 48.3888 25.4404 47.2547 25.4404 45.8608C25.4404 44.467 24.3062 43.3328 22.9123 43.3328Z" fill="#5B3B07"/>
<path d="M22.8243 46.1867C23.4311 46.1867 23.923 45.6948 23.923 45.088C23.923 44.4812 23.4311 43.9893 22.8243 43.9893C22.2175 43.9893 21.7256 44.4812 21.7256 45.088C21.7256 45.6948 22.2175 46.1867 22.8243 46.1867Z" fill="#5B3B07"/>
<path d="M19.1621 40.4219C19.7022 40.0251 20.3518 39.737 21.0313 39.6807C21.7109 39.6329 22.3851 39.7863 23.0346 39.9581C23.4646 40.0798 23.8899 40.2232 24.2906 40.4219C23.4291 40.2178 22.5685 40.0282 21.6909 39.9265C20.8117 39.8017 19.9627 40.059 19.1621 40.4219Z" fill="#FFEDBB"/>
<path d="M33.8359 42.8766C33.5146 42.8766 33.2134 42.6763 33.1009 42.3558C32.9583 41.9497 33.1718 41.5051 33.577 41.3626C33.6826 41.3256 36.1705 40.4526 37.3972 40.23C38.9983 39.9395 39.9313 40.3787 40.4129 40.74C40.6741 40.9357 40.8136 41.2547 40.792 41.5806L40.7188 42.6855C40.7188 42.6855 40.0007 42.0753 40.0099 42.0838C39.9807 42.0584 39.2818 41.4712 37.6753 41.7625C36.5704 41.9628 34.1179 42.8235 34.0933 42.8319C34.0077 42.862 33.9207 42.8766 33.8344 42.8766H33.8359Z" fill="#5B3B07"/>
<path d="M26.0461 42.8767C25.9606 42.8767 25.8728 42.8621 25.7872 42.832C25.7626 42.8236 23.3109 41.9629 22.206 41.7626C20.5987 41.4706 19.9068 41.9036 19.8783 41.929C19.8875 41.9205 19.2665 42.5385 19.2665 42.5385L19.0623 41.8381C18.9437 41.432 19.0993 40.9959 19.4476 40.7563C20.0023 40.3749 20.9824 39.9565 22.4841 40.2293C23.7107 40.452 26.1995 41.3249 26.3042 41.3619C26.7103 41.5045 26.9237 41.9498 26.7804 42.3551C26.6679 42.6756 26.3667 42.8759 26.0454 42.8759L26.0461 42.8767Z" fill="#5B3B07"/>
<defs>
<radialGradient id="paint0_radial_1_7661" cx="0" cy="0" r="1" gradientUnits="userSpaceOnUse" gradientTransform="translate(27.2008 21.2308) rotate(77.35) scale(38.8447 33.7949)">
<stop stop-color="#FFF9D9"/>
<stop offset="0.06" stop-color="#FFF6D0"/>
<stop offset="0.14" stop-color="#FFEFBA"/>
<stop offset="0.25" stop-color="#FFE496"/>
<stop offset="0.3" stop-color="#FFDE83"/>
<stop offset="0.38" stop-color="#F9D87E"/>
<stop offset="0.49" stop-color="#EBC771"/>
<stop offset="0.62" stop-color="#D2AC5B"/>
<stop offset="0.75" stop-color="#B0863D"/>
<stop offset="0.78" stop-color="#A87D36"/>
<stop offset="0.82" stop-color="#A67D39"/>
<stop offset="0.86" stop-color="#9F7D42"/>
<stop offset="0.88" stop-color="#957E53"/>
<stop offset="0.91" stop-color="#86806A"/>
<stop offset="0.93" stop-color="#728188"/>
<stop offset="0.96" stop-color="#5B84AD"/>
<stop offset="0.98" stop-color="#3F86D8"/>
<stop offset="1" stop-color="#2789FF"/>
</radialGradient>
<radialGradient id="paint1_radial_1_7661" cx="0" cy="0" r="1" gradientUnits="userSpaceOnUse" gradientTransform="translate(14.6613 8.59381) rotate(52.19) scale(22.6781)">
<stop stop-color="#FFFEF3"/>
<stop offset="0.93" stop-color="#E8C56F"/>
</radialGradient>
<radialGradient id="paint2_radial_1_7661" cx="0" cy="0" r="1" gradientUnits="userSpaceOnUse" gradientTransform="translate(36.1211 32.3347) scale(16.7992 16.7992)">
<stop stop-color="#02569B"/>
<stop offset="0.26" stop-color="#015BA0"/>
<stop offset="0.6" stop-color="#016CB0"/>
<stop offset="0.99" stop-color="#0087CB"/>
<stop offset="1" stop-color="#0088CC"/>
</radialGradient>
<linearGradient id="paint3_linear_1_7661" x1="29.9408" y1="7.35669" x2="29.9408" y2="38.3554" gradientUnits="userSpaceOnUse">
<stop stop-color="#FFE79C"/>
<stop offset="0.16" stop-color="#FBE296"/>
<stop offset="0.36" stop-color="#F0D585"/>
<stop offset="0.59" stop-color="#DFBF6A"/>
<stop offset="0.85" stop-color="#C8A044"/>
<stop offset="1" stop-color="#B78B2A"/>
</linearGradient>
<radialGradient id="paint4_radial_1_7661" cx="0" cy="0" r="1" gradientUnits="userSpaceOnUse" gradientTransform="translate(39.9492 50.9164) rotate(-12.98) scale(2.24061 2.12858)">
<stop offset="0.39" stop-color="#9E6E19"/>
<stop offset="0.56" stop-color="#A4731C"/>
<stop offset="0.8" stop-color="#B58326"/>
<stop offset="1" stop-color="#C99732"/>
</radialGradient>
<radialGradient id="paint5_radial_1_7661" cx="0" cy="0" r="1" gradientUnits="userSpaceOnUse" gradientTransform="translate(19.8853 51.0625) rotate(-167.02) scale(2.23984 2.12785)">
<stop offset="0.39" stop-color="#9E6E19"/>
<stop offset="0.56" stop-color="#A4731C"/>
<stop offset="0.8" stop-color="#B58326"/>
<stop offset="1" stop-color="#C99732"/>
</radialGradient>
<linearGradient id="paint6_linear_1_7661" x1="23.6341" y1="52.069" x2="36.28" y2="52.069" gradientUnits="userSpaceOnUse">
<stop stop-color="#FFE79C"/>
<stop offset="0.05" stop-color="#FFE8A4"/>
<stop offset="0.23" stop-color="#FFEDBC"/>
<stop offset="0.39" stop-color="#FFF0CA"/>
<stop offset="0.53" stop-color="#FFF2CF"/>
<stop offset="0.66" stop-color="#FFF1CA"/>
<stop offset="0.79" stop-color="#FFEEBE"/>
<stop offset="0.92" stop-color="#FFE9A9"/>
<stop offset="0.99" stop-color="#FFE79C"/>
</linearGradient>
<linearGradient id="paint7_linear_1_7661" x1="29.9407" y1="54.3765" x2="29.9407" y2="50.1965" gradientUnits="userSpaceOnUse">
<stop stop-color="#E2B866"/>
<stop offset="0.17" stop-color="#C69C4C"/>
<stop offset="0.37" stop-color="#AB8334"/>
<stop offset="0.57" stop-color="#987022"/>
<stop offset="0.78" stop-color="#8C6518"/>
<stop offset="1" stop-color="#896215"/>
</linearGradient>
<linearGradient id="paint8_linear_1_7661" x1="37.9287" y1="47.9427" x2="36.6836" y2="41.62" gradientUnits="userSpaceOnUse">
<stop stop-color="#E2B866"/>
<stop offset="0.03" stop-color="#DFB563"/>
<stop offset="0.44" stop-color="#BF9541"/>
<stop offset="0.78" stop-color="#AC812C"/>
<stop offset="1" stop-color="#A57A25"/>
</linearGradient>
<linearGradient id="paint9_linear_1_7661" x1="21.9532" y1="47.9427" x2="23.1983" y2="41.62" gradientUnits="userSpaceOnUse">
<stop stop-color="#E2B866"/>
<stop offset="0.03" stop-color="#DFB563"/>
<stop offset="0.44" stop-color="#BF9541"/>
<stop offset="0.78" stop-color="#AC812C"/>
<stop offset="1" stop-color="#A57A25"/>
</linearGradient>
<linearGradient id="paint10_linear_1_7661" x1="36.6573" y1="43.7945" x2="37.0395" y2="46.0859" gradientUnits="userSpaceOnUse">
<stop stop-color="#E2B866"/>
<stop offset="0.04" stop-color="#DDB361"/>
<stop offset="0.27" stop-color="#C29949"/>
<stop offset="0.5" stop-color="#AF8637"/>
<stop offset="0.75" stop-color="#A37B2D"/>
<stop offset="1" stop-color="#A0782A"/>
</linearGradient>
<radialGradient id="paint11_radial_1_7661" cx="0" cy="0" r="1" gradientUnits="userSpaceOnUse" gradientTransform="translate(36.0036 45.0635) scale(3.52735 3.52734)">
<stop stop-color="#FFFCF5"/>
<stop offset="0.19" stop-color="#FFFAF0"/>
<stop offset="0.39" stop-color="#FFF7E3"/>
<stop offset="0.6" stop-color="#FFF2CD"/>
<stop offset="0.81" stop-color="#FFEBAE"/>
<stop offset="0.93" stop-color="#FFE79C"/>
</radialGradient>
<linearGradient id="paint12_linear_1_7661" x1="23.2245" y1="43.7945" x2="22.8431" y2="46.0859" gradientUnits="userSpaceOnUse">
<stop stop-color="#E2B866"/>
<stop offset="0.04" stop-color="#DDB361"/>
<stop offset="0.27" stop-color="#C29949"/>
<stop offset="0.5" stop-color="#AF8637"/>
<stop offset="0.75" stop-color="#A37B2D"/>
<stop offset="1" stop-color="#A0782A"/>
</linearGradient>
<radialGradient id="paint13_radial_1_7661" cx="0" cy="0" r="1" gradientUnits="userSpaceOnUse" gradientTransform="translate(23.8779 45.0635) rotate(180) scale(3.52735 3.52734)">
<stop stop-color="#FFFCF5"/>
<stop offset="0.19" stop-color="#FFFAF0"/>
<stop offset="0.39" stop-color="#FFF7E3"/>
<stop offset="0.6" stop-color="#FFF2CD"/>
<stop offset="0.81" stop-color="#FFEBAE"/>
<stop offset="0.93" stop-color="#FFE79C"/>
</radialGradient>
</defs>
</svg>
