<svg width="25" height="25" viewBox="0 0 25 25" fill="none" xmlns="http://www.w3.org/2000/svg">
<path d="M12.5 25C19.4036 25 25 19.4036 25 12.5C25 5.59644 19.4036 0 12.5 0C5.59644 0 0 5.59644 0 12.5C0 19.4036 5.59644 25 12.5 25Z" fill="#0088CC"/>
<path fill-rule="evenodd" clip-rule="evenodd" d="M9.01719 8.25903H16.0261C16.294 8.25903 16.5172 8.30368 16.785 8.4376C17.0975 8.57153 17.2761 8.79475 17.3654 8.97332C17.3654 8.97332 17.3654 9.01796 17.4101 9.01796C17.544 9.24118 17.6333 9.50903 17.6333 9.82153C17.6333 10.0894 17.5886 10.3572 17.4101 10.6251L12.9904 18.2144C12.9011 18.393 12.7226 18.4822 12.4993 18.4822C12.3208 18.4822 12.1422 18.393 12.0083 18.2144L7.67791 10.6251C7.58862 10.4465 7.41005 10.2233 7.41005 9.86618C7.36541 9.55368 7.45469 9.28582 7.58862 9.01796C7.72255 8.7501 7.94576 8.52689 8.25826 8.4376C8.52612 8.25903 8.83862 8.25903 9.01719 8.25903ZM11.9636 9.33046H9.01719C8.83862 9.33046 8.74934 9.33046 8.70469 9.3751C8.61541 9.41975 8.57076 9.46439 8.52612 9.55368C8.48148 9.59832 8.48148 9.6876 8.48148 9.77689C8.48148 9.82153 8.52612 9.86618 8.61541 10.0447L11.9636 15.8483V9.33046ZM13.0351 9.33046V15.893L16.4279 10.0447C16.4725 9.95546 16.4726 9.86618 16.4726 9.77689C16.4726 9.6876 16.4725 9.59832 16.4279 9.55368C16.3833 9.50903 16.3833 9.46439 16.3386 9.46439L16.294 9.41975C16.2047 9.3751 16.1154 9.3751 15.9815 9.3751H13.0351V9.33046Z" fill="white"/>
</svg>
