<svg width="316" height="350" viewBox="0 0 316 350" fill="none" xmlns="http://www.w3.org/2000/svg">
<path d="M314.677 110.648V239.35C314.677 255.544 306.033 270.509 292.003 278.606L257.083 298.758L211.143 325.271L180.497 342.957C166.466 351.054 149.18 351.054 135.149 342.957L73.616 307.445L72.5385 306.824L23.6427 278.606C9.61214 270.509 0.968994 255.544 0.968994 239.35V110.648C0.968994 94.4538 9.61214 79.4896 23.6427 71.3924L135.149 7.04142C149.18 -1.05572 166.466 -1.05572 180.497 7.04142L292.003 71.3924C306.033 79.4896 314.677 94.4538 314.677 110.648Z" fill="url(#paint0_radial_1_1211)"/>
<path d="M278.827 231.911C278.461 213.569 274.835 198.153 266.081 190.494C271.05 183.887 273.519 176.535 273.302 168.916C273.271 167.855 273.211 166.78 273.118 165.695C271.872 150.803 265.11 134.052 257.876 120.258C264.347 117.577 269.922 111.816 272.627 104.097C277.284 90.8023 271.662 76.733 260.068 72.6767C249.57 69.002 237.776 74.794 232.183 85.791C230.58 84.6055 228.884 83.4742 227.086 82.4126C221.987 79.4004 216.108 76.9403 209.48 75.3402C206.393 64.1185 196.072 57.3774 190.533 52.6644C191.686 55.4829 193.101 64.3607 194.248 68.3492C187.322 53.4063 169.634 53.1777 162.968 52.6644C168.353 55.8683 173.865 64.5834 177.066 71.6384C172.702 68.0567 165.148 69.0679 161.563 69.4591C162.656 70.697 164.501 73.8099 165.962 76.979C159.565 79.0169 153.902 81.9206 149.236 85.729C143.629 74.7707 131.86 69.0059 121.382 72.6748C109.787 76.733 104.163 90.8004 108.822 104.095C112.502 114.602 121.502 121.48 130.837 121.903C128.006 129.808 125.973 134.905 124.163 138.94C122.204 143.3 117.376 150.524 114.477 158.479C114.148 159.382 113.843 160.294 113.57 161.215C112.595 164.498 112.029 167.861 112.188 171.162C112.537 178.383 118.452 193.378 134.529 204.6C130.124 211.959 126.49 221.259 123.244 230.916C121.667 235.606 123.078 243.585 129.26 247.842C128.61 249.057 127.872 250.233 127.027 251.364C124.155 255.207 121.481 260.598 119.26 266.665C117.44 271.636 115.925 277.062 114.859 282.462L115.859 283.04L172.964 315.996C185.985 323.51 202.027 323.51 215.048 315.996L243.489 299.583L286.123 274.977C283.799 259.467 279.098 245.677 278.825 231.917L278.827 231.911Z" fill="#071521"/>
<path d="M249.219 252.358C248.723 227.53 242.686 207.68 227.115 203.118C215.282 199.653 187.331 199.238 160.819 201.326C158.509 201.508 156.21 201.708 153.933 201.929C137.033 203.558 121.376 206.216 111.71 209.753C110.886 210.053 110.107 210.361 109.372 210.675C108.595 211.006 107.871 211.345 107.202 211.692C86.0205 222.66 100.018 254.082 85.6503 273.315C82.5555 277.457 79.6738 283.266 77.2804 289.802C75.3193 295.158 73.6875 301.005 72.5383 306.824L73.6158 307.445L135.149 342.957C149.179 351.054 166.466 351.054 180.496 342.957L211.143 325.271L257.083 298.757C254.579 282.044 249.514 267.184 249.219 252.358Z" fill="#DB902E"/>
<path d="M157.823 349.998C149.703 349.998 141.695 347.854 134.664 343.795L72.0539 307.662C71.6954 307.455 71.5074 307.042 71.5869 306.636C72.738 300.807 74.3911 294.87 76.3697 289.469C78.8851 282.6 81.8249 276.814 84.8733 272.736C91.0805 264.428 91.8556 253.683 92.6056 243.292C93.092 236.564 93.5513 230.211 95.404 224.585C97.5086 218.197 101.222 213.699 106.754 210.834C107.435 210.481 108.188 210.129 108.991 209.786C109.745 209.464 110.549 209.146 111.376 208.844C120.432 205.53 135.513 202.733 153.838 200.966C156.026 200.753 158.35 200.552 160.741 200.362C189.213 198.118 215.995 198.853 227.386 202.19C235.047 204.435 240.878 210.351 244.717 219.775C248.08 228.031 249.921 238.988 250.188 252.34C250.368 261.385 252.341 270.441 254.43 280.031C255.731 286 257.075 292.171 258.041 298.616C258.099 299.009 257.911 299.399 257.568 299.598L211.627 326.111L180.981 343.797C173.95 347.856 165.943 350 157.823 350V349.998ZM73.6256 306.332L135.633 342.118C149.321 350.017 166.324 350.017 180.012 342.118L210.658 324.432L256.025 298.25C255.077 292.102 253.787 286.178 252.537 280.442C250.426 270.758 248.434 261.609 248.25 252.377C247.989 239.263 246.196 228.539 242.923 220.504C239.318 211.655 233.908 206.119 226.842 204.048C215.831 200.823 188.713 200.102 160.894 202.293C158.514 202.481 156.204 202.682 154.026 202.893C135.858 204.645 120.948 207.405 112.043 210.663C111.247 210.954 110.477 211.258 109.754 211.566C108.995 211.889 108.287 212.221 107.65 212.552C96.3497 218.404 95.4718 230.559 94.5416 243.432C93.7703 254.101 92.9738 265.133 86.4275 273.897C83.4896 277.827 80.6428 283.443 78.1913 290.137C76.3251 295.236 74.7515 300.822 73.6256 306.335V306.332Z" fill="#352001"/>
<path d="M113.03 108.376C112.962 105.226 112.392 101.991 111.274 98.7948C106.255 84.4679 92.0592 76.3998 79.5654 80.7739C67.0716 85.1459 61.0136 100.306 66.0309 114.631C70.2692 126.732 81.0557 134.368 91.8344 133.812" fill="url(#paint1_linear_1_1211)"/>
<path d="M90.7163 134.812C79.6798 134.812 69.2674 126.8 65.1183 114.952C59.9304 100.145 66.2694 84.404 79.2477 79.8615C85.5576 77.6532 92.4682 78.3873 98.7045 81.9322C104.896 85.452 109.687 91.3273 112.19 98.4771C113.318 101.699 113.929 105.023 114.001 108.356C114.012 108.891 113.588 109.335 113.053 109.346C112.514 109.362 112.074 108.934 112.063 108.399C111.995 105.269 111.421 102.146 110.361 99.1183C108.01 92.4101 103.532 86.9048 97.7452 83.6175C92.0031 80.3535 85.6622 79.6697 79.8872 81.6901C67.9186 85.8801 62.1125 100.515 66.9477 114.313C70.9611 125.771 81.1759 133.39 91.7861 132.847C92.319 132.816 92.7764 133.231 92.8035 133.766C92.8306 134.3 92.4198 134.755 91.8849 134.783C91.4954 134.802 91.1039 134.814 90.7163 134.814V134.812Z" fill="#352001"/>
<path d="M75.2904 111.392C79.7244 120.512 89.4198 124.109 94.0166 122.034C98.6133 119.96 104.908 112.047 102.009 102.04C99.5145 93.429 90.6601 88.8148 83.2824 91.397C75.9047 93.9792 71.37 103.33 75.2904 111.392Z" fill="url(#paint2_radial_1_1211)"/>
<path d="M91.0516 123.179C88.9954 123.179 86.6292 122.583 84.3309 121.43C80.2321 119.377 76.835 115.902 74.7672 111.646C72.8758 107.754 72.7595 103.368 74.4397 99.2927C76.0985 95.2693 79.2515 92.1912 83.0925 90.8488C86.6602 89.5994 90.7628 89.9442 94.3499 91.7941C98.3091 93.8339 101.303 97.5105 102.569 101.881C104.251 107.688 102.83 112.372 101.342 115.28C99.6618 118.561 96.9467 121.353 94.2569 122.567C93.3422 122.98 92.2492 123.181 91.0535 123.181L91.0516 123.179ZM87.5187 91.2711C86.1312 91.2711 84.763 91.4939 83.4743 91.9452C79.9473 93.1791 77.0442 96.019 75.5133 99.7363C73.961 103.5 74.0676 107.551 75.8117 111.138C77.769 115.165 80.9802 118.453 84.8522 120.392C88.1815 122.06 91.6019 122.488 93.7763 121.506C95.7065 120.636 98.4331 118.402 100.305 114.747C101.699 112.027 103.026 107.644 101.45 102.2C100.274 98.1362 97.4894 94.7192 93.8151 92.8247C91.8151 91.7941 89.6466 91.2691 87.5207 91.2691L87.5187 91.2711Z" fill="#352001"/>
<path d="M215.439 252.898C212.676 259.153 211.571 256.53 208.118 262.468C204.664 268.405 199.808 283.733 177.921 284.977C156.034 286.22 141.529 269.056 137.385 268.938C133.24 268.819 113.762 277.106 105.196 277.106C96.6307 277.106 86.4081 273.654 91.2433 258.049C96.0784 242.446 141.943 248.658 158.383 248.52C174.822 248.383 215.439 252.898 215.439 252.898Z" fill="url(#paint3_linear_1_1211)"/>
<path d="M211.143 323.957L180.496 341.455C166.466 349.467 149.18 349.467 135.149 341.455L73.616 306.32C74.7535 300.274 77.1604 293.244 79.2205 287.675C84.3831 280.988 88.8093 277.079 93.4642 272.901C100.966 266.164 107.2 261.096 110.206 252.602C110.818 250.876 111.247 249.2 111.526 247.573C114.167 232.264 103.71 221.277 109.987 211.789C110.462 211.072 111.032 210.365 111.71 209.664C112.601 208.74 113.683 207.829 114.981 206.929C122.694 201.574 138.242 200.387 153.933 201.923C156.112 202.134 158.294 202.4 160.458 202.715C178.086 205.276 194.527 211.062 198.634 217.982C203.732 226.569 199.461 238.3 196.488 250.45C194.229 259.69 192.719 269.172 196.655 277.695C197.203 278.885 197.858 280.059 198.634 281.209C203.841 288.938 209.399 306.806 211.143 323.961V323.957Z" fill="url(#paint4_radial_1_1211)"/>
<path d="M196.655 278.511C192.376 281.876 186.438 284.493 177.921 284.977C156.036 286.219 141.53 269.054 137.385 268.938C133.24 268.819 113.762 277.104 105.196 277.104C101.039 277.104 96.4912 276.291 93.4641 273.668C100.966 266.859 107.2 261.737 110.206 253.152C110.818 251.407 111.247 249.714 111.526 248.069C127.45 246.333 148.373 248.604 158.385 248.52C167.384 248.445 183.628 249.764 196.488 250.973C194.229 260.312 192.719 269.894 196.655 278.511Z" fill="url(#paint5_radial_1_1211)"/>
<path d="M101.743 212.618C93.1076 220.678 86.8636 235.547 81.5731 251.283C78.9859 258.979 83.8598 274.886 102.985 272.353C125.919 269.315 149.24 260.164 154.645 258.127C160.051 256.091 152.749 249.931 140.593 248.253C128.436 246.576 112.933 248.935 112.933 248.935C122.31 238.124 132.521 220.047 129.924 215.103C127.324 210.154 108.357 206.444 101.741 212.618H101.743Z" fill="#DB902E"/>
<path d="M99.0182 273.401C91.2413 273.401 86.7337 270.088 84.2415 267.062C79.951 261.859 79.4704 255.107 80.8385 251.037C83.9547 241.768 86.7725 234.678 89.7084 228.729C93.3634 221.321 97.1268 215.866 101.214 212.05C105.163 208.364 112.9 208.124 118.824 209.127C123.3 209.886 129.074 211.812 130.612 214.741C132.302 217.957 129.366 224.911 126.607 230.176C123.461 236.177 119.136 242.67 114.822 247.9C119.436 247.335 131.145 246.165 140.701 247.484C149.422 248.687 156.83 252.462 157.216 255.903C157.299 256.648 157.113 258.026 154.922 258.851C154.652 258.952 154.338 259.072 153.982 259.207C150.524 260.521 143.329 263.252 134.197 266.043C122.874 269.505 112.409 271.886 103.09 273.12C101.644 273.312 100.288 273.399 99.0202 273.399L99.0182 273.401ZM112.778 210.14C107.541 210.14 104.012 211.56 102.272 213.183C93.1347 221.713 86.8035 238.157 82.3075 251.529C81.0323 255.323 81.697 261.54 85.4372 266.076C88.0883 269.292 93.2665 272.856 102.884 271.584C124.583 268.709 146.294 260.467 153.429 257.758C153.788 257.623 154.102 257.503 154.373 257.4C155.296 257.053 155.734 256.606 155.673 256.075C155.47 254.268 150.222 250.363 140.488 249.02C128.585 247.377 113.204 249.677 113.051 249.7C112.729 249.75 112.411 249.592 112.256 249.309C112.101 249.026 112.136 248.673 112.349 248.427C117.008 243.056 121.826 235.964 125.234 229.459C128.787 222.681 130.285 217.449 129.24 215.463C128.223 213.526 123.833 211.55 118.564 210.656C116.448 210.297 114.518 210.14 112.778 210.14Z" fill="#352001"/>
<path d="M149.193 238.089C88.5185 238.089 70.3059 200.218 69.6606 186.895C69.4881 183.338 70.0985 179.714 71.1489 176.177C71.4435 175.187 71.771 174.203 72.1256 173.23C75.2476 164.659 80.4509 156.875 82.5613 152.176C85.7667 145.034 89.6212 134.802 96.8671 113.133C104.115 91.4648 127.337 81.4635 155.604 81.4635C170.84 81.4635 183.529 85.3939 193.467 91.2653C200.668 95.5192 206.424 100.79 210.658 106.326C220.33 118.972 240.727 153.036 243.068 181.006C243.167 182.174 243.233 183.333 243.266 184.477C244.084 213.034 209.868 238.089 149.193 238.089Z" fill="#DB902E"/>
<path d="M149.193 239.058C134.992 239.058 122.118 236.977 110.927 232.872C101.418 229.385 93.1193 224.45 86.2649 218.204C73.0056 206.123 68.9825 192.869 68.6937 186.941C68.5309 183.577 69.0445 179.863 70.2208 175.9C70.5134 174.914 70.8487 173.903 71.2169 172.897C73.2575 167.297 76.1819 162.016 78.5306 157.772C79.8271 155.43 80.9472 153.41 81.6798 151.779C85.1486 144.048 89.2842 132.762 95.9506 112.825C99.5203 102.154 106.912 93.9036 117.917 88.3092C127.971 83.1972 141.005 80.4949 155.606 80.4949C170.206 80.4949 182.96 83.9314 193.961 90.4323C200.837 94.4925 206.878 99.7866 211.43 105.739C216.242 112.029 223.774 123.677 230.485 137.498C235.95 148.753 242.737 165.422 244.035 180.927C244.134 182.104 244.202 183.292 244.237 184.45C244.531 194.754 240.367 204.645 232.189 213.056C224.54 220.924 213.36 227.421 199.858 231.849C185.27 236.632 168.224 239.059 149.195 239.059L149.193 239.058ZM155.604 82.432C141.306 82.432 128.578 85.0607 118.793 90.0352C108.256 95.3933 101.189 103.268 97.7859 113.439C91.0981 133.44 86.9432 144.778 83.4452 152.571C82.6797 154.276 81.5422 156.331 80.2244 158.71C77.9066 162.894 75.023 168.103 73.0366 173.56C72.682 174.53 72.3603 175.503 72.0773 176.45C70.963 180.202 70.4747 183.699 70.6278 186.844C70.8041 190.502 72.2866 195.323 74.6916 200.073C77.7419 206.099 82.1952 211.872 87.5691 216.767C94.2375 222.844 102.321 227.648 111.594 231.049C122.57 235.075 135.221 237.117 149.193 237.117C168.016 237.117 184.859 234.724 199.254 230.003C212.459 225.674 223.367 219.345 230.797 211.702C238.601 203.674 242.578 194.269 242.297 184.501C242.264 183.377 242.2 182.226 242.103 181.084C240.83 165.875 234.134 149.445 228.741 138.337C222.092 124.646 214.643 113.126 209.889 106.909C205.486 101.152 199.637 96.0286 192.975 92.0944C182.119 85.6786 169.545 82.4262 155.604 82.4262V82.432Z" fill="#352001"/>
<path d="M149.279 237.211C89.3308 237.211 71.3352 199.794 70.6976 186.629C70.5271 183.116 71.1298 179.534 72.1685 176.039C72.4592 175.061 72.7828 174.089 73.1336 173.128C73.1123 174.013 73.089 174.916 73.0638 175.832C72.372 201.098 106.15 230.612 140.275 232.458C174.4 234.302 202.244 223.334 219.511 206.609C229.871 196.573 229.575 185.736 226.615 173.025C224.641 164.556 221.486 155.252 219.511 144.794C215.255 122.257 203.614 108.26 193.023 92.1428C200.139 96.3463 205.825 101.553 210.009 107.024C219.565 119.518 239.718 153.175 242.032 180.81C242.129 181.965 242.194 183.11 242.227 184.241C243.035 212.457 209.228 237.211 149.281 237.211H149.279Z" fill="url(#paint6_linear_1_1211)"/>
<path d="M195.541 108.376C195.608 105.226 196.178 101.991 197.296 98.7948C202.316 84.4679 216.511 76.3998 229.005 80.7739C241.498 85.1459 247.556 100.306 242.539 114.631C238.301 126.732 227.514 134.368 216.736 133.812" fill="#DB902E"/>
<path d="M217.856 134.812C217.466 134.812 217.077 134.802 216.687 134.781C216.152 134.754 215.741 134.298 215.769 133.764C215.796 133.229 216.251 132.818 216.786 132.845C227.396 133.388 237.611 125.769 241.624 114.311C246.458 100.511 240.653 85.8782 228.685 81.6882C222.91 79.6678 216.569 80.3516 210.827 83.6156C205.042 86.9029 200.562 92.4082 198.211 99.1164C197.149 102.146 196.577 105.269 196.509 108.397C196.498 108.932 196.054 109.354 195.519 109.344C194.984 109.333 194.56 108.889 194.572 108.355C194.645 105.021 195.254 101.697 196.382 98.4752C198.885 91.3253 203.676 85.4501 209.868 81.9303C216.104 78.3854 223.013 77.6493 229.324 79.8595C242.303 84.4021 248.64 100.143 243.452 114.95C239.301 126.798 228.89 134.81 217.854 134.81L217.856 134.812Z" fill="#352001"/>
<path d="M178.778 177.349C190.351 177.349 199.732 168.636 199.732 157.888C199.732 147.141 190.351 138.428 178.778 138.428C167.205 138.428 157.823 147.141 157.823 157.888C157.823 168.636 167.205 177.349 178.778 177.349Z" fill="url(#paint7_radial_1_1211)"/>
<path d="M112.846 175.778C123.598 175.778 132.314 167.417 132.314 157.104C132.314 146.791 123.598 138.43 112.846 138.43C102.093 138.43 93.3772 146.791 93.3772 157.104C93.3772 167.417 102.093 175.778 112.846 175.778Z" fill="url(#paint8_radial_1_1211)"/>
<path d="M233.282 111.392C228.848 120.512 219.152 124.109 214.556 122.034C209.959 119.96 203.664 112.047 206.564 102.04C209.058 93.429 217.912 88.8148 225.29 91.397C232.667 93.9792 237.202 103.33 233.282 111.392Z" fill="url(#paint9_radial_1_1211)"/>
<path d="M217.519 123.179C216.321 123.179 215.23 122.978 214.315 122.565C211.625 121.351 208.91 118.559 207.23 115.278C205.742 112.37 204.321 107.686 206.003 101.879C207.269 97.5086 210.265 93.8339 214.222 91.7922C217.809 89.9422 221.912 89.5994 225.48 90.8469C229.321 92.1912 232.474 95.2693 234.132 99.2907C235.813 103.366 235.694 107.752 233.805 111.644C231.735 115.9 228.34 119.375 224.241 121.428C221.943 122.579 219.579 123.177 217.521 123.177L217.519 123.179ZM221.051 91.2711C218.926 91.2711 216.757 91.796 214.757 92.8266C211.081 94.7211 208.298 98.1382 207.122 102.202C205.546 107.644 206.874 112.029 208.267 114.749C210.137 118.404 212.866 120.636 214.796 121.508C216.97 122.49 220.391 122.062 223.72 120.394C227.592 118.455 230.801 115.167 232.76 111.14C234.505 107.551 234.611 103.502 233.059 99.7382C231.528 96.0228 228.625 93.183 225.098 91.9471C223.807 91.4958 222.439 91.273 221.053 91.273L221.051 91.2711Z" fill="#352001"/>
<path d="M129.94 92.4915C129.549 88.3054 124.94 79.6658 122.863 77.3103C126.727 76.888 134.866 75.7993 139.57 79.6581C136.122 72.0549 130.18 62.6657 124.378 59.2118C131.562 59.7639 150.62 60.0099 158.083 76.1132C156.848 71.8147 155.323 62.2492 154.079 59.2118C160.866 64.9883 174.322 73.5891 175.39 88.9097" fill="#DB902E"/>
<path d="M129.938 93.46C129.444 93.46 129.021 93.0842 128.975 92.5825C128.603 88.6095 124.047 80.1191 122.136 77.9515C121.897 77.6803 121.828 77.2987 121.96 76.9616C122.089 76.6246 122.397 76.3882 122.758 76.3495L123.239 76.2972C126.713 75.9098 132.643 75.2511 137.329 77.2154C132.517 67.6305 127.186 62.0129 123.882 60.0467C123.494 59.8162 123.318 59.3513 123.454 58.9213C123.589 58.4932 124.002 58.2142 124.452 58.2471C124.897 58.282 125.388 58.3149 125.919 58.3498C130.085 58.6307 136.382 59.0549 142.689 61.3446C148.211 63.3495 152.592 66.414 155.78 70.4858C155.666 69.9396 155.55 69.3836 155.433 68.8199C154.66 65.091 153.86 61.2342 153.183 59.5799C153.015 59.1673 153.15 58.6907 153.511 58.4292C153.873 58.1677 154.367 58.1871 154.707 58.4757C155.59 59.2273 156.602 60.039 157.672 60.8991C164.731 66.5632 175.4 75.1214 176.357 88.8439C176.394 89.3766 175.991 89.8396 175.458 89.8783C174.925 89.917 174.462 89.5141 174.423 88.9795C173.526 76.1015 163.662 68.1884 156.458 62.41C156.276 62.2628 156.094 62.1175 155.916 61.9741C156.371 63.8163 156.842 66.0828 157.329 68.4286C157.9 71.189 158.493 74.0424 159.011 75.8478C159.15 76.334 158.892 76.8454 158.418 77.0236C157.943 77.1999 157.414 76.9829 157.201 76.5238C150.926 62.9834 136.112 61.0521 127.62 60.4148C132.798 64.9476 137.618 73.0215 140.447 79.261C140.633 79.6716 140.511 80.1559 140.155 80.4291C139.798 80.7041 139.298 80.6944 138.949 80.4097C135.147 77.2909 128.76 77.6667 124.655 78.091C127.014 81.5623 130.543 88.5804 130.901 92.4043C130.951 92.937 130.56 93.4097 130.027 93.46C129.996 93.462 129.965 93.4639 129.936 93.4639L129.938 93.46Z" fill="#352001"/>
<path d="M178.778 172.124C185.674 172.124 191.264 166.536 191.264 159.644C191.264 152.751 185.674 147.163 178.778 147.163C171.882 147.163 166.292 152.751 166.292 159.644C166.292 166.536 171.882 172.124 178.778 172.124Z" fill="url(#paint10_radial_1_1211)"/>
<path d="M178.778 172.901C171.466 172.901 165.516 166.954 165.516 159.645C165.516 152.337 171.466 146.39 178.778 146.39C186.089 146.39 192.039 152.337 192.039 159.645C192.039 166.954 186.089 172.901 178.778 172.901ZM178.778 147.938C172.32 147.938 167.067 153.189 167.067 159.644C167.067 166.098 172.32 171.35 178.778 171.35C185.235 171.35 190.488 166.098 190.488 159.644C190.488 153.189 185.235 147.938 178.778 147.938Z" fill="#352001"/>
<path d="M178.778 165.24C181.642 165.24 183.964 162.919 183.964 160.056C183.964 157.193 181.642 154.872 178.778 154.872C175.914 154.872 173.592 157.193 173.592 160.056C173.592 162.919 175.914 165.24 178.778 165.24Z" fill="#352001"/>
<path d="M114.109 172.537C121.005 172.537 126.595 166.949 126.595 160.056C126.595 153.163 121.005 147.575 114.109 147.575C107.213 147.575 101.623 153.163 101.623 160.056C101.623 166.949 107.213 172.537 114.109 172.537Z" fill="url(#paint11_radial_1_1211)"/>
<path d="M114.109 173.312C110.566 173.312 107.237 171.933 104.731 169.43C102.226 166.927 100.848 163.597 100.848 160.056C100.848 152.747 106.797 146.8 114.109 146.8C121.421 146.8 127.37 152.747 127.37 160.056C127.37 167.365 121.421 173.312 114.109 173.312ZM114.109 148.348C107.652 148.348 102.398 153.6 102.398 160.054C102.398 163.181 103.617 166.121 105.828 168.331C108.039 170.542 110.981 171.76 114.109 171.76C120.566 171.76 125.82 166.509 125.82 160.054C125.82 153.6 120.566 148.348 114.109 148.348Z" fill="#352001"/>
<path d="M117 165.651C119.864 165.651 122.186 163.33 122.186 160.467C122.186 157.604 119.864 155.283 117 155.283C114.136 155.283 111.814 157.604 111.814 160.467C111.814 163.33 114.136 165.651 117 165.651Z" fill="#352001"/>
<path d="M163.52 148.707C162.512 148.707 161.507 148.317 160.747 147.538C159.251 146.008 159.28 143.556 160.811 142.06C164.005 138.942 171.09 133.965 177.518 133.037C186.204 131.782 190.083 134.693 191.95 136.094C192.062 136.179 192.215 136.294 192.281 136.338C194.11 137.409 194.74 139.755 193.686 141.601C192.624 143.459 190.258 144.106 188.397 143.044C187.988 142.81 187.636 142.547 187.295 142.291C186.109 141.402 184.126 139.912 178.626 140.706C174.355 141.324 168.702 145.187 166.227 147.604C165.474 148.34 164.497 148.707 163.52 148.707ZM192.242 136.317C192.242 136.317 192.25 136.323 192.256 136.325C192.252 136.323 192.246 136.319 192.242 136.317Z" fill="#352001"/>
<path d="M126.523 148.509C125.531 148.509 124.543 148.11 123.818 147.323C121.611 144.927 116.593 141.103 112.84 140.501C108.109 139.742 106.47 141.109 105.383 142.016C105.071 142.275 104.749 142.545 104.369 142.785C102.654 143.872 100.383 143.364 99.2936 141.65C98.2161 139.951 98.7045 137.704 100.383 136.605C100.443 136.559 100.573 136.45 100.671 136.369C102.257 135.048 105.97 131.951 114.004 133.243C120.347 134.261 126.733 139.641 129.223 142.341C130.599 143.835 130.504 146.159 129.01 147.535C128.302 148.185 127.409 148.507 126.52 148.507L126.523 148.509ZM100.431 136.576C100.431 136.576 100.42 136.584 100.414 136.588C100.42 136.584 100.425 136.58 100.431 136.576Z" fill="#352001"/>
<path d="M149.278 237.682C89.3306 237.682 71.335 200.263 70.6994 187.1C70.5269 183.584 71.1315 180.005 72.1683 176.51C72.273 176.372 72.3815 176.243 72.4919 176.113C84.7358 161.991 97.2625 177.103 113.303 178.013C124.967 178.678 129.467 170.881 142.732 170.685C155.036 170.503 159.685 177.234 167.774 178.68C186.954 182.104 195.011 172.87 220.92 172.913C223.168 172.917 225.224 173.046 227.098 173.287C234.989 174.296 239.667 177.287 242.031 181.283C242.13 182.438 242.194 183.58 242.225 184.712C243.033 212.928 209.228 237.684 149.276 237.684L149.278 237.682Z" fill="#FFDF9F"/>
<path d="M150.317 178.362C150.317 181.432 144.29 184.477 141.469 184.477C138.647 184.477 132.62 181.432 132.62 178.362C132.62 175.292 136.581 174.029 141.469 174.029C146.356 174.029 150.317 175.292 150.317 178.362Z" fill="url(#paint12_radial_1_1211)"/>
<path d="M141.469 185.252C139.91 185.252 137.544 184.441 135.579 183.232C134.184 182.374 131.845 180.597 131.845 178.364C131.845 175.117 135.352 173.256 141.469 173.256C147.585 173.256 151.092 175.117 151.092 178.364C151.092 181.994 144.556 185.254 141.469 185.254V185.252ZM141.469 174.803C139.575 174.803 133.395 175.061 133.395 178.362C133.395 180.766 138.8 183.703 141.469 183.703C142.744 183.703 144.831 182.966 146.544 181.911C148.422 180.754 149.542 179.427 149.542 178.362C149.542 175.059 143.362 174.803 141.469 174.803Z" fill="#352001"/>
<path d="M149.278 237.69C89.3306 237.69 71.335 200.271 70.6994 187.108C70.5269 183.592 71.1315 180.012 72.1683 176.518C72.273 176.38 72.3815 176.25 72.4919 176.121C71.7962 201.561 105.807 231.276 140.164 233.136C174.524 234.993 202.56 223.95 219.945 207.109C230.377 197.003 230.078 186.093 227.098 173.294C234.989 174.304 239.667 177.295 242.031 181.291C242.13 182.445 242.194 183.588 242.225 184.719C243.033 212.936 209.228 237.692 149.276 237.692L149.278 237.69Z" fill="url(#paint13_radial_1_1211)"/>
<path d="M148.554 210.512C137.502 210.512 128.029 201.27 127.827 194.426C127.705 190.293 136.275 195.662 142.808 195.751C158.501 195.966 167.435 187.323 167.848 191.455C168.524 198.196 164.04 210.512 148.554 210.512Z" fill="url(#paint14_radial_1_1211)"/>
<path d="M138.054 199.019C138.515 201.768 140.901 206.894 142.015 207.568C142.705 207.986 143.879 207.845 144.18 207.337C144.686 208.12 146.775 208.457 147.87 207.672C149.232 206.698 150.718 199.879 150.317 197.394C150.162 196.439 148.476 195.424 143.494 195.345C138.331 195.263 137.756 197.227 138.054 199.019Z" fill="url(#paint15_radial_1_1211)"/>
<path d="M146.259 208.895C145.972 208.895 145.68 208.868 145.387 208.811C145.063 208.749 144.571 208.618 144.141 208.347C144.007 208.41 143.862 208.461 143.703 208.501C142.988 208.682 142.186 208.577 141.612 208.23C140.197 207.374 137.754 201.923 137.288 199.147C137.083 197.921 137.308 196.916 137.959 196.16C138.916 195.046 140.73 194.529 143.503 194.572C148.253 194.647 150.802 195.556 151.079 197.272C151.49 199.819 150.067 207.053 148.317 208.304C147.777 208.691 147.042 208.897 146.255 208.897L146.259 208.895ZM144.18 206.562C144.441 206.562 144.687 206.696 144.831 206.917C144.881 206.996 145.156 207.192 145.678 207.291C146.348 207.417 147.032 207.32 147.42 207.043C148.377 206.359 149.951 199.984 149.554 197.518C149.552 197.504 149.183 196.21 143.484 196.119C141.263 196.085 139.759 196.447 139.139 197.169C138.794 197.57 138.693 198.119 138.823 198.89C139.29 201.679 141.633 206.427 142.42 206.903C142.771 207.114 143.374 207.043 143.531 206.919C143.67 206.702 143.908 206.566 144.168 206.562C144.174 206.562 144.178 206.562 144.184 206.562H144.18Z" fill="#352001"/>
<path d="M143.494 194.829C141.857 197.351 139.014 199.019 135.783 199.019C130.71 199.019 126.595 194.909 126.595 189.835" fill="#FFDF9F"/>
<path d="M135.783 199.794C130.289 199.794 125.82 195.327 125.82 189.835C125.82 189.407 126.167 189.061 126.595 189.061C127.023 189.061 127.37 189.407 127.37 189.835C127.37 194.471 131.143 198.244 135.783 198.244C138.645 198.244 141.285 196.811 142.845 194.407C143.077 194.049 143.558 193.946 143.916 194.178C144.275 194.411 144.378 194.891 144.145 195.25C142.298 198.093 139.172 199.792 135.783 199.792V199.794Z" fill="#352001"/>
<path d="M141.277 188.437C141.277 191.567 143.013 198.363 150.126 199.019C158.455 199.788 164.257 196.005 167.435 189.835" fill="#FFDF9F"/>
<path d="M152.203 199.891C151.501 199.891 150.784 199.858 150.054 199.79C146.726 199.482 144.069 197.847 142.372 195.058C140.992 192.793 140.502 190.153 140.502 188.437C140.502 188.009 140.848 187.662 141.277 187.662C141.705 187.662 142.052 188.009 142.052 188.437C142.052 191.569 143.753 197.654 150.197 198.248C154.05 198.603 157.458 197.966 160.332 196.354C163.014 194.849 165.171 192.538 166.745 189.483C166.941 189.103 167.408 188.952 167.79 189.148C168.169 189.343 168.321 189.81 168.125 190.192C164.875 196.501 159.27 199.893 152.203 199.893V199.891Z" fill="#352001"/>
<path d="M164.671 187.681C167.282 186.484 170.842 187.927 171.026 190.903L164.671 187.681Z" fill="#FFDF9F"/>
<path d="M171.026 191.678C170.619 191.678 170.278 191.362 170.253 190.951C170.193 189.979 169.663 189.146 168.762 188.605C167.642 187.935 166.164 187.848 164.995 188.384C164.605 188.563 164.146 188.392 163.968 188.003C163.79 187.614 163.96 187.154 164.35 186.976C165.995 186.223 167.991 186.337 169.559 187.275C170.892 188.073 171.71 189.376 171.801 190.854C171.828 191.282 171.503 191.649 171.074 191.676C171.059 191.676 171.041 191.676 171.026 191.676V191.678Z" fill="#352001"/>
<path d="M143.134 195.343C143.134 197.487 143.134 203.562 144.178 207.337L143.134 195.343Z" fill="url(#paint16_radial_1_1211)"/>
<path d="M144.178 208.112C143.839 208.112 143.527 207.887 143.432 207.545C142.358 203.668 142.358 197.621 142.358 195.343C142.358 194.915 142.705 194.568 143.133 194.568C143.562 194.568 143.908 194.915 143.908 195.343C143.908 197.349 143.908 203.457 144.926 207.13C145.04 207.543 144.798 207.969 144.385 208.083C144.315 208.102 144.246 208.112 144.178 208.112Z" fill="#352001"/>
<path d="M215.325 257.584C207.275 251.839 195.197 277.193 175.721 279.098C156.245 281.002 129.263 247.17 118.211 248.255C122.816 241.436 134.093 235.596 145.994 235.968C169.018 236.686 172.406 244.7 176.09 243.517C179.774 242.333 190 218.838 199.728 212.341C209.982 205.493 226.743 210.051 229.322 218.154" fill="#DB902E"/>
<path d="M174.094 279.95C163.053 279.95 150.282 270.018 138.949 261.203C130.608 254.717 122.731 248.594 118.291 249.024C117.993 249.055 117.704 248.908 117.549 248.65C117.396 248.392 117.403 248.069 117.572 247.819C122.016 241.241 133.213 234.788 146.021 235.191C161.365 235.669 168.02 239.309 171.999 241.485C173.968 242.562 174.954 243.067 175.857 242.777C177.121 242.37 180.088 237.514 182.958 232.818C187.651 225.135 193.494 215.572 199.302 211.694C204.91 207.947 213.218 207.167 220.468 209.706C225.464 211.456 228.962 214.448 230.065 217.916C230.195 218.325 229.97 218.758 229.561 218.888C229.152 219.018 228.718 218.793 228.588 218.385C227.648 215.429 224.42 212.73 219.957 211.167C213.151 208.784 205.381 209.497 200.164 212.982C194.639 216.672 188.895 226.073 184.281 233.626C180.248 240.226 178.064 243.697 176.332 244.253C174.756 244.758 173.363 243.997 171.256 242.845C167.402 240.737 160.949 237.208 145.974 236.741C140.455 236.566 134.827 237.736 129.698 240.117C125.514 242.058 122.025 244.656 119.721 247.523C124.742 248.189 131.827 253.698 139.903 259.98C151.596 269.075 164.852 279.384 175.65 278.327C185.595 277.354 193.694 269.989 200.201 264.07C203.294 261.257 205.967 258.828 208.453 257.365C211.368 255.651 213.765 255.517 215.778 256.953C216.127 257.201 216.207 257.685 215.959 258.033C215.711 258.382 215.226 258.464 214.877 258.214C211.713 255.957 207.635 259.403 201.244 265.216C194.568 271.289 186.256 278.846 175.801 279.869C175.239 279.923 174.669 279.95 174.095 279.95H174.094Z" fill="#352001"/>
<path d="M174.065 243.375C175.999 245.006 177.471 247.244 177.842 249.454C178.212 251.664 179.592 251.848 180.328 251.755C181.064 251.662 181.5 246.486 180.328 243.375C182.169 246.417 181.433 251.848 182.723 252.491C184.014 253.135 185.394 253.596 185.487 249.086C185.58 244.576 184.382 241.444 183.553 240.249C185.671 241.721 188.066 244.429 188.894 246.574C189.723 248.718 191.105 251.019 192.855 250.376C194.605 249.733 193.223 245.221 191.75 242.366C190.277 239.513 187.605 235.278 184.291 233.897C180.975 232.516 169.53 231.635 162.173 237.69C166.569 239.701 172.712 242.234 174.067 243.375H174.065Z" fill="#ED94A9"/>
<path d="M183.985 253.673C183.351 253.673 182.754 253.375 182.376 253.185C181.853 252.923 181.56 252.389 181.367 251.645C181.318 251.769 181.268 251.875 181.214 251.964C180.964 252.377 180.646 252.497 180.423 252.526C179.07 252.697 177.479 252.011 177.076 249.584C176.754 247.649 175.44 245.551 173.565 243.97C172.642 243.193 168.84 241.51 165.485 240.024C164.255 239.48 162.983 238.916 161.848 238.397C161.606 238.287 161.437 238.058 161.402 237.793C161.367 237.527 161.472 237.264 161.677 237.093C169.299 230.817 181.153 231.753 184.586 233.182C186.498 233.978 189.413 236.158 192.436 242.012C193.473 244.018 195.015 247.951 194.233 249.965C194.017 250.521 193.632 250.915 193.12 251.102C192.039 251.502 189.956 251.478 188.169 246.852C187.731 245.719 186.746 244.315 185.572 243.056C186.012 244.673 186.308 246.719 186.26 249.101C186.21 251.55 185.789 252.885 184.894 253.425C184.595 253.605 184.287 253.673 183.985 253.673ZM183.088 251.808C183.308 251.918 183.905 252.211 184.091 252.098C184.186 252.042 184.657 251.627 184.71 249.07C184.801 244.633 183.622 241.715 182.913 240.69C182.7 240.382 182.737 239.966 183.002 239.701C183.268 239.435 183.684 239.398 183.993 239.613C186.363 241.262 188.779 244.135 189.614 246.295C189.967 247.207 191.225 250.151 192.583 249.648C192.624 249.632 192.709 249.601 192.787 249.404C193.194 248.356 192.419 245.357 191.058 242.721C189.789 240.262 187.182 235.941 183.989 234.61C182.427 233.959 178.888 233.42 174.811 233.775C171.7 234.044 167.359 234.924 163.673 237.519C164.47 237.876 165.301 238.246 166.113 238.604C169.898 240.28 173.473 241.862 174.565 242.783C176.714 244.594 178.223 247.04 178.605 249.326C178.785 250.409 179.241 250.969 179.962 250.998C180.314 250.02 180.562 246.196 179.601 243.648C179.46 243.275 179.628 242.852 179.987 242.678C180.347 242.504 180.781 242.631 180.989 242.974C182.045 244.72 182.316 247.108 182.533 249.028C182.646 250.029 182.816 251.536 183.086 251.81L183.088 251.808Z" fill="#352001"/>
<path d="M157.823 20.3397C162.375 20.3397 166.865 21.5427 170.807 23.8168L282.313 88.1678C286.255 90.442 289.542 93.7293 291.819 97.6694C294.094 101.609 295.297 106.098 295.297 110.648V239.35C295.297 243.9 294.094 248.389 291.819 252.329C289.542 256.269 286.255 259.554 282.313 261.83L247.394 281.982L201.453 308.495L170.807 326.181C166.865 328.455 162.375 329.658 157.823 329.658C153.271 329.658 148.78 328.455 144.839 326.181L83.3057 290.67L82.2282 290.048L33.3324 261.83C29.3906 259.556 26.1039 256.269 23.8268 252.329C21.5517 248.389 20.3483 243.9 20.3483 239.35V110.648C20.3483 106.098 21.5517 101.609 23.8268 97.6694C26.1039 93.7293 29.3906 90.4439 33.3324 88.1678L144.839 23.8168C148.78 21.5427 153.271 20.3397 157.823 20.3397ZM157.823 0.968567C149.994 0.968567 142.164 2.99285 135.149 7.04142L23.6427 71.3924C9.61214 79.4896 0.968994 94.4538 0.968994 110.648V239.35C0.968994 255.544 9.61214 270.509 23.6427 278.606L72.5385 306.824L73.616 307.445L135.149 342.957C142.164 347.005 149.994 349.03 157.823 349.03C165.652 349.03 173.481 347.005 180.497 342.957L211.143 325.271L257.083 298.758L292.003 278.606C306.033 270.509 314.677 255.544 314.677 239.35V110.648C314.677 94.4538 306.033 79.4896 292.003 71.3924L180.497 7.04142C173.481 2.99285 165.652 0.968567 157.823 0.968567Z" fill="#1B3649"/>
<path d="M157.823 349.998C149.705 349.998 141.695 347.854 134.665 343.795L23.1582 279.444C16.1274 275.386 10.2652 269.526 6.20524 262.499C2.14528 255.471 0 247.465 0 239.35V110.648C0 102.532 2.14528 94.5274 6.20524 87.4995C10.2652 80.4717 16.1274 74.6119 23.1582 70.5536L134.665 6.20264C141.695 2.14439 149.705 0 157.823 0C165.941 0 173.95 2.14439 180.981 6.20264L292.487 70.5536C299.518 74.6119 305.38 80.4717 309.44 87.4995C313.5 94.5274 315.646 102.533 315.646 110.648V239.35C315.646 247.467 313.5 255.471 309.44 262.499C305.38 269.526 299.518 275.386 292.487 279.444L257.568 299.596L211.627 326.11L180.981 343.795C173.95 347.854 165.941 349.998 157.823 349.998ZM157.823 1.93712C150.044 1.93712 142.37 3.9924 135.633 7.88019L24.1272 72.2312C10.4396 80.1307 1.93793 94.8509 1.93793 110.648V239.35C1.93793 255.147 10.4396 269.867 24.1272 277.767L135.633 342.118C142.37 346.006 150.044 348.061 157.823 348.061C165.602 348.061 173.276 346.006 180.012 342.118L210.658 324.432L256.599 297.919L291.518 277.767C305.206 269.867 313.708 255.147 313.708 239.35V110.648C313.708 94.8509 305.206 80.1307 291.518 72.2312L180.012 7.88019C173.276 3.9924 165.602 1.93712 157.823 1.93712Z" fill="url(#paint17_linear_1_1211)"/>
<path d="M157.823 330.24C153.17 330.24 148.579 329.009 144.548 326.685L33.0415 262.334C29.0106 260.007 25.6503 256.648 23.3228 252.619C20.9954 248.59 19.7667 244.003 19.7667 239.35V110.648C19.7667 105.995 20.9973 101.408 23.3228 97.3788C25.6503 93.3496 29.0106 89.9906 33.0415 87.6642L144.548 23.3132C148.579 20.9867 153.17 19.7586 157.823 19.7586C162.476 19.7586 167.067 20.9886 171.097 23.3132L282.604 87.6642C286.635 89.9906 289.995 93.3496 292.322 97.3788C294.65 101.408 295.879 105.995 295.879 110.648V239.35C295.879 244.003 294.648 248.59 292.322 252.619C289.995 256.648 286.635 260.007 282.606 262.334L247.686 282.486L201.746 308.999L171.099 326.685C167.068 329.011 162.478 330.24 157.825 330.24H157.823ZM157.823 20.9208C153.373 20.9208 148.984 22.0967 145.129 24.3205L33.6229 88.6715C29.7684 90.8953 26.5553 94.107 24.3305 97.9599C22.1058 101.813 20.9295 106.2 20.9295 110.648V239.35C20.9295 243.798 22.1058 248.185 24.3305 252.038C26.5553 255.891 29.7684 259.103 33.6229 261.327L145.129 325.678C148.984 327.901 153.373 329.077 157.823 329.077C162.272 329.077 166.662 327.901 170.516 325.678L201.162 307.992L247.103 281.478L282.022 261.327C285.877 259.103 289.09 255.891 291.315 252.038C293.539 248.185 294.716 243.798 294.716 239.35V110.648C294.716 106.2 293.539 101.813 291.315 97.9599C289.09 94.107 285.877 90.8953 282.022 88.6715L170.516 24.3205C166.662 22.0967 162.272 20.9208 157.823 20.9208Z" fill="url(#paint18_linear_1_1211)"/>
<defs>
<radialGradient id="paint0_radial_1_1211" cx="0" cy="0" r="1" gradientUnits="userSpaceOnUse" gradientTransform="translate(158.224 185.597) scale(165.702 165.633)">
<stop offset="0.63" stop-color="#1C2D42"/>
<stop offset="0.75" stop-color="#19293D"/>
<stop offset="0.88" stop-color="#12202F"/>
<stop offset="1" stop-color="#09141E"/>
</radialGradient>
<linearGradient id="paint1_linear_1_1211" x1="82.3579" y1="92.4275" x2="95.1529" y2="121.49" gradientUnits="userSpaceOnUse">
<stop stop-color="#DB902E"/>
<stop offset="0.06" stop-color="#D48A2C"/>
<stop offset="0.34" stop-color="#B67323"/>
<stop offset="0.59" stop-color="#A4651E"/>
<stop offset="0.76" stop-color="#9E601D"/>
</linearGradient>
<radialGradient id="paint2_radial_1_1211" cx="0" cy="0" r="1" gradientUnits="userSpaceOnUse" gradientTransform="translate(89.6233 100.054) scale(15.2263 15.2199)">
<stop stop-color="#E080A0"/>
<stop offset="0.35" stop-color="#DC7C9E"/>
<stop offset="0.67" stop-color="#D2719B"/>
<stop offset="0.93" stop-color="#C46296"/>
</radialGradient>
<linearGradient id="paint3_linear_1_1211" x1="151.395" y1="263.636" x2="204.339" y2="273.087" gradientUnits="userSpaceOnUse">
<stop stop-color="#DB902E"/>
<stop offset="0.06" stop-color="#D48A2C"/>
<stop offset="0.34" stop-color="#B67323"/>
<stop offset="0.59" stop-color="#A4651E"/>
<stop offset="0.76" stop-color="#9E601D"/>
</linearGradient>
<radialGradient id="paint4_radial_1_1211" cx="0" cy="0" r="1" gradientUnits="userSpaceOnUse" gradientTransform="translate(140.99 302.575) scale(71.1432 54.7574)">
<stop offset="0.36" stop-color="#FFDF9F"/>
<stop offset="0.92" stop-color="#E4C080"/>
<stop offset="1" stop-color="#E0BC7C"/>
</radialGradient>
<radialGradient id="paint5_radial_1_1211" cx="0" cy="0" r="1" gradientUnits="userSpaceOnUse" gradientTransform="translate(138.843 296.071) scale(38.836 38.8198)">
<stop stop-color="#FFDF9F"/>
<stop offset="0.16" stop-color="#F5D494"/>
<stop offset="0.51" stop-color="#E5C282"/>
<stop offset="0.76" stop-color="#E0BC7C"/>
</radialGradient>
<linearGradient id="paint6_linear_1_1211" x1="159.864" y1="163.684" x2="233.801" y2="176.883" gradientUnits="userSpaceOnUse">
<stop stop-color="#DB902E"/>
<stop offset="0.06" stop-color="#D48A2C"/>
<stop offset="0.34" stop-color="#B67323"/>
<stop offset="0.59" stop-color="#A4651E"/>
<stop offset="0.76" stop-color="#9E601D"/>
</linearGradient>
<radialGradient id="paint7_radial_1_1211" cx="0" cy="0" r="1" gradientUnits="userSpaceOnUse" gradientTransform="translate(178.671 153.232) scale(23.6039 23.5941)">
<stop offset="0.35" stop-color="#AF6A20"/>
<stop offset="0.55" stop-color="#B26D21"/>
<stop offset="0.74" stop-color="#BD7624"/>
<stop offset="0.92" stop-color="#D0862A"/>
<stop offset="1" stop-color="#DB902E"/>
</radialGradient>
<radialGradient id="paint8_radial_1_1211" cx="0" cy="0" r="1" gradientUnits="userSpaceOnUse" gradientTransform="translate(111.958 152.705) rotate(180) scale(21.9517 22.6503)">
<stop offset="0.35" stop-color="#AF6A20"/>
<stop offset="0.55" stop-color="#B26D21"/>
<stop offset="0.74" stop-color="#BD7624"/>
<stop offset="0.92" stop-color="#D0862A"/>
<stop offset="1" stop-color="#DB902E"/>
</radialGradient>
<radialGradient id="paint9_radial_1_1211" cx="0" cy="0" r="1" gradientUnits="userSpaceOnUse" gradientTransform="translate(221.494 99.7709) rotate(102.345) scale(21.0782 15.8146)">
<stop stop-color="#E27FAF"/>
<stop offset="0.37" stop-color="#DE7BAB"/>
<stop offset="0.72" stop-color="#D370A2"/>
<stop offset="1" stop-color="#C46296"/>
</radialGradient>
<radialGradient id="paint10_radial_1_1211" cx="0" cy="0" r="1" gradientUnits="userSpaceOnUse" gradientTransform="translate(175.014 155.085) rotate(90) scale(16.6476 16.6545)">
<stop stop-color="#FFFCF5"/>
<stop offset="0.19" stop-color="#FFFAF0"/>
<stop offset="0.39" stop-color="#FFF7E3"/>
<stop offset="0.6" stop-color="#FFF2CD"/>
<stop offset="0.81" stop-color="#FFEBAE"/>
<stop offset="0.93" stop-color="#FFE79C"/>
</radialGradient>
<radialGradient id="paint11_radial_1_1211" cx="0" cy="0" r="1" gradientUnits="userSpaceOnUse" gradientTransform="translate(110.346 155.496) rotate(90) scale(16.6476 16.6545)">
<stop stop-color="#FFFCF5"/>
<stop offset="0.19" stop-color="#FFFAF0"/>
<stop offset="0.39" stop-color="#FFF7E3"/>
<stop offset="0.6" stop-color="#FFF2CD"/>
<stop offset="0.81" stop-color="#FFEBAE"/>
<stop offset="0.93" stop-color="#FFE79C"/>
</radialGradient>
<radialGradient id="paint12_radial_1_1211" cx="0" cy="0" r="1" gradientUnits="userSpaceOnUse" gradientTransform="translate(141.623 177.421) rotate(2.6489) scale(8.1916 4.25786)">
<stop stop-color="#E27FAF"/>
<stop offset="0.55" stop-color="#D06EA0"/>
<stop offset="0.89" stop-color="#C46296"/>
</radialGradient>
<radialGradient id="paint13_radial_1_1211" cx="0" cy="0" r="1" gradientUnits="userSpaceOnUse" gradientTransform="translate(156.455 205.491) scale(64.7946 64.7675)">
<stop stop-color="#FFDF9F"/>
<stop offset="0.16" stop-color="#F5D494"/>
<stop offset="0.51" stop-color="#E5C282"/>
<stop offset="0.76" stop-color="#E0BC7C"/>
</radialGradient>
<radialGradient id="paint14_radial_1_1211" cx="0" cy="0" r="1" gradientUnits="userSpaceOnUse" gradientTransform="translate(147.869 196.928) scale(19.6448 12.371)">
<stop offset="0.01" stop-color="#B79763"/>
<stop offset="0.92" stop-color="#E0BC7C"/>
</radialGradient>
<radialGradient id="paint15_radial_1_1211" cx="0" cy="0" r="1" gradientUnits="userSpaceOnUse" gradientTransform="translate(144.228 200.812) rotate(-0.0399833) scale(6.96103 7.16686)">
<stop offset="0.13" stop-color="white"/>
<stop offset="0.45" stop-color="#F2F2F2"/>
<stop offset="0.92" stop-color="#D8D8D8"/>
</radialGradient>
<radialGradient id="paint16_radial_1_1211" cx="0" cy="0" r="1" gradientUnits="userSpaceOnUse" gradientTransform="translate(143.648 200.453) rotate(-0.0399836) scale(4.89516 5.03995)">
<stop offset="0.13" stop-color="white"/>
<stop offset="0.45" stop-color="#F2F2F2"/>
<stop offset="0.92" stop-color="#D8D8D8"/>
</radialGradient>
<linearGradient id="paint17_linear_1_1211" x1="157.823" y1="3.19043" x2="157.823" y2="342.579" gradientUnits="userSpaceOnUse">
<stop stop-color="#3B5E72"/>
<stop offset="1" stop-color="#071623"/>
</linearGradient>
<linearGradient id="paint18_linear_1_1211" x1="157.823" y1="330.24" x2="157.823" y2="19.7586" gradientUnits="userSpaceOnUse">
<stop stop-color="#3B5E72"/>
<stop offset="1" stop-color="#071623"/>
</linearGradient>
</defs>
</svg>
